G04 #@! TF.GenerationSoftware,KiCad,Pcbnew,(5.1.0-0)*
G04 #@! TF.CreationDate,2019-06-09T17:55:59+01:00*
G04 #@! TF.ProjectId,PowerSupply,506f7765-7253-4757-9070-6c792e6b6963,0.1*
G04 #@! TF.SameCoordinates,Original*
G04 #@! TF.FileFunction,Legend,Top*
G04 #@! TF.FilePolarity,Positive*
%FSLAX46Y46*%
G04 Gerber Fmt 4.6, Leading zero omitted, Abs format (unit mm)*
G04 Created by KiCad (PCBNEW (5.1.0-0)) date 2019-06-09 17:55:59*
%MOMM*%
%LPD*%
G04 APERTURE LIST*
%ADD10C,0.160000*%
%ADD11C,0.120000*%
%ADD12C,0.150000*%
G04 APERTURE END LIST*
D10*
X75142857Y-122547619D02*
X75190476Y-122500000D01*
X75285714Y-122452380D01*
X75523809Y-122452380D01*
X75619047Y-122500000D01*
X75666666Y-122547619D01*
X75714285Y-122642857D01*
X75714285Y-122738095D01*
X75666666Y-122880952D01*
X75095238Y-123452380D01*
X75714285Y-123452380D01*
X76333333Y-122452380D02*
X76428571Y-122452380D01*
X76523809Y-122500000D01*
X76571428Y-122547619D01*
X76619047Y-122642857D01*
X76666666Y-122833333D01*
X76666666Y-123071428D01*
X76619047Y-123261904D01*
X76571428Y-123357142D01*
X76523809Y-123404761D01*
X76428571Y-123452380D01*
X76333333Y-123452380D01*
X76238095Y-123404761D01*
X76190476Y-123357142D01*
X76142857Y-123261904D01*
X76095238Y-123071428D01*
X76095238Y-122833333D01*
X76142857Y-122642857D01*
X76190476Y-122547619D01*
X76238095Y-122500000D01*
X76333333Y-122452380D01*
X77619047Y-123452380D02*
X77047619Y-123452380D01*
X77333333Y-123452380D02*
X77333333Y-122452380D01*
X77238095Y-122595238D01*
X77142857Y-122690476D01*
X77047619Y-122738095D01*
X78095238Y-123452380D02*
X78285714Y-123452380D01*
X78380952Y-123404761D01*
X78428571Y-123357142D01*
X78523809Y-123214285D01*
X78571428Y-123023809D01*
X78571428Y-122642857D01*
X78523809Y-122547619D01*
X78476190Y-122500000D01*
X78380952Y-122452380D01*
X78190476Y-122452380D01*
X78095238Y-122500000D01*
X78047619Y-122547619D01*
X78000000Y-122642857D01*
X78000000Y-122880952D01*
X78047619Y-122976190D01*
X78095238Y-123023809D01*
X78190476Y-123071428D01*
X78380952Y-123071428D01*
X78476190Y-123023809D01*
X78523809Y-122976190D01*
X78571428Y-122880952D01*
X79000000Y-123071428D02*
X79761904Y-123071428D01*
X80428571Y-122452380D02*
X80523809Y-122452380D01*
X80619047Y-122500000D01*
X80666666Y-122547619D01*
X80714285Y-122642857D01*
X80761904Y-122833333D01*
X80761904Y-123071428D01*
X80714285Y-123261904D01*
X80666666Y-123357142D01*
X80619047Y-123404761D01*
X80523809Y-123452380D01*
X80428571Y-123452380D01*
X80333333Y-123404761D01*
X80285714Y-123357142D01*
X80238095Y-123261904D01*
X80190476Y-123071428D01*
X80190476Y-122833333D01*
X80238095Y-122642857D01*
X80285714Y-122547619D01*
X80333333Y-122500000D01*
X80428571Y-122452380D01*
X81619047Y-122452380D02*
X81428571Y-122452380D01*
X81333333Y-122500000D01*
X81285714Y-122547619D01*
X81190476Y-122690476D01*
X81142857Y-122880952D01*
X81142857Y-123261904D01*
X81190476Y-123357142D01*
X81238095Y-123404761D01*
X81333333Y-123452380D01*
X81523809Y-123452380D01*
X81619047Y-123404761D01*
X81666666Y-123357142D01*
X81714285Y-123261904D01*
X81714285Y-123023809D01*
X81666666Y-122928571D01*
X81619047Y-122880952D01*
X81523809Y-122833333D01*
X81333333Y-122833333D01*
X81238095Y-122880952D01*
X81190476Y-122928571D01*
X81142857Y-123023809D01*
X82142857Y-123071428D02*
X82904761Y-123071428D01*
X83571428Y-122452380D02*
X83666666Y-122452380D01*
X83761904Y-122500000D01*
X83809523Y-122547619D01*
X83857142Y-122642857D01*
X83904761Y-122833333D01*
X83904761Y-123071428D01*
X83857142Y-123261904D01*
X83809523Y-123357142D01*
X83761904Y-123404761D01*
X83666666Y-123452380D01*
X83571428Y-123452380D01*
X83476190Y-123404761D01*
X83428571Y-123357142D01*
X83380952Y-123261904D01*
X83333333Y-123071428D01*
X83333333Y-122833333D01*
X83380952Y-122642857D01*
X83428571Y-122547619D01*
X83476190Y-122500000D01*
X83571428Y-122452380D01*
X84476190Y-122880952D02*
X84380952Y-122833333D01*
X84333333Y-122785714D01*
X84285714Y-122690476D01*
X84285714Y-122642857D01*
X84333333Y-122547619D01*
X84380952Y-122500000D01*
X84476190Y-122452380D01*
X84666666Y-122452380D01*
X84761904Y-122500000D01*
X84809523Y-122547619D01*
X84857142Y-122642857D01*
X84857142Y-122690476D01*
X84809523Y-122785714D01*
X84761904Y-122833333D01*
X84666666Y-122880952D01*
X84476190Y-122880952D01*
X84380952Y-122928571D01*
X84333333Y-122976190D01*
X84285714Y-123071428D01*
X84285714Y-123261904D01*
X84333333Y-123357142D01*
X84380952Y-123404761D01*
X84476190Y-123452380D01*
X84666666Y-123452380D01*
X84761904Y-123404761D01*
X84809523Y-123357142D01*
X84857142Y-123261904D01*
X84857142Y-123071428D01*
X84809523Y-122976190D01*
X84761904Y-122928571D01*
X84666666Y-122880952D01*
D11*
X132750000Y-78000000D02*
G75*
G03X132750000Y-78000000I-500000J0D01*
G01*
D10*
X150857142Y-90059523D02*
X150904761Y-90107142D01*
X150952380Y-90250000D01*
X150952380Y-90345238D01*
X150904761Y-90488095D01*
X150809523Y-90583333D01*
X150714285Y-90630952D01*
X150523809Y-90678571D01*
X150380952Y-90678571D01*
X150190476Y-90630952D01*
X150095238Y-90583333D01*
X150000000Y-90488095D01*
X149952380Y-90345238D01*
X149952380Y-90250000D01*
X150000000Y-90107142D01*
X150047619Y-90059523D01*
X150952380Y-89488095D02*
X150904761Y-89583333D01*
X150857142Y-89630952D01*
X150761904Y-89678571D01*
X150476190Y-89678571D01*
X150380952Y-89630952D01*
X150333333Y-89583333D01*
X150285714Y-89488095D01*
X150285714Y-89345238D01*
X150333333Y-89250000D01*
X150380952Y-89202380D01*
X150476190Y-89154761D01*
X150761904Y-89154761D01*
X150857142Y-89202380D01*
X150904761Y-89250000D01*
X150952380Y-89345238D01*
X150952380Y-89488095D01*
X150285714Y-88726190D02*
X150952380Y-88726190D01*
X150380952Y-88726190D02*
X150333333Y-88678571D01*
X150285714Y-88583333D01*
X150285714Y-88440476D01*
X150333333Y-88345238D01*
X150428571Y-88297619D01*
X150952380Y-88297619D01*
X150285714Y-87964285D02*
X150285714Y-87583333D01*
X149952380Y-87821428D02*
X150809523Y-87821428D01*
X150904761Y-87773809D01*
X150952380Y-87678571D01*
X150952380Y-87583333D01*
X150952380Y-87250000D02*
X150285714Y-87250000D01*
X150476190Y-87250000D02*
X150380952Y-87202380D01*
X150333333Y-87154761D01*
X150285714Y-87059523D01*
X150285714Y-86964285D01*
X150952380Y-86488095D02*
X150904761Y-86583333D01*
X150857142Y-86630952D01*
X150761904Y-86678571D01*
X150476190Y-86678571D01*
X150380952Y-86630952D01*
X150333333Y-86583333D01*
X150285714Y-86488095D01*
X150285714Y-86345238D01*
X150333333Y-86250000D01*
X150380952Y-86202380D01*
X150476190Y-86154761D01*
X150761904Y-86154761D01*
X150857142Y-86202380D01*
X150904761Y-86250000D01*
X150952380Y-86345238D01*
X150952380Y-86488095D01*
X150952380Y-85583333D02*
X150904761Y-85678571D01*
X150809523Y-85726190D01*
X149952380Y-85726190D01*
X150904761Y-85250000D02*
X150952380Y-85154761D01*
X150952380Y-84964285D01*
X150904761Y-84869047D01*
X150809523Y-84821428D01*
X150761904Y-84821428D01*
X150666666Y-84869047D01*
X150619047Y-84964285D01*
X150619047Y-85107142D01*
X150571428Y-85202380D01*
X150476190Y-85250000D01*
X150428571Y-85250000D01*
X150333333Y-85202380D01*
X150285714Y-85107142D01*
X150285714Y-84964285D01*
X150333333Y-84869047D01*
X158202380Y-87071428D02*
X159202380Y-86738095D01*
X158202380Y-86404761D01*
X158821428Y-86071428D02*
X158821428Y-85309523D01*
X159202380Y-85690476D02*
X158440476Y-85690476D01*
X158821428Y-84833333D02*
X158821428Y-84071428D01*
X159202380Y-94619047D02*
X158202380Y-94619047D01*
X158821428Y-94142857D02*
X158821428Y-93380952D01*
X159202380Y-92119047D02*
X158202380Y-92119047D01*
X158821428Y-91642857D02*
X158821428Y-90880952D01*
X159202380Y-91261904D02*
X158440476Y-91261904D01*
X159154761Y-97357142D02*
X159202380Y-97214285D01*
X159202380Y-96976190D01*
X159154761Y-96880952D01*
X159107142Y-96833333D01*
X159011904Y-96785714D01*
X158916666Y-96785714D01*
X158821428Y-96833333D01*
X158773809Y-96880952D01*
X158726190Y-96976190D01*
X158678571Y-97166666D01*
X158630952Y-97261904D01*
X158583333Y-97309523D01*
X158488095Y-97357142D01*
X158392857Y-97357142D01*
X158297619Y-97309523D01*
X158250000Y-97261904D01*
X158202380Y-97166666D01*
X158202380Y-96928571D01*
X158250000Y-96785714D01*
X158202380Y-96452380D02*
X159202380Y-96214285D01*
X158488095Y-96023809D01*
X159202380Y-95833333D01*
X158202380Y-95595238D01*
X158250000Y-100011904D02*
X158202380Y-100107142D01*
X158202380Y-100250000D01*
X158250000Y-100392857D01*
X158345238Y-100488095D01*
X158440476Y-100535714D01*
X158630952Y-100583333D01*
X158773809Y-100583333D01*
X158964285Y-100535714D01*
X159059523Y-100488095D01*
X159154761Y-100392857D01*
X159202380Y-100250000D01*
X159202380Y-100154761D01*
X159154761Y-100011904D01*
X159107142Y-99964285D01*
X158773809Y-99964285D01*
X158773809Y-100154761D01*
X159202380Y-99535714D02*
X158202380Y-99535714D01*
X159202380Y-98964285D01*
X158202380Y-98964285D01*
X159202380Y-98488095D02*
X158202380Y-98488095D01*
X158202380Y-98250000D01*
X158250000Y-98107142D01*
X158345238Y-98011904D01*
X158440476Y-97964285D01*
X158630952Y-97916666D01*
X158773809Y-97916666D01*
X158964285Y-97964285D01*
X159059523Y-98011904D01*
X159154761Y-98107142D01*
X159202380Y-98250000D01*
X159202380Y-98488095D01*
X158250000Y-89761904D02*
X158202380Y-89857142D01*
X158202380Y-90000000D01*
X158250000Y-90142857D01*
X158345238Y-90238095D01*
X158440476Y-90285714D01*
X158630952Y-90333333D01*
X158773809Y-90333333D01*
X158964285Y-90285714D01*
X159059523Y-90238095D01*
X159154761Y-90142857D01*
X159202380Y-90000000D01*
X159202380Y-89904761D01*
X159154761Y-89761904D01*
X159107142Y-89714285D01*
X158773809Y-89714285D01*
X158773809Y-89904761D01*
X159202380Y-89285714D02*
X158202380Y-89285714D01*
X159202380Y-88714285D01*
X158202380Y-88714285D01*
X159202380Y-88238095D02*
X158202380Y-88238095D01*
X158202380Y-88000000D01*
X158250000Y-87857142D01*
X158345238Y-87761904D01*
X158440476Y-87714285D01*
X158630952Y-87666666D01*
X158773809Y-87666666D01*
X158964285Y-87714285D01*
X159059523Y-87761904D01*
X159154761Y-87857142D01*
X159202380Y-88000000D01*
X159202380Y-88238095D01*
X149199238Y-63462380D02*
X149770666Y-63462380D01*
X149484952Y-64462380D02*
X149484952Y-63462380D01*
X150104000Y-64462380D02*
X150104000Y-63462380D01*
X150532571Y-64462380D02*
X150532571Y-63938571D01*
X150484952Y-63843333D01*
X150389714Y-63795714D01*
X150246857Y-63795714D01*
X150151619Y-63843333D01*
X150104000Y-63890952D01*
X151389714Y-64414761D02*
X151294476Y-64462380D01*
X151104000Y-64462380D01*
X151008761Y-64414761D01*
X150961142Y-64319523D01*
X150961142Y-63938571D01*
X151008761Y-63843333D01*
X151104000Y-63795714D01*
X151294476Y-63795714D01*
X151389714Y-63843333D01*
X151437333Y-63938571D01*
X151437333Y-64033809D01*
X150961142Y-64129047D01*
X151865904Y-64462380D02*
X151865904Y-63795714D01*
X151865904Y-63986190D02*
X151913523Y-63890952D01*
X151961142Y-63843333D01*
X152056380Y-63795714D01*
X152151619Y-63795714D01*
X152484952Y-64462380D02*
X152484952Y-63795714D01*
X152484952Y-63890952D02*
X152532571Y-63843333D01*
X152627809Y-63795714D01*
X152770666Y-63795714D01*
X152865904Y-63843333D01*
X152913523Y-63938571D01*
X152913523Y-64462380D01*
X152913523Y-63938571D02*
X152961142Y-63843333D01*
X153056380Y-63795714D01*
X153199238Y-63795714D01*
X153294476Y-63843333D01*
X153342095Y-63938571D01*
X153342095Y-64462380D01*
X153818285Y-64462380D02*
X153818285Y-63795714D01*
X153818285Y-63462380D02*
X153770666Y-63510000D01*
X153818285Y-63557619D01*
X153865904Y-63510000D01*
X153818285Y-63462380D01*
X153818285Y-63557619D01*
X154246857Y-64414761D02*
X154342095Y-64462380D01*
X154532571Y-64462380D01*
X154627809Y-64414761D01*
X154675428Y-64319523D01*
X154675428Y-64271904D01*
X154627809Y-64176666D01*
X154532571Y-64129047D01*
X154389714Y-64129047D01*
X154294476Y-64081428D01*
X154246857Y-63986190D01*
X154246857Y-63938571D01*
X154294476Y-63843333D01*
X154389714Y-63795714D01*
X154532571Y-63795714D01*
X154627809Y-63843333D01*
X154961142Y-63795714D02*
X155342095Y-63795714D01*
X155104000Y-63462380D02*
X155104000Y-64319523D01*
X155151619Y-64414761D01*
X155246857Y-64462380D01*
X155342095Y-64462380D01*
X155818285Y-64462380D02*
X155723047Y-64414761D01*
X155675428Y-64367142D01*
X155627809Y-64271904D01*
X155627809Y-63986190D01*
X155675428Y-63890952D01*
X155723047Y-63843333D01*
X155818285Y-63795714D01*
X155961142Y-63795714D01*
X156056380Y-63843333D01*
X156104000Y-63890952D01*
X156151619Y-63986190D01*
X156151619Y-64271904D01*
X156104000Y-64367142D01*
X156056380Y-64414761D01*
X155961142Y-64462380D01*
X155818285Y-64462380D01*
X156580190Y-64462380D02*
X156580190Y-63795714D01*
X156580190Y-63986190D02*
X156627809Y-63890952D01*
X156675428Y-63843333D01*
X156770666Y-63795714D01*
X156865904Y-63795714D01*
X157151619Y-64414761D02*
X157246857Y-64462380D01*
X157437333Y-64462380D01*
X157532571Y-64414761D01*
X157580190Y-64319523D01*
X157580190Y-64271904D01*
X157532571Y-64176666D01*
X157437333Y-64129047D01*
X157294476Y-64129047D01*
X157199238Y-64081428D01*
X157151619Y-63986190D01*
X157151619Y-63938571D01*
X157199238Y-63843333D01*
X157294476Y-63795714D01*
X157437333Y-63795714D01*
X157532571Y-63843333D01*
X149770666Y-66122380D02*
X149770666Y-65598571D01*
X149723047Y-65503333D01*
X149627809Y-65455714D01*
X149437333Y-65455714D01*
X149342095Y-65503333D01*
X149770666Y-66074761D02*
X149675428Y-66122380D01*
X149437333Y-66122380D01*
X149342095Y-66074761D01*
X149294476Y-65979523D01*
X149294476Y-65884285D01*
X149342095Y-65789047D01*
X149437333Y-65741428D01*
X149675428Y-65741428D01*
X149770666Y-65693809D01*
X151008761Y-65741428D02*
X151770666Y-65741428D01*
X153008761Y-66122380D02*
X153008761Y-65122380D01*
X153342095Y-65836666D01*
X153675428Y-65122380D01*
X153675428Y-66122380D01*
X154342095Y-65122380D02*
X154532571Y-65122380D01*
X154627809Y-65170000D01*
X154723047Y-65265238D01*
X154770666Y-65455714D01*
X154770666Y-65789047D01*
X154723047Y-65979523D01*
X154627809Y-66074761D01*
X154532571Y-66122380D01*
X154342095Y-66122380D01*
X154246857Y-66074761D01*
X154151619Y-65979523D01*
X154104000Y-65789047D01*
X154104000Y-65455714D01*
X154151619Y-65265238D01*
X154246857Y-65170000D01*
X154342095Y-65122380D01*
X155151619Y-66074761D02*
X155294476Y-66122380D01*
X155532571Y-66122380D01*
X155627809Y-66074761D01*
X155675428Y-66027142D01*
X155723047Y-65931904D01*
X155723047Y-65836666D01*
X155675428Y-65741428D01*
X155627809Y-65693809D01*
X155532571Y-65646190D01*
X155342095Y-65598571D01*
X155246857Y-65550952D01*
X155199238Y-65503333D01*
X155151619Y-65408095D01*
X155151619Y-65312857D01*
X155199238Y-65217619D01*
X155246857Y-65170000D01*
X155342095Y-65122380D01*
X155580190Y-65122380D01*
X155723047Y-65170000D01*
X156484952Y-65598571D02*
X156151619Y-65598571D01*
X156151619Y-66122380D02*
X156151619Y-65122380D01*
X156627809Y-65122380D01*
X157008761Y-65598571D02*
X157342095Y-65598571D01*
X157484952Y-66122380D02*
X157008761Y-66122380D01*
X157008761Y-65122380D01*
X157484952Y-65122380D01*
X157770666Y-65122380D02*
X158342095Y-65122380D01*
X158056380Y-66122380D02*
X158056380Y-65122380D01*
X149342095Y-67782380D02*
X149342095Y-66782380D01*
X149342095Y-67163333D02*
X149437333Y-67115714D01*
X149627809Y-67115714D01*
X149723047Y-67163333D01*
X149770666Y-67210952D01*
X149818285Y-67306190D01*
X149818285Y-67591904D01*
X149770666Y-67687142D01*
X149723047Y-67734761D01*
X149627809Y-67782380D01*
X149437333Y-67782380D01*
X149342095Y-67734761D01*
X151008761Y-67401428D02*
X151770666Y-67401428D01*
X153580190Y-67782380D02*
X153246857Y-67306190D01*
X153008761Y-67782380D02*
X153008761Y-66782380D01*
X153389714Y-66782380D01*
X153484952Y-66830000D01*
X153532571Y-66877619D01*
X153580190Y-66972857D01*
X153580190Y-67115714D01*
X153532571Y-67210952D01*
X153484952Y-67258571D01*
X153389714Y-67306190D01*
X153008761Y-67306190D01*
X154389714Y-67734761D02*
X154294476Y-67782380D01*
X154104000Y-67782380D01*
X154008761Y-67734761D01*
X153961142Y-67639523D01*
X153961142Y-67258571D01*
X154008761Y-67163333D01*
X154104000Y-67115714D01*
X154294476Y-67115714D01*
X154389714Y-67163333D01*
X154437333Y-67258571D01*
X154437333Y-67353809D01*
X153961142Y-67449047D01*
X155294476Y-67734761D02*
X155199238Y-67782380D01*
X155008761Y-67782380D01*
X154913523Y-67734761D01*
X154865904Y-67687142D01*
X154818285Y-67591904D01*
X154818285Y-67306190D01*
X154865904Y-67210952D01*
X154913523Y-67163333D01*
X155008761Y-67115714D01*
X155199238Y-67115714D01*
X155294476Y-67163333D01*
X155580190Y-67115714D02*
X155961142Y-67115714D01*
X155723047Y-66782380D02*
X155723047Y-67639523D01*
X155770666Y-67734761D01*
X155865904Y-67782380D01*
X155961142Y-67782380D01*
X156294476Y-67782380D02*
X156294476Y-67115714D01*
X156294476Y-66782380D02*
X156246857Y-66830000D01*
X156294476Y-66877619D01*
X156342095Y-66830000D01*
X156294476Y-66782380D01*
X156294476Y-66877619D01*
X156627809Y-67115714D02*
X157008761Y-67115714D01*
X156770666Y-67782380D02*
X156770666Y-66925238D01*
X156818285Y-66830000D01*
X156913523Y-66782380D01*
X157008761Y-66782380D01*
X157342095Y-67782380D02*
X157342095Y-67115714D01*
X157342095Y-66782380D02*
X157294476Y-66830000D01*
X157342095Y-66877619D01*
X157389714Y-66830000D01*
X157342095Y-66782380D01*
X157342095Y-66877619D01*
X158199238Y-67734761D02*
X158104000Y-67782380D01*
X157913523Y-67782380D01*
X157818285Y-67734761D01*
X157770666Y-67639523D01*
X157770666Y-67258571D01*
X157818285Y-67163333D01*
X157913523Y-67115714D01*
X158104000Y-67115714D01*
X158199238Y-67163333D01*
X158246857Y-67258571D01*
X158246857Y-67353809D01*
X157770666Y-67449047D01*
X158675428Y-67782380D02*
X158675428Y-67115714D01*
X158675428Y-67306190D02*
X158723047Y-67210952D01*
X158770666Y-67163333D01*
X158865904Y-67115714D01*
X158961142Y-67115714D01*
X149770666Y-69394761D02*
X149675428Y-69442380D01*
X149484952Y-69442380D01*
X149389714Y-69394761D01*
X149342095Y-69347142D01*
X149294476Y-69251904D01*
X149294476Y-68966190D01*
X149342095Y-68870952D01*
X149389714Y-68823333D01*
X149484952Y-68775714D01*
X149675428Y-68775714D01*
X149770666Y-68823333D01*
X150961142Y-69061428D02*
X151723047Y-69061428D01*
X153532571Y-69347142D02*
X153484952Y-69394761D01*
X153342095Y-69442380D01*
X153246857Y-69442380D01*
X153104000Y-69394761D01*
X153008761Y-69299523D01*
X152961142Y-69204285D01*
X152913523Y-69013809D01*
X152913523Y-68870952D01*
X152961142Y-68680476D01*
X153008761Y-68585238D01*
X153104000Y-68490000D01*
X153246857Y-68442380D01*
X153342095Y-68442380D01*
X153484952Y-68490000D01*
X153532571Y-68537619D01*
X154389714Y-69442380D02*
X154389714Y-68918571D01*
X154342095Y-68823333D01*
X154246857Y-68775714D01*
X154056380Y-68775714D01*
X153961142Y-68823333D01*
X154389714Y-69394761D02*
X154294476Y-69442380D01*
X154056380Y-69442380D01*
X153961142Y-69394761D01*
X153913523Y-69299523D01*
X153913523Y-69204285D01*
X153961142Y-69109047D01*
X154056380Y-69061428D01*
X154294476Y-69061428D01*
X154389714Y-69013809D01*
X154818285Y-69394761D02*
X154913523Y-69442380D01*
X155104000Y-69442380D01*
X155199238Y-69394761D01*
X155246857Y-69299523D01*
X155246857Y-69251904D01*
X155199238Y-69156666D01*
X155104000Y-69109047D01*
X154961142Y-69109047D01*
X154865904Y-69061428D01*
X154818285Y-68966190D01*
X154818285Y-68918571D01*
X154865904Y-68823333D01*
X154961142Y-68775714D01*
X155104000Y-68775714D01*
X155199238Y-68823333D01*
X156056380Y-69394761D02*
X155961142Y-69442380D01*
X155770666Y-69442380D01*
X155675428Y-69394761D01*
X155627809Y-69299523D01*
X155627809Y-68918571D01*
X155675428Y-68823333D01*
X155770666Y-68775714D01*
X155961142Y-68775714D01*
X156056380Y-68823333D01*
X156104000Y-68918571D01*
X156104000Y-69013809D01*
X155627809Y-69109047D01*
X139488095Y-51904761D02*
X139392857Y-51952380D01*
X139202380Y-51952380D01*
X139107142Y-51904761D01*
X139059523Y-51857142D01*
X139011904Y-51761904D01*
X139011904Y-51476190D01*
X139059523Y-51380952D01*
X139107142Y-51333333D01*
X139202380Y-51285714D01*
X139392857Y-51285714D01*
X139488095Y-51333333D01*
X134035714Y-51952380D02*
X134035714Y-50952380D01*
X134035714Y-51333333D02*
X134130952Y-51285714D01*
X134321428Y-51285714D01*
X134416666Y-51333333D01*
X134464285Y-51380952D01*
X134511904Y-51476190D01*
X134511904Y-51761904D01*
X134464285Y-51857142D01*
X134416666Y-51904761D01*
X134321428Y-51952380D01*
X134130952Y-51952380D01*
X134035714Y-51904761D01*
X129214285Y-51952380D02*
X129214285Y-51428571D01*
X129166666Y-51333333D01*
X129071428Y-51285714D01*
X128880952Y-51285714D01*
X128785714Y-51333333D01*
X129214285Y-51904761D02*
X129119047Y-51952380D01*
X128880952Y-51952380D01*
X128785714Y-51904761D01*
X128738095Y-51809523D01*
X128738095Y-51714285D01*
X128785714Y-51619047D01*
X128880952Y-51571428D01*
X129119047Y-51571428D01*
X129214285Y-51523809D01*
X127261904Y-58952380D02*
X127833333Y-58952380D01*
X127547619Y-59952380D02*
X127547619Y-58952380D01*
X128166666Y-59952380D02*
X128166666Y-58952380D01*
X128595238Y-59952380D02*
X128595238Y-59428571D01*
X128547619Y-59333333D01*
X128452380Y-59285714D01*
X128309523Y-59285714D01*
X128214285Y-59333333D01*
X128166666Y-59380952D01*
X129452380Y-59904761D02*
X129357142Y-59952380D01*
X129166666Y-59952380D01*
X129071428Y-59904761D01*
X129023809Y-59809523D01*
X129023809Y-59428571D01*
X129071428Y-59333333D01*
X129166666Y-59285714D01*
X129357142Y-59285714D01*
X129452380Y-59333333D01*
X129500000Y-59428571D01*
X129500000Y-59523809D01*
X129023809Y-59619047D01*
X129928571Y-59952380D02*
X129928571Y-59285714D01*
X129928571Y-59476190D02*
X129976190Y-59380952D01*
X130023809Y-59333333D01*
X130119047Y-59285714D01*
X130214285Y-59285714D01*
X130547619Y-59952380D02*
X130547619Y-59285714D01*
X130547619Y-59380952D02*
X130595238Y-59333333D01*
X130690476Y-59285714D01*
X130833333Y-59285714D01*
X130928571Y-59333333D01*
X130976190Y-59428571D01*
X130976190Y-59952380D01*
X130976190Y-59428571D02*
X131023809Y-59333333D01*
X131119047Y-59285714D01*
X131261904Y-59285714D01*
X131357142Y-59333333D01*
X131404761Y-59428571D01*
X131404761Y-59952380D01*
X131880952Y-59952380D02*
X131880952Y-59285714D01*
X131880952Y-58952380D02*
X131833333Y-59000000D01*
X131880952Y-59047619D01*
X131928571Y-59000000D01*
X131880952Y-58952380D01*
X131880952Y-59047619D01*
X132309523Y-59904761D02*
X132404761Y-59952380D01*
X132595238Y-59952380D01*
X132690476Y-59904761D01*
X132738095Y-59809523D01*
X132738095Y-59761904D01*
X132690476Y-59666666D01*
X132595238Y-59619047D01*
X132452380Y-59619047D01*
X132357142Y-59571428D01*
X132309523Y-59476190D01*
X132309523Y-59428571D01*
X132357142Y-59333333D01*
X132452380Y-59285714D01*
X132595238Y-59285714D01*
X132690476Y-59333333D01*
X133023809Y-59285714D02*
X133404761Y-59285714D01*
X133166666Y-58952380D02*
X133166666Y-59809523D01*
X133214285Y-59904761D01*
X133309523Y-59952380D01*
X133404761Y-59952380D01*
X133880952Y-59952380D02*
X133785714Y-59904761D01*
X133738095Y-59857142D01*
X133690476Y-59761904D01*
X133690476Y-59476190D01*
X133738095Y-59380952D01*
X133785714Y-59333333D01*
X133880952Y-59285714D01*
X134023809Y-59285714D01*
X134119047Y-59333333D01*
X134166666Y-59380952D01*
X134214285Y-59476190D01*
X134214285Y-59761904D01*
X134166666Y-59857142D01*
X134119047Y-59904761D01*
X134023809Y-59952380D01*
X133880952Y-59952380D01*
X134642857Y-59952380D02*
X134642857Y-59285714D01*
X134642857Y-59476190D02*
X134690476Y-59380952D01*
X134738095Y-59333333D01*
X134833333Y-59285714D01*
X134928571Y-59285714D01*
X135214285Y-59904761D02*
X135309523Y-59952380D01*
X135500000Y-59952380D01*
X135595238Y-59904761D01*
X135642857Y-59809523D01*
X135642857Y-59761904D01*
X135595238Y-59666666D01*
X135500000Y-59619047D01*
X135357142Y-59619047D01*
X135261904Y-59571428D01*
X135214285Y-59476190D01*
X135214285Y-59428571D01*
X135261904Y-59333333D01*
X135357142Y-59285714D01*
X135500000Y-59285714D01*
X135595238Y-59333333D01*
X128095238Y-66166666D02*
X128571428Y-66166666D01*
X128000000Y-66452380D02*
X128333333Y-65452380D01*
X128666666Y-66452380D01*
X129000000Y-66452380D02*
X129000000Y-65785714D01*
X129000000Y-65976190D02*
X129047619Y-65880952D01*
X129095238Y-65833333D01*
X129190476Y-65785714D01*
X129285714Y-65785714D01*
X130047619Y-66452380D02*
X130047619Y-65452380D01*
X130047619Y-66404761D02*
X129952380Y-66452380D01*
X129761904Y-66452380D01*
X129666666Y-66404761D01*
X129619047Y-66357142D01*
X129571428Y-66261904D01*
X129571428Y-65976190D01*
X129619047Y-65880952D01*
X129666666Y-65833333D01*
X129761904Y-65785714D01*
X129952380Y-65785714D01*
X130047619Y-65833333D01*
X130952380Y-65785714D02*
X130952380Y-66452380D01*
X130523809Y-65785714D02*
X130523809Y-66309523D01*
X130571428Y-66404761D01*
X130666666Y-66452380D01*
X130809523Y-66452380D01*
X130904761Y-66404761D01*
X130952380Y-66357142D01*
X131428571Y-66452380D02*
X131428571Y-65785714D01*
X131428571Y-65452380D02*
X131380952Y-65500000D01*
X131428571Y-65547619D01*
X131476190Y-65500000D01*
X131428571Y-65452380D01*
X131428571Y-65547619D01*
X131904761Y-65785714D02*
X131904761Y-66452380D01*
X131904761Y-65880952D02*
X131952380Y-65833333D01*
X132047619Y-65785714D01*
X132190476Y-65785714D01*
X132285714Y-65833333D01*
X132333333Y-65928571D01*
X132333333Y-66452380D01*
X132952380Y-66452380D02*
X132857142Y-66404761D01*
X132809523Y-66357142D01*
X132761904Y-66261904D01*
X132761904Y-65976190D01*
X132809523Y-65880952D01*
X132857142Y-65833333D01*
X132952380Y-65785714D01*
X133095238Y-65785714D01*
X133190476Y-65833333D01*
X133238095Y-65880952D01*
X133285714Y-65976190D01*
X133285714Y-66261904D01*
X133238095Y-66357142D01*
X133190476Y-66404761D01*
X133095238Y-66452380D01*
X132952380Y-66452380D01*
X134428571Y-66404761D02*
X134571428Y-66452380D01*
X134809523Y-66452380D01*
X134904761Y-66404761D01*
X134952380Y-66357142D01*
X135000000Y-66261904D01*
X135000000Y-66166666D01*
X134952380Y-66071428D01*
X134904761Y-66023809D01*
X134809523Y-65976190D01*
X134619047Y-65928571D01*
X134523809Y-65880952D01*
X134476190Y-65833333D01*
X134428571Y-65738095D01*
X134428571Y-65642857D01*
X134476190Y-65547619D01*
X134523809Y-65500000D01*
X134619047Y-65452380D01*
X134857142Y-65452380D01*
X135000000Y-65500000D01*
X135809523Y-66404761D02*
X135714285Y-66452380D01*
X135523809Y-66452380D01*
X135428571Y-66404761D01*
X135380952Y-66309523D01*
X135380952Y-65928571D01*
X135428571Y-65833333D01*
X135523809Y-65785714D01*
X135714285Y-65785714D01*
X135809523Y-65833333D01*
X135857142Y-65928571D01*
X135857142Y-66023809D01*
X135380952Y-66119047D01*
X136285714Y-65785714D02*
X136285714Y-66452380D01*
X136285714Y-65880952D02*
X136333333Y-65833333D01*
X136428571Y-65785714D01*
X136571428Y-65785714D01*
X136666666Y-65833333D01*
X136714285Y-65928571D01*
X136714285Y-66452380D01*
X137142857Y-66404761D02*
X137238095Y-66452380D01*
X137428571Y-66452380D01*
X137523809Y-66404761D01*
X137571428Y-66309523D01*
X137571428Y-66261904D01*
X137523809Y-66166666D01*
X137428571Y-66119047D01*
X137285714Y-66119047D01*
X137190476Y-66071428D01*
X137142857Y-65976190D01*
X137142857Y-65928571D01*
X137190476Y-65833333D01*
X137285714Y-65785714D01*
X137428571Y-65785714D01*
X137523809Y-65833333D01*
X138142857Y-66452380D02*
X138047619Y-66404761D01*
X138000000Y-66357142D01*
X137952380Y-66261904D01*
X137952380Y-65976190D01*
X138000000Y-65880952D01*
X138047619Y-65833333D01*
X138142857Y-65785714D01*
X138285714Y-65785714D01*
X138380952Y-65833333D01*
X138428571Y-65880952D01*
X138476190Y-65976190D01*
X138476190Y-66261904D01*
X138428571Y-66357142D01*
X138380952Y-66404761D01*
X138285714Y-66452380D01*
X138142857Y-66452380D01*
X138904761Y-66452380D02*
X138904761Y-65785714D01*
X138904761Y-65976190D02*
X138952380Y-65880952D01*
X139000000Y-65833333D01*
X139095238Y-65785714D01*
X139190476Y-65785714D01*
X139476190Y-66404761D02*
X139571428Y-66452380D01*
X139761904Y-66452380D01*
X139857142Y-66404761D01*
X139904761Y-66309523D01*
X139904761Y-66261904D01*
X139857142Y-66166666D01*
X139761904Y-66119047D01*
X139619047Y-66119047D01*
X139523809Y-66071428D01*
X139476190Y-65976190D01*
X139476190Y-65928571D01*
X139523809Y-65833333D01*
X139619047Y-65785714D01*
X139761904Y-65785714D01*
X139857142Y-65833333D01*
X143702380Y-77321428D02*
X143702380Y-76750000D01*
X144702380Y-77035714D02*
X143702380Y-77035714D01*
X144607142Y-75845238D02*
X144654761Y-75892857D01*
X144702380Y-76035714D01*
X144702380Y-76130952D01*
X144654761Y-76273809D01*
X144559523Y-76369047D01*
X144464285Y-76416666D01*
X144273809Y-76464285D01*
X144130952Y-76464285D01*
X143940476Y-76416666D01*
X143845238Y-76369047D01*
X143750000Y-76273809D01*
X143702380Y-76130952D01*
X143702380Y-76035714D01*
X143750000Y-75892857D01*
X143797619Y-75845238D01*
X144702380Y-74988095D02*
X144178571Y-74988095D01*
X144083333Y-75035714D01*
X144035714Y-75130952D01*
X144035714Y-75321428D01*
X144083333Y-75416666D01*
X144654761Y-74988095D02*
X144702380Y-75083333D01*
X144702380Y-75321428D01*
X144654761Y-75416666D01*
X144559523Y-75464285D01*
X144464285Y-75464285D01*
X144369047Y-75416666D01*
X144321428Y-75321428D01*
X144321428Y-75083333D01*
X144273809Y-74988095D01*
X144654761Y-74559523D02*
X144702380Y-74464285D01*
X144702380Y-74273809D01*
X144654761Y-74178571D01*
X144559523Y-74130952D01*
X144511904Y-74130952D01*
X144416666Y-74178571D01*
X144369047Y-74273809D01*
X144369047Y-74416666D01*
X144321428Y-74511904D01*
X144226190Y-74559523D01*
X144178571Y-74559523D01*
X144083333Y-74511904D01*
X144035714Y-74416666D01*
X144035714Y-74273809D01*
X144083333Y-74178571D01*
X144654761Y-73321428D02*
X144702380Y-73416666D01*
X144702380Y-73607142D01*
X144654761Y-73702380D01*
X144559523Y-73750000D01*
X144178571Y-73750000D01*
X144083333Y-73702380D01*
X144035714Y-73607142D01*
X144035714Y-73416666D01*
X144083333Y-73321428D01*
X144178571Y-73273809D01*
X144273809Y-73273809D01*
X144369047Y-73750000D01*
X141202380Y-75785714D02*
X141202380Y-75214285D01*
X142202380Y-75500000D02*
X141202380Y-75500000D01*
X141678571Y-74547619D02*
X141726190Y-74404761D01*
X141773809Y-74357142D01*
X141869047Y-74309523D01*
X142011904Y-74309523D01*
X142107142Y-74357142D01*
X142154761Y-74404761D01*
X142202380Y-74500000D01*
X142202380Y-74880952D01*
X141202380Y-74880952D01*
X141202380Y-74547619D01*
X141250000Y-74452380D01*
X141297619Y-74404761D01*
X141392857Y-74357142D01*
X141488095Y-74357142D01*
X141583333Y-74404761D01*
X141630952Y-74452380D01*
X141678571Y-74547619D01*
X141678571Y-74880952D01*
X142202380Y-73309523D02*
X141726190Y-73642857D01*
X142202380Y-73880952D02*
X141202380Y-73880952D01*
X141202380Y-73500000D01*
X141250000Y-73404761D01*
X141297619Y-73357142D01*
X141392857Y-73309523D01*
X141535714Y-73309523D01*
X141630952Y-73357142D01*
X141678571Y-73404761D01*
X141726190Y-73500000D01*
X141726190Y-73880952D01*
X138202380Y-76857142D02*
X138202380Y-76285714D01*
X139202380Y-76571428D02*
X138202380Y-76571428D01*
X139202380Y-75952380D02*
X138202380Y-75952380D01*
X138916666Y-75619047D01*
X138202380Y-75285714D01*
X139202380Y-75285714D01*
X138202380Y-74619047D02*
X138202380Y-74428571D01*
X138250000Y-74333333D01*
X138345238Y-74238095D01*
X138535714Y-74190476D01*
X138869047Y-74190476D01*
X139059523Y-74238095D01*
X139154761Y-74333333D01*
X139202380Y-74428571D01*
X139202380Y-74619047D01*
X139154761Y-74714285D01*
X139059523Y-74809523D01*
X138869047Y-74857142D01*
X138535714Y-74857142D01*
X138345238Y-74809523D01*
X138250000Y-74714285D01*
X138202380Y-74619047D01*
X139154761Y-73809523D02*
X139202380Y-73666666D01*
X139202380Y-73428571D01*
X139154761Y-73333333D01*
X139107142Y-73285714D01*
X139011904Y-73238095D01*
X138916666Y-73238095D01*
X138821428Y-73285714D01*
X138773809Y-73333333D01*
X138726190Y-73428571D01*
X138678571Y-73619047D01*
X138630952Y-73714285D01*
X138583333Y-73761904D01*
X138488095Y-73809523D01*
X138392857Y-73809523D01*
X138297619Y-73761904D01*
X138250000Y-73714285D01*
X138202380Y-73619047D01*
X138202380Y-73380952D01*
X138250000Y-73238095D01*
X136202380Y-74761904D02*
X136202380Y-74190476D01*
X137202380Y-74476190D02*
X136202380Y-74476190D01*
X136297619Y-73904761D02*
X136250000Y-73857142D01*
X136202380Y-73761904D01*
X136202380Y-73523809D01*
X136250000Y-73428571D01*
X136297619Y-73380952D01*
X136392857Y-73333333D01*
X136488095Y-73333333D01*
X136630952Y-73380952D01*
X137202380Y-73952380D01*
X137202380Y-73333333D01*
X133702380Y-74761904D02*
X133702380Y-74190476D01*
X134702380Y-74476190D02*
X133702380Y-74476190D01*
X134702380Y-73333333D02*
X134702380Y-73904761D01*
X134702380Y-73619047D02*
X133702380Y-73619047D01*
X133845238Y-73714285D01*
X133940476Y-73809523D01*
X133988095Y-73904761D01*
X131952380Y-76571428D02*
X130952380Y-76571428D01*
X131952380Y-76095238D02*
X131285714Y-76095238D01*
X131380952Y-76095238D02*
X131333333Y-76047619D01*
X131285714Y-75952380D01*
X131285714Y-75809523D01*
X131333333Y-75714285D01*
X131428571Y-75666666D01*
X131952380Y-75666666D01*
X131428571Y-75666666D02*
X131333333Y-75619047D01*
X131285714Y-75523809D01*
X131285714Y-75380952D01*
X131333333Y-75285714D01*
X131428571Y-75238095D01*
X131952380Y-75238095D01*
X131952380Y-74619047D02*
X131904761Y-74714285D01*
X131857142Y-74761904D01*
X131761904Y-74809523D01*
X131476190Y-74809523D01*
X131380952Y-74761904D01*
X131333333Y-74714285D01*
X131285714Y-74619047D01*
X131285714Y-74476190D01*
X131333333Y-74380952D01*
X131380952Y-74333333D01*
X131476190Y-74285714D01*
X131761904Y-74285714D01*
X131857142Y-74333333D01*
X131904761Y-74380952D01*
X131952380Y-74476190D01*
X131952380Y-74619047D01*
X131285714Y-73857142D02*
X131952380Y-73857142D01*
X131380952Y-73857142D02*
X131333333Y-73809523D01*
X131285714Y-73714285D01*
X131285714Y-73571428D01*
X131333333Y-73476190D01*
X131428571Y-73428571D01*
X131952380Y-73428571D01*
X129404761Y-75940476D02*
X129452380Y-75797619D01*
X129452380Y-75559523D01*
X129404761Y-75464285D01*
X129357142Y-75416666D01*
X129261904Y-75369047D01*
X129166666Y-75369047D01*
X129071428Y-75416666D01*
X129023809Y-75464285D01*
X128976190Y-75559523D01*
X128928571Y-75750000D01*
X128880952Y-75845238D01*
X128833333Y-75892857D01*
X128738095Y-75940476D01*
X128642857Y-75940476D01*
X128547619Y-75892857D01*
X128500000Y-75845238D01*
X128452380Y-75750000D01*
X128452380Y-75511904D01*
X128500000Y-75369047D01*
X129357142Y-74369047D02*
X129404761Y-74416666D01*
X129452380Y-74559523D01*
X129452380Y-74654761D01*
X129404761Y-74797619D01*
X129309523Y-74892857D01*
X129214285Y-74940476D01*
X129023809Y-74988095D01*
X128880952Y-74988095D01*
X128690476Y-74940476D01*
X128595238Y-74892857D01*
X128500000Y-74797619D01*
X128452380Y-74654761D01*
X128452380Y-74559523D01*
X128500000Y-74416666D01*
X128547619Y-74369047D01*
X129452380Y-73464285D02*
X129452380Y-73940476D01*
X128452380Y-73940476D01*
X126904761Y-75964285D02*
X126952380Y-75821428D01*
X126952380Y-75583333D01*
X126904761Y-75488095D01*
X126857142Y-75440476D01*
X126761904Y-75392857D01*
X126666666Y-75392857D01*
X126571428Y-75440476D01*
X126523809Y-75488095D01*
X126476190Y-75583333D01*
X126428571Y-75773809D01*
X126380952Y-75869047D01*
X126333333Y-75916666D01*
X126238095Y-75964285D01*
X126142857Y-75964285D01*
X126047619Y-75916666D01*
X126000000Y-75869047D01*
X125952380Y-75773809D01*
X125952380Y-75535714D01*
X126000000Y-75392857D01*
X126952380Y-74964285D02*
X125952380Y-74964285D01*
X125952380Y-74726190D01*
X126000000Y-74583333D01*
X126095238Y-74488095D01*
X126190476Y-74440476D01*
X126380952Y-74392857D01*
X126523809Y-74392857D01*
X126714285Y-74440476D01*
X126809523Y-74488095D01*
X126904761Y-74583333D01*
X126952380Y-74726190D01*
X126952380Y-74964285D01*
X126666666Y-74011904D02*
X126666666Y-73535714D01*
X126952380Y-74107142D02*
X125952380Y-73773809D01*
X126952380Y-73440476D01*
X159071428Y-76500000D02*
X159071428Y-75738095D01*
X158452380Y-75404761D02*
X159452380Y-75071428D01*
X158452380Y-74738095D01*
X159452380Y-74261904D02*
X159404761Y-74357142D01*
X159357142Y-74404761D01*
X159261904Y-74452380D01*
X158976190Y-74452380D01*
X158880952Y-74404761D01*
X158833333Y-74357142D01*
X158785714Y-74261904D01*
X158785714Y-74119047D01*
X158833333Y-74023809D01*
X158880952Y-73976190D01*
X158976190Y-73928571D01*
X159261904Y-73928571D01*
X159357142Y-73976190D01*
X159404761Y-74023809D01*
X159452380Y-74119047D01*
X159452380Y-74261904D01*
X158785714Y-73071428D02*
X159452380Y-73071428D01*
X158785714Y-73500000D02*
X159309523Y-73500000D01*
X159404761Y-73452380D01*
X159452380Y-73357142D01*
X159452380Y-73214285D01*
X159404761Y-73119047D01*
X159357142Y-73071428D01*
X158785714Y-72738095D02*
X158785714Y-72357142D01*
X158452380Y-72595238D02*
X159309523Y-72595238D01*
X159404761Y-72547619D01*
X159452380Y-72452380D01*
X159452380Y-72357142D01*
X159071428Y-82500000D02*
X159071428Y-81738095D01*
X159452380Y-82119047D02*
X158690476Y-82119047D01*
X158452380Y-81404761D02*
X159452380Y-81071428D01*
X158452380Y-80738095D01*
X159452380Y-80261904D02*
X159404761Y-80357142D01*
X159357142Y-80404761D01*
X159261904Y-80452380D01*
X158976190Y-80452380D01*
X158880952Y-80404761D01*
X158833333Y-80357142D01*
X158785714Y-80261904D01*
X158785714Y-80119047D01*
X158833333Y-80023809D01*
X158880952Y-79976190D01*
X158976190Y-79928571D01*
X159261904Y-79928571D01*
X159357142Y-79976190D01*
X159404761Y-80023809D01*
X159452380Y-80119047D01*
X159452380Y-80261904D01*
X158785714Y-79071428D02*
X159452380Y-79071428D01*
X158785714Y-79500000D02*
X159309523Y-79500000D01*
X159404761Y-79452380D01*
X159452380Y-79357142D01*
X159452380Y-79214285D01*
X159404761Y-79119047D01*
X159357142Y-79071428D01*
X158785714Y-78738095D02*
X158785714Y-78357142D01*
X158452380Y-78595238D02*
X159309523Y-78595238D01*
X159404761Y-78547619D01*
X159452380Y-78452380D01*
X159452380Y-78357142D01*
X146738095Y-51000000D02*
X146642857Y-50952380D01*
X146500000Y-50952380D01*
X146357142Y-51000000D01*
X146261904Y-51095238D01*
X146214285Y-51190476D01*
X146166666Y-51380952D01*
X146166666Y-51523809D01*
X146214285Y-51714285D01*
X146261904Y-51809523D01*
X146357142Y-51904761D01*
X146500000Y-51952380D01*
X146595238Y-51952380D01*
X146738095Y-51904761D01*
X146785714Y-51857142D01*
X146785714Y-51523809D01*
X146595238Y-51523809D01*
X147214285Y-51952380D02*
X147214285Y-50952380D01*
X147785714Y-51952380D01*
X147785714Y-50952380D01*
X148261904Y-51952380D02*
X148261904Y-50952380D01*
X148500000Y-50952380D01*
X148642857Y-51000000D01*
X148738095Y-51095238D01*
X148785714Y-51190476D01*
X148833333Y-51380952D01*
X148833333Y-51523809D01*
X148785714Y-51714285D01*
X148738095Y-51809523D01*
X148642857Y-51904761D01*
X148500000Y-51952380D01*
X148261904Y-51952380D01*
X142761904Y-51571428D02*
X143523809Y-51571428D01*
X143142857Y-51952380D02*
X143142857Y-51190476D01*
X144476190Y-50952380D02*
X144000000Y-50952380D01*
X143952380Y-51428571D01*
X144000000Y-51380952D01*
X144095238Y-51333333D01*
X144333333Y-51333333D01*
X144428571Y-51380952D01*
X144476190Y-51428571D01*
X144523809Y-51523809D01*
X144523809Y-51761904D01*
X144476190Y-51857142D01*
X144428571Y-51904761D01*
X144333333Y-51952380D01*
X144095238Y-51952380D01*
X144000000Y-51904761D01*
X143952380Y-51857142D01*
X144857142Y-51285714D02*
X145095238Y-51952380D01*
X145333333Y-51285714D01*
X135361904Y-51571428D02*
X136123809Y-51571428D01*
X135742857Y-51952380D02*
X135742857Y-51190476D01*
X137076190Y-50952380D02*
X136600000Y-50952380D01*
X136552380Y-51428571D01*
X136600000Y-51380952D01*
X136695238Y-51333333D01*
X136933333Y-51333333D01*
X137028571Y-51380952D01*
X137076190Y-51428571D01*
X137123809Y-51523809D01*
X137123809Y-51761904D01*
X137076190Y-51857142D01*
X137028571Y-51904761D01*
X136933333Y-51952380D01*
X136695238Y-51952380D01*
X136600000Y-51904761D01*
X136552380Y-51857142D01*
X137457142Y-51285714D02*
X137695238Y-51952380D01*
X137933333Y-51285714D01*
X130261904Y-51571428D02*
X131023809Y-51571428D01*
X130642857Y-51952380D02*
X130642857Y-51190476D01*
X131976190Y-50952380D02*
X131500000Y-50952380D01*
X131452380Y-51428571D01*
X131500000Y-51380952D01*
X131595238Y-51333333D01*
X131833333Y-51333333D01*
X131928571Y-51380952D01*
X131976190Y-51428571D01*
X132023809Y-51523809D01*
X132023809Y-51761904D01*
X131976190Y-51857142D01*
X131928571Y-51904761D01*
X131833333Y-51952380D01*
X131595238Y-51952380D01*
X131500000Y-51904761D01*
X131452380Y-51857142D01*
X132357142Y-51285714D02*
X132595238Y-51952380D01*
X132833333Y-51285714D01*
X125061904Y-51571428D02*
X125823809Y-51571428D01*
X125442857Y-51952380D02*
X125442857Y-51190476D01*
X126776190Y-50952380D02*
X126300000Y-50952380D01*
X126252380Y-51428571D01*
X126300000Y-51380952D01*
X126395238Y-51333333D01*
X126633333Y-51333333D01*
X126728571Y-51380952D01*
X126776190Y-51428571D01*
X126823809Y-51523809D01*
X126823809Y-51761904D01*
X126776190Y-51857142D01*
X126728571Y-51904761D01*
X126633333Y-51952380D01*
X126395238Y-51952380D01*
X126300000Y-51904761D01*
X126252380Y-51857142D01*
X127157142Y-51285714D02*
X127395238Y-51952380D01*
X127633333Y-51285714D01*
X149083333Y-60622380D02*
X149083333Y-59622380D01*
X149416666Y-60336666D01*
X149750000Y-59622380D01*
X149750000Y-60622380D01*
X150369047Y-60622380D02*
X150273809Y-60574761D01*
X150226190Y-60527142D01*
X150178571Y-60431904D01*
X150178571Y-60146190D01*
X150226190Y-60050952D01*
X150273809Y-60003333D01*
X150369047Y-59955714D01*
X150511904Y-59955714D01*
X150607142Y-60003333D01*
X150654761Y-60050952D01*
X150702380Y-60146190D01*
X150702380Y-60431904D01*
X150654761Y-60527142D01*
X150607142Y-60574761D01*
X150511904Y-60622380D01*
X150369047Y-60622380D01*
X151130952Y-59955714D02*
X151130952Y-60622380D01*
X151130952Y-60050952D02*
X151178571Y-60003333D01*
X151273809Y-59955714D01*
X151416666Y-59955714D01*
X151511904Y-60003333D01*
X151559523Y-60098571D01*
X151559523Y-60622380D01*
X152035714Y-60622380D02*
X152035714Y-59955714D01*
X152035714Y-59622380D02*
X151988095Y-59670000D01*
X152035714Y-59717619D01*
X152083333Y-59670000D01*
X152035714Y-59622380D01*
X152035714Y-59717619D01*
X152369047Y-59955714D02*
X152750000Y-59955714D01*
X152511904Y-59622380D02*
X152511904Y-60479523D01*
X152559523Y-60574761D01*
X152654761Y-60622380D01*
X152750000Y-60622380D01*
X153226190Y-60622380D02*
X153130952Y-60574761D01*
X153083333Y-60527142D01*
X153035714Y-60431904D01*
X153035714Y-60146190D01*
X153083333Y-60050952D01*
X153130952Y-60003333D01*
X153226190Y-59955714D01*
X153369047Y-59955714D01*
X153464285Y-60003333D01*
X153511904Y-60050952D01*
X153559523Y-60146190D01*
X153559523Y-60431904D01*
X153511904Y-60527142D01*
X153464285Y-60574761D01*
X153369047Y-60622380D01*
X153226190Y-60622380D01*
X153988095Y-60622380D02*
X153988095Y-59955714D01*
X153988095Y-60146190D02*
X154035714Y-60050952D01*
X154083333Y-60003333D01*
X154178571Y-59955714D01*
X154273809Y-59955714D01*
X154607142Y-60622380D02*
X154607142Y-59955714D01*
X154607142Y-59622380D02*
X154559523Y-59670000D01*
X154607142Y-59717619D01*
X154654761Y-59670000D01*
X154607142Y-59622380D01*
X154607142Y-59717619D01*
X155083333Y-59955714D02*
X155083333Y-60622380D01*
X155083333Y-60050952D02*
X155130952Y-60003333D01*
X155226190Y-59955714D01*
X155369047Y-59955714D01*
X155464285Y-60003333D01*
X155511904Y-60098571D01*
X155511904Y-60622380D01*
X156416666Y-59955714D02*
X156416666Y-60765238D01*
X156369047Y-60860476D01*
X156321428Y-60908095D01*
X156226190Y-60955714D01*
X156083333Y-60955714D01*
X155988095Y-60908095D01*
X156416666Y-60574761D02*
X156321428Y-60622380D01*
X156130952Y-60622380D01*
X156035714Y-60574761D01*
X155988095Y-60527142D01*
X155940476Y-60431904D01*
X155940476Y-60146190D01*
X155988095Y-60050952D01*
X156035714Y-60003333D01*
X156130952Y-59955714D01*
X156321428Y-59955714D01*
X156416666Y-60003333D01*
X158464285Y-60622380D02*
X158416666Y-60622380D01*
X158321428Y-60574761D01*
X158178571Y-60431904D01*
X157940476Y-60146190D01*
X157845238Y-60003333D01*
X157797619Y-59860476D01*
X157797619Y-59765238D01*
X157845238Y-59670000D01*
X157940476Y-59622380D01*
X157988095Y-59622380D01*
X158083333Y-59670000D01*
X158130952Y-59765238D01*
X158130952Y-59812857D01*
X158083333Y-59908095D01*
X158035714Y-59955714D01*
X157750000Y-60146190D01*
X157702380Y-60193809D01*
X157654761Y-60289047D01*
X157654761Y-60431904D01*
X157702380Y-60527142D01*
X157750000Y-60574761D01*
X157845238Y-60622380D01*
X157988095Y-60622380D01*
X158083333Y-60574761D01*
X158130952Y-60527142D01*
X158273809Y-60336666D01*
X158321428Y-60193809D01*
X158321428Y-60098571D01*
X151726190Y-61282380D02*
X151916666Y-61282380D01*
X152011904Y-61330000D01*
X152107142Y-61425238D01*
X152154761Y-61615714D01*
X152154761Y-61949047D01*
X152107142Y-62139523D01*
X152011904Y-62234761D01*
X151916666Y-62282380D01*
X151726190Y-62282380D01*
X151630952Y-62234761D01*
X151535714Y-62139523D01*
X151488095Y-61949047D01*
X151488095Y-61615714D01*
X151535714Y-61425238D01*
X151630952Y-61330000D01*
X151726190Y-61282380D01*
X153011904Y-61615714D02*
X153011904Y-62282380D01*
X152583333Y-61615714D02*
X152583333Y-62139523D01*
X152630952Y-62234761D01*
X152726190Y-62282380D01*
X152869047Y-62282380D01*
X152964285Y-62234761D01*
X153011904Y-62187142D01*
X153345238Y-61615714D02*
X153726190Y-61615714D01*
X153488095Y-61282380D02*
X153488095Y-62139523D01*
X153535714Y-62234761D01*
X153630952Y-62282380D01*
X153726190Y-62282380D01*
X154059523Y-61615714D02*
X154059523Y-62615714D01*
X154059523Y-61663333D02*
X154154761Y-61615714D01*
X154345238Y-61615714D01*
X154440476Y-61663333D01*
X154488095Y-61710952D01*
X154535714Y-61806190D01*
X154535714Y-62091904D01*
X154488095Y-62187142D01*
X154440476Y-62234761D01*
X154345238Y-62282380D01*
X154154761Y-62282380D01*
X154059523Y-62234761D01*
X155392857Y-61615714D02*
X155392857Y-62282380D01*
X154964285Y-61615714D02*
X154964285Y-62139523D01*
X155011904Y-62234761D01*
X155107142Y-62282380D01*
X155250000Y-62282380D01*
X155345238Y-62234761D01*
X155392857Y-62187142D01*
X155726190Y-61615714D02*
X156107142Y-61615714D01*
X155869047Y-61282380D02*
X155869047Y-62139523D01*
X155916666Y-62234761D01*
X156011904Y-62282380D01*
X156107142Y-62282380D01*
D11*
X124100000Y-77500000D02*
X124100000Y-66100000D01*
X130000000Y-77500000D02*
X124100000Y-77500000D01*
X130000000Y-87000000D02*
X130000000Y-77500000D01*
X137000000Y-87000000D02*
X130000000Y-87000000D01*
X137000000Y-96000000D02*
X137000000Y-87000000D01*
X149900000Y-95900000D02*
X137000000Y-96000000D01*
X149900000Y-102100000D02*
X149900000Y-95900000D01*
X160000000Y-102100000D02*
X149900000Y-102100000D01*
D10*
X122371428Y-59095238D02*
X122371428Y-58333333D01*
X121752380Y-58000000D02*
X122752380Y-57666666D01*
X121752380Y-57333333D01*
X122704761Y-56619047D02*
X122752380Y-56714285D01*
X122752380Y-56904761D01*
X122704761Y-57000000D01*
X122609523Y-57047619D01*
X122228571Y-57047619D01*
X122133333Y-57000000D01*
X122085714Y-56904761D01*
X122085714Y-56714285D01*
X122133333Y-56619047D01*
X122228571Y-56571428D01*
X122323809Y-56571428D01*
X122419047Y-57047619D01*
X122704761Y-55428571D02*
X122752380Y-55285714D01*
X122752380Y-55047619D01*
X122704761Y-54952380D01*
X122657142Y-54904761D01*
X122561904Y-54857142D01*
X122466666Y-54857142D01*
X122371428Y-54904761D01*
X122323809Y-54952380D01*
X122276190Y-55047619D01*
X122228571Y-55238095D01*
X122180952Y-55333333D01*
X122133333Y-55380952D01*
X122038095Y-55428571D01*
X121942857Y-55428571D01*
X121847619Y-55380952D01*
X121800000Y-55333333D01*
X121752380Y-55238095D01*
X121752380Y-55000000D01*
X121800000Y-54857142D01*
X122085714Y-54000000D02*
X122752380Y-54000000D01*
X122085714Y-54428571D02*
X122609523Y-54428571D01*
X122704761Y-54380952D01*
X122752380Y-54285714D01*
X122752380Y-54142857D01*
X122704761Y-54047619D01*
X122657142Y-54000000D01*
X122085714Y-53523809D02*
X123085714Y-53523809D01*
X122133333Y-53523809D02*
X122085714Y-53428571D01*
X122085714Y-53238095D01*
X122133333Y-53142857D01*
X122180952Y-53095238D01*
X122276190Y-53047619D01*
X122561904Y-53047619D01*
X122657142Y-53095238D01*
X122704761Y-53142857D01*
X122752380Y-53238095D01*
X122752380Y-53428571D01*
X122704761Y-53523809D01*
X122085714Y-52619047D02*
X123085714Y-52619047D01*
X122133333Y-52619047D02*
X122085714Y-52523809D01*
X122085714Y-52333333D01*
X122133333Y-52238095D01*
X122180952Y-52190476D01*
X122276190Y-52142857D01*
X122561904Y-52142857D01*
X122657142Y-52190476D01*
X122704761Y-52238095D01*
X122752380Y-52333333D01*
X122752380Y-52523809D01*
X122704761Y-52619047D01*
X122752380Y-51571428D02*
X122704761Y-51666666D01*
X122609523Y-51714285D01*
X121752380Y-51714285D01*
X122085714Y-51285714D02*
X122752380Y-51047619D01*
X122085714Y-50809523D02*
X122752380Y-51047619D01*
X122990476Y-51142857D01*
X123038095Y-51190476D01*
X123085714Y-51285714D01*
D11*
X124100000Y-66100000D02*
X124100000Y-50000000D01*
X118000000Y-66100000D02*
X124100000Y-66100000D01*
D10*
X125547619Y-121452380D02*
X125071428Y-121452380D01*
X125071428Y-120452380D01*
X125880952Y-121452380D02*
X125880952Y-120785714D01*
X125880952Y-120452380D02*
X125833333Y-120500000D01*
X125880952Y-120547619D01*
X125928571Y-120500000D01*
X125880952Y-120452380D01*
X125880952Y-120547619D01*
X126357142Y-120785714D02*
X126357142Y-121452380D01*
X126357142Y-120880952D02*
X126404761Y-120833333D01*
X126500000Y-120785714D01*
X126642857Y-120785714D01*
X126738095Y-120833333D01*
X126785714Y-120928571D01*
X126785714Y-121452380D01*
X127642857Y-121404761D02*
X127547619Y-121452380D01*
X127357142Y-121452380D01*
X127261904Y-121404761D01*
X127214285Y-121309523D01*
X127214285Y-120928571D01*
X127261904Y-120833333D01*
X127357142Y-120785714D01*
X127547619Y-120785714D01*
X127642857Y-120833333D01*
X127690476Y-120928571D01*
X127690476Y-121023809D01*
X127214285Y-121119047D01*
X128547619Y-121452380D02*
X128547619Y-120928571D01*
X128500000Y-120833333D01*
X128404761Y-120785714D01*
X128214285Y-120785714D01*
X128119047Y-120833333D01*
X128547619Y-121404761D02*
X128452380Y-121452380D01*
X128214285Y-121452380D01*
X128119047Y-121404761D01*
X128071428Y-121309523D01*
X128071428Y-121214285D01*
X128119047Y-121119047D01*
X128214285Y-121071428D01*
X128452380Y-121071428D01*
X128547619Y-121023809D01*
X129023809Y-121452380D02*
X129023809Y-120785714D01*
X129023809Y-120976190D02*
X129071428Y-120880952D01*
X129119047Y-120833333D01*
X129214285Y-120785714D01*
X129309523Y-120785714D01*
X130976190Y-121452380D02*
X130642857Y-120976190D01*
X130404761Y-121452380D02*
X130404761Y-120452380D01*
X130785714Y-120452380D01*
X130880952Y-120500000D01*
X130928571Y-120547619D01*
X130976190Y-120642857D01*
X130976190Y-120785714D01*
X130928571Y-120880952D01*
X130880952Y-120928571D01*
X130785714Y-120976190D01*
X130404761Y-120976190D01*
X131785714Y-121404761D02*
X131690476Y-121452380D01*
X131500000Y-121452380D01*
X131404761Y-121404761D01*
X131357142Y-121309523D01*
X131357142Y-120928571D01*
X131404761Y-120833333D01*
X131500000Y-120785714D01*
X131690476Y-120785714D01*
X131785714Y-120833333D01*
X131833333Y-120928571D01*
X131833333Y-121023809D01*
X131357142Y-121119047D01*
X132690476Y-120785714D02*
X132690476Y-121595238D01*
X132642857Y-121690476D01*
X132595238Y-121738095D01*
X132500000Y-121785714D01*
X132357142Y-121785714D01*
X132261904Y-121738095D01*
X132690476Y-121404761D02*
X132595238Y-121452380D01*
X132404761Y-121452380D01*
X132309523Y-121404761D01*
X132261904Y-121357142D01*
X132214285Y-121261904D01*
X132214285Y-120976190D01*
X132261904Y-120880952D01*
X132309523Y-120833333D01*
X132404761Y-120785714D01*
X132595238Y-120785714D01*
X132690476Y-120833333D01*
X133595238Y-120785714D02*
X133595238Y-121452380D01*
X133166666Y-120785714D02*
X133166666Y-121309523D01*
X133214285Y-121404761D01*
X133309523Y-121452380D01*
X133452380Y-121452380D01*
X133547619Y-121404761D01*
X133595238Y-121357142D01*
X134214285Y-121452380D02*
X134119047Y-121404761D01*
X134071428Y-121309523D01*
X134071428Y-120452380D01*
X135023809Y-121452380D02*
X135023809Y-120928571D01*
X134976190Y-120833333D01*
X134880952Y-120785714D01*
X134690476Y-120785714D01*
X134595238Y-120833333D01*
X135023809Y-121404761D02*
X134928571Y-121452380D01*
X134690476Y-121452380D01*
X134595238Y-121404761D01*
X134547619Y-121309523D01*
X134547619Y-121214285D01*
X134595238Y-121119047D01*
X134690476Y-121071428D01*
X134928571Y-121071428D01*
X135023809Y-121023809D01*
X135357142Y-120785714D02*
X135738095Y-120785714D01*
X135500000Y-120452380D02*
X135500000Y-121309523D01*
X135547619Y-121404761D01*
X135642857Y-121452380D01*
X135738095Y-121452380D01*
X136214285Y-121452380D02*
X136119047Y-121404761D01*
X136071428Y-121357142D01*
X136023809Y-121261904D01*
X136023809Y-120976190D01*
X136071428Y-120880952D01*
X136119047Y-120833333D01*
X136214285Y-120785714D01*
X136357142Y-120785714D01*
X136452380Y-120833333D01*
X136500000Y-120880952D01*
X136547619Y-120976190D01*
X136547619Y-121261904D01*
X136500000Y-121357142D01*
X136452380Y-121404761D01*
X136357142Y-121452380D01*
X136214285Y-121452380D01*
X136976190Y-121452380D02*
X136976190Y-120785714D01*
X136976190Y-120976190D02*
X137023809Y-120880952D01*
X137071428Y-120833333D01*
X137166666Y-120785714D01*
X137261904Y-120785714D01*
X137547619Y-121404761D02*
X137642857Y-121452380D01*
X137833333Y-121452380D01*
X137928571Y-121404761D01*
X137976190Y-121309523D01*
X137976190Y-121261904D01*
X137928571Y-121166666D01*
X137833333Y-121119047D01*
X137690476Y-121119047D01*
X137595238Y-121071428D01*
X137547619Y-120976190D01*
X137547619Y-120928571D01*
X137595238Y-120833333D01*
X137690476Y-120785714D01*
X137833333Y-120785714D01*
X137928571Y-120833333D01*
X73385714Y-120152380D02*
X73385714Y-121104761D01*
X72719047Y-119104761D02*
X73385714Y-120152380D01*
X74052380Y-119104761D01*
X74623809Y-120533333D02*
X75576190Y-120533333D01*
X74433333Y-121104761D02*
X75100000Y-119104761D01*
X75766666Y-121104761D01*
X76433333Y-121104761D02*
X76433333Y-119104761D01*
X77195238Y-119104761D01*
X77385714Y-119200000D01*
X77480952Y-119295238D01*
X77576190Y-119485714D01*
X77576190Y-119771428D01*
X77480952Y-119961904D01*
X77385714Y-120057142D01*
X77195238Y-120152380D01*
X76433333Y-120152380D01*
X78338095Y-121009523D02*
X78623809Y-121104761D01*
X79100000Y-121104761D01*
X79290476Y-121009523D01*
X79385714Y-120914285D01*
X79480952Y-120723809D01*
X79480952Y-120533333D01*
X79385714Y-120342857D01*
X79290476Y-120247619D01*
X79100000Y-120152380D01*
X78719047Y-120057142D01*
X78528571Y-119961904D01*
X78433333Y-119866666D01*
X78338095Y-119676190D01*
X78338095Y-119485714D01*
X78433333Y-119295238D01*
X78528571Y-119200000D01*
X78719047Y-119104761D01*
X79195238Y-119104761D01*
X79480952Y-119200000D01*
X81671428Y-119771428D02*
X82147619Y-121104761D01*
X82623809Y-119771428D01*
X84433333Y-121104761D02*
X83290476Y-121104761D01*
X83861904Y-121104761D02*
X83861904Y-119104761D01*
X83671428Y-119390476D01*
X83480952Y-119580952D01*
X83290476Y-119676190D01*
X85290476Y-120914285D02*
X85385714Y-121009523D01*
X85290476Y-121104761D01*
X85195238Y-121009523D01*
X85290476Y-120914285D01*
X85290476Y-121104761D01*
X87290476Y-121104761D02*
X86147619Y-121104761D01*
X86719047Y-121104761D02*
X86719047Y-119104761D01*
X86528571Y-119390476D01*
X86338095Y-119580952D01*
X86147619Y-119676190D01*
D11*
X100000000Y-116000000D02*
X100000000Y-125000000D01*
X104500000Y-65000000D02*
X104500000Y-50000000D01*
D10*
X102452380Y-62000000D02*
X102452380Y-62476190D01*
X102928571Y-62523809D01*
X102880952Y-62476190D01*
X102833333Y-62380952D01*
X102833333Y-62142857D01*
X102880952Y-62047619D01*
X102928571Y-62000000D01*
X103023809Y-61952380D01*
X103261904Y-61952380D01*
X103357142Y-62000000D01*
X103404761Y-62047619D01*
X103452380Y-62142857D01*
X103452380Y-62380952D01*
X103404761Y-62476190D01*
X103357142Y-62523809D01*
X102785714Y-61619047D02*
X103452380Y-61380952D01*
X102785714Y-61142857D01*
X103404761Y-60047619D02*
X103452380Y-59904761D01*
X103452380Y-59666666D01*
X103404761Y-59571428D01*
X103357142Y-59523809D01*
X103261904Y-59476190D01*
X103166666Y-59476190D01*
X103071428Y-59523809D01*
X103023809Y-59571428D01*
X102976190Y-59666666D01*
X102928571Y-59857142D01*
X102880952Y-59952380D01*
X102833333Y-60000000D01*
X102738095Y-60047619D01*
X102642857Y-60047619D01*
X102547619Y-60000000D01*
X102500000Y-59952380D01*
X102452380Y-59857142D01*
X102452380Y-59619047D01*
X102500000Y-59476190D01*
X102785714Y-58619047D02*
X103452380Y-58619047D01*
X102785714Y-59047619D02*
X103309523Y-59047619D01*
X103404761Y-59000000D01*
X103452380Y-58904761D01*
X103452380Y-58761904D01*
X103404761Y-58666666D01*
X103357142Y-58619047D01*
X102785714Y-58142857D02*
X103785714Y-58142857D01*
X102833333Y-58142857D02*
X102785714Y-58047619D01*
X102785714Y-57857142D01*
X102833333Y-57761904D01*
X102880952Y-57714285D01*
X102976190Y-57666666D01*
X103261904Y-57666666D01*
X103357142Y-57714285D01*
X103404761Y-57761904D01*
X103452380Y-57857142D01*
X103452380Y-58047619D01*
X103404761Y-58142857D01*
X102785714Y-57238095D02*
X103785714Y-57238095D01*
X102833333Y-57238095D02*
X102785714Y-57142857D01*
X102785714Y-56952380D01*
X102833333Y-56857142D01*
X102880952Y-56809523D01*
X102976190Y-56761904D01*
X103261904Y-56761904D01*
X103357142Y-56809523D01*
X103404761Y-56857142D01*
X103452380Y-56952380D01*
X103452380Y-57142857D01*
X103404761Y-57238095D01*
X103452380Y-56190476D02*
X103404761Y-56285714D01*
X103309523Y-56333333D01*
X102452380Y-56333333D01*
X102785714Y-55904761D02*
X103452380Y-55666666D01*
X102785714Y-55428571D02*
X103452380Y-55666666D01*
X103690476Y-55761904D01*
X103738095Y-55809523D01*
X103785714Y-55904761D01*
X115027142Y-90928571D02*
X115074761Y-90976190D01*
X115122380Y-91119047D01*
X115122380Y-91214285D01*
X115074761Y-91357142D01*
X114979523Y-91452380D01*
X114884285Y-91500000D01*
X114693809Y-91547619D01*
X114550952Y-91547619D01*
X114360476Y-91500000D01*
X114265238Y-91452380D01*
X114170000Y-91357142D01*
X114122380Y-91214285D01*
X114122380Y-91119047D01*
X114170000Y-90976190D01*
X114217619Y-90928571D01*
X114455714Y-90071428D02*
X115122380Y-90071428D01*
X114455714Y-90500000D02*
X114979523Y-90500000D01*
X115074761Y-90452380D01*
X115122380Y-90357142D01*
X115122380Y-90214285D01*
X115074761Y-90119047D01*
X115027142Y-90071428D01*
X115122380Y-89595238D02*
X114455714Y-89595238D01*
X114646190Y-89595238D02*
X114550952Y-89547619D01*
X114503333Y-89500000D01*
X114455714Y-89404761D01*
X114455714Y-89309523D01*
X115122380Y-88976190D02*
X114455714Y-88976190D01*
X114646190Y-88976190D02*
X114550952Y-88928571D01*
X114503333Y-88880952D01*
X114455714Y-88785714D01*
X114455714Y-88690476D01*
X115074761Y-87976190D02*
X115122380Y-88071428D01*
X115122380Y-88261904D01*
X115074761Y-88357142D01*
X114979523Y-88404761D01*
X114598571Y-88404761D01*
X114503333Y-88357142D01*
X114455714Y-88261904D01*
X114455714Y-88071428D01*
X114503333Y-87976190D01*
X114598571Y-87928571D01*
X114693809Y-87928571D01*
X114789047Y-88404761D01*
X114455714Y-87500000D02*
X115122380Y-87500000D01*
X114550952Y-87500000D02*
X114503333Y-87452380D01*
X114455714Y-87357142D01*
X114455714Y-87214285D01*
X114503333Y-87119047D01*
X114598571Y-87071428D01*
X115122380Y-87071428D01*
X114455714Y-86738095D02*
X114455714Y-86357142D01*
X114122380Y-86595238D02*
X114979523Y-86595238D01*
X115074761Y-86547619D01*
X115122380Y-86452380D01*
X115122380Y-86357142D01*
X116734761Y-91357142D02*
X116782380Y-91214285D01*
X116782380Y-90976190D01*
X116734761Y-90880952D01*
X116687142Y-90833333D01*
X116591904Y-90785714D01*
X116496666Y-90785714D01*
X116401428Y-90833333D01*
X116353809Y-90880952D01*
X116306190Y-90976190D01*
X116258571Y-91166666D01*
X116210952Y-91261904D01*
X116163333Y-91309523D01*
X116068095Y-91357142D01*
X115972857Y-91357142D01*
X115877619Y-91309523D01*
X115830000Y-91261904D01*
X115782380Y-91166666D01*
X115782380Y-90928571D01*
X115830000Y-90785714D01*
X116782380Y-90214285D02*
X116734761Y-90309523D01*
X116687142Y-90357142D01*
X116591904Y-90404761D01*
X116306190Y-90404761D01*
X116210952Y-90357142D01*
X116163333Y-90309523D01*
X116115714Y-90214285D01*
X116115714Y-90071428D01*
X116163333Y-89976190D01*
X116210952Y-89928571D01*
X116306190Y-89880952D01*
X116591904Y-89880952D01*
X116687142Y-89928571D01*
X116734761Y-89976190D01*
X116782380Y-90071428D01*
X116782380Y-90214285D01*
X116115714Y-89023809D02*
X116782380Y-89023809D01*
X116115714Y-89452380D02*
X116639523Y-89452380D01*
X116734761Y-89404761D01*
X116782380Y-89309523D01*
X116782380Y-89166666D01*
X116734761Y-89071428D01*
X116687142Y-89023809D01*
X116782380Y-88547619D02*
X116115714Y-88547619D01*
X116306190Y-88547619D02*
X116210952Y-88500000D01*
X116163333Y-88452380D01*
X116115714Y-88357142D01*
X116115714Y-88261904D01*
X116734761Y-87500000D02*
X116782380Y-87595238D01*
X116782380Y-87785714D01*
X116734761Y-87880952D01*
X116687142Y-87928571D01*
X116591904Y-87976190D01*
X116306190Y-87976190D01*
X116210952Y-87928571D01*
X116163333Y-87880952D01*
X116115714Y-87785714D01*
X116115714Y-87595238D01*
X116163333Y-87500000D01*
X116734761Y-86690476D02*
X116782380Y-86785714D01*
X116782380Y-86976190D01*
X116734761Y-87071428D01*
X116639523Y-87119047D01*
X116258571Y-87119047D01*
X116163333Y-87071428D01*
X116115714Y-86976190D01*
X116115714Y-86785714D01*
X116163333Y-86690476D01*
X116258571Y-86642857D01*
X116353809Y-86642857D01*
X116449047Y-87119047D01*
D11*
X118000000Y-92500000D02*
X100000000Y-92500000D01*
X118000000Y-65000000D02*
X118000000Y-92500000D01*
X100000000Y-65000000D02*
X118000000Y-65000000D01*
D10*
X125642857Y-117452380D02*
X125642857Y-116452380D01*
X125642857Y-116928571D02*
X126214285Y-116928571D01*
X126214285Y-117452380D02*
X126214285Y-116452380D01*
X127071428Y-117404761D02*
X126976190Y-117452380D01*
X126785714Y-117452380D01*
X126690476Y-117404761D01*
X126642857Y-117309523D01*
X126642857Y-116928571D01*
X126690476Y-116833333D01*
X126785714Y-116785714D01*
X126976190Y-116785714D01*
X127071428Y-116833333D01*
X127119047Y-116928571D01*
X127119047Y-117023809D01*
X126642857Y-117119047D01*
X127976190Y-117452380D02*
X127976190Y-116928571D01*
X127928571Y-116833333D01*
X127833333Y-116785714D01*
X127642857Y-116785714D01*
X127547619Y-116833333D01*
X127976190Y-117404761D02*
X127880952Y-117452380D01*
X127642857Y-117452380D01*
X127547619Y-117404761D01*
X127500000Y-117309523D01*
X127500000Y-117214285D01*
X127547619Y-117119047D01*
X127642857Y-117071428D01*
X127880952Y-117071428D01*
X127976190Y-117023809D01*
X128309523Y-116785714D02*
X128690476Y-116785714D01*
X128452380Y-116452380D02*
X128452380Y-117309523D01*
X128500000Y-117404761D01*
X128595238Y-117452380D01*
X128690476Y-117452380D01*
X128976190Y-117404761D02*
X129071428Y-117452380D01*
X129261904Y-117452380D01*
X129357142Y-117404761D01*
X129404761Y-117309523D01*
X129404761Y-117261904D01*
X129357142Y-117166666D01*
X129261904Y-117119047D01*
X129119047Y-117119047D01*
X129023809Y-117071428D01*
X128976190Y-116976190D01*
X128976190Y-116928571D01*
X129023809Y-116833333D01*
X129119047Y-116785714D01*
X129261904Y-116785714D01*
X129357142Y-116833333D01*
X129833333Y-117452380D02*
X129833333Y-116785714D01*
X129833333Y-116452380D02*
X129785714Y-116500000D01*
X129833333Y-116547619D01*
X129880952Y-116500000D01*
X129833333Y-116452380D01*
X129833333Y-116547619D01*
X130309523Y-116785714D02*
X130309523Y-117452380D01*
X130309523Y-116880952D02*
X130357142Y-116833333D01*
X130452380Y-116785714D01*
X130595238Y-116785714D01*
X130690476Y-116833333D01*
X130738095Y-116928571D01*
X130738095Y-117452380D01*
X131214285Y-117452380D02*
X131214285Y-116452380D01*
X131309523Y-117071428D02*
X131595238Y-117452380D01*
X131595238Y-116785714D02*
X131214285Y-117166666D01*
X131976190Y-117404761D02*
X132071428Y-117452380D01*
X132261904Y-117452380D01*
X132357142Y-117404761D01*
X132404761Y-117309523D01*
X132404761Y-117261904D01*
X132357142Y-117166666D01*
X132261904Y-117119047D01*
X132119047Y-117119047D01*
X132023809Y-117071428D01*
X131976190Y-116976190D01*
X131976190Y-116928571D01*
X132023809Y-116833333D01*
X132119047Y-116785714D01*
X132261904Y-116785714D01*
X132357142Y-116833333D01*
D11*
X100000000Y-65000000D02*
X100000000Y-116000000D01*
X91000000Y-65000000D02*
X91000000Y-50000000D01*
X100000000Y-65000000D02*
X91000000Y-65000000D01*
X155000000Y-116000000D02*
X155000000Y-103000000D01*
X131000000Y-103000000D02*
X130000000Y-103000000D01*
X130000000Y-116000000D02*
X155000000Y-116000000D01*
X130000000Y-103000000D02*
X130000000Y-116000000D01*
X155000000Y-103000000D02*
X154000000Y-103000000D01*
X154000000Y-115000000D02*
X131000000Y-115000000D01*
X154000000Y-103000000D02*
X154000000Y-115000000D01*
X131000000Y-115000000D02*
X131000000Y-103000000D01*
X102000000Y-103000000D02*
X102000000Y-116000000D01*
X103000000Y-103000000D02*
X102000000Y-103000000D01*
X103000000Y-115000000D02*
X103000000Y-103000000D01*
X126000000Y-115000000D02*
X103000000Y-115000000D01*
X126000000Y-103000000D02*
X126000000Y-115000000D01*
X127000000Y-103000000D02*
X126000000Y-103000000D01*
X127000000Y-116000000D02*
X127000000Y-103000000D01*
X102000000Y-116000000D02*
X127000000Y-116000000D01*
D10*
X62642857Y-111574761D02*
X62785714Y-111622380D01*
X63023809Y-111622380D01*
X63119047Y-111574761D01*
X63166666Y-111527142D01*
X63214285Y-111431904D01*
X63214285Y-111336666D01*
X63166666Y-111241428D01*
X63119047Y-111193809D01*
X63023809Y-111146190D01*
X62833333Y-111098571D01*
X62738095Y-111050952D01*
X62690476Y-111003333D01*
X62642857Y-110908095D01*
X62642857Y-110812857D01*
X62690476Y-110717619D01*
X62738095Y-110670000D01*
X62833333Y-110622380D01*
X63071428Y-110622380D01*
X63214285Y-110670000D01*
X63547619Y-110955714D02*
X63738095Y-111622380D01*
X63928571Y-111146190D01*
X64119047Y-111622380D01*
X64309523Y-110955714D01*
X64690476Y-111622380D02*
X64690476Y-110955714D01*
X64690476Y-110622380D02*
X64642857Y-110670000D01*
X64690476Y-110717619D01*
X64738095Y-110670000D01*
X64690476Y-110622380D01*
X64690476Y-110717619D01*
X65023809Y-110955714D02*
X65404761Y-110955714D01*
X65166666Y-110622380D02*
X65166666Y-111479523D01*
X65214285Y-111574761D01*
X65309523Y-111622380D01*
X65404761Y-111622380D01*
X66166666Y-111574761D02*
X66071428Y-111622380D01*
X65880952Y-111622380D01*
X65785714Y-111574761D01*
X65738095Y-111527142D01*
X65690476Y-111431904D01*
X65690476Y-111146190D01*
X65738095Y-111050952D01*
X65785714Y-111003333D01*
X65880952Y-110955714D01*
X66071428Y-110955714D01*
X66166666Y-111003333D01*
X66595238Y-111622380D02*
X66595238Y-110622380D01*
X67023809Y-111622380D02*
X67023809Y-111098571D01*
X66976190Y-111003333D01*
X66880952Y-110955714D01*
X66738095Y-110955714D01*
X66642857Y-111003333D01*
X66595238Y-111050952D01*
X67500000Y-111622380D02*
X67500000Y-110955714D01*
X67500000Y-110622380D02*
X67452380Y-110670000D01*
X67500000Y-110717619D01*
X67547619Y-110670000D01*
X67500000Y-110622380D01*
X67500000Y-110717619D01*
X67976190Y-110955714D02*
X67976190Y-111622380D01*
X67976190Y-111050952D02*
X68023809Y-111003333D01*
X68119047Y-110955714D01*
X68261904Y-110955714D01*
X68357142Y-111003333D01*
X68404761Y-111098571D01*
X68404761Y-111622380D01*
X69309523Y-110955714D02*
X69309523Y-111765238D01*
X69261904Y-111860476D01*
X69214285Y-111908095D01*
X69119047Y-111955714D01*
X68976190Y-111955714D01*
X68880952Y-111908095D01*
X69309523Y-111574761D02*
X69214285Y-111622380D01*
X69023809Y-111622380D01*
X68928571Y-111574761D01*
X68880952Y-111527142D01*
X68833333Y-111431904D01*
X68833333Y-111146190D01*
X68880952Y-111050952D01*
X68928571Y-111003333D01*
X69023809Y-110955714D01*
X69214285Y-110955714D01*
X69309523Y-111003333D01*
X63214285Y-113282380D02*
X62880952Y-112806190D01*
X62642857Y-113282380D02*
X62642857Y-112282380D01*
X63023809Y-112282380D01*
X63119047Y-112330000D01*
X63166666Y-112377619D01*
X63214285Y-112472857D01*
X63214285Y-112615714D01*
X63166666Y-112710952D01*
X63119047Y-112758571D01*
X63023809Y-112806190D01*
X62642857Y-112806190D01*
X64023809Y-113234761D02*
X63928571Y-113282380D01*
X63738095Y-113282380D01*
X63642857Y-113234761D01*
X63595238Y-113139523D01*
X63595238Y-112758571D01*
X63642857Y-112663333D01*
X63738095Y-112615714D01*
X63928571Y-112615714D01*
X64023809Y-112663333D01*
X64071428Y-112758571D01*
X64071428Y-112853809D01*
X63595238Y-112949047D01*
X64928571Y-112615714D02*
X64928571Y-113425238D01*
X64880952Y-113520476D01*
X64833333Y-113568095D01*
X64738095Y-113615714D01*
X64595238Y-113615714D01*
X64500000Y-113568095D01*
X64928571Y-113234761D02*
X64833333Y-113282380D01*
X64642857Y-113282380D01*
X64547619Y-113234761D01*
X64500000Y-113187142D01*
X64452380Y-113091904D01*
X64452380Y-112806190D01*
X64500000Y-112710952D01*
X64547619Y-112663333D01*
X64642857Y-112615714D01*
X64833333Y-112615714D01*
X64928571Y-112663333D01*
X65833333Y-112615714D02*
X65833333Y-113282380D01*
X65404761Y-112615714D02*
X65404761Y-113139523D01*
X65452380Y-113234761D01*
X65547619Y-113282380D01*
X65690476Y-113282380D01*
X65785714Y-113234761D01*
X65833333Y-113187142D01*
X66452380Y-113282380D02*
X66357142Y-113234761D01*
X66309523Y-113139523D01*
X66309523Y-112282380D01*
X67261904Y-113282380D02*
X67261904Y-112758571D01*
X67214285Y-112663333D01*
X67119047Y-112615714D01*
X66928571Y-112615714D01*
X66833333Y-112663333D01*
X67261904Y-113234761D02*
X67166666Y-113282380D01*
X66928571Y-113282380D01*
X66833333Y-113234761D01*
X66785714Y-113139523D01*
X66785714Y-113044285D01*
X66833333Y-112949047D01*
X66928571Y-112901428D01*
X67166666Y-112901428D01*
X67261904Y-112853809D01*
X67595238Y-112615714D02*
X67976190Y-112615714D01*
X67738095Y-112282380D02*
X67738095Y-113139523D01*
X67785714Y-113234761D01*
X67880952Y-113282380D01*
X67976190Y-113282380D01*
X68452380Y-113282380D02*
X68357142Y-113234761D01*
X68309523Y-113187142D01*
X68261904Y-113091904D01*
X68261904Y-112806190D01*
X68309523Y-112710952D01*
X68357142Y-112663333D01*
X68452380Y-112615714D01*
X68595238Y-112615714D01*
X68690476Y-112663333D01*
X68738095Y-112710952D01*
X68785714Y-112806190D01*
X68785714Y-113091904D01*
X68738095Y-113187142D01*
X68690476Y-113234761D01*
X68595238Y-113282380D01*
X68452380Y-113282380D01*
X69214285Y-113282380D02*
X69214285Y-112615714D01*
X69214285Y-112806190D02*
X69261904Y-112710952D01*
X69309523Y-112663333D01*
X69404761Y-112615714D01*
X69500000Y-112615714D01*
D11*
X60000000Y-116000000D02*
X100000000Y-116000000D01*
X71500000Y-71000000D02*
G75*
G03X71500000Y-71000000I-500000J0D01*
G01*
D12*
X62071428Y-61500000D02*
X62071428Y-60738095D01*
X61452380Y-60404761D02*
X62452380Y-60071428D01*
X61452380Y-59738095D01*
X62452380Y-59404761D02*
X61785714Y-59404761D01*
X61452380Y-59404761D02*
X61500000Y-59452380D01*
X61547619Y-59404761D01*
X61500000Y-59357142D01*
X61452380Y-59404761D01*
X61547619Y-59404761D01*
X61785714Y-58928571D02*
X62452380Y-58928571D01*
X61880952Y-58928571D02*
X61833333Y-58880952D01*
X61785714Y-58785714D01*
X61785714Y-58642857D01*
X61833333Y-58547619D01*
X61928571Y-58500000D01*
X62452380Y-58500000D01*
X62071428Y-69000000D02*
X62071428Y-68238095D01*
X62452380Y-68619047D02*
X61690476Y-68619047D01*
X61452380Y-67904761D02*
X62452380Y-67571428D01*
X61452380Y-67238095D01*
X62452380Y-66904761D02*
X61785714Y-66904761D01*
X61452380Y-66904761D02*
X61500000Y-66952380D01*
X61547619Y-66904761D01*
X61500000Y-66857142D01*
X61452380Y-66904761D01*
X61547619Y-66904761D01*
X61785714Y-66428571D02*
X62452380Y-66428571D01*
X61880952Y-66428571D02*
X61833333Y-66380952D01*
X61785714Y-66285714D01*
X61785714Y-66142857D01*
X61833333Y-66047619D01*
X61928571Y-66000000D01*
X62452380Y-66000000D01*
D11*
X80990000Y-68000000D02*
X81990000Y-68000000D01*
X81490000Y-68500000D02*
X81490000Y-67500000D01*
X87195563Y-67260000D02*
X88260000Y-66195563D01*
X80804437Y-67260000D02*
X79740000Y-66195563D01*
X80804437Y-67260000D02*
X82490000Y-67260000D01*
X87195563Y-67260000D02*
X85510000Y-67260000D01*
X88260000Y-66195563D02*
X88260000Y-58740000D01*
X79740000Y-66195563D02*
X79740000Y-58740000D01*
X79740000Y-58740000D02*
X82490000Y-58740000D01*
X88260000Y-58740000D02*
X85510000Y-58740000D01*
X75790000Y-65261252D02*
X75790000Y-64738748D01*
X77210000Y-65261252D02*
X77210000Y-64738748D01*
X63290000Y-72738748D02*
X63290000Y-73261252D01*
X64710000Y-72738748D02*
X64710000Y-73261252D01*
X67790000Y-75761252D02*
X67790000Y-75238748D01*
X69210000Y-75761252D02*
X69210000Y-75238748D01*
X81290000Y-71738748D02*
X81290000Y-72261252D01*
X82710000Y-71738748D02*
X82710000Y-72261252D01*
X75838748Y-80010000D02*
X76361252Y-80010000D01*
X75838748Y-78590000D02*
X76361252Y-78590000D01*
X80236252Y-93290000D02*
X79713748Y-93290000D01*
X80236252Y-94710000D02*
X79713748Y-94710000D01*
X89290000Y-72261252D02*
X89290000Y-71738748D01*
X90710000Y-72261252D02*
X90710000Y-71738748D01*
X78740000Y-105240000D02*
X78740000Y-107990000D01*
X78740000Y-113760000D02*
X78740000Y-111010000D01*
X86195563Y-113760000D02*
X78740000Y-113760000D01*
X86195563Y-105240000D02*
X78740000Y-105240000D01*
X87260000Y-106304437D02*
X87260000Y-107990000D01*
X87260000Y-112695563D02*
X87260000Y-111010000D01*
X87260000Y-112695563D02*
X86195563Y-113760000D01*
X87260000Y-106304437D02*
X86195563Y-105240000D01*
X88500000Y-112010000D02*
X87500000Y-112010000D01*
X88000000Y-112510000D02*
X88000000Y-111510000D01*
X101790000Y-118738748D02*
X101790000Y-119261252D01*
X103210000Y-118738748D02*
X103210000Y-119261252D01*
X105790000Y-118738748D02*
X105790000Y-119261252D01*
X107210000Y-118738748D02*
X107210000Y-119261252D01*
X111210000Y-118738748D02*
X111210000Y-119261252D01*
X109790000Y-118738748D02*
X109790000Y-119261252D01*
X115210000Y-118738748D02*
X115210000Y-119261252D01*
X113790000Y-118738748D02*
X113790000Y-119261252D01*
X119210000Y-118738748D02*
X119210000Y-119261252D01*
X117790000Y-118738748D02*
X117790000Y-119261252D01*
X122238748Y-103290000D02*
X122761252Y-103290000D01*
X122238748Y-104710000D02*
X122761252Y-104710000D01*
X132738748Y-92210000D02*
X133261252Y-92210000D01*
X132738748Y-90790000D02*
X133261252Y-90790000D01*
X120738748Y-90790000D02*
X121261252Y-90790000D01*
X120738748Y-92210000D02*
X121261252Y-92210000D01*
X127261252Y-90790000D02*
X126738748Y-90790000D01*
X127261252Y-92210000D02*
X126738748Y-92210000D01*
X120738748Y-86790000D02*
X121261252Y-86790000D01*
X120738748Y-88210000D02*
X121261252Y-88210000D01*
X126738748Y-86790000D02*
X127261252Y-86790000D01*
X126738748Y-88210000D02*
X127261252Y-88210000D01*
X120738748Y-82790000D02*
X121261252Y-82790000D01*
X120738748Y-84210000D02*
X121261252Y-84210000D01*
X107710000Y-54261252D02*
X107710000Y-53738748D01*
X106290000Y-54261252D02*
X106290000Y-53738748D01*
X112738748Y-59710000D02*
X113261252Y-59710000D01*
X112738748Y-58290000D02*
X113261252Y-58290000D01*
X107261252Y-58290000D02*
X106738748Y-58290000D01*
X107261252Y-59710000D02*
X106738748Y-59710000D01*
X143290000Y-80238748D02*
X143290000Y-80761252D01*
X144710000Y-80238748D02*
X144710000Y-80761252D01*
X81800000Y-91000000D02*
X71100000Y-91000000D01*
X81800000Y-84000000D02*
X71100000Y-84000000D01*
X81800000Y-84000000D02*
X81800000Y-91000000D01*
X109500000Y-91300000D02*
X102500000Y-91300000D01*
X109500000Y-91300000D02*
X109500000Y-80600000D01*
X102500000Y-91300000D02*
X102500000Y-80600000D01*
X148380000Y-58530000D02*
X148380000Y-52510000D01*
X148380000Y-52510000D02*
X143080000Y-52510000D01*
X143080000Y-52510000D02*
X143080000Y-58530000D01*
X143080000Y-58530000D02*
X148380000Y-58530000D01*
X148670000Y-57500000D02*
X148670000Y-53500000D01*
X147000000Y-52510000D02*
X147000000Y-53510000D01*
X147000000Y-53510000D02*
X144460000Y-53510000D01*
X144460000Y-53510000D02*
X144460000Y-52510000D01*
X147000000Y-53510000D02*
X146750000Y-54040000D01*
X146750000Y-54040000D02*
X144710000Y-54040000D01*
X144710000Y-54040000D02*
X144460000Y-53510000D01*
X146750000Y-52510000D02*
X146750000Y-53510000D01*
X144710000Y-52510000D02*
X144710000Y-53510000D01*
X147800000Y-58530000D02*
X147800000Y-57930000D01*
X147800000Y-57930000D02*
X146200000Y-57930000D01*
X146200000Y-57930000D02*
X146200000Y-58530000D01*
X145260000Y-58530000D02*
X145260000Y-57930000D01*
X145260000Y-57930000D02*
X143660000Y-57930000D01*
X143660000Y-57930000D02*
X143660000Y-58530000D01*
X66465244Y-61683318D02*
G75*
G02X66320000Y-61000000I1534756J683318D01*
G01*
X68683042Y-62535426D02*
G75*
G02X67316000Y-62535000I-683042J1535426D01*
G01*
X69535426Y-60316958D02*
G75*
G02X69535000Y-61684000I-1535426J-683042D01*
G01*
X67316958Y-59464574D02*
G75*
G02X68684000Y-59465000I683042J-1535426D01*
G01*
X66319747Y-61028805D02*
G75*
G02X66465000Y-60316000I1680253J28805D01*
G01*
X69680000Y-66080000D02*
G75*
G03X69680000Y-66080000I-1680000J0D01*
G01*
X63900000Y-58400000D02*
X63900000Y-68680000D01*
X65400000Y-58400000D02*
X65400000Y-68680000D01*
X70301000Y-58400000D02*
X70301000Y-68680000D01*
X73261000Y-58400000D02*
X73261000Y-68680000D01*
X63340000Y-58400000D02*
X63340000Y-68680000D01*
X73261000Y-58400000D02*
X63340000Y-58400000D01*
X73261000Y-68680000D02*
X63340000Y-68680000D01*
X69069000Y-67355000D02*
X69023000Y-67308000D01*
X66761000Y-65046000D02*
X66726000Y-65011000D01*
X69275000Y-67150000D02*
X69239000Y-67115000D01*
X66977000Y-64853000D02*
X66931000Y-64806000D01*
X63840000Y-58160000D02*
X63100000Y-58160000D01*
X63100000Y-58160000D02*
X63100000Y-58660000D01*
X152320000Y-85500000D02*
X151720000Y-85500000D01*
X152320000Y-87100000D02*
X152320000Y-85500000D01*
X151720000Y-87100000D02*
X152320000Y-87100000D01*
X152320000Y-88040000D02*
X151720000Y-88040000D01*
X152320000Y-89640000D02*
X152320000Y-88040000D01*
X151720000Y-89640000D02*
X152320000Y-89640000D01*
X152320000Y-90580000D02*
X151720000Y-90580000D01*
X152320000Y-92180000D02*
X152320000Y-90580000D01*
X151720000Y-92180000D02*
X152320000Y-92180000D01*
X152320000Y-93120000D02*
X151720000Y-93120000D01*
X152320000Y-94720000D02*
X152320000Y-93120000D01*
X151720000Y-94720000D02*
X152320000Y-94720000D01*
X152320000Y-95660000D02*
X151720000Y-95660000D01*
X152320000Y-97260000D02*
X152320000Y-95660000D01*
X151720000Y-97260000D02*
X152320000Y-97260000D01*
X152320000Y-98200000D02*
X151720000Y-98200000D01*
X152320000Y-99800000D02*
X152320000Y-98200000D01*
X151720000Y-99800000D02*
X152320000Y-99800000D01*
X157740000Y-86550000D02*
X156740000Y-86550000D01*
X157740000Y-98750000D02*
X156740000Y-98750000D01*
X156210000Y-86550000D02*
X156740000Y-86300000D01*
X156210000Y-98750000D02*
X156210000Y-86550000D01*
X156740000Y-99000000D02*
X156210000Y-98750000D01*
X156740000Y-86300000D02*
X157740000Y-86300000D01*
X156740000Y-99000000D02*
X156740000Y-86300000D01*
X157740000Y-99000000D02*
X156740000Y-99000000D01*
X152750000Y-100670000D02*
X156750000Y-100670000D01*
X151720000Y-84920000D02*
X151720000Y-100380000D01*
X157740000Y-84920000D02*
X151720000Y-84920000D01*
X157740000Y-100380000D02*
X157740000Y-84920000D01*
X151720000Y-100380000D02*
X157740000Y-100380000D01*
X145630000Y-73030000D02*
X145630000Y-67010000D01*
X145630000Y-67010000D02*
X125090000Y-67010000D01*
X125090000Y-67010000D02*
X125090000Y-73030000D01*
X125090000Y-73030000D02*
X145630000Y-73030000D01*
X145920000Y-72000000D02*
X145920000Y-68000000D01*
X144250000Y-67010000D02*
X144250000Y-68010000D01*
X144250000Y-68010000D02*
X139170000Y-68010000D01*
X139170000Y-68010000D02*
X139170000Y-67010000D01*
X144250000Y-68010000D02*
X144000000Y-68540000D01*
X144000000Y-68540000D02*
X139170000Y-68540000D01*
X139170000Y-68540000D02*
X139170000Y-68010000D01*
X144000000Y-67010000D02*
X144000000Y-68010000D01*
X126470000Y-67010000D02*
X126470000Y-68010000D01*
X126470000Y-68010000D02*
X131550000Y-68010000D01*
X131550000Y-68010000D02*
X131550000Y-67010000D01*
X126470000Y-68010000D02*
X126720000Y-68540000D01*
X126720000Y-68540000D02*
X131550000Y-68540000D01*
X131550000Y-68540000D02*
X131550000Y-68010000D01*
X126720000Y-67010000D02*
X126720000Y-68010000D01*
X145050000Y-73030000D02*
X145050000Y-72430000D01*
X145050000Y-72430000D02*
X143450000Y-72430000D01*
X143450000Y-72430000D02*
X143450000Y-73030000D01*
X142510000Y-73030000D02*
X142510000Y-72430000D01*
X142510000Y-72430000D02*
X140910000Y-72430000D01*
X140910000Y-72430000D02*
X140910000Y-73030000D01*
X139970000Y-73030000D02*
X139970000Y-72430000D01*
X139970000Y-72430000D02*
X138370000Y-72430000D01*
X138370000Y-72430000D02*
X138370000Y-73030000D01*
X137430000Y-73030000D02*
X137430000Y-72430000D01*
X137430000Y-72430000D02*
X135830000Y-72430000D01*
X135830000Y-72430000D02*
X135830000Y-73030000D01*
X134890000Y-73030000D02*
X134890000Y-72430000D01*
X134890000Y-72430000D02*
X133290000Y-72430000D01*
X133290000Y-72430000D02*
X133290000Y-73030000D01*
X132350000Y-73030000D02*
X132350000Y-72430000D01*
X132350000Y-72430000D02*
X130750000Y-72430000D01*
X130750000Y-72430000D02*
X130750000Y-73030000D01*
X129810000Y-73030000D02*
X129810000Y-72430000D01*
X129810000Y-72430000D02*
X128210000Y-72430000D01*
X128210000Y-72430000D02*
X128210000Y-73030000D01*
X127270000Y-73030000D02*
X127270000Y-72430000D01*
X127270000Y-72430000D02*
X125670000Y-72430000D01*
X125670000Y-72430000D02*
X125670000Y-73030000D01*
X157900000Y-82340000D02*
X157900000Y-81840000D01*
X157160000Y-82340000D02*
X157900000Y-82340000D01*
X154023000Y-75647000D02*
X154069000Y-75694000D01*
X151725000Y-73350000D02*
X151761000Y-73385000D01*
X154239000Y-75454000D02*
X154274000Y-75489000D01*
X151931000Y-73145000D02*
X151977000Y-73192000D01*
X147739000Y-71820000D02*
X157660000Y-71820000D01*
X147739000Y-82100000D02*
X157660000Y-82100000D01*
X157660000Y-82100000D02*
X157660000Y-71820000D01*
X147739000Y-82100000D02*
X147739000Y-71820000D01*
X150699000Y-82100000D02*
X150699000Y-71820000D01*
X155600000Y-82100000D02*
X155600000Y-71820000D01*
X157100000Y-82100000D02*
X157100000Y-71820000D01*
X154680000Y-74420000D02*
G75*
G03X154680000Y-74420000I-1680000J0D01*
G01*
X154680253Y-79471195D02*
G75*
G02X154535000Y-80184000I-1680253J-28805D01*
G01*
X153683042Y-81035426D02*
G75*
G02X152316000Y-81035000I-683042J1535426D01*
G01*
X151464574Y-80183042D02*
G75*
G02X151465000Y-78816000I1535426J683042D01*
G01*
X152316958Y-77964574D02*
G75*
G02X153684000Y-77965000I683042J-1535426D01*
G01*
X154534756Y-78816682D02*
G75*
G02X154680000Y-79500000I-1534756J-683318D01*
G01*
X140630000Y-58530000D02*
X140630000Y-52510000D01*
X140630000Y-52510000D02*
X125170000Y-52510000D01*
X125170000Y-52510000D02*
X125170000Y-58530000D01*
X125170000Y-58530000D02*
X140630000Y-58530000D01*
X140920000Y-57500000D02*
X140920000Y-53500000D01*
X139250000Y-52510000D02*
X139250000Y-53510000D01*
X139250000Y-53510000D02*
X126550000Y-53510000D01*
X126550000Y-53510000D02*
X126550000Y-52510000D01*
X139250000Y-53510000D02*
X139000000Y-54040000D01*
X139000000Y-54040000D02*
X126800000Y-54040000D01*
X126800000Y-54040000D02*
X126550000Y-53510000D01*
X139000000Y-52510000D02*
X139000000Y-53510000D01*
X126800000Y-52510000D02*
X126800000Y-53510000D01*
X140050000Y-58530000D02*
X140050000Y-57930000D01*
X140050000Y-57930000D02*
X138450000Y-57930000D01*
X138450000Y-57930000D02*
X138450000Y-58530000D01*
X137510000Y-58530000D02*
X137510000Y-57930000D01*
X137510000Y-57930000D02*
X135910000Y-57930000D01*
X135910000Y-57930000D02*
X135910000Y-58530000D01*
X134970000Y-58530000D02*
X134970000Y-57930000D01*
X134970000Y-57930000D02*
X133370000Y-57930000D01*
X133370000Y-57930000D02*
X133370000Y-58530000D01*
X132430000Y-58530000D02*
X132430000Y-57930000D01*
X132430000Y-57930000D02*
X130830000Y-57930000D01*
X130830000Y-57930000D02*
X130830000Y-58530000D01*
X129890000Y-58530000D02*
X129890000Y-57930000D01*
X129890000Y-57930000D02*
X128290000Y-57930000D01*
X128290000Y-57930000D02*
X128290000Y-58530000D01*
X127350000Y-58530000D02*
X127350000Y-57930000D01*
X127350000Y-57930000D02*
X125750000Y-57930000D01*
X125750000Y-57930000D02*
X125750000Y-58530000D01*
X97400000Y-99750000D02*
G75*
G02X96700000Y-100450000I-700000J0D01*
G01*
X85300000Y-100450000D02*
G75*
G02X84600000Y-99750000I0J700000D01*
G01*
X84600000Y-88250000D02*
G75*
G02X85300000Y-87550000I700000J0D01*
G01*
X96700000Y-87550000D02*
G75*
G02X97400000Y-88250000I0J-700000D01*
G01*
X88200000Y-100450000D02*
X85300000Y-100450000D01*
X88200000Y-87550000D02*
X85300000Y-87550000D01*
X96700000Y-100450000D02*
X93800000Y-100450000D01*
X84600000Y-99750000D02*
X84600000Y-88250000D01*
X96750000Y-87550000D02*
X93800000Y-87550000D01*
X97400000Y-88250000D02*
X97400000Y-99750000D01*
X91330000Y-80520000D02*
X81090000Y-80520000D01*
X91330000Y-75879000D02*
X81090000Y-75879000D01*
X91330000Y-80520000D02*
X91330000Y-75879000D01*
X81090000Y-80520000D02*
X81090000Y-75879000D01*
X91330000Y-79010000D02*
X81090000Y-79010000D01*
X88060000Y-80520000D02*
X88060000Y-79010000D01*
X84359000Y-80520000D02*
X84359000Y-79010000D01*
X118470000Y-64850000D02*
X122070000Y-64850000D01*
X118431522Y-64838478D02*
G75*
G02X120270000Y-60400000I1838478J1838478D01*
G01*
X122108478Y-64838478D02*
G75*
G03X120270000Y-60400000I-1838478J1838478D01*
G01*
X64710000Y-78738748D02*
X64710000Y-79261252D01*
X63290000Y-78738748D02*
X63290000Y-79261252D01*
X85290000Y-71738748D02*
X85290000Y-72261252D01*
X86710000Y-71738748D02*
X86710000Y-72261252D01*
X80261252Y-97290000D02*
X79738748Y-97290000D01*
X80261252Y-98710000D02*
X79738748Y-98710000D01*
X66710000Y-94713748D02*
X66710000Y-95236252D01*
X65290000Y-94713748D02*
X65290000Y-95236252D01*
X80261252Y-102710000D02*
X79738748Y-102710000D01*
X80261252Y-101290000D02*
X79738748Y-101290000D01*
X74261252Y-101290000D02*
X73738748Y-101290000D01*
X74261252Y-102710000D02*
X73738748Y-102710000D01*
X115261252Y-68290000D02*
X114738748Y-68290000D01*
X115261252Y-69710000D02*
X114738748Y-69710000D01*
X114738748Y-72290000D02*
X115261252Y-72290000D01*
X114738748Y-73710000D02*
X115261252Y-73710000D01*
X114738748Y-77710000D02*
X115261252Y-77710000D01*
X114738748Y-76290000D02*
X115261252Y-76290000D01*
X145638748Y-100810000D02*
X146161252Y-100810000D01*
X145638748Y-99390000D02*
X146161252Y-99390000D01*
X122238748Y-109710000D02*
X122761252Y-109710000D01*
X122238748Y-108290000D02*
X122761252Y-108290000D01*
X140261252Y-99390000D02*
X139738748Y-99390000D01*
X140261252Y-100810000D02*
X139738748Y-100810000D01*
X122238748Y-99290000D02*
X122761252Y-99290000D01*
X122238748Y-100710000D02*
X122761252Y-100710000D01*
X128738748Y-95290000D02*
X129261252Y-95290000D01*
X128738748Y-96710000D02*
X129261252Y-96710000D01*
X129261252Y-100710000D02*
X128738748Y-100710000D01*
X129261252Y-99290000D02*
X128738748Y-99290000D01*
X126738748Y-84210000D02*
X127261252Y-84210000D01*
X126738748Y-82790000D02*
X127261252Y-82790000D01*
X120738748Y-80210000D02*
X121261252Y-80210000D01*
X120738748Y-78790000D02*
X121261252Y-78790000D01*
X127261252Y-80210000D02*
X126738748Y-80210000D01*
X127261252Y-78790000D02*
X126738748Y-78790000D01*
X121261252Y-76210000D02*
X120738748Y-76210000D01*
X121261252Y-74790000D02*
X120738748Y-74790000D01*
X113261252Y-62290000D02*
X112738748Y-62290000D01*
X113261252Y-63710000D02*
X112738748Y-63710000D01*
X141261252Y-87710000D02*
X140738748Y-87710000D01*
X141261252Y-86290000D02*
X140738748Y-86290000D01*
X141261252Y-91710000D02*
X140738748Y-91710000D01*
X141261252Y-90290000D02*
X140738748Y-90290000D01*
X129710000Y-62761252D02*
X129710000Y-62238748D01*
X128290000Y-62761252D02*
X128290000Y-62238748D01*
X138540000Y-62761252D02*
X138540000Y-62238748D01*
X139960000Y-62761252D02*
X139960000Y-62238748D01*
X133540000Y-62761252D02*
X133540000Y-62238748D01*
X134960000Y-62761252D02*
X134960000Y-62238748D01*
D12*
X72925000Y-71425000D02*
X72925000Y-71475000D01*
X77075000Y-71425000D02*
X77075000Y-71570000D01*
X77075000Y-76575000D02*
X77075000Y-76430000D01*
X72925000Y-76575000D02*
X72925000Y-76430000D01*
X72925000Y-71425000D02*
X77075000Y-71425000D01*
X72925000Y-76575000D02*
X77075000Y-76575000D01*
X72925000Y-71475000D02*
X71525000Y-71475000D01*
D11*
X104090000Y-68590000D02*
X104090000Y-69850000D01*
X104090000Y-75410000D02*
X104090000Y-74150000D01*
X107850000Y-68590000D02*
X104090000Y-68590000D01*
X110100000Y-75410000D02*
X104090000Y-75410000D01*
X112120000Y-55560000D02*
X113880000Y-55560000D01*
X113880000Y-52490000D02*
X111450000Y-52490000D01*
D12*
X134800000Y-83725000D02*
X139200000Y-83725000D01*
X133225000Y-78200000D02*
X139200000Y-78200000D01*
D11*
X74260000Y-93650000D02*
X70660000Y-93650000D01*
X74784184Y-94377205D02*
G75*
G03X74260000Y-93650000I-2324184J-1122795D01*
G01*
X74816400Y-96598807D02*
G75*
G02X72460000Y-98100000I-2356400J1098807D01*
G01*
X70103600Y-96598807D02*
G75*
G03X72460000Y-98100000I2356400J1098807D01*
G01*
X70135816Y-94377205D02*
G75*
G02X70660000Y-93650000I2324184J-1122795D01*
G01*
X147940000Y-114820000D02*
X137440000Y-114820000D01*
X147940000Y-109879000D02*
X146261000Y-109879000D01*
X144198000Y-109879000D02*
X143721000Y-109879000D01*
X141658000Y-109879000D02*
X141181000Y-109879000D01*
X139118000Y-109879000D02*
X137440000Y-109879000D01*
X147940000Y-114820000D02*
X147940000Y-109879000D01*
X137440000Y-114820000D02*
X137440000Y-109879000D01*
X147940000Y-112061000D02*
X137440000Y-112061000D01*
X144540000Y-114820000D02*
X144540000Y-112061000D01*
X140840000Y-114820000D02*
X140840000Y-112061000D01*
X146500000Y-109879000D02*
X146500000Y-107549000D01*
X143960000Y-109879000D02*
X143960000Y-107565000D01*
X141420000Y-109879000D02*
X141420000Y-107565000D01*
X138880000Y-109879000D02*
X138880000Y-107565000D01*
X110630000Y-109879000D02*
X110630000Y-107565000D01*
X113170000Y-109879000D02*
X113170000Y-107565000D01*
X115710000Y-109879000D02*
X115710000Y-107565000D01*
X118250000Y-109879000D02*
X118250000Y-107549000D01*
X112590000Y-114820000D02*
X112590000Y-112061000D01*
X116290000Y-114820000D02*
X116290000Y-112061000D01*
X119690000Y-112061000D02*
X109190000Y-112061000D01*
X109190000Y-114820000D02*
X109190000Y-109879000D01*
X119690000Y-114820000D02*
X119690000Y-109879000D01*
X110868000Y-109879000D02*
X109190000Y-109879000D01*
X113408000Y-109879000D02*
X112931000Y-109879000D01*
X115948000Y-109879000D02*
X115471000Y-109879000D01*
X119690000Y-109879000D02*
X118011000Y-109879000D01*
X119690000Y-114820000D02*
X109190000Y-114820000D01*
X92250000Y-64400000D02*
X92250000Y-52600000D01*
X99750000Y-64400000D02*
X99750000Y-52600000D01*
X92250000Y-64400000D02*
X99750000Y-64400000D01*
X92250000Y-52600000D02*
X99750000Y-52600000D01*
D12*
X89607142Y-63166666D02*
X89654761Y-63214285D01*
X89702380Y-63357142D01*
X89702380Y-63452380D01*
X89654761Y-63595238D01*
X89559523Y-63690476D01*
X89464285Y-63738095D01*
X89273809Y-63785714D01*
X89130952Y-63785714D01*
X88940476Y-63738095D01*
X88845238Y-63690476D01*
X88750000Y-63595238D01*
X88702380Y-63452380D01*
X88702380Y-63357142D01*
X88750000Y-63214285D01*
X88797619Y-63166666D01*
X89702380Y-62214285D02*
X89702380Y-62785714D01*
X89702380Y-62500000D02*
X88702380Y-62500000D01*
X88845238Y-62595238D01*
X88940476Y-62690476D01*
X88988095Y-62785714D01*
X78607142Y-65166666D02*
X78654761Y-65214285D01*
X78702380Y-65357142D01*
X78702380Y-65452380D01*
X78654761Y-65595238D01*
X78559523Y-65690476D01*
X78464285Y-65738095D01*
X78273809Y-65785714D01*
X78130952Y-65785714D01*
X77940476Y-65738095D01*
X77845238Y-65690476D01*
X77750000Y-65595238D01*
X77702380Y-65452380D01*
X77702380Y-65357142D01*
X77750000Y-65214285D01*
X77797619Y-65166666D01*
X77797619Y-64785714D02*
X77750000Y-64738095D01*
X77702380Y-64642857D01*
X77702380Y-64404761D01*
X77750000Y-64309523D01*
X77797619Y-64261904D01*
X77892857Y-64214285D01*
X77988095Y-64214285D01*
X78130952Y-64261904D01*
X78702380Y-64833333D01*
X78702380Y-64214285D01*
X62357142Y-73166666D02*
X62404761Y-73214285D01*
X62452380Y-73357142D01*
X62452380Y-73452380D01*
X62404761Y-73595238D01*
X62309523Y-73690476D01*
X62214285Y-73738095D01*
X62023809Y-73785714D01*
X61880952Y-73785714D01*
X61690476Y-73738095D01*
X61595238Y-73690476D01*
X61500000Y-73595238D01*
X61452380Y-73452380D01*
X61452380Y-73357142D01*
X61500000Y-73214285D01*
X61547619Y-73166666D01*
X61452380Y-72833333D02*
X61452380Y-72214285D01*
X61833333Y-72547619D01*
X61833333Y-72404761D01*
X61880952Y-72309523D01*
X61928571Y-72261904D01*
X62023809Y-72214285D01*
X62261904Y-72214285D01*
X62357142Y-72261904D01*
X62404761Y-72309523D01*
X62452380Y-72404761D01*
X62452380Y-72690476D01*
X62404761Y-72785714D01*
X62357142Y-72833333D01*
X67207142Y-75666666D02*
X67254761Y-75714285D01*
X67302380Y-75857142D01*
X67302380Y-75952380D01*
X67254761Y-76095238D01*
X67159523Y-76190476D01*
X67064285Y-76238095D01*
X66873809Y-76285714D01*
X66730952Y-76285714D01*
X66540476Y-76238095D01*
X66445238Y-76190476D01*
X66350000Y-76095238D01*
X66302380Y-75952380D01*
X66302380Y-75857142D01*
X66350000Y-75714285D01*
X66397619Y-75666666D01*
X66635714Y-74809523D02*
X67302380Y-74809523D01*
X66254761Y-75047619D02*
X66969047Y-75285714D01*
X66969047Y-74666666D01*
X84357142Y-72166666D02*
X84404761Y-72214285D01*
X84452380Y-72357142D01*
X84452380Y-72452380D01*
X84404761Y-72595238D01*
X84309523Y-72690476D01*
X84214285Y-72738095D01*
X84023809Y-72785714D01*
X83880952Y-72785714D01*
X83690476Y-72738095D01*
X83595238Y-72690476D01*
X83500000Y-72595238D01*
X83452380Y-72452380D01*
X83452380Y-72357142D01*
X83500000Y-72214285D01*
X83547619Y-72166666D01*
X83452380Y-71309523D02*
X83452380Y-71500000D01*
X83500000Y-71595238D01*
X83547619Y-71642857D01*
X83690476Y-71738095D01*
X83880952Y-71785714D01*
X84261904Y-71785714D01*
X84357142Y-71738095D01*
X84404761Y-71690476D01*
X84452380Y-71595238D01*
X84452380Y-71404761D01*
X84404761Y-71309523D01*
X84357142Y-71261904D01*
X84261904Y-71214285D01*
X84023809Y-71214285D01*
X83928571Y-71261904D01*
X83880952Y-71309523D01*
X83833333Y-71404761D01*
X83833333Y-71595238D01*
X83880952Y-71690476D01*
X83928571Y-71738095D01*
X84023809Y-71785714D01*
X76083333Y-81607142D02*
X76035714Y-81654761D01*
X75892857Y-81702380D01*
X75797619Y-81702380D01*
X75654761Y-81654761D01*
X75559523Y-81559523D01*
X75511904Y-81464285D01*
X75464285Y-81273809D01*
X75464285Y-81130952D01*
X75511904Y-80940476D01*
X75559523Y-80845238D01*
X75654761Y-80750000D01*
X75797619Y-80702380D01*
X75892857Y-80702380D01*
X76035714Y-80750000D01*
X76083333Y-80797619D01*
X76416666Y-80702380D02*
X77083333Y-80702380D01*
X76654761Y-81702380D01*
X79808333Y-96357142D02*
X79760714Y-96404761D01*
X79617857Y-96452380D01*
X79522619Y-96452380D01*
X79379761Y-96404761D01*
X79284523Y-96309523D01*
X79236904Y-96214285D01*
X79189285Y-96023809D01*
X79189285Y-95880952D01*
X79236904Y-95690476D01*
X79284523Y-95595238D01*
X79379761Y-95500000D01*
X79522619Y-95452380D01*
X79617857Y-95452380D01*
X79760714Y-95500000D01*
X79808333Y-95547619D01*
X80379761Y-95880952D02*
X80284523Y-95833333D01*
X80236904Y-95785714D01*
X80189285Y-95690476D01*
X80189285Y-95642857D01*
X80236904Y-95547619D01*
X80284523Y-95500000D01*
X80379761Y-95452380D01*
X80570238Y-95452380D01*
X80665476Y-95500000D01*
X80713095Y-95547619D01*
X80760714Y-95642857D01*
X80760714Y-95690476D01*
X80713095Y-95785714D01*
X80665476Y-95833333D01*
X80570238Y-95880952D01*
X80379761Y-95880952D01*
X80284523Y-95928571D01*
X80236904Y-95976190D01*
X80189285Y-96071428D01*
X80189285Y-96261904D01*
X80236904Y-96357142D01*
X80284523Y-96404761D01*
X80379761Y-96452380D01*
X80570238Y-96452380D01*
X80665476Y-96404761D01*
X80713095Y-96357142D01*
X80760714Y-96261904D01*
X80760714Y-96071428D01*
X80713095Y-95976190D01*
X80665476Y-95928571D01*
X80570238Y-95880952D01*
X92357142Y-72166666D02*
X92404761Y-72214285D01*
X92452380Y-72357142D01*
X92452380Y-72452380D01*
X92404761Y-72595238D01*
X92309523Y-72690476D01*
X92214285Y-72738095D01*
X92023809Y-72785714D01*
X91880952Y-72785714D01*
X91690476Y-72738095D01*
X91595238Y-72690476D01*
X91500000Y-72595238D01*
X91452380Y-72452380D01*
X91452380Y-72357142D01*
X91500000Y-72214285D01*
X91547619Y-72166666D01*
X92452380Y-71690476D02*
X92452380Y-71500000D01*
X92404761Y-71404761D01*
X92357142Y-71357142D01*
X92214285Y-71261904D01*
X92023809Y-71214285D01*
X91642857Y-71214285D01*
X91547619Y-71261904D01*
X91500000Y-71309523D01*
X91452380Y-71404761D01*
X91452380Y-71595238D01*
X91500000Y-71690476D01*
X91547619Y-71738095D01*
X91642857Y-71785714D01*
X91880952Y-71785714D01*
X91976190Y-71738095D01*
X92023809Y-71690476D01*
X92071428Y-71595238D01*
X92071428Y-71404761D01*
X92023809Y-71309523D01*
X91976190Y-71261904D01*
X91880952Y-71214285D01*
X82357142Y-115357142D02*
X82309523Y-115404761D01*
X82166666Y-115452380D01*
X82071428Y-115452380D01*
X81928571Y-115404761D01*
X81833333Y-115309523D01*
X81785714Y-115214285D01*
X81738095Y-115023809D01*
X81738095Y-114880952D01*
X81785714Y-114690476D01*
X81833333Y-114595238D01*
X81928571Y-114500000D01*
X82071428Y-114452380D01*
X82166666Y-114452380D01*
X82309523Y-114500000D01*
X82357142Y-114547619D01*
X83309523Y-115452380D02*
X82738095Y-115452380D01*
X83023809Y-115452380D02*
X83023809Y-114452380D01*
X82928571Y-114595238D01*
X82833333Y-114690476D01*
X82738095Y-114738095D01*
X83928571Y-114452380D02*
X84023809Y-114452380D01*
X84119047Y-114500000D01*
X84166666Y-114547619D01*
X84214285Y-114642857D01*
X84261904Y-114833333D01*
X84261904Y-115071428D01*
X84214285Y-115261904D01*
X84166666Y-115357142D01*
X84119047Y-115404761D01*
X84023809Y-115452380D01*
X83928571Y-115452380D01*
X83833333Y-115404761D01*
X83785714Y-115357142D01*
X83738095Y-115261904D01*
X83690476Y-115071428D01*
X83690476Y-114833333D01*
X83738095Y-114642857D01*
X83785714Y-114547619D01*
X83833333Y-114500000D01*
X83928571Y-114452380D01*
X104507142Y-119642857D02*
X104554761Y-119690476D01*
X104602380Y-119833333D01*
X104602380Y-119928571D01*
X104554761Y-120071428D01*
X104459523Y-120166666D01*
X104364285Y-120214285D01*
X104173809Y-120261904D01*
X104030952Y-120261904D01*
X103840476Y-120214285D01*
X103745238Y-120166666D01*
X103650000Y-120071428D01*
X103602380Y-119928571D01*
X103602380Y-119833333D01*
X103650000Y-119690476D01*
X103697619Y-119642857D01*
X104602380Y-118690476D02*
X104602380Y-119261904D01*
X104602380Y-118976190D02*
X103602380Y-118976190D01*
X103745238Y-119071428D01*
X103840476Y-119166666D01*
X103888095Y-119261904D01*
X104602380Y-117738095D02*
X104602380Y-118309523D01*
X104602380Y-118023809D02*
X103602380Y-118023809D01*
X103745238Y-118119047D01*
X103840476Y-118214285D01*
X103888095Y-118309523D01*
X108507142Y-119642857D02*
X108554761Y-119690476D01*
X108602380Y-119833333D01*
X108602380Y-119928571D01*
X108554761Y-120071428D01*
X108459523Y-120166666D01*
X108364285Y-120214285D01*
X108173809Y-120261904D01*
X108030952Y-120261904D01*
X107840476Y-120214285D01*
X107745238Y-120166666D01*
X107650000Y-120071428D01*
X107602380Y-119928571D01*
X107602380Y-119833333D01*
X107650000Y-119690476D01*
X107697619Y-119642857D01*
X108602380Y-118690476D02*
X108602380Y-119261904D01*
X108602380Y-118976190D02*
X107602380Y-118976190D01*
X107745238Y-119071428D01*
X107840476Y-119166666D01*
X107888095Y-119261904D01*
X107697619Y-118309523D02*
X107650000Y-118261904D01*
X107602380Y-118166666D01*
X107602380Y-117928571D01*
X107650000Y-117833333D01*
X107697619Y-117785714D01*
X107792857Y-117738095D01*
X107888095Y-117738095D01*
X108030952Y-117785714D01*
X108602380Y-118357142D01*
X108602380Y-117738095D01*
X112507142Y-119642857D02*
X112554761Y-119690476D01*
X112602380Y-119833333D01*
X112602380Y-119928571D01*
X112554761Y-120071428D01*
X112459523Y-120166666D01*
X112364285Y-120214285D01*
X112173809Y-120261904D01*
X112030952Y-120261904D01*
X111840476Y-120214285D01*
X111745238Y-120166666D01*
X111650000Y-120071428D01*
X111602380Y-119928571D01*
X111602380Y-119833333D01*
X111650000Y-119690476D01*
X111697619Y-119642857D01*
X112602380Y-118690476D02*
X112602380Y-119261904D01*
X112602380Y-118976190D02*
X111602380Y-118976190D01*
X111745238Y-119071428D01*
X111840476Y-119166666D01*
X111888095Y-119261904D01*
X111602380Y-118357142D02*
X111602380Y-117738095D01*
X111983333Y-118071428D01*
X111983333Y-117928571D01*
X112030952Y-117833333D01*
X112078571Y-117785714D01*
X112173809Y-117738095D01*
X112411904Y-117738095D01*
X112507142Y-117785714D01*
X112554761Y-117833333D01*
X112602380Y-117928571D01*
X112602380Y-118214285D01*
X112554761Y-118309523D01*
X112507142Y-118357142D01*
X116507142Y-119642857D02*
X116554761Y-119690476D01*
X116602380Y-119833333D01*
X116602380Y-119928571D01*
X116554761Y-120071428D01*
X116459523Y-120166666D01*
X116364285Y-120214285D01*
X116173809Y-120261904D01*
X116030952Y-120261904D01*
X115840476Y-120214285D01*
X115745238Y-120166666D01*
X115650000Y-120071428D01*
X115602380Y-119928571D01*
X115602380Y-119833333D01*
X115650000Y-119690476D01*
X115697619Y-119642857D01*
X116602380Y-118690476D02*
X116602380Y-119261904D01*
X116602380Y-118976190D02*
X115602380Y-118976190D01*
X115745238Y-119071428D01*
X115840476Y-119166666D01*
X115888095Y-119261904D01*
X115935714Y-117833333D02*
X116602380Y-117833333D01*
X115554761Y-118071428D02*
X116269047Y-118309523D01*
X116269047Y-117690476D01*
X120507142Y-119642857D02*
X120554761Y-119690476D01*
X120602380Y-119833333D01*
X120602380Y-119928571D01*
X120554761Y-120071428D01*
X120459523Y-120166666D01*
X120364285Y-120214285D01*
X120173809Y-120261904D01*
X120030952Y-120261904D01*
X119840476Y-120214285D01*
X119745238Y-120166666D01*
X119650000Y-120071428D01*
X119602380Y-119928571D01*
X119602380Y-119833333D01*
X119650000Y-119690476D01*
X119697619Y-119642857D01*
X120602380Y-118690476D02*
X120602380Y-119261904D01*
X120602380Y-118976190D02*
X119602380Y-118976190D01*
X119745238Y-119071428D01*
X119840476Y-119166666D01*
X119888095Y-119261904D01*
X119602380Y-117785714D02*
X119602380Y-118261904D01*
X120078571Y-118309523D01*
X120030952Y-118261904D01*
X119983333Y-118166666D01*
X119983333Y-117928571D01*
X120030952Y-117833333D01*
X120078571Y-117785714D01*
X120173809Y-117738095D01*
X120411904Y-117738095D01*
X120507142Y-117785714D01*
X120554761Y-117833333D01*
X120602380Y-117928571D01*
X120602380Y-118166666D01*
X120554761Y-118261904D01*
X120507142Y-118309523D01*
X121857142Y-106357142D02*
X121809523Y-106404761D01*
X121666666Y-106452380D01*
X121571428Y-106452380D01*
X121428571Y-106404761D01*
X121333333Y-106309523D01*
X121285714Y-106214285D01*
X121238095Y-106023809D01*
X121238095Y-105880952D01*
X121285714Y-105690476D01*
X121333333Y-105595238D01*
X121428571Y-105500000D01*
X121571428Y-105452380D01*
X121666666Y-105452380D01*
X121809523Y-105500000D01*
X121857142Y-105547619D01*
X122809523Y-106452380D02*
X122238095Y-106452380D01*
X122523809Y-106452380D02*
X122523809Y-105452380D01*
X122428571Y-105595238D01*
X122333333Y-105690476D01*
X122238095Y-105738095D01*
X123666666Y-105452380D02*
X123476190Y-105452380D01*
X123380952Y-105500000D01*
X123333333Y-105547619D01*
X123238095Y-105690476D01*
X123190476Y-105880952D01*
X123190476Y-106261904D01*
X123238095Y-106357142D01*
X123285714Y-106404761D01*
X123380952Y-106452380D01*
X123571428Y-106452380D01*
X123666666Y-106404761D01*
X123714285Y-106357142D01*
X123761904Y-106261904D01*
X123761904Y-106023809D01*
X123714285Y-105928571D01*
X123666666Y-105880952D01*
X123571428Y-105833333D01*
X123380952Y-105833333D01*
X123285714Y-105880952D01*
X123238095Y-105928571D01*
X123190476Y-106023809D01*
X132357142Y-93857142D02*
X132309523Y-93904761D01*
X132166666Y-93952380D01*
X132071428Y-93952380D01*
X131928571Y-93904761D01*
X131833333Y-93809523D01*
X131785714Y-93714285D01*
X131738095Y-93523809D01*
X131738095Y-93380952D01*
X131785714Y-93190476D01*
X131833333Y-93095238D01*
X131928571Y-93000000D01*
X132071428Y-92952380D01*
X132166666Y-92952380D01*
X132309523Y-93000000D01*
X132357142Y-93047619D01*
X133309523Y-93952380D02*
X132738095Y-93952380D01*
X133023809Y-93952380D02*
X133023809Y-92952380D01*
X132928571Y-93095238D01*
X132833333Y-93190476D01*
X132738095Y-93238095D01*
X133642857Y-92952380D02*
X134309523Y-92952380D01*
X133880952Y-93952380D01*
X120357142Y-93857142D02*
X120309523Y-93904761D01*
X120166666Y-93952380D01*
X120071428Y-93952380D01*
X119928571Y-93904761D01*
X119833333Y-93809523D01*
X119785714Y-93714285D01*
X119738095Y-93523809D01*
X119738095Y-93380952D01*
X119785714Y-93190476D01*
X119833333Y-93095238D01*
X119928571Y-93000000D01*
X120071428Y-92952380D01*
X120166666Y-92952380D01*
X120309523Y-93000000D01*
X120357142Y-93047619D01*
X121309523Y-93952380D02*
X120738095Y-93952380D01*
X121023809Y-93952380D02*
X121023809Y-92952380D01*
X120928571Y-93095238D01*
X120833333Y-93190476D01*
X120738095Y-93238095D01*
X121880952Y-93380952D02*
X121785714Y-93333333D01*
X121738095Y-93285714D01*
X121690476Y-93190476D01*
X121690476Y-93142857D01*
X121738095Y-93047619D01*
X121785714Y-93000000D01*
X121880952Y-92952380D01*
X122071428Y-92952380D01*
X122166666Y-93000000D01*
X122214285Y-93047619D01*
X122261904Y-93142857D01*
X122261904Y-93190476D01*
X122214285Y-93285714D01*
X122166666Y-93333333D01*
X122071428Y-93380952D01*
X121880952Y-93380952D01*
X121785714Y-93428571D01*
X121738095Y-93476190D01*
X121690476Y-93571428D01*
X121690476Y-93761904D01*
X121738095Y-93857142D01*
X121785714Y-93904761D01*
X121880952Y-93952380D01*
X122071428Y-93952380D01*
X122166666Y-93904761D01*
X122214285Y-93857142D01*
X122261904Y-93761904D01*
X122261904Y-93571428D01*
X122214285Y-93476190D01*
X122166666Y-93428571D01*
X122071428Y-93380952D01*
X126357142Y-93857142D02*
X126309523Y-93904761D01*
X126166666Y-93952380D01*
X126071428Y-93952380D01*
X125928571Y-93904761D01*
X125833333Y-93809523D01*
X125785714Y-93714285D01*
X125738095Y-93523809D01*
X125738095Y-93380952D01*
X125785714Y-93190476D01*
X125833333Y-93095238D01*
X125928571Y-93000000D01*
X126071428Y-92952380D01*
X126166666Y-92952380D01*
X126309523Y-93000000D01*
X126357142Y-93047619D01*
X127309523Y-93952380D02*
X126738095Y-93952380D01*
X127023809Y-93952380D02*
X127023809Y-92952380D01*
X126928571Y-93095238D01*
X126833333Y-93190476D01*
X126738095Y-93238095D01*
X127785714Y-93952380D02*
X127976190Y-93952380D01*
X128071428Y-93904761D01*
X128119047Y-93857142D01*
X128214285Y-93714285D01*
X128261904Y-93523809D01*
X128261904Y-93142857D01*
X128214285Y-93047619D01*
X128166666Y-93000000D01*
X128071428Y-92952380D01*
X127880952Y-92952380D01*
X127785714Y-93000000D01*
X127738095Y-93047619D01*
X127690476Y-93142857D01*
X127690476Y-93380952D01*
X127738095Y-93476190D01*
X127785714Y-93523809D01*
X127880952Y-93571428D01*
X128071428Y-93571428D01*
X128166666Y-93523809D01*
X128214285Y-93476190D01*
X128261904Y-93380952D01*
X120357142Y-89857142D02*
X120309523Y-89904761D01*
X120166666Y-89952380D01*
X120071428Y-89952380D01*
X119928571Y-89904761D01*
X119833333Y-89809523D01*
X119785714Y-89714285D01*
X119738095Y-89523809D01*
X119738095Y-89380952D01*
X119785714Y-89190476D01*
X119833333Y-89095238D01*
X119928571Y-89000000D01*
X120071428Y-88952380D01*
X120166666Y-88952380D01*
X120309523Y-89000000D01*
X120357142Y-89047619D01*
X120738095Y-89047619D02*
X120785714Y-89000000D01*
X120880952Y-88952380D01*
X121119047Y-88952380D01*
X121214285Y-89000000D01*
X121261904Y-89047619D01*
X121309523Y-89142857D01*
X121309523Y-89238095D01*
X121261904Y-89380952D01*
X120690476Y-89952380D01*
X121309523Y-89952380D01*
X121928571Y-88952380D02*
X122023809Y-88952380D01*
X122119047Y-89000000D01*
X122166666Y-89047619D01*
X122214285Y-89142857D01*
X122261904Y-89333333D01*
X122261904Y-89571428D01*
X122214285Y-89761904D01*
X122166666Y-89857142D01*
X122119047Y-89904761D01*
X122023809Y-89952380D01*
X121928571Y-89952380D01*
X121833333Y-89904761D01*
X121785714Y-89857142D01*
X121738095Y-89761904D01*
X121690476Y-89571428D01*
X121690476Y-89333333D01*
X121738095Y-89142857D01*
X121785714Y-89047619D01*
X121833333Y-89000000D01*
X121928571Y-88952380D01*
X126357142Y-89857142D02*
X126309523Y-89904761D01*
X126166666Y-89952380D01*
X126071428Y-89952380D01*
X125928571Y-89904761D01*
X125833333Y-89809523D01*
X125785714Y-89714285D01*
X125738095Y-89523809D01*
X125738095Y-89380952D01*
X125785714Y-89190476D01*
X125833333Y-89095238D01*
X125928571Y-89000000D01*
X126071428Y-88952380D01*
X126166666Y-88952380D01*
X126309523Y-89000000D01*
X126357142Y-89047619D01*
X126738095Y-89047619D02*
X126785714Y-89000000D01*
X126880952Y-88952380D01*
X127119047Y-88952380D01*
X127214285Y-89000000D01*
X127261904Y-89047619D01*
X127309523Y-89142857D01*
X127309523Y-89238095D01*
X127261904Y-89380952D01*
X126690476Y-89952380D01*
X127309523Y-89952380D01*
X128261904Y-89952380D02*
X127690476Y-89952380D01*
X127976190Y-89952380D02*
X127976190Y-88952380D01*
X127880952Y-89095238D01*
X127785714Y-89190476D01*
X127690476Y-89238095D01*
X120357142Y-85857142D02*
X120309523Y-85904761D01*
X120166666Y-85952380D01*
X120071428Y-85952380D01*
X119928571Y-85904761D01*
X119833333Y-85809523D01*
X119785714Y-85714285D01*
X119738095Y-85523809D01*
X119738095Y-85380952D01*
X119785714Y-85190476D01*
X119833333Y-85095238D01*
X119928571Y-85000000D01*
X120071428Y-84952380D01*
X120166666Y-84952380D01*
X120309523Y-85000000D01*
X120357142Y-85047619D01*
X120738095Y-85047619D02*
X120785714Y-85000000D01*
X120880952Y-84952380D01*
X121119047Y-84952380D01*
X121214285Y-85000000D01*
X121261904Y-85047619D01*
X121309523Y-85142857D01*
X121309523Y-85238095D01*
X121261904Y-85380952D01*
X120690476Y-85952380D01*
X121309523Y-85952380D01*
X121690476Y-85047619D02*
X121738095Y-85000000D01*
X121833333Y-84952380D01*
X122071428Y-84952380D01*
X122166666Y-85000000D01*
X122214285Y-85047619D01*
X122261904Y-85142857D01*
X122261904Y-85238095D01*
X122214285Y-85380952D01*
X121642857Y-85952380D01*
X122261904Y-85952380D01*
X106357142Y-51607142D02*
X106309523Y-51654761D01*
X106166666Y-51702380D01*
X106071428Y-51702380D01*
X105928571Y-51654761D01*
X105833333Y-51559523D01*
X105785714Y-51464285D01*
X105738095Y-51273809D01*
X105738095Y-51130952D01*
X105785714Y-50940476D01*
X105833333Y-50845238D01*
X105928571Y-50750000D01*
X106071428Y-50702380D01*
X106166666Y-50702380D01*
X106309523Y-50750000D01*
X106357142Y-50797619D01*
X106738095Y-50797619D02*
X106785714Y-50750000D01*
X106880952Y-50702380D01*
X107119047Y-50702380D01*
X107214285Y-50750000D01*
X107261904Y-50797619D01*
X107309523Y-50892857D01*
X107309523Y-50988095D01*
X107261904Y-51130952D01*
X106690476Y-51702380D01*
X107309523Y-51702380D01*
X107642857Y-50702380D02*
X108261904Y-50702380D01*
X107928571Y-51083333D01*
X108071428Y-51083333D01*
X108166666Y-51130952D01*
X108214285Y-51178571D01*
X108261904Y-51273809D01*
X108261904Y-51511904D01*
X108214285Y-51607142D01*
X108166666Y-51654761D01*
X108071428Y-51702380D01*
X107785714Y-51702380D01*
X107690476Y-51654761D01*
X107642857Y-51607142D01*
X112357142Y-57357142D02*
X112309523Y-57404761D01*
X112166666Y-57452380D01*
X112071428Y-57452380D01*
X111928571Y-57404761D01*
X111833333Y-57309523D01*
X111785714Y-57214285D01*
X111738095Y-57023809D01*
X111738095Y-56880952D01*
X111785714Y-56690476D01*
X111833333Y-56595238D01*
X111928571Y-56500000D01*
X112071428Y-56452380D01*
X112166666Y-56452380D01*
X112309523Y-56500000D01*
X112357142Y-56547619D01*
X112738095Y-56547619D02*
X112785714Y-56500000D01*
X112880952Y-56452380D01*
X113119047Y-56452380D01*
X113214285Y-56500000D01*
X113261904Y-56547619D01*
X113309523Y-56642857D01*
X113309523Y-56738095D01*
X113261904Y-56880952D01*
X112690476Y-57452380D01*
X113309523Y-57452380D01*
X114166666Y-56785714D02*
X114166666Y-57452380D01*
X113928571Y-56404761D02*
X113690476Y-57119047D01*
X114309523Y-57119047D01*
X106357142Y-57607142D02*
X106309523Y-57654761D01*
X106166666Y-57702380D01*
X106071428Y-57702380D01*
X105928571Y-57654761D01*
X105833333Y-57559523D01*
X105785714Y-57464285D01*
X105738095Y-57273809D01*
X105738095Y-57130952D01*
X105785714Y-56940476D01*
X105833333Y-56845238D01*
X105928571Y-56750000D01*
X106071428Y-56702380D01*
X106166666Y-56702380D01*
X106309523Y-56750000D01*
X106357142Y-56797619D01*
X106738095Y-56797619D02*
X106785714Y-56750000D01*
X106880952Y-56702380D01*
X107119047Y-56702380D01*
X107214285Y-56750000D01*
X107261904Y-56797619D01*
X107309523Y-56892857D01*
X107309523Y-56988095D01*
X107261904Y-57130952D01*
X106690476Y-57702380D01*
X107309523Y-57702380D01*
X108214285Y-56702380D02*
X107738095Y-56702380D01*
X107690476Y-57178571D01*
X107738095Y-57130952D01*
X107833333Y-57083333D01*
X108071428Y-57083333D01*
X108166666Y-57130952D01*
X108214285Y-57178571D01*
X108261904Y-57273809D01*
X108261904Y-57511904D01*
X108214285Y-57607142D01*
X108166666Y-57654761D01*
X108071428Y-57702380D01*
X107833333Y-57702380D01*
X107738095Y-57654761D01*
X107690476Y-57607142D01*
X146357142Y-81142857D02*
X146404761Y-81190476D01*
X146452380Y-81333333D01*
X146452380Y-81428571D01*
X146404761Y-81571428D01*
X146309523Y-81666666D01*
X146214285Y-81714285D01*
X146023809Y-81761904D01*
X145880952Y-81761904D01*
X145690476Y-81714285D01*
X145595238Y-81666666D01*
X145500000Y-81571428D01*
X145452380Y-81428571D01*
X145452380Y-81333333D01*
X145500000Y-81190476D01*
X145547619Y-81142857D01*
X145547619Y-80761904D02*
X145500000Y-80714285D01*
X145452380Y-80619047D01*
X145452380Y-80380952D01*
X145500000Y-80285714D01*
X145547619Y-80238095D01*
X145642857Y-80190476D01*
X145738095Y-80190476D01*
X145880952Y-80238095D01*
X146452380Y-80809523D01*
X146452380Y-80190476D01*
X145452380Y-79333333D02*
X145452380Y-79523809D01*
X145500000Y-79619047D01*
X145547619Y-79666666D01*
X145690476Y-79761904D01*
X145880952Y-79809523D01*
X146261904Y-79809523D01*
X146357142Y-79761904D01*
X146404761Y-79714285D01*
X146452380Y-79619047D01*
X146452380Y-79428571D01*
X146404761Y-79333333D01*
X146357142Y-79285714D01*
X146261904Y-79238095D01*
X146023809Y-79238095D01*
X145928571Y-79285714D01*
X145880952Y-79333333D01*
X145833333Y-79428571D01*
X145833333Y-79619047D01*
X145880952Y-79714285D01*
X145928571Y-79761904D01*
X146023809Y-79809523D01*
X75261904Y-92452380D02*
X75261904Y-91452380D01*
X75500000Y-91452380D01*
X75642857Y-91500000D01*
X75738095Y-91595238D01*
X75785714Y-91690476D01*
X75833333Y-91880952D01*
X75833333Y-92023809D01*
X75785714Y-92214285D01*
X75738095Y-92309523D01*
X75642857Y-92404761D01*
X75500000Y-92452380D01*
X75261904Y-92452380D01*
X76785714Y-92452380D02*
X76214285Y-92452380D01*
X76500000Y-92452380D02*
X76500000Y-91452380D01*
X76404761Y-91595238D01*
X76309523Y-91690476D01*
X76214285Y-91738095D01*
X111452380Y-85738095D02*
X110452380Y-85738095D01*
X110452380Y-85500000D01*
X110500000Y-85357142D01*
X110595238Y-85261904D01*
X110690476Y-85214285D01*
X110880952Y-85166666D01*
X111023809Y-85166666D01*
X111214285Y-85214285D01*
X111309523Y-85261904D01*
X111404761Y-85357142D01*
X111452380Y-85500000D01*
X111452380Y-85738095D01*
X110547619Y-84785714D02*
X110500000Y-84738095D01*
X110452380Y-84642857D01*
X110452380Y-84404761D01*
X110500000Y-84309523D01*
X110547619Y-84261904D01*
X110642857Y-84214285D01*
X110738095Y-84214285D01*
X110880952Y-84261904D01*
X111452380Y-84833333D01*
X111452380Y-84214285D01*
X145396666Y-59072380D02*
X145396666Y-59786666D01*
X145349047Y-59929523D01*
X145253809Y-60024761D01*
X145110952Y-60072380D01*
X145015714Y-60072380D01*
X146396666Y-60072380D02*
X145825238Y-60072380D01*
X146110952Y-60072380D02*
X146110952Y-59072380D01*
X146015714Y-59215238D01*
X145920476Y-59310476D01*
X145825238Y-59358095D01*
X60952380Y-63873333D02*
X61666666Y-63873333D01*
X61809523Y-63920952D01*
X61904761Y-64016190D01*
X61952380Y-64159047D01*
X61952380Y-64254285D01*
X61047619Y-63444761D02*
X61000000Y-63397142D01*
X60952380Y-63301904D01*
X60952380Y-63063809D01*
X61000000Y-62968571D01*
X61047619Y-62920952D01*
X61142857Y-62873333D01*
X61238095Y-62873333D01*
X61380952Y-62920952D01*
X61952380Y-63492380D01*
X61952380Y-62873333D01*
X150082380Y-92983333D02*
X150796666Y-92983333D01*
X150939523Y-93030952D01*
X151034761Y-93126190D01*
X151082380Y-93269047D01*
X151082380Y-93364285D01*
X150082380Y-92602380D02*
X150082380Y-91983333D01*
X150463333Y-92316666D01*
X150463333Y-92173809D01*
X150510952Y-92078571D01*
X150558571Y-92030952D01*
X150653809Y-91983333D01*
X150891904Y-91983333D01*
X150987142Y-92030952D01*
X151034761Y-92078571D01*
X151082380Y-92173809D01*
X151082380Y-92459523D01*
X151034761Y-92554761D01*
X150987142Y-92602380D01*
X125666666Y-65452380D02*
X125666666Y-66166666D01*
X125619047Y-66309523D01*
X125523809Y-66404761D01*
X125380952Y-66452380D01*
X125285714Y-66452380D01*
X126571428Y-65785714D02*
X126571428Y-66452380D01*
X126333333Y-65404761D02*
X126095238Y-66119047D01*
X126714285Y-66119047D01*
X146192380Y-77293333D02*
X146906666Y-77293333D01*
X147049523Y-77340952D01*
X147144761Y-77436190D01*
X147192380Y-77579047D01*
X147192380Y-77674285D01*
X146192380Y-76340952D02*
X146192380Y-76817142D01*
X146668571Y-76864761D01*
X146620952Y-76817142D01*
X146573333Y-76721904D01*
X146573333Y-76483809D01*
X146620952Y-76388571D01*
X146668571Y-76340952D01*
X146763809Y-76293333D01*
X147001904Y-76293333D01*
X147097142Y-76340952D01*
X147144761Y-76388571D01*
X147192380Y-76483809D01*
X147192380Y-76721904D01*
X147144761Y-76817142D01*
X147097142Y-76864761D01*
X125416666Y-59072380D02*
X125416666Y-59786666D01*
X125369047Y-59929523D01*
X125273809Y-60024761D01*
X125130952Y-60072380D01*
X125035714Y-60072380D01*
X126321428Y-59072380D02*
X126130952Y-59072380D01*
X126035714Y-59120000D01*
X125988095Y-59167619D01*
X125892857Y-59310476D01*
X125845238Y-59500952D01*
X125845238Y-59881904D01*
X125892857Y-59977142D01*
X125940476Y-60024761D01*
X126035714Y-60072380D01*
X126226190Y-60072380D01*
X126321428Y-60024761D01*
X126369047Y-59977142D01*
X126416666Y-59881904D01*
X126416666Y-59643809D01*
X126369047Y-59548571D01*
X126321428Y-59500952D01*
X126226190Y-59453333D01*
X126035714Y-59453333D01*
X125940476Y-59500952D01*
X125892857Y-59548571D01*
X125845238Y-59643809D01*
X98952380Y-94166666D02*
X98952380Y-94642857D01*
X97952380Y-94642857D01*
X98952380Y-93309523D02*
X98952380Y-93880952D01*
X98952380Y-93595238D02*
X97952380Y-93595238D01*
X98095238Y-93690476D01*
X98190476Y-93785714D01*
X98238095Y-93880952D01*
X86154761Y-82297619D02*
X86059523Y-82250000D01*
X85964285Y-82154761D01*
X85821428Y-82011904D01*
X85726190Y-81964285D01*
X85630952Y-81964285D01*
X85678571Y-82202380D02*
X85583333Y-82154761D01*
X85488095Y-82059523D01*
X85440476Y-81869047D01*
X85440476Y-81535714D01*
X85488095Y-81345238D01*
X85583333Y-81250000D01*
X85678571Y-81202380D01*
X85869047Y-81202380D01*
X85964285Y-81250000D01*
X86059523Y-81345238D01*
X86107142Y-81535714D01*
X86107142Y-81869047D01*
X86059523Y-82059523D01*
X85964285Y-82154761D01*
X85869047Y-82202380D01*
X85678571Y-82202380D01*
X87059523Y-82202380D02*
X86488095Y-82202380D01*
X86773809Y-82202380D02*
X86773809Y-81202380D01*
X86678571Y-81345238D01*
X86583333Y-81440476D01*
X86488095Y-81488095D01*
X120174761Y-59987619D02*
X120079523Y-59940000D01*
X119984285Y-59844761D01*
X119841428Y-59701904D01*
X119746190Y-59654285D01*
X119650952Y-59654285D01*
X119698571Y-59892380D02*
X119603333Y-59844761D01*
X119508095Y-59749523D01*
X119460476Y-59559047D01*
X119460476Y-59225714D01*
X119508095Y-59035238D01*
X119603333Y-58940000D01*
X119698571Y-58892380D01*
X119889047Y-58892380D01*
X119984285Y-58940000D01*
X120079523Y-59035238D01*
X120127142Y-59225714D01*
X120127142Y-59559047D01*
X120079523Y-59749523D01*
X119984285Y-59844761D01*
X119889047Y-59892380D01*
X119698571Y-59892380D01*
X120460476Y-58892380D02*
X121079523Y-58892380D01*
X120746190Y-59273333D01*
X120889047Y-59273333D01*
X120984285Y-59320952D01*
X121031904Y-59368571D01*
X121079523Y-59463809D01*
X121079523Y-59701904D01*
X121031904Y-59797142D01*
X120984285Y-59844761D01*
X120889047Y-59892380D01*
X120603333Y-59892380D01*
X120508095Y-59844761D01*
X120460476Y-59797142D01*
X62452380Y-79166666D02*
X61976190Y-79500000D01*
X62452380Y-79738095D02*
X61452380Y-79738095D01*
X61452380Y-79357142D01*
X61500000Y-79261904D01*
X61547619Y-79214285D01*
X61642857Y-79166666D01*
X61785714Y-79166666D01*
X61880952Y-79214285D01*
X61928571Y-79261904D01*
X61976190Y-79357142D01*
X61976190Y-79738095D01*
X62452380Y-78214285D02*
X62452380Y-78785714D01*
X62452380Y-78500000D02*
X61452380Y-78500000D01*
X61595238Y-78595238D01*
X61690476Y-78690476D01*
X61738095Y-78785714D01*
X88452380Y-72166666D02*
X87976190Y-72500000D01*
X88452380Y-72738095D02*
X87452380Y-72738095D01*
X87452380Y-72357142D01*
X87500000Y-72261904D01*
X87547619Y-72214285D01*
X87642857Y-72166666D01*
X87785714Y-72166666D01*
X87880952Y-72214285D01*
X87928571Y-72261904D01*
X87976190Y-72357142D01*
X87976190Y-72738095D01*
X87547619Y-71785714D02*
X87500000Y-71738095D01*
X87452380Y-71642857D01*
X87452380Y-71404761D01*
X87500000Y-71309523D01*
X87547619Y-71261904D01*
X87642857Y-71214285D01*
X87738095Y-71214285D01*
X87880952Y-71261904D01*
X88452380Y-71833333D01*
X88452380Y-71214285D01*
X79833333Y-100452380D02*
X79500000Y-99976190D01*
X79261904Y-100452380D02*
X79261904Y-99452380D01*
X79642857Y-99452380D01*
X79738095Y-99500000D01*
X79785714Y-99547619D01*
X79833333Y-99642857D01*
X79833333Y-99785714D01*
X79785714Y-99880952D01*
X79738095Y-99928571D01*
X79642857Y-99976190D01*
X79261904Y-99976190D01*
X80166666Y-99452380D02*
X80785714Y-99452380D01*
X80452380Y-99833333D01*
X80595238Y-99833333D01*
X80690476Y-99880952D01*
X80738095Y-99928571D01*
X80785714Y-100023809D01*
X80785714Y-100261904D01*
X80738095Y-100357142D01*
X80690476Y-100404761D01*
X80595238Y-100452380D01*
X80309523Y-100452380D01*
X80214285Y-100404761D01*
X80166666Y-100357142D01*
X64702380Y-95141666D02*
X64226190Y-95475000D01*
X64702380Y-95713095D02*
X63702380Y-95713095D01*
X63702380Y-95332142D01*
X63750000Y-95236904D01*
X63797619Y-95189285D01*
X63892857Y-95141666D01*
X64035714Y-95141666D01*
X64130952Y-95189285D01*
X64178571Y-95236904D01*
X64226190Y-95332142D01*
X64226190Y-95713095D01*
X64035714Y-94284523D02*
X64702380Y-94284523D01*
X63654761Y-94522619D02*
X64369047Y-94760714D01*
X64369047Y-94141666D01*
X80083333Y-104202380D02*
X79750000Y-103726190D01*
X79511904Y-104202380D02*
X79511904Y-103202380D01*
X79892857Y-103202380D01*
X79988095Y-103250000D01*
X80035714Y-103297619D01*
X80083333Y-103392857D01*
X80083333Y-103535714D01*
X80035714Y-103630952D01*
X79988095Y-103678571D01*
X79892857Y-103726190D01*
X79511904Y-103726190D01*
X80988095Y-103202380D02*
X80511904Y-103202380D01*
X80464285Y-103678571D01*
X80511904Y-103630952D01*
X80607142Y-103583333D01*
X80845238Y-103583333D01*
X80940476Y-103630952D01*
X80988095Y-103678571D01*
X81035714Y-103773809D01*
X81035714Y-104011904D01*
X80988095Y-104107142D01*
X80940476Y-104154761D01*
X80845238Y-104202380D01*
X80607142Y-104202380D01*
X80511904Y-104154761D01*
X80464285Y-104107142D01*
X74083333Y-104202380D02*
X73750000Y-103726190D01*
X73511904Y-104202380D02*
X73511904Y-103202380D01*
X73892857Y-103202380D01*
X73988095Y-103250000D01*
X74035714Y-103297619D01*
X74083333Y-103392857D01*
X74083333Y-103535714D01*
X74035714Y-103630952D01*
X73988095Y-103678571D01*
X73892857Y-103726190D01*
X73511904Y-103726190D01*
X74940476Y-103202380D02*
X74750000Y-103202380D01*
X74654761Y-103250000D01*
X74607142Y-103297619D01*
X74511904Y-103440476D01*
X74464285Y-103630952D01*
X74464285Y-104011904D01*
X74511904Y-104107142D01*
X74559523Y-104154761D01*
X74654761Y-104202380D01*
X74845238Y-104202380D01*
X74940476Y-104154761D01*
X74988095Y-104107142D01*
X75035714Y-104011904D01*
X75035714Y-103773809D01*
X74988095Y-103678571D01*
X74940476Y-103630952D01*
X74845238Y-103583333D01*
X74654761Y-103583333D01*
X74559523Y-103630952D01*
X74511904Y-103678571D01*
X74464285Y-103773809D01*
X114833333Y-67452380D02*
X114500000Y-66976190D01*
X114261904Y-67452380D02*
X114261904Y-66452380D01*
X114642857Y-66452380D01*
X114738095Y-66500000D01*
X114785714Y-66547619D01*
X114833333Y-66642857D01*
X114833333Y-66785714D01*
X114785714Y-66880952D01*
X114738095Y-66928571D01*
X114642857Y-66976190D01*
X114261904Y-66976190D01*
X115166666Y-66452380D02*
X115833333Y-66452380D01*
X115404761Y-67452380D01*
X114833333Y-71702380D02*
X114500000Y-71226190D01*
X114261904Y-71702380D02*
X114261904Y-70702380D01*
X114642857Y-70702380D01*
X114738095Y-70750000D01*
X114785714Y-70797619D01*
X114833333Y-70892857D01*
X114833333Y-71035714D01*
X114785714Y-71130952D01*
X114738095Y-71178571D01*
X114642857Y-71226190D01*
X114261904Y-71226190D01*
X115404761Y-71130952D02*
X115309523Y-71083333D01*
X115261904Y-71035714D01*
X115214285Y-70940476D01*
X115214285Y-70892857D01*
X115261904Y-70797619D01*
X115309523Y-70750000D01*
X115404761Y-70702380D01*
X115595238Y-70702380D01*
X115690476Y-70750000D01*
X115738095Y-70797619D01*
X115785714Y-70892857D01*
X115785714Y-70940476D01*
X115738095Y-71035714D01*
X115690476Y-71083333D01*
X115595238Y-71130952D01*
X115404761Y-71130952D01*
X115309523Y-71178571D01*
X115261904Y-71226190D01*
X115214285Y-71321428D01*
X115214285Y-71511904D01*
X115261904Y-71607142D01*
X115309523Y-71654761D01*
X115404761Y-71702380D01*
X115595238Y-71702380D01*
X115690476Y-71654761D01*
X115738095Y-71607142D01*
X115785714Y-71511904D01*
X115785714Y-71321428D01*
X115738095Y-71226190D01*
X115690476Y-71178571D01*
X115595238Y-71130952D01*
X114833333Y-75702380D02*
X114500000Y-75226190D01*
X114261904Y-75702380D02*
X114261904Y-74702380D01*
X114642857Y-74702380D01*
X114738095Y-74750000D01*
X114785714Y-74797619D01*
X114833333Y-74892857D01*
X114833333Y-75035714D01*
X114785714Y-75130952D01*
X114738095Y-75178571D01*
X114642857Y-75226190D01*
X114261904Y-75226190D01*
X115309523Y-75702380D02*
X115500000Y-75702380D01*
X115595238Y-75654761D01*
X115642857Y-75607142D01*
X115738095Y-75464285D01*
X115785714Y-75273809D01*
X115785714Y-74892857D01*
X115738095Y-74797619D01*
X115690476Y-74750000D01*
X115595238Y-74702380D01*
X115404761Y-74702380D01*
X115309523Y-74750000D01*
X115261904Y-74797619D01*
X115214285Y-74892857D01*
X115214285Y-75130952D01*
X115261904Y-75226190D01*
X115309523Y-75273809D01*
X115404761Y-75321428D01*
X115595238Y-75321428D01*
X115690476Y-75273809D01*
X115738095Y-75226190D01*
X115785714Y-75130952D01*
X145257142Y-102552380D02*
X144923809Y-102076190D01*
X144685714Y-102552380D02*
X144685714Y-101552380D01*
X145066666Y-101552380D01*
X145161904Y-101600000D01*
X145209523Y-101647619D01*
X145257142Y-101742857D01*
X145257142Y-101885714D01*
X145209523Y-101980952D01*
X145161904Y-102028571D01*
X145066666Y-102076190D01*
X144685714Y-102076190D01*
X146209523Y-102552380D02*
X145638095Y-102552380D01*
X145923809Y-102552380D02*
X145923809Y-101552380D01*
X145828571Y-101695238D01*
X145733333Y-101790476D01*
X145638095Y-101838095D01*
X146828571Y-101552380D02*
X146923809Y-101552380D01*
X147019047Y-101600000D01*
X147066666Y-101647619D01*
X147114285Y-101742857D01*
X147161904Y-101933333D01*
X147161904Y-102171428D01*
X147114285Y-102361904D01*
X147066666Y-102457142D01*
X147019047Y-102504761D01*
X146923809Y-102552380D01*
X146828571Y-102552380D01*
X146733333Y-102504761D01*
X146685714Y-102457142D01*
X146638095Y-102361904D01*
X146590476Y-102171428D01*
X146590476Y-101933333D01*
X146638095Y-101742857D01*
X146685714Y-101647619D01*
X146733333Y-101600000D01*
X146828571Y-101552380D01*
X121857142Y-111452380D02*
X121523809Y-110976190D01*
X121285714Y-111452380D02*
X121285714Y-110452380D01*
X121666666Y-110452380D01*
X121761904Y-110500000D01*
X121809523Y-110547619D01*
X121857142Y-110642857D01*
X121857142Y-110785714D01*
X121809523Y-110880952D01*
X121761904Y-110928571D01*
X121666666Y-110976190D01*
X121285714Y-110976190D01*
X122809523Y-111452380D02*
X122238095Y-111452380D01*
X122523809Y-111452380D02*
X122523809Y-110452380D01*
X122428571Y-110595238D01*
X122333333Y-110690476D01*
X122238095Y-110738095D01*
X123761904Y-111452380D02*
X123190476Y-111452380D01*
X123476190Y-111452380D02*
X123476190Y-110452380D01*
X123380952Y-110595238D01*
X123285714Y-110690476D01*
X123190476Y-110738095D01*
X139357142Y-102452380D02*
X139023809Y-101976190D01*
X138785714Y-102452380D02*
X138785714Y-101452380D01*
X139166666Y-101452380D01*
X139261904Y-101500000D01*
X139309523Y-101547619D01*
X139357142Y-101642857D01*
X139357142Y-101785714D01*
X139309523Y-101880952D01*
X139261904Y-101928571D01*
X139166666Y-101976190D01*
X138785714Y-101976190D01*
X140309523Y-102452380D02*
X139738095Y-102452380D01*
X140023809Y-102452380D02*
X140023809Y-101452380D01*
X139928571Y-101595238D01*
X139833333Y-101690476D01*
X139738095Y-101738095D01*
X140690476Y-101547619D02*
X140738095Y-101500000D01*
X140833333Y-101452380D01*
X141071428Y-101452380D01*
X141166666Y-101500000D01*
X141214285Y-101547619D01*
X141261904Y-101642857D01*
X141261904Y-101738095D01*
X141214285Y-101880952D01*
X140642857Y-102452380D01*
X141261904Y-102452380D01*
X121857142Y-102452380D02*
X121523809Y-101976190D01*
X121285714Y-102452380D02*
X121285714Y-101452380D01*
X121666666Y-101452380D01*
X121761904Y-101500000D01*
X121809523Y-101547619D01*
X121857142Y-101642857D01*
X121857142Y-101785714D01*
X121809523Y-101880952D01*
X121761904Y-101928571D01*
X121666666Y-101976190D01*
X121285714Y-101976190D01*
X122809523Y-102452380D02*
X122238095Y-102452380D01*
X122523809Y-102452380D02*
X122523809Y-101452380D01*
X122428571Y-101595238D01*
X122333333Y-101690476D01*
X122238095Y-101738095D01*
X123142857Y-101452380D02*
X123761904Y-101452380D01*
X123428571Y-101833333D01*
X123571428Y-101833333D01*
X123666666Y-101880952D01*
X123714285Y-101928571D01*
X123761904Y-102023809D01*
X123761904Y-102261904D01*
X123714285Y-102357142D01*
X123666666Y-102404761D01*
X123571428Y-102452380D01*
X123285714Y-102452380D01*
X123190476Y-102404761D01*
X123142857Y-102357142D01*
X128357142Y-98452380D02*
X128023809Y-97976190D01*
X127785714Y-98452380D02*
X127785714Y-97452380D01*
X128166666Y-97452380D01*
X128261904Y-97500000D01*
X128309523Y-97547619D01*
X128357142Y-97642857D01*
X128357142Y-97785714D01*
X128309523Y-97880952D01*
X128261904Y-97928571D01*
X128166666Y-97976190D01*
X127785714Y-97976190D01*
X129309523Y-98452380D02*
X128738095Y-98452380D01*
X129023809Y-98452380D02*
X129023809Y-97452380D01*
X128928571Y-97595238D01*
X128833333Y-97690476D01*
X128738095Y-97738095D01*
X130166666Y-97785714D02*
X130166666Y-98452380D01*
X129928571Y-97404761D02*
X129690476Y-98119047D01*
X130309523Y-98119047D01*
X128357142Y-102452380D02*
X128023809Y-101976190D01*
X127785714Y-102452380D02*
X127785714Y-101452380D01*
X128166666Y-101452380D01*
X128261904Y-101500000D01*
X128309523Y-101547619D01*
X128357142Y-101642857D01*
X128357142Y-101785714D01*
X128309523Y-101880952D01*
X128261904Y-101928571D01*
X128166666Y-101976190D01*
X127785714Y-101976190D01*
X129309523Y-102452380D02*
X128738095Y-102452380D01*
X129023809Y-102452380D02*
X129023809Y-101452380D01*
X128928571Y-101595238D01*
X128833333Y-101690476D01*
X128738095Y-101738095D01*
X130214285Y-101452380D02*
X129738095Y-101452380D01*
X129690476Y-101928571D01*
X129738095Y-101880952D01*
X129833333Y-101833333D01*
X130071428Y-101833333D01*
X130166666Y-101880952D01*
X130214285Y-101928571D01*
X130261904Y-102023809D01*
X130261904Y-102261904D01*
X130214285Y-102357142D01*
X130166666Y-102404761D01*
X130071428Y-102452380D01*
X129833333Y-102452380D01*
X129738095Y-102404761D01*
X129690476Y-102357142D01*
X126357142Y-85952380D02*
X126023809Y-85476190D01*
X125785714Y-85952380D02*
X125785714Y-84952380D01*
X126166666Y-84952380D01*
X126261904Y-85000000D01*
X126309523Y-85047619D01*
X126357142Y-85142857D01*
X126357142Y-85285714D01*
X126309523Y-85380952D01*
X126261904Y-85428571D01*
X126166666Y-85476190D01*
X125785714Y-85476190D01*
X127309523Y-85952380D02*
X126738095Y-85952380D01*
X127023809Y-85952380D02*
X127023809Y-84952380D01*
X126928571Y-85095238D01*
X126833333Y-85190476D01*
X126738095Y-85238095D01*
X128166666Y-84952380D02*
X127976190Y-84952380D01*
X127880952Y-85000000D01*
X127833333Y-85047619D01*
X127738095Y-85190476D01*
X127690476Y-85380952D01*
X127690476Y-85761904D01*
X127738095Y-85857142D01*
X127785714Y-85904761D01*
X127880952Y-85952380D01*
X128071428Y-85952380D01*
X128166666Y-85904761D01*
X128214285Y-85857142D01*
X128261904Y-85761904D01*
X128261904Y-85523809D01*
X128214285Y-85428571D01*
X128166666Y-85380952D01*
X128071428Y-85333333D01*
X127880952Y-85333333D01*
X127785714Y-85380952D01*
X127738095Y-85428571D01*
X127690476Y-85523809D01*
X120357142Y-81952380D02*
X120023809Y-81476190D01*
X119785714Y-81952380D02*
X119785714Y-80952380D01*
X120166666Y-80952380D01*
X120261904Y-81000000D01*
X120309523Y-81047619D01*
X120357142Y-81142857D01*
X120357142Y-81285714D01*
X120309523Y-81380952D01*
X120261904Y-81428571D01*
X120166666Y-81476190D01*
X119785714Y-81476190D01*
X121309523Y-81952380D02*
X120738095Y-81952380D01*
X121023809Y-81952380D02*
X121023809Y-80952380D01*
X120928571Y-81095238D01*
X120833333Y-81190476D01*
X120738095Y-81238095D01*
X121642857Y-80952380D02*
X122309523Y-80952380D01*
X121880952Y-81952380D01*
X126357142Y-81952380D02*
X126023809Y-81476190D01*
X125785714Y-81952380D02*
X125785714Y-80952380D01*
X126166666Y-80952380D01*
X126261904Y-81000000D01*
X126309523Y-81047619D01*
X126357142Y-81142857D01*
X126357142Y-81285714D01*
X126309523Y-81380952D01*
X126261904Y-81428571D01*
X126166666Y-81476190D01*
X125785714Y-81476190D01*
X127309523Y-81952380D02*
X126738095Y-81952380D01*
X127023809Y-81952380D02*
X127023809Y-80952380D01*
X126928571Y-81095238D01*
X126833333Y-81190476D01*
X126738095Y-81238095D01*
X127880952Y-81380952D02*
X127785714Y-81333333D01*
X127738095Y-81285714D01*
X127690476Y-81190476D01*
X127690476Y-81142857D01*
X127738095Y-81047619D01*
X127785714Y-81000000D01*
X127880952Y-80952380D01*
X128071428Y-80952380D01*
X128166666Y-81000000D01*
X128214285Y-81047619D01*
X128261904Y-81142857D01*
X128261904Y-81190476D01*
X128214285Y-81285714D01*
X128166666Y-81333333D01*
X128071428Y-81380952D01*
X127880952Y-81380952D01*
X127785714Y-81428571D01*
X127738095Y-81476190D01*
X127690476Y-81571428D01*
X127690476Y-81761904D01*
X127738095Y-81857142D01*
X127785714Y-81904761D01*
X127880952Y-81952380D01*
X128071428Y-81952380D01*
X128166666Y-81904761D01*
X128214285Y-81857142D01*
X128261904Y-81761904D01*
X128261904Y-81571428D01*
X128214285Y-81476190D01*
X128166666Y-81428571D01*
X128071428Y-81380952D01*
X120357142Y-77952380D02*
X120023809Y-77476190D01*
X119785714Y-77952380D02*
X119785714Y-76952380D01*
X120166666Y-76952380D01*
X120261904Y-77000000D01*
X120309523Y-77047619D01*
X120357142Y-77142857D01*
X120357142Y-77285714D01*
X120309523Y-77380952D01*
X120261904Y-77428571D01*
X120166666Y-77476190D01*
X119785714Y-77476190D01*
X121309523Y-77952380D02*
X120738095Y-77952380D01*
X121023809Y-77952380D02*
X121023809Y-76952380D01*
X120928571Y-77095238D01*
X120833333Y-77190476D01*
X120738095Y-77238095D01*
X121785714Y-77952380D02*
X121976190Y-77952380D01*
X122071428Y-77904761D01*
X122119047Y-77857142D01*
X122214285Y-77714285D01*
X122261904Y-77523809D01*
X122261904Y-77142857D01*
X122214285Y-77047619D01*
X122166666Y-77000000D01*
X122071428Y-76952380D01*
X121880952Y-76952380D01*
X121785714Y-77000000D01*
X121738095Y-77047619D01*
X121690476Y-77142857D01*
X121690476Y-77380952D01*
X121738095Y-77476190D01*
X121785714Y-77523809D01*
X121880952Y-77571428D01*
X122071428Y-77571428D01*
X122166666Y-77523809D01*
X122214285Y-77476190D01*
X122261904Y-77380952D01*
X112357142Y-61452380D02*
X112023809Y-60976190D01*
X111785714Y-61452380D02*
X111785714Y-60452380D01*
X112166666Y-60452380D01*
X112261904Y-60500000D01*
X112309523Y-60547619D01*
X112357142Y-60642857D01*
X112357142Y-60785714D01*
X112309523Y-60880952D01*
X112261904Y-60928571D01*
X112166666Y-60976190D01*
X111785714Y-60976190D01*
X112738095Y-60547619D02*
X112785714Y-60500000D01*
X112880952Y-60452380D01*
X113119047Y-60452380D01*
X113214285Y-60500000D01*
X113261904Y-60547619D01*
X113309523Y-60642857D01*
X113309523Y-60738095D01*
X113261904Y-60880952D01*
X112690476Y-61452380D01*
X113309523Y-61452380D01*
X113928571Y-60452380D02*
X114023809Y-60452380D01*
X114119047Y-60500000D01*
X114166666Y-60547619D01*
X114214285Y-60642857D01*
X114261904Y-60833333D01*
X114261904Y-61071428D01*
X114214285Y-61261904D01*
X114166666Y-61357142D01*
X114119047Y-61404761D01*
X114023809Y-61452380D01*
X113928571Y-61452380D01*
X113833333Y-61404761D01*
X113785714Y-61357142D01*
X113738095Y-61261904D01*
X113690476Y-61071428D01*
X113690476Y-60833333D01*
X113738095Y-60642857D01*
X113785714Y-60547619D01*
X113833333Y-60500000D01*
X113928571Y-60452380D01*
X140357142Y-89452380D02*
X140023809Y-88976190D01*
X139785714Y-89452380D02*
X139785714Y-88452380D01*
X140166666Y-88452380D01*
X140261904Y-88500000D01*
X140309523Y-88547619D01*
X140357142Y-88642857D01*
X140357142Y-88785714D01*
X140309523Y-88880952D01*
X140261904Y-88928571D01*
X140166666Y-88976190D01*
X139785714Y-88976190D01*
X140738095Y-88547619D02*
X140785714Y-88500000D01*
X140880952Y-88452380D01*
X141119047Y-88452380D01*
X141214285Y-88500000D01*
X141261904Y-88547619D01*
X141309523Y-88642857D01*
X141309523Y-88738095D01*
X141261904Y-88880952D01*
X140690476Y-89452380D01*
X141309523Y-89452380D01*
X142261904Y-89452380D02*
X141690476Y-89452380D01*
X141976190Y-89452380D02*
X141976190Y-88452380D01*
X141880952Y-88595238D01*
X141785714Y-88690476D01*
X141690476Y-88738095D01*
X140357142Y-93452380D02*
X140023809Y-92976190D01*
X139785714Y-93452380D02*
X139785714Y-92452380D01*
X140166666Y-92452380D01*
X140261904Y-92500000D01*
X140309523Y-92547619D01*
X140357142Y-92642857D01*
X140357142Y-92785714D01*
X140309523Y-92880952D01*
X140261904Y-92928571D01*
X140166666Y-92976190D01*
X139785714Y-92976190D01*
X140738095Y-92547619D02*
X140785714Y-92500000D01*
X140880952Y-92452380D01*
X141119047Y-92452380D01*
X141214285Y-92500000D01*
X141261904Y-92547619D01*
X141309523Y-92642857D01*
X141309523Y-92738095D01*
X141261904Y-92880952D01*
X140690476Y-93452380D01*
X141309523Y-93452380D01*
X141690476Y-92547619D02*
X141738095Y-92500000D01*
X141833333Y-92452380D01*
X142071428Y-92452380D01*
X142166666Y-92500000D01*
X142214285Y-92547619D01*
X142261904Y-92642857D01*
X142261904Y-92738095D01*
X142214285Y-92880952D01*
X141642857Y-93452380D01*
X142261904Y-93452380D01*
X131452380Y-63142857D02*
X130976190Y-63476190D01*
X131452380Y-63714285D02*
X130452380Y-63714285D01*
X130452380Y-63333333D01*
X130500000Y-63238095D01*
X130547619Y-63190476D01*
X130642857Y-63142857D01*
X130785714Y-63142857D01*
X130880952Y-63190476D01*
X130928571Y-63238095D01*
X130976190Y-63333333D01*
X130976190Y-63714285D01*
X130547619Y-62761904D02*
X130500000Y-62714285D01*
X130452380Y-62619047D01*
X130452380Y-62380952D01*
X130500000Y-62285714D01*
X130547619Y-62238095D01*
X130642857Y-62190476D01*
X130738095Y-62190476D01*
X130880952Y-62238095D01*
X131452380Y-62809523D01*
X131452380Y-62190476D01*
X130452380Y-61857142D02*
X130452380Y-61238095D01*
X130833333Y-61571428D01*
X130833333Y-61428571D01*
X130880952Y-61333333D01*
X130928571Y-61285714D01*
X131023809Y-61238095D01*
X131261904Y-61238095D01*
X131357142Y-61285714D01*
X131404761Y-61333333D01*
X131452380Y-61428571D01*
X131452380Y-61714285D01*
X131404761Y-61809523D01*
X131357142Y-61857142D01*
X141952380Y-63142857D02*
X141476190Y-63476190D01*
X141952380Y-63714285D02*
X140952380Y-63714285D01*
X140952380Y-63333333D01*
X141000000Y-63238095D01*
X141047619Y-63190476D01*
X141142857Y-63142857D01*
X141285714Y-63142857D01*
X141380952Y-63190476D01*
X141428571Y-63238095D01*
X141476190Y-63333333D01*
X141476190Y-63714285D01*
X141047619Y-62761904D02*
X141000000Y-62714285D01*
X140952380Y-62619047D01*
X140952380Y-62380952D01*
X141000000Y-62285714D01*
X141047619Y-62238095D01*
X141142857Y-62190476D01*
X141238095Y-62190476D01*
X141380952Y-62238095D01*
X141952380Y-62809523D01*
X141952380Y-62190476D01*
X141285714Y-61333333D02*
X141952380Y-61333333D01*
X140904761Y-61571428D02*
X141619047Y-61809523D01*
X141619047Y-61190476D01*
X136952380Y-63142857D02*
X136476190Y-63476190D01*
X136952380Y-63714285D02*
X135952380Y-63714285D01*
X135952380Y-63333333D01*
X136000000Y-63238095D01*
X136047619Y-63190476D01*
X136142857Y-63142857D01*
X136285714Y-63142857D01*
X136380952Y-63190476D01*
X136428571Y-63238095D01*
X136476190Y-63333333D01*
X136476190Y-63714285D01*
X136047619Y-62761904D02*
X136000000Y-62714285D01*
X135952380Y-62619047D01*
X135952380Y-62380952D01*
X136000000Y-62285714D01*
X136047619Y-62238095D01*
X136142857Y-62190476D01*
X136238095Y-62190476D01*
X136380952Y-62238095D01*
X136952380Y-62809523D01*
X136952380Y-62190476D01*
X135952380Y-61285714D02*
X135952380Y-61761904D01*
X136428571Y-61809523D01*
X136380952Y-61761904D01*
X136333333Y-61666666D01*
X136333333Y-61428571D01*
X136380952Y-61333333D01*
X136428571Y-61285714D01*
X136523809Y-61238095D01*
X136761904Y-61238095D01*
X136857142Y-61285714D01*
X136904761Y-61333333D01*
X136952380Y-61428571D01*
X136952380Y-61666666D01*
X136904761Y-61761904D01*
X136857142Y-61809523D01*
X69238095Y-72452380D02*
X69238095Y-73261904D01*
X69285714Y-73357142D01*
X69333333Y-73404761D01*
X69428571Y-73452380D01*
X69619047Y-73452380D01*
X69714285Y-73404761D01*
X69761904Y-73357142D01*
X69809523Y-73261904D01*
X69809523Y-72452380D01*
X70809523Y-73452380D02*
X70238095Y-73452380D01*
X70523809Y-73452380D02*
X70523809Y-72452380D01*
X70428571Y-72595238D01*
X70333333Y-72690476D01*
X70238095Y-72738095D01*
X105238095Y-75952380D02*
X105238095Y-76761904D01*
X105285714Y-76857142D01*
X105333333Y-76904761D01*
X105428571Y-76952380D01*
X105619047Y-76952380D01*
X105714285Y-76904761D01*
X105761904Y-76857142D01*
X105809523Y-76761904D01*
X105809523Y-75952380D01*
X106238095Y-76047619D02*
X106285714Y-76000000D01*
X106380952Y-75952380D01*
X106619047Y-75952380D01*
X106714285Y-76000000D01*
X106761904Y-76047619D01*
X106809523Y-76142857D01*
X106809523Y-76238095D01*
X106761904Y-76380952D01*
X106190476Y-76952380D01*
X106809523Y-76952380D01*
X112238095Y-51002380D02*
X112238095Y-51811904D01*
X112285714Y-51907142D01*
X112333333Y-51954761D01*
X112428571Y-52002380D01*
X112619047Y-52002380D01*
X112714285Y-51954761D01*
X112761904Y-51907142D01*
X112809523Y-51811904D01*
X112809523Y-51002380D01*
X113761904Y-51002380D02*
X113285714Y-51002380D01*
X113238095Y-51478571D01*
X113285714Y-51430952D01*
X113380952Y-51383333D01*
X113619047Y-51383333D01*
X113714285Y-51430952D01*
X113761904Y-51478571D01*
X113809523Y-51573809D01*
X113809523Y-51811904D01*
X113761904Y-51907142D01*
X113714285Y-51954761D01*
X113619047Y-52002380D01*
X113380952Y-52002380D01*
X113285714Y-51954761D01*
X113238095Y-51907142D01*
X135738095Y-84202380D02*
X135738095Y-85011904D01*
X135785714Y-85107142D01*
X135833333Y-85154761D01*
X135928571Y-85202380D01*
X136119047Y-85202380D01*
X136214285Y-85154761D01*
X136261904Y-85107142D01*
X136309523Y-85011904D01*
X136309523Y-84202380D01*
X137214285Y-84202380D02*
X137023809Y-84202380D01*
X136928571Y-84250000D01*
X136880952Y-84297619D01*
X136785714Y-84440476D01*
X136738095Y-84630952D01*
X136738095Y-85011904D01*
X136785714Y-85107142D01*
X136833333Y-85154761D01*
X136928571Y-85202380D01*
X137119047Y-85202380D01*
X137214285Y-85154761D01*
X137261904Y-85107142D01*
X137309523Y-85011904D01*
X137309523Y-84773809D01*
X137261904Y-84678571D01*
X137214285Y-84630952D01*
X137119047Y-84583333D01*
X136928571Y-84583333D01*
X136833333Y-84630952D01*
X136785714Y-84678571D01*
X136738095Y-84773809D01*
X72364761Y-99607619D02*
X72269523Y-99560000D01*
X72174285Y-99464761D01*
X72031428Y-99321904D01*
X71936190Y-99274285D01*
X71840952Y-99274285D01*
X71888571Y-99512380D02*
X71793333Y-99464761D01*
X71698095Y-99369523D01*
X71650476Y-99179047D01*
X71650476Y-98845714D01*
X71698095Y-98655238D01*
X71793333Y-98560000D01*
X71888571Y-98512380D01*
X72079047Y-98512380D01*
X72174285Y-98560000D01*
X72269523Y-98655238D01*
X72317142Y-98845714D01*
X72317142Y-99179047D01*
X72269523Y-99369523D01*
X72174285Y-99464761D01*
X72079047Y-99512380D01*
X71888571Y-99512380D01*
X72698095Y-98607619D02*
X72745714Y-98560000D01*
X72840952Y-98512380D01*
X73079047Y-98512380D01*
X73174285Y-98560000D01*
X73221904Y-98607619D01*
X73269523Y-98702857D01*
X73269523Y-98798095D01*
X73221904Y-98940952D01*
X72650476Y-99512380D01*
X73269523Y-99512380D01*
X148738095Y-113452380D02*
X148738095Y-114261904D01*
X148785714Y-114357142D01*
X148833333Y-114404761D01*
X148928571Y-114452380D01*
X149119047Y-114452380D01*
X149214285Y-114404761D01*
X149261904Y-114357142D01*
X149309523Y-114261904D01*
X149309523Y-113452380D01*
X149690476Y-113452380D02*
X150309523Y-113452380D01*
X149976190Y-113833333D01*
X150119047Y-113833333D01*
X150214285Y-113880952D01*
X150261904Y-113928571D01*
X150309523Y-114023809D01*
X150309523Y-114261904D01*
X150261904Y-114357142D01*
X150214285Y-114404761D01*
X150119047Y-114452380D01*
X149833333Y-114452380D01*
X149738095Y-114404761D01*
X149690476Y-114357142D01*
X106738095Y-112952380D02*
X106738095Y-113761904D01*
X106785714Y-113857142D01*
X106833333Y-113904761D01*
X106928571Y-113952380D01*
X107119047Y-113952380D01*
X107214285Y-113904761D01*
X107261904Y-113857142D01*
X107309523Y-113761904D01*
X107309523Y-112952380D01*
X108214285Y-113285714D02*
X108214285Y-113952380D01*
X107976190Y-112904761D02*
X107738095Y-113619047D01*
X108357142Y-113619047D01*
X100702380Y-54761904D02*
X101511904Y-54761904D01*
X101607142Y-54714285D01*
X101654761Y-54666666D01*
X101702380Y-54571428D01*
X101702380Y-54380952D01*
X101654761Y-54285714D01*
X101607142Y-54238095D01*
X101511904Y-54190476D01*
X100702380Y-54190476D01*
X100702380Y-53809523D02*
X100702380Y-53142857D01*
X101702380Y-53571428D01*
M02*
