G04 #@! TF.GenerationSoftware,KiCad,Pcbnew,(5.1.0-0)*
G04 #@! TF.CreationDate,2019-06-09T17:55:59+01:00*
G04 #@! TF.ProjectId,PowerSupply,506f7765-7253-4757-9070-6c792e6b6963,0.1*
G04 #@! TF.SameCoordinates,Original*
G04 #@! TF.FileFunction,Soldermask,Top*
G04 #@! TF.FilePolarity,Negative*
%FSLAX46Y46*%
G04 Gerber Fmt 4.6, Leading zero omitted, Abs format (unit mm)*
G04 Created by KiCad (PCBNEW (5.1.0-0)) date 2019-06-09 17:55:59*
%MOMM*%
%LPD*%
G04 APERTURE LIST*
%ADD10C,0.150000*%
%ADD11C,2.602000*%
%ADD12C,1.252000*%
%ADD13R,3.702000X4.602000*%
%ADD14R,4.602000X3.702000*%
%ADD15C,1.842000*%
%ADD16O,1.842000X2.302000*%
%ADD17R,2.702000X2.702000*%
%ADD18C,2.702000*%
%ADD19O,2.302000X1.842000*%
%ADD20R,5.102000X5.202000*%
%ADD21R,2.007000X2.102000*%
%ADD22O,2.007000X2.102000*%
%ADD23O,1.152000X1.602000*%
%ADD24R,1.152000X1.602000*%
%ADD25R,1.652000X0.702000*%
%ADD26R,2.102000X3.902000*%
%ADD27R,2.102000X1.602000*%
%ADD28R,2.102000X0.752000*%
%ADD29R,1.602000X0.552000*%
%ADD30C,1.902000*%
%ADD31R,1.902000X1.902000*%
%ADD32O,1.902000X1.902000*%
%ADD33R,2.102000X2.102000*%
%ADD34C,2.102000*%
G04 APERTURE END LIST*
D10*
G36*
X85066304Y-57950253D02*
G01*
X85091563Y-57954000D01*
X85116332Y-57960204D01*
X85140374Y-57968807D01*
X85163457Y-57979724D01*
X85185359Y-57992852D01*
X85205869Y-58008063D01*
X85224789Y-58025211D01*
X85241937Y-58044131D01*
X85257148Y-58064641D01*
X85270276Y-58086543D01*
X85281193Y-58109626D01*
X85289796Y-58133668D01*
X85296000Y-58158437D01*
X85299747Y-58183696D01*
X85301000Y-58209200D01*
X85301000Y-61290800D01*
X85299747Y-61316304D01*
X85296000Y-61341563D01*
X85289796Y-61366332D01*
X85281193Y-61390374D01*
X85270276Y-61413457D01*
X85257148Y-61435359D01*
X85241937Y-61455869D01*
X85224789Y-61474789D01*
X85205869Y-61491937D01*
X85185359Y-61507148D01*
X85163457Y-61520276D01*
X85140374Y-61531193D01*
X85116332Y-61539796D01*
X85091563Y-61546000D01*
X85066304Y-61549747D01*
X85040800Y-61551000D01*
X82959200Y-61551000D01*
X82933696Y-61549747D01*
X82908437Y-61546000D01*
X82883668Y-61539796D01*
X82859626Y-61531193D01*
X82836543Y-61520276D01*
X82814641Y-61507148D01*
X82794131Y-61491937D01*
X82775211Y-61474789D01*
X82758063Y-61455869D01*
X82742852Y-61435359D01*
X82729724Y-61413457D01*
X82718807Y-61390374D01*
X82710204Y-61366332D01*
X82704000Y-61341563D01*
X82700253Y-61316304D01*
X82699000Y-61290800D01*
X82699000Y-58209200D01*
X82700253Y-58183696D01*
X82704000Y-58158437D01*
X82710204Y-58133668D01*
X82718807Y-58109626D01*
X82729724Y-58086543D01*
X82742852Y-58064641D01*
X82758063Y-58044131D01*
X82775211Y-58025211D01*
X82794131Y-58008063D01*
X82814641Y-57992852D01*
X82836543Y-57979724D01*
X82859626Y-57968807D01*
X82883668Y-57960204D01*
X82908437Y-57954000D01*
X82933696Y-57950253D01*
X82959200Y-57949000D01*
X85040800Y-57949000D01*
X85066304Y-57950253D01*
X85066304Y-57950253D01*
G37*
D11*
X84000000Y-59750000D03*
D10*
G36*
X85066304Y-64450253D02*
G01*
X85091563Y-64454000D01*
X85116332Y-64460204D01*
X85140374Y-64468807D01*
X85163457Y-64479724D01*
X85185359Y-64492852D01*
X85205869Y-64508063D01*
X85224789Y-64525211D01*
X85241937Y-64544131D01*
X85257148Y-64564641D01*
X85270276Y-64586543D01*
X85281193Y-64609626D01*
X85289796Y-64633668D01*
X85296000Y-64658437D01*
X85299747Y-64683696D01*
X85301000Y-64709200D01*
X85301000Y-67790800D01*
X85299747Y-67816304D01*
X85296000Y-67841563D01*
X85289796Y-67866332D01*
X85281193Y-67890374D01*
X85270276Y-67913457D01*
X85257148Y-67935359D01*
X85241937Y-67955869D01*
X85224789Y-67974789D01*
X85205869Y-67991937D01*
X85185359Y-68007148D01*
X85163457Y-68020276D01*
X85140374Y-68031193D01*
X85116332Y-68039796D01*
X85091563Y-68046000D01*
X85066304Y-68049747D01*
X85040800Y-68051000D01*
X82959200Y-68051000D01*
X82933696Y-68049747D01*
X82908437Y-68046000D01*
X82883668Y-68039796D01*
X82859626Y-68031193D01*
X82836543Y-68020276D01*
X82814641Y-68007148D01*
X82794131Y-67991937D01*
X82775211Y-67974789D01*
X82758063Y-67955869D01*
X82742852Y-67935359D01*
X82729724Y-67913457D01*
X82718807Y-67890374D01*
X82710204Y-67866332D01*
X82704000Y-67841563D01*
X82700253Y-67816304D01*
X82699000Y-67790800D01*
X82699000Y-64709200D01*
X82700253Y-64683696D01*
X82704000Y-64658437D01*
X82710204Y-64633668D01*
X82718807Y-64609626D01*
X82729724Y-64586543D01*
X82742852Y-64564641D01*
X82758063Y-64544131D01*
X82775211Y-64525211D01*
X82794131Y-64508063D01*
X82814641Y-64492852D01*
X82836543Y-64479724D01*
X82859626Y-64468807D01*
X82883668Y-64460204D01*
X82908437Y-64454000D01*
X82933696Y-64450253D01*
X82959200Y-64449000D01*
X85040800Y-64449000D01*
X85066304Y-64450253D01*
X85066304Y-64450253D01*
G37*
D11*
X84000000Y-66250000D03*
D10*
G36*
X77005505Y-65400311D02*
G01*
X77031925Y-65404230D01*
X77057835Y-65410720D01*
X77082983Y-65419718D01*
X77107128Y-65431138D01*
X77130038Y-65444869D01*
X77151492Y-65460780D01*
X77171282Y-65478718D01*
X77189220Y-65498508D01*
X77205131Y-65519962D01*
X77218862Y-65542872D01*
X77230282Y-65567017D01*
X77239280Y-65592165D01*
X77245770Y-65618075D01*
X77249689Y-65644495D01*
X77251000Y-65671173D01*
X77251000Y-66378827D01*
X77249689Y-66405505D01*
X77245770Y-66431925D01*
X77239280Y-66457835D01*
X77230282Y-66482983D01*
X77218862Y-66507128D01*
X77205131Y-66530038D01*
X77189220Y-66551492D01*
X77171282Y-66571282D01*
X77151492Y-66589220D01*
X77130038Y-66605131D01*
X77107128Y-66618862D01*
X77082983Y-66630282D01*
X77057835Y-66639280D01*
X77031925Y-66645770D01*
X77005505Y-66649689D01*
X76978827Y-66651000D01*
X76021173Y-66651000D01*
X75994495Y-66649689D01*
X75968075Y-66645770D01*
X75942165Y-66639280D01*
X75917017Y-66630282D01*
X75892872Y-66618862D01*
X75869962Y-66605131D01*
X75848508Y-66589220D01*
X75828718Y-66571282D01*
X75810780Y-66551492D01*
X75794869Y-66530038D01*
X75781138Y-66507128D01*
X75769718Y-66482983D01*
X75760720Y-66457835D01*
X75754230Y-66431925D01*
X75750311Y-66405505D01*
X75749000Y-66378827D01*
X75749000Y-65671173D01*
X75750311Y-65644495D01*
X75754230Y-65618075D01*
X75760720Y-65592165D01*
X75769718Y-65567017D01*
X75781138Y-65542872D01*
X75794869Y-65519962D01*
X75810780Y-65498508D01*
X75828718Y-65478718D01*
X75848508Y-65460780D01*
X75869962Y-65444869D01*
X75892872Y-65431138D01*
X75917017Y-65419718D01*
X75942165Y-65410720D01*
X75968075Y-65404230D01*
X75994495Y-65400311D01*
X76021173Y-65399000D01*
X76978827Y-65399000D01*
X77005505Y-65400311D01*
X77005505Y-65400311D01*
G37*
D12*
X76500000Y-66025000D03*
D10*
G36*
X77005505Y-63350311D02*
G01*
X77031925Y-63354230D01*
X77057835Y-63360720D01*
X77082983Y-63369718D01*
X77107128Y-63381138D01*
X77130038Y-63394869D01*
X77151492Y-63410780D01*
X77171282Y-63428718D01*
X77189220Y-63448508D01*
X77205131Y-63469962D01*
X77218862Y-63492872D01*
X77230282Y-63517017D01*
X77239280Y-63542165D01*
X77245770Y-63568075D01*
X77249689Y-63594495D01*
X77251000Y-63621173D01*
X77251000Y-64328827D01*
X77249689Y-64355505D01*
X77245770Y-64381925D01*
X77239280Y-64407835D01*
X77230282Y-64432983D01*
X77218862Y-64457128D01*
X77205131Y-64480038D01*
X77189220Y-64501492D01*
X77171282Y-64521282D01*
X77151492Y-64539220D01*
X77130038Y-64555131D01*
X77107128Y-64568862D01*
X77082983Y-64580282D01*
X77057835Y-64589280D01*
X77031925Y-64595770D01*
X77005505Y-64599689D01*
X76978827Y-64601000D01*
X76021173Y-64601000D01*
X75994495Y-64599689D01*
X75968075Y-64595770D01*
X75942165Y-64589280D01*
X75917017Y-64580282D01*
X75892872Y-64568862D01*
X75869962Y-64555131D01*
X75848508Y-64539220D01*
X75828718Y-64521282D01*
X75810780Y-64501492D01*
X75794869Y-64480038D01*
X75781138Y-64457128D01*
X75769718Y-64432983D01*
X75760720Y-64407835D01*
X75754230Y-64381925D01*
X75750311Y-64355505D01*
X75749000Y-64328827D01*
X75749000Y-63621173D01*
X75750311Y-63594495D01*
X75754230Y-63568075D01*
X75760720Y-63542165D01*
X75769718Y-63517017D01*
X75781138Y-63492872D01*
X75794869Y-63469962D01*
X75810780Y-63448508D01*
X75828718Y-63428718D01*
X75848508Y-63410780D01*
X75869962Y-63394869D01*
X75892872Y-63381138D01*
X75917017Y-63369718D01*
X75942165Y-63360720D01*
X75968075Y-63354230D01*
X75994495Y-63350311D01*
X76021173Y-63349000D01*
X76978827Y-63349000D01*
X77005505Y-63350311D01*
X77005505Y-63350311D01*
G37*
D12*
X76500000Y-63975000D03*
D10*
G36*
X64505505Y-73400311D02*
G01*
X64531925Y-73404230D01*
X64557835Y-73410720D01*
X64582983Y-73419718D01*
X64607128Y-73431138D01*
X64630038Y-73444869D01*
X64651492Y-73460780D01*
X64671282Y-73478718D01*
X64689220Y-73498508D01*
X64705131Y-73519962D01*
X64718862Y-73542872D01*
X64730282Y-73567017D01*
X64739280Y-73592165D01*
X64745770Y-73618075D01*
X64749689Y-73644495D01*
X64751000Y-73671173D01*
X64751000Y-74378827D01*
X64749689Y-74405505D01*
X64745770Y-74431925D01*
X64739280Y-74457835D01*
X64730282Y-74482983D01*
X64718862Y-74507128D01*
X64705131Y-74530038D01*
X64689220Y-74551492D01*
X64671282Y-74571282D01*
X64651492Y-74589220D01*
X64630038Y-74605131D01*
X64607128Y-74618862D01*
X64582983Y-74630282D01*
X64557835Y-74639280D01*
X64531925Y-74645770D01*
X64505505Y-74649689D01*
X64478827Y-74651000D01*
X63521173Y-74651000D01*
X63494495Y-74649689D01*
X63468075Y-74645770D01*
X63442165Y-74639280D01*
X63417017Y-74630282D01*
X63392872Y-74618862D01*
X63369962Y-74605131D01*
X63348508Y-74589220D01*
X63328718Y-74571282D01*
X63310780Y-74551492D01*
X63294869Y-74530038D01*
X63281138Y-74507128D01*
X63269718Y-74482983D01*
X63260720Y-74457835D01*
X63254230Y-74431925D01*
X63250311Y-74405505D01*
X63249000Y-74378827D01*
X63249000Y-73671173D01*
X63250311Y-73644495D01*
X63254230Y-73618075D01*
X63260720Y-73592165D01*
X63269718Y-73567017D01*
X63281138Y-73542872D01*
X63294869Y-73519962D01*
X63310780Y-73498508D01*
X63328718Y-73478718D01*
X63348508Y-73460780D01*
X63369962Y-73444869D01*
X63392872Y-73431138D01*
X63417017Y-73419718D01*
X63442165Y-73410720D01*
X63468075Y-73404230D01*
X63494495Y-73400311D01*
X63521173Y-73399000D01*
X64478827Y-73399000D01*
X64505505Y-73400311D01*
X64505505Y-73400311D01*
G37*
D12*
X64000000Y-74025000D03*
D10*
G36*
X64505505Y-71350311D02*
G01*
X64531925Y-71354230D01*
X64557835Y-71360720D01*
X64582983Y-71369718D01*
X64607128Y-71381138D01*
X64630038Y-71394869D01*
X64651492Y-71410780D01*
X64671282Y-71428718D01*
X64689220Y-71448508D01*
X64705131Y-71469962D01*
X64718862Y-71492872D01*
X64730282Y-71517017D01*
X64739280Y-71542165D01*
X64745770Y-71568075D01*
X64749689Y-71594495D01*
X64751000Y-71621173D01*
X64751000Y-72328827D01*
X64749689Y-72355505D01*
X64745770Y-72381925D01*
X64739280Y-72407835D01*
X64730282Y-72432983D01*
X64718862Y-72457128D01*
X64705131Y-72480038D01*
X64689220Y-72501492D01*
X64671282Y-72521282D01*
X64651492Y-72539220D01*
X64630038Y-72555131D01*
X64607128Y-72568862D01*
X64582983Y-72580282D01*
X64557835Y-72589280D01*
X64531925Y-72595770D01*
X64505505Y-72599689D01*
X64478827Y-72601000D01*
X63521173Y-72601000D01*
X63494495Y-72599689D01*
X63468075Y-72595770D01*
X63442165Y-72589280D01*
X63417017Y-72580282D01*
X63392872Y-72568862D01*
X63369962Y-72555131D01*
X63348508Y-72539220D01*
X63328718Y-72521282D01*
X63310780Y-72501492D01*
X63294869Y-72480038D01*
X63281138Y-72457128D01*
X63269718Y-72432983D01*
X63260720Y-72407835D01*
X63254230Y-72381925D01*
X63250311Y-72355505D01*
X63249000Y-72328827D01*
X63249000Y-71621173D01*
X63250311Y-71594495D01*
X63254230Y-71568075D01*
X63260720Y-71542165D01*
X63269718Y-71517017D01*
X63281138Y-71492872D01*
X63294869Y-71469962D01*
X63310780Y-71448508D01*
X63328718Y-71428718D01*
X63348508Y-71410780D01*
X63369962Y-71394869D01*
X63392872Y-71381138D01*
X63417017Y-71369718D01*
X63442165Y-71360720D01*
X63468075Y-71354230D01*
X63494495Y-71350311D01*
X63521173Y-71349000D01*
X64478827Y-71349000D01*
X64505505Y-71350311D01*
X64505505Y-71350311D01*
G37*
D12*
X64000000Y-71975000D03*
D10*
G36*
X69005505Y-75900311D02*
G01*
X69031925Y-75904230D01*
X69057835Y-75910720D01*
X69082983Y-75919718D01*
X69107128Y-75931138D01*
X69130038Y-75944869D01*
X69151492Y-75960780D01*
X69171282Y-75978718D01*
X69189220Y-75998508D01*
X69205131Y-76019962D01*
X69218862Y-76042872D01*
X69230282Y-76067017D01*
X69239280Y-76092165D01*
X69245770Y-76118075D01*
X69249689Y-76144495D01*
X69251000Y-76171173D01*
X69251000Y-76878827D01*
X69249689Y-76905505D01*
X69245770Y-76931925D01*
X69239280Y-76957835D01*
X69230282Y-76982983D01*
X69218862Y-77007128D01*
X69205131Y-77030038D01*
X69189220Y-77051492D01*
X69171282Y-77071282D01*
X69151492Y-77089220D01*
X69130038Y-77105131D01*
X69107128Y-77118862D01*
X69082983Y-77130282D01*
X69057835Y-77139280D01*
X69031925Y-77145770D01*
X69005505Y-77149689D01*
X68978827Y-77151000D01*
X68021173Y-77151000D01*
X67994495Y-77149689D01*
X67968075Y-77145770D01*
X67942165Y-77139280D01*
X67917017Y-77130282D01*
X67892872Y-77118862D01*
X67869962Y-77105131D01*
X67848508Y-77089220D01*
X67828718Y-77071282D01*
X67810780Y-77051492D01*
X67794869Y-77030038D01*
X67781138Y-77007128D01*
X67769718Y-76982983D01*
X67760720Y-76957835D01*
X67754230Y-76931925D01*
X67750311Y-76905505D01*
X67749000Y-76878827D01*
X67749000Y-76171173D01*
X67750311Y-76144495D01*
X67754230Y-76118075D01*
X67760720Y-76092165D01*
X67769718Y-76067017D01*
X67781138Y-76042872D01*
X67794869Y-76019962D01*
X67810780Y-75998508D01*
X67828718Y-75978718D01*
X67848508Y-75960780D01*
X67869962Y-75944869D01*
X67892872Y-75931138D01*
X67917017Y-75919718D01*
X67942165Y-75910720D01*
X67968075Y-75904230D01*
X67994495Y-75900311D01*
X68021173Y-75899000D01*
X68978827Y-75899000D01*
X69005505Y-75900311D01*
X69005505Y-75900311D01*
G37*
D12*
X68500000Y-76525000D03*
D10*
G36*
X69005505Y-73850311D02*
G01*
X69031925Y-73854230D01*
X69057835Y-73860720D01*
X69082983Y-73869718D01*
X69107128Y-73881138D01*
X69130038Y-73894869D01*
X69151492Y-73910780D01*
X69171282Y-73928718D01*
X69189220Y-73948508D01*
X69205131Y-73969962D01*
X69218862Y-73992872D01*
X69230282Y-74017017D01*
X69239280Y-74042165D01*
X69245770Y-74068075D01*
X69249689Y-74094495D01*
X69251000Y-74121173D01*
X69251000Y-74828827D01*
X69249689Y-74855505D01*
X69245770Y-74881925D01*
X69239280Y-74907835D01*
X69230282Y-74932983D01*
X69218862Y-74957128D01*
X69205131Y-74980038D01*
X69189220Y-75001492D01*
X69171282Y-75021282D01*
X69151492Y-75039220D01*
X69130038Y-75055131D01*
X69107128Y-75068862D01*
X69082983Y-75080282D01*
X69057835Y-75089280D01*
X69031925Y-75095770D01*
X69005505Y-75099689D01*
X68978827Y-75101000D01*
X68021173Y-75101000D01*
X67994495Y-75099689D01*
X67968075Y-75095770D01*
X67942165Y-75089280D01*
X67917017Y-75080282D01*
X67892872Y-75068862D01*
X67869962Y-75055131D01*
X67848508Y-75039220D01*
X67828718Y-75021282D01*
X67810780Y-75001492D01*
X67794869Y-74980038D01*
X67781138Y-74957128D01*
X67769718Y-74932983D01*
X67760720Y-74907835D01*
X67754230Y-74881925D01*
X67750311Y-74855505D01*
X67749000Y-74828827D01*
X67749000Y-74121173D01*
X67750311Y-74094495D01*
X67754230Y-74068075D01*
X67760720Y-74042165D01*
X67769718Y-74017017D01*
X67781138Y-73992872D01*
X67794869Y-73969962D01*
X67810780Y-73948508D01*
X67828718Y-73928718D01*
X67848508Y-73910780D01*
X67869962Y-73894869D01*
X67892872Y-73881138D01*
X67917017Y-73869718D01*
X67942165Y-73860720D01*
X67968075Y-73854230D01*
X67994495Y-73850311D01*
X68021173Y-73849000D01*
X68978827Y-73849000D01*
X69005505Y-73850311D01*
X69005505Y-73850311D01*
G37*
D12*
X68500000Y-74475000D03*
D10*
G36*
X82505505Y-72400311D02*
G01*
X82531925Y-72404230D01*
X82557835Y-72410720D01*
X82582983Y-72419718D01*
X82607128Y-72431138D01*
X82630038Y-72444869D01*
X82651492Y-72460780D01*
X82671282Y-72478718D01*
X82689220Y-72498508D01*
X82705131Y-72519962D01*
X82718862Y-72542872D01*
X82730282Y-72567017D01*
X82739280Y-72592165D01*
X82745770Y-72618075D01*
X82749689Y-72644495D01*
X82751000Y-72671173D01*
X82751000Y-73378827D01*
X82749689Y-73405505D01*
X82745770Y-73431925D01*
X82739280Y-73457835D01*
X82730282Y-73482983D01*
X82718862Y-73507128D01*
X82705131Y-73530038D01*
X82689220Y-73551492D01*
X82671282Y-73571282D01*
X82651492Y-73589220D01*
X82630038Y-73605131D01*
X82607128Y-73618862D01*
X82582983Y-73630282D01*
X82557835Y-73639280D01*
X82531925Y-73645770D01*
X82505505Y-73649689D01*
X82478827Y-73651000D01*
X81521173Y-73651000D01*
X81494495Y-73649689D01*
X81468075Y-73645770D01*
X81442165Y-73639280D01*
X81417017Y-73630282D01*
X81392872Y-73618862D01*
X81369962Y-73605131D01*
X81348508Y-73589220D01*
X81328718Y-73571282D01*
X81310780Y-73551492D01*
X81294869Y-73530038D01*
X81281138Y-73507128D01*
X81269718Y-73482983D01*
X81260720Y-73457835D01*
X81254230Y-73431925D01*
X81250311Y-73405505D01*
X81249000Y-73378827D01*
X81249000Y-72671173D01*
X81250311Y-72644495D01*
X81254230Y-72618075D01*
X81260720Y-72592165D01*
X81269718Y-72567017D01*
X81281138Y-72542872D01*
X81294869Y-72519962D01*
X81310780Y-72498508D01*
X81328718Y-72478718D01*
X81348508Y-72460780D01*
X81369962Y-72444869D01*
X81392872Y-72431138D01*
X81417017Y-72419718D01*
X81442165Y-72410720D01*
X81468075Y-72404230D01*
X81494495Y-72400311D01*
X81521173Y-72399000D01*
X82478827Y-72399000D01*
X82505505Y-72400311D01*
X82505505Y-72400311D01*
G37*
D12*
X82000000Y-73025000D03*
D10*
G36*
X82505505Y-70350311D02*
G01*
X82531925Y-70354230D01*
X82557835Y-70360720D01*
X82582983Y-70369718D01*
X82607128Y-70381138D01*
X82630038Y-70394869D01*
X82651492Y-70410780D01*
X82671282Y-70428718D01*
X82689220Y-70448508D01*
X82705131Y-70469962D01*
X82718862Y-70492872D01*
X82730282Y-70517017D01*
X82739280Y-70542165D01*
X82745770Y-70568075D01*
X82749689Y-70594495D01*
X82751000Y-70621173D01*
X82751000Y-71328827D01*
X82749689Y-71355505D01*
X82745770Y-71381925D01*
X82739280Y-71407835D01*
X82730282Y-71432983D01*
X82718862Y-71457128D01*
X82705131Y-71480038D01*
X82689220Y-71501492D01*
X82671282Y-71521282D01*
X82651492Y-71539220D01*
X82630038Y-71555131D01*
X82607128Y-71568862D01*
X82582983Y-71580282D01*
X82557835Y-71589280D01*
X82531925Y-71595770D01*
X82505505Y-71599689D01*
X82478827Y-71601000D01*
X81521173Y-71601000D01*
X81494495Y-71599689D01*
X81468075Y-71595770D01*
X81442165Y-71589280D01*
X81417017Y-71580282D01*
X81392872Y-71568862D01*
X81369962Y-71555131D01*
X81348508Y-71539220D01*
X81328718Y-71521282D01*
X81310780Y-71501492D01*
X81294869Y-71480038D01*
X81281138Y-71457128D01*
X81269718Y-71432983D01*
X81260720Y-71407835D01*
X81254230Y-71381925D01*
X81250311Y-71355505D01*
X81249000Y-71328827D01*
X81249000Y-70621173D01*
X81250311Y-70594495D01*
X81254230Y-70568075D01*
X81260720Y-70542165D01*
X81269718Y-70517017D01*
X81281138Y-70492872D01*
X81294869Y-70469962D01*
X81310780Y-70448508D01*
X81328718Y-70428718D01*
X81348508Y-70410780D01*
X81369962Y-70394869D01*
X81392872Y-70381138D01*
X81417017Y-70369718D01*
X81442165Y-70360720D01*
X81468075Y-70354230D01*
X81494495Y-70350311D01*
X81521173Y-70349000D01*
X82478827Y-70349000D01*
X82505505Y-70350311D01*
X82505505Y-70350311D01*
G37*
D12*
X82000000Y-70975000D03*
D10*
G36*
X77505505Y-78550311D02*
G01*
X77531925Y-78554230D01*
X77557835Y-78560720D01*
X77582983Y-78569718D01*
X77607128Y-78581138D01*
X77630038Y-78594869D01*
X77651492Y-78610780D01*
X77671282Y-78628718D01*
X77689220Y-78648508D01*
X77705131Y-78669962D01*
X77718862Y-78692872D01*
X77730282Y-78717017D01*
X77739280Y-78742165D01*
X77745770Y-78768075D01*
X77749689Y-78794495D01*
X77751000Y-78821173D01*
X77751000Y-79778827D01*
X77749689Y-79805505D01*
X77745770Y-79831925D01*
X77739280Y-79857835D01*
X77730282Y-79882983D01*
X77718862Y-79907128D01*
X77705131Y-79930038D01*
X77689220Y-79951492D01*
X77671282Y-79971282D01*
X77651492Y-79989220D01*
X77630038Y-80005131D01*
X77607128Y-80018862D01*
X77582983Y-80030282D01*
X77557835Y-80039280D01*
X77531925Y-80045770D01*
X77505505Y-80049689D01*
X77478827Y-80051000D01*
X76771173Y-80051000D01*
X76744495Y-80049689D01*
X76718075Y-80045770D01*
X76692165Y-80039280D01*
X76667017Y-80030282D01*
X76642872Y-80018862D01*
X76619962Y-80005131D01*
X76598508Y-79989220D01*
X76578718Y-79971282D01*
X76560780Y-79951492D01*
X76544869Y-79930038D01*
X76531138Y-79907128D01*
X76519718Y-79882983D01*
X76510720Y-79857835D01*
X76504230Y-79831925D01*
X76500311Y-79805505D01*
X76499000Y-79778827D01*
X76499000Y-78821173D01*
X76500311Y-78794495D01*
X76504230Y-78768075D01*
X76510720Y-78742165D01*
X76519718Y-78717017D01*
X76531138Y-78692872D01*
X76544869Y-78669962D01*
X76560780Y-78648508D01*
X76578718Y-78628718D01*
X76598508Y-78610780D01*
X76619962Y-78594869D01*
X76642872Y-78581138D01*
X76667017Y-78569718D01*
X76692165Y-78560720D01*
X76718075Y-78554230D01*
X76744495Y-78550311D01*
X76771173Y-78549000D01*
X77478827Y-78549000D01*
X77505505Y-78550311D01*
X77505505Y-78550311D01*
G37*
D12*
X77125000Y-79300000D03*
D10*
G36*
X75455505Y-78550311D02*
G01*
X75481925Y-78554230D01*
X75507835Y-78560720D01*
X75532983Y-78569718D01*
X75557128Y-78581138D01*
X75580038Y-78594869D01*
X75601492Y-78610780D01*
X75621282Y-78628718D01*
X75639220Y-78648508D01*
X75655131Y-78669962D01*
X75668862Y-78692872D01*
X75680282Y-78717017D01*
X75689280Y-78742165D01*
X75695770Y-78768075D01*
X75699689Y-78794495D01*
X75701000Y-78821173D01*
X75701000Y-79778827D01*
X75699689Y-79805505D01*
X75695770Y-79831925D01*
X75689280Y-79857835D01*
X75680282Y-79882983D01*
X75668862Y-79907128D01*
X75655131Y-79930038D01*
X75639220Y-79951492D01*
X75621282Y-79971282D01*
X75601492Y-79989220D01*
X75580038Y-80005131D01*
X75557128Y-80018862D01*
X75532983Y-80030282D01*
X75507835Y-80039280D01*
X75481925Y-80045770D01*
X75455505Y-80049689D01*
X75428827Y-80051000D01*
X74721173Y-80051000D01*
X74694495Y-80049689D01*
X74668075Y-80045770D01*
X74642165Y-80039280D01*
X74617017Y-80030282D01*
X74592872Y-80018862D01*
X74569962Y-80005131D01*
X74548508Y-79989220D01*
X74528718Y-79971282D01*
X74510780Y-79951492D01*
X74494869Y-79930038D01*
X74481138Y-79907128D01*
X74469718Y-79882983D01*
X74460720Y-79857835D01*
X74454230Y-79831925D01*
X74450311Y-79805505D01*
X74449000Y-79778827D01*
X74449000Y-78821173D01*
X74450311Y-78794495D01*
X74454230Y-78768075D01*
X74460720Y-78742165D01*
X74469718Y-78717017D01*
X74481138Y-78692872D01*
X74494869Y-78669962D01*
X74510780Y-78648508D01*
X74528718Y-78628718D01*
X74548508Y-78610780D01*
X74569962Y-78594869D01*
X74592872Y-78581138D01*
X74617017Y-78569718D01*
X74642165Y-78560720D01*
X74668075Y-78554230D01*
X74694495Y-78550311D01*
X74721173Y-78549000D01*
X75428827Y-78549000D01*
X75455505Y-78550311D01*
X75455505Y-78550311D01*
G37*
D12*
X75075000Y-79300000D03*
D10*
G36*
X79330505Y-93250311D02*
G01*
X79356925Y-93254230D01*
X79382835Y-93260720D01*
X79407983Y-93269718D01*
X79432128Y-93281138D01*
X79455038Y-93294869D01*
X79476492Y-93310780D01*
X79496282Y-93328718D01*
X79514220Y-93348508D01*
X79530131Y-93369962D01*
X79543862Y-93392872D01*
X79555282Y-93417017D01*
X79564280Y-93442165D01*
X79570770Y-93468075D01*
X79574689Y-93494495D01*
X79576000Y-93521173D01*
X79576000Y-94478827D01*
X79574689Y-94505505D01*
X79570770Y-94531925D01*
X79564280Y-94557835D01*
X79555282Y-94582983D01*
X79543862Y-94607128D01*
X79530131Y-94630038D01*
X79514220Y-94651492D01*
X79496282Y-94671282D01*
X79476492Y-94689220D01*
X79455038Y-94705131D01*
X79432128Y-94718862D01*
X79407983Y-94730282D01*
X79382835Y-94739280D01*
X79356925Y-94745770D01*
X79330505Y-94749689D01*
X79303827Y-94751000D01*
X78596173Y-94751000D01*
X78569495Y-94749689D01*
X78543075Y-94745770D01*
X78517165Y-94739280D01*
X78492017Y-94730282D01*
X78467872Y-94718862D01*
X78444962Y-94705131D01*
X78423508Y-94689220D01*
X78403718Y-94671282D01*
X78385780Y-94651492D01*
X78369869Y-94630038D01*
X78356138Y-94607128D01*
X78344718Y-94582983D01*
X78335720Y-94557835D01*
X78329230Y-94531925D01*
X78325311Y-94505505D01*
X78324000Y-94478827D01*
X78324000Y-93521173D01*
X78325311Y-93494495D01*
X78329230Y-93468075D01*
X78335720Y-93442165D01*
X78344718Y-93417017D01*
X78356138Y-93392872D01*
X78369869Y-93369962D01*
X78385780Y-93348508D01*
X78403718Y-93328718D01*
X78423508Y-93310780D01*
X78444962Y-93294869D01*
X78467872Y-93281138D01*
X78492017Y-93269718D01*
X78517165Y-93260720D01*
X78543075Y-93254230D01*
X78569495Y-93250311D01*
X78596173Y-93249000D01*
X79303827Y-93249000D01*
X79330505Y-93250311D01*
X79330505Y-93250311D01*
G37*
D12*
X78950000Y-94000000D03*
D10*
G36*
X81380505Y-93250311D02*
G01*
X81406925Y-93254230D01*
X81432835Y-93260720D01*
X81457983Y-93269718D01*
X81482128Y-93281138D01*
X81505038Y-93294869D01*
X81526492Y-93310780D01*
X81546282Y-93328718D01*
X81564220Y-93348508D01*
X81580131Y-93369962D01*
X81593862Y-93392872D01*
X81605282Y-93417017D01*
X81614280Y-93442165D01*
X81620770Y-93468075D01*
X81624689Y-93494495D01*
X81626000Y-93521173D01*
X81626000Y-94478827D01*
X81624689Y-94505505D01*
X81620770Y-94531925D01*
X81614280Y-94557835D01*
X81605282Y-94582983D01*
X81593862Y-94607128D01*
X81580131Y-94630038D01*
X81564220Y-94651492D01*
X81546282Y-94671282D01*
X81526492Y-94689220D01*
X81505038Y-94705131D01*
X81482128Y-94718862D01*
X81457983Y-94730282D01*
X81432835Y-94739280D01*
X81406925Y-94745770D01*
X81380505Y-94749689D01*
X81353827Y-94751000D01*
X80646173Y-94751000D01*
X80619495Y-94749689D01*
X80593075Y-94745770D01*
X80567165Y-94739280D01*
X80542017Y-94730282D01*
X80517872Y-94718862D01*
X80494962Y-94705131D01*
X80473508Y-94689220D01*
X80453718Y-94671282D01*
X80435780Y-94651492D01*
X80419869Y-94630038D01*
X80406138Y-94607128D01*
X80394718Y-94582983D01*
X80385720Y-94557835D01*
X80379230Y-94531925D01*
X80375311Y-94505505D01*
X80374000Y-94478827D01*
X80374000Y-93521173D01*
X80375311Y-93494495D01*
X80379230Y-93468075D01*
X80385720Y-93442165D01*
X80394718Y-93417017D01*
X80406138Y-93392872D01*
X80419869Y-93369962D01*
X80435780Y-93348508D01*
X80453718Y-93328718D01*
X80473508Y-93310780D01*
X80494962Y-93294869D01*
X80517872Y-93281138D01*
X80542017Y-93269718D01*
X80567165Y-93260720D01*
X80593075Y-93254230D01*
X80619495Y-93250311D01*
X80646173Y-93249000D01*
X81353827Y-93249000D01*
X81380505Y-93250311D01*
X81380505Y-93250311D01*
G37*
D12*
X81000000Y-94000000D03*
D10*
G36*
X90505505Y-72400311D02*
G01*
X90531925Y-72404230D01*
X90557835Y-72410720D01*
X90582983Y-72419718D01*
X90607128Y-72431138D01*
X90630038Y-72444869D01*
X90651492Y-72460780D01*
X90671282Y-72478718D01*
X90689220Y-72498508D01*
X90705131Y-72519962D01*
X90718862Y-72542872D01*
X90730282Y-72567017D01*
X90739280Y-72592165D01*
X90745770Y-72618075D01*
X90749689Y-72644495D01*
X90751000Y-72671173D01*
X90751000Y-73378827D01*
X90749689Y-73405505D01*
X90745770Y-73431925D01*
X90739280Y-73457835D01*
X90730282Y-73482983D01*
X90718862Y-73507128D01*
X90705131Y-73530038D01*
X90689220Y-73551492D01*
X90671282Y-73571282D01*
X90651492Y-73589220D01*
X90630038Y-73605131D01*
X90607128Y-73618862D01*
X90582983Y-73630282D01*
X90557835Y-73639280D01*
X90531925Y-73645770D01*
X90505505Y-73649689D01*
X90478827Y-73651000D01*
X89521173Y-73651000D01*
X89494495Y-73649689D01*
X89468075Y-73645770D01*
X89442165Y-73639280D01*
X89417017Y-73630282D01*
X89392872Y-73618862D01*
X89369962Y-73605131D01*
X89348508Y-73589220D01*
X89328718Y-73571282D01*
X89310780Y-73551492D01*
X89294869Y-73530038D01*
X89281138Y-73507128D01*
X89269718Y-73482983D01*
X89260720Y-73457835D01*
X89254230Y-73431925D01*
X89250311Y-73405505D01*
X89249000Y-73378827D01*
X89249000Y-72671173D01*
X89250311Y-72644495D01*
X89254230Y-72618075D01*
X89260720Y-72592165D01*
X89269718Y-72567017D01*
X89281138Y-72542872D01*
X89294869Y-72519962D01*
X89310780Y-72498508D01*
X89328718Y-72478718D01*
X89348508Y-72460780D01*
X89369962Y-72444869D01*
X89392872Y-72431138D01*
X89417017Y-72419718D01*
X89442165Y-72410720D01*
X89468075Y-72404230D01*
X89494495Y-72400311D01*
X89521173Y-72399000D01*
X90478827Y-72399000D01*
X90505505Y-72400311D01*
X90505505Y-72400311D01*
G37*
D12*
X90000000Y-73025000D03*
D10*
G36*
X90505505Y-70350311D02*
G01*
X90531925Y-70354230D01*
X90557835Y-70360720D01*
X90582983Y-70369718D01*
X90607128Y-70381138D01*
X90630038Y-70394869D01*
X90651492Y-70410780D01*
X90671282Y-70428718D01*
X90689220Y-70448508D01*
X90705131Y-70469962D01*
X90718862Y-70492872D01*
X90730282Y-70517017D01*
X90739280Y-70542165D01*
X90745770Y-70568075D01*
X90749689Y-70594495D01*
X90751000Y-70621173D01*
X90751000Y-71328827D01*
X90749689Y-71355505D01*
X90745770Y-71381925D01*
X90739280Y-71407835D01*
X90730282Y-71432983D01*
X90718862Y-71457128D01*
X90705131Y-71480038D01*
X90689220Y-71501492D01*
X90671282Y-71521282D01*
X90651492Y-71539220D01*
X90630038Y-71555131D01*
X90607128Y-71568862D01*
X90582983Y-71580282D01*
X90557835Y-71589280D01*
X90531925Y-71595770D01*
X90505505Y-71599689D01*
X90478827Y-71601000D01*
X89521173Y-71601000D01*
X89494495Y-71599689D01*
X89468075Y-71595770D01*
X89442165Y-71589280D01*
X89417017Y-71580282D01*
X89392872Y-71568862D01*
X89369962Y-71555131D01*
X89348508Y-71539220D01*
X89328718Y-71521282D01*
X89310780Y-71501492D01*
X89294869Y-71480038D01*
X89281138Y-71457128D01*
X89269718Y-71432983D01*
X89260720Y-71407835D01*
X89254230Y-71381925D01*
X89250311Y-71355505D01*
X89249000Y-71328827D01*
X89249000Y-70621173D01*
X89250311Y-70594495D01*
X89254230Y-70568075D01*
X89260720Y-70542165D01*
X89269718Y-70517017D01*
X89281138Y-70492872D01*
X89294869Y-70469962D01*
X89310780Y-70448508D01*
X89328718Y-70428718D01*
X89348508Y-70410780D01*
X89369962Y-70394869D01*
X89392872Y-70381138D01*
X89417017Y-70369718D01*
X89442165Y-70360720D01*
X89468075Y-70354230D01*
X89494495Y-70350311D01*
X89521173Y-70349000D01*
X90478827Y-70349000D01*
X90505505Y-70350311D01*
X90505505Y-70350311D01*
G37*
D12*
X90000000Y-70975000D03*
D10*
G36*
X87816304Y-108200253D02*
G01*
X87841563Y-108204000D01*
X87866332Y-108210204D01*
X87890374Y-108218807D01*
X87913457Y-108229724D01*
X87935359Y-108242852D01*
X87955869Y-108258063D01*
X87974789Y-108275211D01*
X87991937Y-108294131D01*
X88007148Y-108314641D01*
X88020276Y-108336543D01*
X88031193Y-108359626D01*
X88039796Y-108383668D01*
X88046000Y-108408437D01*
X88049747Y-108433696D01*
X88051000Y-108459200D01*
X88051000Y-110540800D01*
X88049747Y-110566304D01*
X88046000Y-110591563D01*
X88039796Y-110616332D01*
X88031193Y-110640374D01*
X88020276Y-110663457D01*
X88007148Y-110685359D01*
X87991937Y-110705869D01*
X87974789Y-110724789D01*
X87955869Y-110741937D01*
X87935359Y-110757148D01*
X87913457Y-110770276D01*
X87890374Y-110781193D01*
X87866332Y-110789796D01*
X87841563Y-110796000D01*
X87816304Y-110799747D01*
X87790800Y-110801000D01*
X84709200Y-110801000D01*
X84683696Y-110799747D01*
X84658437Y-110796000D01*
X84633668Y-110789796D01*
X84609626Y-110781193D01*
X84586543Y-110770276D01*
X84564641Y-110757148D01*
X84544131Y-110741937D01*
X84525211Y-110724789D01*
X84508063Y-110705869D01*
X84492852Y-110685359D01*
X84479724Y-110663457D01*
X84468807Y-110640374D01*
X84460204Y-110616332D01*
X84454000Y-110591563D01*
X84450253Y-110566304D01*
X84449000Y-110540800D01*
X84449000Y-108459200D01*
X84450253Y-108433696D01*
X84454000Y-108408437D01*
X84460204Y-108383668D01*
X84468807Y-108359626D01*
X84479724Y-108336543D01*
X84492852Y-108314641D01*
X84508063Y-108294131D01*
X84525211Y-108275211D01*
X84544131Y-108258063D01*
X84564641Y-108242852D01*
X84586543Y-108229724D01*
X84609626Y-108218807D01*
X84633668Y-108210204D01*
X84658437Y-108204000D01*
X84683696Y-108200253D01*
X84709200Y-108199000D01*
X87790800Y-108199000D01*
X87816304Y-108200253D01*
X87816304Y-108200253D01*
G37*
D11*
X86250000Y-109500000D03*
D10*
G36*
X81316304Y-108200253D02*
G01*
X81341563Y-108204000D01*
X81366332Y-108210204D01*
X81390374Y-108218807D01*
X81413457Y-108229724D01*
X81435359Y-108242852D01*
X81455869Y-108258063D01*
X81474789Y-108275211D01*
X81491937Y-108294131D01*
X81507148Y-108314641D01*
X81520276Y-108336543D01*
X81531193Y-108359626D01*
X81539796Y-108383668D01*
X81546000Y-108408437D01*
X81549747Y-108433696D01*
X81551000Y-108459200D01*
X81551000Y-110540800D01*
X81549747Y-110566304D01*
X81546000Y-110591563D01*
X81539796Y-110616332D01*
X81531193Y-110640374D01*
X81520276Y-110663457D01*
X81507148Y-110685359D01*
X81491937Y-110705869D01*
X81474789Y-110724789D01*
X81455869Y-110741937D01*
X81435359Y-110757148D01*
X81413457Y-110770276D01*
X81390374Y-110781193D01*
X81366332Y-110789796D01*
X81341563Y-110796000D01*
X81316304Y-110799747D01*
X81290800Y-110801000D01*
X78209200Y-110801000D01*
X78183696Y-110799747D01*
X78158437Y-110796000D01*
X78133668Y-110789796D01*
X78109626Y-110781193D01*
X78086543Y-110770276D01*
X78064641Y-110757148D01*
X78044131Y-110741937D01*
X78025211Y-110724789D01*
X78008063Y-110705869D01*
X77992852Y-110685359D01*
X77979724Y-110663457D01*
X77968807Y-110640374D01*
X77960204Y-110616332D01*
X77954000Y-110591563D01*
X77950253Y-110566304D01*
X77949000Y-110540800D01*
X77949000Y-108459200D01*
X77950253Y-108433696D01*
X77954000Y-108408437D01*
X77960204Y-108383668D01*
X77968807Y-108359626D01*
X77979724Y-108336543D01*
X77992852Y-108314641D01*
X78008063Y-108294131D01*
X78025211Y-108275211D01*
X78044131Y-108258063D01*
X78064641Y-108242852D01*
X78086543Y-108229724D01*
X78109626Y-108218807D01*
X78133668Y-108210204D01*
X78158437Y-108204000D01*
X78183696Y-108200253D01*
X78209200Y-108199000D01*
X81290800Y-108199000D01*
X81316304Y-108200253D01*
X81316304Y-108200253D01*
G37*
D11*
X79750000Y-109500000D03*
D10*
G36*
X103005505Y-119400311D02*
G01*
X103031925Y-119404230D01*
X103057835Y-119410720D01*
X103082983Y-119419718D01*
X103107128Y-119431138D01*
X103130038Y-119444869D01*
X103151492Y-119460780D01*
X103171282Y-119478718D01*
X103189220Y-119498508D01*
X103205131Y-119519962D01*
X103218862Y-119542872D01*
X103230282Y-119567017D01*
X103239280Y-119592165D01*
X103245770Y-119618075D01*
X103249689Y-119644495D01*
X103251000Y-119671173D01*
X103251000Y-120378827D01*
X103249689Y-120405505D01*
X103245770Y-120431925D01*
X103239280Y-120457835D01*
X103230282Y-120482983D01*
X103218862Y-120507128D01*
X103205131Y-120530038D01*
X103189220Y-120551492D01*
X103171282Y-120571282D01*
X103151492Y-120589220D01*
X103130038Y-120605131D01*
X103107128Y-120618862D01*
X103082983Y-120630282D01*
X103057835Y-120639280D01*
X103031925Y-120645770D01*
X103005505Y-120649689D01*
X102978827Y-120651000D01*
X102021173Y-120651000D01*
X101994495Y-120649689D01*
X101968075Y-120645770D01*
X101942165Y-120639280D01*
X101917017Y-120630282D01*
X101892872Y-120618862D01*
X101869962Y-120605131D01*
X101848508Y-120589220D01*
X101828718Y-120571282D01*
X101810780Y-120551492D01*
X101794869Y-120530038D01*
X101781138Y-120507128D01*
X101769718Y-120482983D01*
X101760720Y-120457835D01*
X101754230Y-120431925D01*
X101750311Y-120405505D01*
X101749000Y-120378827D01*
X101749000Y-119671173D01*
X101750311Y-119644495D01*
X101754230Y-119618075D01*
X101760720Y-119592165D01*
X101769718Y-119567017D01*
X101781138Y-119542872D01*
X101794869Y-119519962D01*
X101810780Y-119498508D01*
X101828718Y-119478718D01*
X101848508Y-119460780D01*
X101869962Y-119444869D01*
X101892872Y-119431138D01*
X101917017Y-119419718D01*
X101942165Y-119410720D01*
X101968075Y-119404230D01*
X101994495Y-119400311D01*
X102021173Y-119399000D01*
X102978827Y-119399000D01*
X103005505Y-119400311D01*
X103005505Y-119400311D01*
G37*
D12*
X102500000Y-120025000D03*
D10*
G36*
X103005505Y-117350311D02*
G01*
X103031925Y-117354230D01*
X103057835Y-117360720D01*
X103082983Y-117369718D01*
X103107128Y-117381138D01*
X103130038Y-117394869D01*
X103151492Y-117410780D01*
X103171282Y-117428718D01*
X103189220Y-117448508D01*
X103205131Y-117469962D01*
X103218862Y-117492872D01*
X103230282Y-117517017D01*
X103239280Y-117542165D01*
X103245770Y-117568075D01*
X103249689Y-117594495D01*
X103251000Y-117621173D01*
X103251000Y-118328827D01*
X103249689Y-118355505D01*
X103245770Y-118381925D01*
X103239280Y-118407835D01*
X103230282Y-118432983D01*
X103218862Y-118457128D01*
X103205131Y-118480038D01*
X103189220Y-118501492D01*
X103171282Y-118521282D01*
X103151492Y-118539220D01*
X103130038Y-118555131D01*
X103107128Y-118568862D01*
X103082983Y-118580282D01*
X103057835Y-118589280D01*
X103031925Y-118595770D01*
X103005505Y-118599689D01*
X102978827Y-118601000D01*
X102021173Y-118601000D01*
X101994495Y-118599689D01*
X101968075Y-118595770D01*
X101942165Y-118589280D01*
X101917017Y-118580282D01*
X101892872Y-118568862D01*
X101869962Y-118555131D01*
X101848508Y-118539220D01*
X101828718Y-118521282D01*
X101810780Y-118501492D01*
X101794869Y-118480038D01*
X101781138Y-118457128D01*
X101769718Y-118432983D01*
X101760720Y-118407835D01*
X101754230Y-118381925D01*
X101750311Y-118355505D01*
X101749000Y-118328827D01*
X101749000Y-117621173D01*
X101750311Y-117594495D01*
X101754230Y-117568075D01*
X101760720Y-117542165D01*
X101769718Y-117517017D01*
X101781138Y-117492872D01*
X101794869Y-117469962D01*
X101810780Y-117448508D01*
X101828718Y-117428718D01*
X101848508Y-117410780D01*
X101869962Y-117394869D01*
X101892872Y-117381138D01*
X101917017Y-117369718D01*
X101942165Y-117360720D01*
X101968075Y-117354230D01*
X101994495Y-117350311D01*
X102021173Y-117349000D01*
X102978827Y-117349000D01*
X103005505Y-117350311D01*
X103005505Y-117350311D01*
G37*
D12*
X102500000Y-117975000D03*
D10*
G36*
X107005505Y-119400311D02*
G01*
X107031925Y-119404230D01*
X107057835Y-119410720D01*
X107082983Y-119419718D01*
X107107128Y-119431138D01*
X107130038Y-119444869D01*
X107151492Y-119460780D01*
X107171282Y-119478718D01*
X107189220Y-119498508D01*
X107205131Y-119519962D01*
X107218862Y-119542872D01*
X107230282Y-119567017D01*
X107239280Y-119592165D01*
X107245770Y-119618075D01*
X107249689Y-119644495D01*
X107251000Y-119671173D01*
X107251000Y-120378827D01*
X107249689Y-120405505D01*
X107245770Y-120431925D01*
X107239280Y-120457835D01*
X107230282Y-120482983D01*
X107218862Y-120507128D01*
X107205131Y-120530038D01*
X107189220Y-120551492D01*
X107171282Y-120571282D01*
X107151492Y-120589220D01*
X107130038Y-120605131D01*
X107107128Y-120618862D01*
X107082983Y-120630282D01*
X107057835Y-120639280D01*
X107031925Y-120645770D01*
X107005505Y-120649689D01*
X106978827Y-120651000D01*
X106021173Y-120651000D01*
X105994495Y-120649689D01*
X105968075Y-120645770D01*
X105942165Y-120639280D01*
X105917017Y-120630282D01*
X105892872Y-120618862D01*
X105869962Y-120605131D01*
X105848508Y-120589220D01*
X105828718Y-120571282D01*
X105810780Y-120551492D01*
X105794869Y-120530038D01*
X105781138Y-120507128D01*
X105769718Y-120482983D01*
X105760720Y-120457835D01*
X105754230Y-120431925D01*
X105750311Y-120405505D01*
X105749000Y-120378827D01*
X105749000Y-119671173D01*
X105750311Y-119644495D01*
X105754230Y-119618075D01*
X105760720Y-119592165D01*
X105769718Y-119567017D01*
X105781138Y-119542872D01*
X105794869Y-119519962D01*
X105810780Y-119498508D01*
X105828718Y-119478718D01*
X105848508Y-119460780D01*
X105869962Y-119444869D01*
X105892872Y-119431138D01*
X105917017Y-119419718D01*
X105942165Y-119410720D01*
X105968075Y-119404230D01*
X105994495Y-119400311D01*
X106021173Y-119399000D01*
X106978827Y-119399000D01*
X107005505Y-119400311D01*
X107005505Y-119400311D01*
G37*
D12*
X106500000Y-120025000D03*
D10*
G36*
X107005505Y-117350311D02*
G01*
X107031925Y-117354230D01*
X107057835Y-117360720D01*
X107082983Y-117369718D01*
X107107128Y-117381138D01*
X107130038Y-117394869D01*
X107151492Y-117410780D01*
X107171282Y-117428718D01*
X107189220Y-117448508D01*
X107205131Y-117469962D01*
X107218862Y-117492872D01*
X107230282Y-117517017D01*
X107239280Y-117542165D01*
X107245770Y-117568075D01*
X107249689Y-117594495D01*
X107251000Y-117621173D01*
X107251000Y-118328827D01*
X107249689Y-118355505D01*
X107245770Y-118381925D01*
X107239280Y-118407835D01*
X107230282Y-118432983D01*
X107218862Y-118457128D01*
X107205131Y-118480038D01*
X107189220Y-118501492D01*
X107171282Y-118521282D01*
X107151492Y-118539220D01*
X107130038Y-118555131D01*
X107107128Y-118568862D01*
X107082983Y-118580282D01*
X107057835Y-118589280D01*
X107031925Y-118595770D01*
X107005505Y-118599689D01*
X106978827Y-118601000D01*
X106021173Y-118601000D01*
X105994495Y-118599689D01*
X105968075Y-118595770D01*
X105942165Y-118589280D01*
X105917017Y-118580282D01*
X105892872Y-118568862D01*
X105869962Y-118555131D01*
X105848508Y-118539220D01*
X105828718Y-118521282D01*
X105810780Y-118501492D01*
X105794869Y-118480038D01*
X105781138Y-118457128D01*
X105769718Y-118432983D01*
X105760720Y-118407835D01*
X105754230Y-118381925D01*
X105750311Y-118355505D01*
X105749000Y-118328827D01*
X105749000Y-117621173D01*
X105750311Y-117594495D01*
X105754230Y-117568075D01*
X105760720Y-117542165D01*
X105769718Y-117517017D01*
X105781138Y-117492872D01*
X105794869Y-117469962D01*
X105810780Y-117448508D01*
X105828718Y-117428718D01*
X105848508Y-117410780D01*
X105869962Y-117394869D01*
X105892872Y-117381138D01*
X105917017Y-117369718D01*
X105942165Y-117360720D01*
X105968075Y-117354230D01*
X105994495Y-117350311D01*
X106021173Y-117349000D01*
X106978827Y-117349000D01*
X107005505Y-117350311D01*
X107005505Y-117350311D01*
G37*
D12*
X106500000Y-117975000D03*
D10*
G36*
X111005505Y-117350311D02*
G01*
X111031925Y-117354230D01*
X111057835Y-117360720D01*
X111082983Y-117369718D01*
X111107128Y-117381138D01*
X111130038Y-117394869D01*
X111151492Y-117410780D01*
X111171282Y-117428718D01*
X111189220Y-117448508D01*
X111205131Y-117469962D01*
X111218862Y-117492872D01*
X111230282Y-117517017D01*
X111239280Y-117542165D01*
X111245770Y-117568075D01*
X111249689Y-117594495D01*
X111251000Y-117621173D01*
X111251000Y-118328827D01*
X111249689Y-118355505D01*
X111245770Y-118381925D01*
X111239280Y-118407835D01*
X111230282Y-118432983D01*
X111218862Y-118457128D01*
X111205131Y-118480038D01*
X111189220Y-118501492D01*
X111171282Y-118521282D01*
X111151492Y-118539220D01*
X111130038Y-118555131D01*
X111107128Y-118568862D01*
X111082983Y-118580282D01*
X111057835Y-118589280D01*
X111031925Y-118595770D01*
X111005505Y-118599689D01*
X110978827Y-118601000D01*
X110021173Y-118601000D01*
X109994495Y-118599689D01*
X109968075Y-118595770D01*
X109942165Y-118589280D01*
X109917017Y-118580282D01*
X109892872Y-118568862D01*
X109869962Y-118555131D01*
X109848508Y-118539220D01*
X109828718Y-118521282D01*
X109810780Y-118501492D01*
X109794869Y-118480038D01*
X109781138Y-118457128D01*
X109769718Y-118432983D01*
X109760720Y-118407835D01*
X109754230Y-118381925D01*
X109750311Y-118355505D01*
X109749000Y-118328827D01*
X109749000Y-117621173D01*
X109750311Y-117594495D01*
X109754230Y-117568075D01*
X109760720Y-117542165D01*
X109769718Y-117517017D01*
X109781138Y-117492872D01*
X109794869Y-117469962D01*
X109810780Y-117448508D01*
X109828718Y-117428718D01*
X109848508Y-117410780D01*
X109869962Y-117394869D01*
X109892872Y-117381138D01*
X109917017Y-117369718D01*
X109942165Y-117360720D01*
X109968075Y-117354230D01*
X109994495Y-117350311D01*
X110021173Y-117349000D01*
X110978827Y-117349000D01*
X111005505Y-117350311D01*
X111005505Y-117350311D01*
G37*
D12*
X110500000Y-117975000D03*
D10*
G36*
X111005505Y-119400311D02*
G01*
X111031925Y-119404230D01*
X111057835Y-119410720D01*
X111082983Y-119419718D01*
X111107128Y-119431138D01*
X111130038Y-119444869D01*
X111151492Y-119460780D01*
X111171282Y-119478718D01*
X111189220Y-119498508D01*
X111205131Y-119519962D01*
X111218862Y-119542872D01*
X111230282Y-119567017D01*
X111239280Y-119592165D01*
X111245770Y-119618075D01*
X111249689Y-119644495D01*
X111251000Y-119671173D01*
X111251000Y-120378827D01*
X111249689Y-120405505D01*
X111245770Y-120431925D01*
X111239280Y-120457835D01*
X111230282Y-120482983D01*
X111218862Y-120507128D01*
X111205131Y-120530038D01*
X111189220Y-120551492D01*
X111171282Y-120571282D01*
X111151492Y-120589220D01*
X111130038Y-120605131D01*
X111107128Y-120618862D01*
X111082983Y-120630282D01*
X111057835Y-120639280D01*
X111031925Y-120645770D01*
X111005505Y-120649689D01*
X110978827Y-120651000D01*
X110021173Y-120651000D01*
X109994495Y-120649689D01*
X109968075Y-120645770D01*
X109942165Y-120639280D01*
X109917017Y-120630282D01*
X109892872Y-120618862D01*
X109869962Y-120605131D01*
X109848508Y-120589220D01*
X109828718Y-120571282D01*
X109810780Y-120551492D01*
X109794869Y-120530038D01*
X109781138Y-120507128D01*
X109769718Y-120482983D01*
X109760720Y-120457835D01*
X109754230Y-120431925D01*
X109750311Y-120405505D01*
X109749000Y-120378827D01*
X109749000Y-119671173D01*
X109750311Y-119644495D01*
X109754230Y-119618075D01*
X109760720Y-119592165D01*
X109769718Y-119567017D01*
X109781138Y-119542872D01*
X109794869Y-119519962D01*
X109810780Y-119498508D01*
X109828718Y-119478718D01*
X109848508Y-119460780D01*
X109869962Y-119444869D01*
X109892872Y-119431138D01*
X109917017Y-119419718D01*
X109942165Y-119410720D01*
X109968075Y-119404230D01*
X109994495Y-119400311D01*
X110021173Y-119399000D01*
X110978827Y-119399000D01*
X111005505Y-119400311D01*
X111005505Y-119400311D01*
G37*
D12*
X110500000Y-120025000D03*
D10*
G36*
X115005505Y-117350311D02*
G01*
X115031925Y-117354230D01*
X115057835Y-117360720D01*
X115082983Y-117369718D01*
X115107128Y-117381138D01*
X115130038Y-117394869D01*
X115151492Y-117410780D01*
X115171282Y-117428718D01*
X115189220Y-117448508D01*
X115205131Y-117469962D01*
X115218862Y-117492872D01*
X115230282Y-117517017D01*
X115239280Y-117542165D01*
X115245770Y-117568075D01*
X115249689Y-117594495D01*
X115251000Y-117621173D01*
X115251000Y-118328827D01*
X115249689Y-118355505D01*
X115245770Y-118381925D01*
X115239280Y-118407835D01*
X115230282Y-118432983D01*
X115218862Y-118457128D01*
X115205131Y-118480038D01*
X115189220Y-118501492D01*
X115171282Y-118521282D01*
X115151492Y-118539220D01*
X115130038Y-118555131D01*
X115107128Y-118568862D01*
X115082983Y-118580282D01*
X115057835Y-118589280D01*
X115031925Y-118595770D01*
X115005505Y-118599689D01*
X114978827Y-118601000D01*
X114021173Y-118601000D01*
X113994495Y-118599689D01*
X113968075Y-118595770D01*
X113942165Y-118589280D01*
X113917017Y-118580282D01*
X113892872Y-118568862D01*
X113869962Y-118555131D01*
X113848508Y-118539220D01*
X113828718Y-118521282D01*
X113810780Y-118501492D01*
X113794869Y-118480038D01*
X113781138Y-118457128D01*
X113769718Y-118432983D01*
X113760720Y-118407835D01*
X113754230Y-118381925D01*
X113750311Y-118355505D01*
X113749000Y-118328827D01*
X113749000Y-117621173D01*
X113750311Y-117594495D01*
X113754230Y-117568075D01*
X113760720Y-117542165D01*
X113769718Y-117517017D01*
X113781138Y-117492872D01*
X113794869Y-117469962D01*
X113810780Y-117448508D01*
X113828718Y-117428718D01*
X113848508Y-117410780D01*
X113869962Y-117394869D01*
X113892872Y-117381138D01*
X113917017Y-117369718D01*
X113942165Y-117360720D01*
X113968075Y-117354230D01*
X113994495Y-117350311D01*
X114021173Y-117349000D01*
X114978827Y-117349000D01*
X115005505Y-117350311D01*
X115005505Y-117350311D01*
G37*
D12*
X114500000Y-117975000D03*
D10*
G36*
X115005505Y-119400311D02*
G01*
X115031925Y-119404230D01*
X115057835Y-119410720D01*
X115082983Y-119419718D01*
X115107128Y-119431138D01*
X115130038Y-119444869D01*
X115151492Y-119460780D01*
X115171282Y-119478718D01*
X115189220Y-119498508D01*
X115205131Y-119519962D01*
X115218862Y-119542872D01*
X115230282Y-119567017D01*
X115239280Y-119592165D01*
X115245770Y-119618075D01*
X115249689Y-119644495D01*
X115251000Y-119671173D01*
X115251000Y-120378827D01*
X115249689Y-120405505D01*
X115245770Y-120431925D01*
X115239280Y-120457835D01*
X115230282Y-120482983D01*
X115218862Y-120507128D01*
X115205131Y-120530038D01*
X115189220Y-120551492D01*
X115171282Y-120571282D01*
X115151492Y-120589220D01*
X115130038Y-120605131D01*
X115107128Y-120618862D01*
X115082983Y-120630282D01*
X115057835Y-120639280D01*
X115031925Y-120645770D01*
X115005505Y-120649689D01*
X114978827Y-120651000D01*
X114021173Y-120651000D01*
X113994495Y-120649689D01*
X113968075Y-120645770D01*
X113942165Y-120639280D01*
X113917017Y-120630282D01*
X113892872Y-120618862D01*
X113869962Y-120605131D01*
X113848508Y-120589220D01*
X113828718Y-120571282D01*
X113810780Y-120551492D01*
X113794869Y-120530038D01*
X113781138Y-120507128D01*
X113769718Y-120482983D01*
X113760720Y-120457835D01*
X113754230Y-120431925D01*
X113750311Y-120405505D01*
X113749000Y-120378827D01*
X113749000Y-119671173D01*
X113750311Y-119644495D01*
X113754230Y-119618075D01*
X113760720Y-119592165D01*
X113769718Y-119567017D01*
X113781138Y-119542872D01*
X113794869Y-119519962D01*
X113810780Y-119498508D01*
X113828718Y-119478718D01*
X113848508Y-119460780D01*
X113869962Y-119444869D01*
X113892872Y-119431138D01*
X113917017Y-119419718D01*
X113942165Y-119410720D01*
X113968075Y-119404230D01*
X113994495Y-119400311D01*
X114021173Y-119399000D01*
X114978827Y-119399000D01*
X115005505Y-119400311D01*
X115005505Y-119400311D01*
G37*
D12*
X114500000Y-120025000D03*
D10*
G36*
X119005505Y-117350311D02*
G01*
X119031925Y-117354230D01*
X119057835Y-117360720D01*
X119082983Y-117369718D01*
X119107128Y-117381138D01*
X119130038Y-117394869D01*
X119151492Y-117410780D01*
X119171282Y-117428718D01*
X119189220Y-117448508D01*
X119205131Y-117469962D01*
X119218862Y-117492872D01*
X119230282Y-117517017D01*
X119239280Y-117542165D01*
X119245770Y-117568075D01*
X119249689Y-117594495D01*
X119251000Y-117621173D01*
X119251000Y-118328827D01*
X119249689Y-118355505D01*
X119245770Y-118381925D01*
X119239280Y-118407835D01*
X119230282Y-118432983D01*
X119218862Y-118457128D01*
X119205131Y-118480038D01*
X119189220Y-118501492D01*
X119171282Y-118521282D01*
X119151492Y-118539220D01*
X119130038Y-118555131D01*
X119107128Y-118568862D01*
X119082983Y-118580282D01*
X119057835Y-118589280D01*
X119031925Y-118595770D01*
X119005505Y-118599689D01*
X118978827Y-118601000D01*
X118021173Y-118601000D01*
X117994495Y-118599689D01*
X117968075Y-118595770D01*
X117942165Y-118589280D01*
X117917017Y-118580282D01*
X117892872Y-118568862D01*
X117869962Y-118555131D01*
X117848508Y-118539220D01*
X117828718Y-118521282D01*
X117810780Y-118501492D01*
X117794869Y-118480038D01*
X117781138Y-118457128D01*
X117769718Y-118432983D01*
X117760720Y-118407835D01*
X117754230Y-118381925D01*
X117750311Y-118355505D01*
X117749000Y-118328827D01*
X117749000Y-117621173D01*
X117750311Y-117594495D01*
X117754230Y-117568075D01*
X117760720Y-117542165D01*
X117769718Y-117517017D01*
X117781138Y-117492872D01*
X117794869Y-117469962D01*
X117810780Y-117448508D01*
X117828718Y-117428718D01*
X117848508Y-117410780D01*
X117869962Y-117394869D01*
X117892872Y-117381138D01*
X117917017Y-117369718D01*
X117942165Y-117360720D01*
X117968075Y-117354230D01*
X117994495Y-117350311D01*
X118021173Y-117349000D01*
X118978827Y-117349000D01*
X119005505Y-117350311D01*
X119005505Y-117350311D01*
G37*
D12*
X118500000Y-117975000D03*
D10*
G36*
X119005505Y-119400311D02*
G01*
X119031925Y-119404230D01*
X119057835Y-119410720D01*
X119082983Y-119419718D01*
X119107128Y-119431138D01*
X119130038Y-119444869D01*
X119151492Y-119460780D01*
X119171282Y-119478718D01*
X119189220Y-119498508D01*
X119205131Y-119519962D01*
X119218862Y-119542872D01*
X119230282Y-119567017D01*
X119239280Y-119592165D01*
X119245770Y-119618075D01*
X119249689Y-119644495D01*
X119251000Y-119671173D01*
X119251000Y-120378827D01*
X119249689Y-120405505D01*
X119245770Y-120431925D01*
X119239280Y-120457835D01*
X119230282Y-120482983D01*
X119218862Y-120507128D01*
X119205131Y-120530038D01*
X119189220Y-120551492D01*
X119171282Y-120571282D01*
X119151492Y-120589220D01*
X119130038Y-120605131D01*
X119107128Y-120618862D01*
X119082983Y-120630282D01*
X119057835Y-120639280D01*
X119031925Y-120645770D01*
X119005505Y-120649689D01*
X118978827Y-120651000D01*
X118021173Y-120651000D01*
X117994495Y-120649689D01*
X117968075Y-120645770D01*
X117942165Y-120639280D01*
X117917017Y-120630282D01*
X117892872Y-120618862D01*
X117869962Y-120605131D01*
X117848508Y-120589220D01*
X117828718Y-120571282D01*
X117810780Y-120551492D01*
X117794869Y-120530038D01*
X117781138Y-120507128D01*
X117769718Y-120482983D01*
X117760720Y-120457835D01*
X117754230Y-120431925D01*
X117750311Y-120405505D01*
X117749000Y-120378827D01*
X117749000Y-119671173D01*
X117750311Y-119644495D01*
X117754230Y-119618075D01*
X117760720Y-119592165D01*
X117769718Y-119567017D01*
X117781138Y-119542872D01*
X117794869Y-119519962D01*
X117810780Y-119498508D01*
X117828718Y-119478718D01*
X117848508Y-119460780D01*
X117869962Y-119444869D01*
X117892872Y-119431138D01*
X117917017Y-119419718D01*
X117942165Y-119410720D01*
X117968075Y-119404230D01*
X117994495Y-119400311D01*
X118021173Y-119399000D01*
X118978827Y-119399000D01*
X119005505Y-119400311D01*
X119005505Y-119400311D01*
G37*
D12*
X118500000Y-120025000D03*
D10*
G36*
X121855505Y-103250311D02*
G01*
X121881925Y-103254230D01*
X121907835Y-103260720D01*
X121932983Y-103269718D01*
X121957128Y-103281138D01*
X121980038Y-103294869D01*
X122001492Y-103310780D01*
X122021282Y-103328718D01*
X122039220Y-103348508D01*
X122055131Y-103369962D01*
X122068862Y-103392872D01*
X122080282Y-103417017D01*
X122089280Y-103442165D01*
X122095770Y-103468075D01*
X122099689Y-103494495D01*
X122101000Y-103521173D01*
X122101000Y-104478827D01*
X122099689Y-104505505D01*
X122095770Y-104531925D01*
X122089280Y-104557835D01*
X122080282Y-104582983D01*
X122068862Y-104607128D01*
X122055131Y-104630038D01*
X122039220Y-104651492D01*
X122021282Y-104671282D01*
X122001492Y-104689220D01*
X121980038Y-104705131D01*
X121957128Y-104718862D01*
X121932983Y-104730282D01*
X121907835Y-104739280D01*
X121881925Y-104745770D01*
X121855505Y-104749689D01*
X121828827Y-104751000D01*
X121121173Y-104751000D01*
X121094495Y-104749689D01*
X121068075Y-104745770D01*
X121042165Y-104739280D01*
X121017017Y-104730282D01*
X120992872Y-104718862D01*
X120969962Y-104705131D01*
X120948508Y-104689220D01*
X120928718Y-104671282D01*
X120910780Y-104651492D01*
X120894869Y-104630038D01*
X120881138Y-104607128D01*
X120869718Y-104582983D01*
X120860720Y-104557835D01*
X120854230Y-104531925D01*
X120850311Y-104505505D01*
X120849000Y-104478827D01*
X120849000Y-103521173D01*
X120850311Y-103494495D01*
X120854230Y-103468075D01*
X120860720Y-103442165D01*
X120869718Y-103417017D01*
X120881138Y-103392872D01*
X120894869Y-103369962D01*
X120910780Y-103348508D01*
X120928718Y-103328718D01*
X120948508Y-103310780D01*
X120969962Y-103294869D01*
X120992872Y-103281138D01*
X121017017Y-103269718D01*
X121042165Y-103260720D01*
X121068075Y-103254230D01*
X121094495Y-103250311D01*
X121121173Y-103249000D01*
X121828827Y-103249000D01*
X121855505Y-103250311D01*
X121855505Y-103250311D01*
G37*
D12*
X121475000Y-104000000D03*
D10*
G36*
X123905505Y-103250311D02*
G01*
X123931925Y-103254230D01*
X123957835Y-103260720D01*
X123982983Y-103269718D01*
X124007128Y-103281138D01*
X124030038Y-103294869D01*
X124051492Y-103310780D01*
X124071282Y-103328718D01*
X124089220Y-103348508D01*
X124105131Y-103369962D01*
X124118862Y-103392872D01*
X124130282Y-103417017D01*
X124139280Y-103442165D01*
X124145770Y-103468075D01*
X124149689Y-103494495D01*
X124151000Y-103521173D01*
X124151000Y-104478827D01*
X124149689Y-104505505D01*
X124145770Y-104531925D01*
X124139280Y-104557835D01*
X124130282Y-104582983D01*
X124118862Y-104607128D01*
X124105131Y-104630038D01*
X124089220Y-104651492D01*
X124071282Y-104671282D01*
X124051492Y-104689220D01*
X124030038Y-104705131D01*
X124007128Y-104718862D01*
X123982983Y-104730282D01*
X123957835Y-104739280D01*
X123931925Y-104745770D01*
X123905505Y-104749689D01*
X123878827Y-104751000D01*
X123171173Y-104751000D01*
X123144495Y-104749689D01*
X123118075Y-104745770D01*
X123092165Y-104739280D01*
X123067017Y-104730282D01*
X123042872Y-104718862D01*
X123019962Y-104705131D01*
X122998508Y-104689220D01*
X122978718Y-104671282D01*
X122960780Y-104651492D01*
X122944869Y-104630038D01*
X122931138Y-104607128D01*
X122919718Y-104582983D01*
X122910720Y-104557835D01*
X122904230Y-104531925D01*
X122900311Y-104505505D01*
X122899000Y-104478827D01*
X122899000Y-103521173D01*
X122900311Y-103494495D01*
X122904230Y-103468075D01*
X122910720Y-103442165D01*
X122919718Y-103417017D01*
X122931138Y-103392872D01*
X122944869Y-103369962D01*
X122960780Y-103348508D01*
X122978718Y-103328718D01*
X122998508Y-103310780D01*
X123019962Y-103294869D01*
X123042872Y-103281138D01*
X123067017Y-103269718D01*
X123092165Y-103260720D01*
X123118075Y-103254230D01*
X123144495Y-103250311D01*
X123171173Y-103249000D01*
X123878827Y-103249000D01*
X123905505Y-103250311D01*
X123905505Y-103250311D01*
G37*
D12*
X123525000Y-104000000D03*
D10*
G36*
X134405505Y-90750311D02*
G01*
X134431925Y-90754230D01*
X134457835Y-90760720D01*
X134482983Y-90769718D01*
X134507128Y-90781138D01*
X134530038Y-90794869D01*
X134551492Y-90810780D01*
X134571282Y-90828718D01*
X134589220Y-90848508D01*
X134605131Y-90869962D01*
X134618862Y-90892872D01*
X134630282Y-90917017D01*
X134639280Y-90942165D01*
X134645770Y-90968075D01*
X134649689Y-90994495D01*
X134651000Y-91021173D01*
X134651000Y-91978827D01*
X134649689Y-92005505D01*
X134645770Y-92031925D01*
X134639280Y-92057835D01*
X134630282Y-92082983D01*
X134618862Y-92107128D01*
X134605131Y-92130038D01*
X134589220Y-92151492D01*
X134571282Y-92171282D01*
X134551492Y-92189220D01*
X134530038Y-92205131D01*
X134507128Y-92218862D01*
X134482983Y-92230282D01*
X134457835Y-92239280D01*
X134431925Y-92245770D01*
X134405505Y-92249689D01*
X134378827Y-92251000D01*
X133671173Y-92251000D01*
X133644495Y-92249689D01*
X133618075Y-92245770D01*
X133592165Y-92239280D01*
X133567017Y-92230282D01*
X133542872Y-92218862D01*
X133519962Y-92205131D01*
X133498508Y-92189220D01*
X133478718Y-92171282D01*
X133460780Y-92151492D01*
X133444869Y-92130038D01*
X133431138Y-92107128D01*
X133419718Y-92082983D01*
X133410720Y-92057835D01*
X133404230Y-92031925D01*
X133400311Y-92005505D01*
X133399000Y-91978827D01*
X133399000Y-91021173D01*
X133400311Y-90994495D01*
X133404230Y-90968075D01*
X133410720Y-90942165D01*
X133419718Y-90917017D01*
X133431138Y-90892872D01*
X133444869Y-90869962D01*
X133460780Y-90848508D01*
X133478718Y-90828718D01*
X133498508Y-90810780D01*
X133519962Y-90794869D01*
X133542872Y-90781138D01*
X133567017Y-90769718D01*
X133592165Y-90760720D01*
X133618075Y-90754230D01*
X133644495Y-90750311D01*
X133671173Y-90749000D01*
X134378827Y-90749000D01*
X134405505Y-90750311D01*
X134405505Y-90750311D01*
G37*
D12*
X134025000Y-91500000D03*
D10*
G36*
X132355505Y-90750311D02*
G01*
X132381925Y-90754230D01*
X132407835Y-90760720D01*
X132432983Y-90769718D01*
X132457128Y-90781138D01*
X132480038Y-90794869D01*
X132501492Y-90810780D01*
X132521282Y-90828718D01*
X132539220Y-90848508D01*
X132555131Y-90869962D01*
X132568862Y-90892872D01*
X132580282Y-90917017D01*
X132589280Y-90942165D01*
X132595770Y-90968075D01*
X132599689Y-90994495D01*
X132601000Y-91021173D01*
X132601000Y-91978827D01*
X132599689Y-92005505D01*
X132595770Y-92031925D01*
X132589280Y-92057835D01*
X132580282Y-92082983D01*
X132568862Y-92107128D01*
X132555131Y-92130038D01*
X132539220Y-92151492D01*
X132521282Y-92171282D01*
X132501492Y-92189220D01*
X132480038Y-92205131D01*
X132457128Y-92218862D01*
X132432983Y-92230282D01*
X132407835Y-92239280D01*
X132381925Y-92245770D01*
X132355505Y-92249689D01*
X132328827Y-92251000D01*
X131621173Y-92251000D01*
X131594495Y-92249689D01*
X131568075Y-92245770D01*
X131542165Y-92239280D01*
X131517017Y-92230282D01*
X131492872Y-92218862D01*
X131469962Y-92205131D01*
X131448508Y-92189220D01*
X131428718Y-92171282D01*
X131410780Y-92151492D01*
X131394869Y-92130038D01*
X131381138Y-92107128D01*
X131369718Y-92082983D01*
X131360720Y-92057835D01*
X131354230Y-92031925D01*
X131350311Y-92005505D01*
X131349000Y-91978827D01*
X131349000Y-91021173D01*
X131350311Y-90994495D01*
X131354230Y-90968075D01*
X131360720Y-90942165D01*
X131369718Y-90917017D01*
X131381138Y-90892872D01*
X131394869Y-90869962D01*
X131410780Y-90848508D01*
X131428718Y-90828718D01*
X131448508Y-90810780D01*
X131469962Y-90794869D01*
X131492872Y-90781138D01*
X131517017Y-90769718D01*
X131542165Y-90760720D01*
X131568075Y-90754230D01*
X131594495Y-90750311D01*
X131621173Y-90749000D01*
X132328827Y-90749000D01*
X132355505Y-90750311D01*
X132355505Y-90750311D01*
G37*
D12*
X131975000Y-91500000D03*
D10*
G36*
X120355505Y-90750311D02*
G01*
X120381925Y-90754230D01*
X120407835Y-90760720D01*
X120432983Y-90769718D01*
X120457128Y-90781138D01*
X120480038Y-90794869D01*
X120501492Y-90810780D01*
X120521282Y-90828718D01*
X120539220Y-90848508D01*
X120555131Y-90869962D01*
X120568862Y-90892872D01*
X120580282Y-90917017D01*
X120589280Y-90942165D01*
X120595770Y-90968075D01*
X120599689Y-90994495D01*
X120601000Y-91021173D01*
X120601000Y-91978827D01*
X120599689Y-92005505D01*
X120595770Y-92031925D01*
X120589280Y-92057835D01*
X120580282Y-92082983D01*
X120568862Y-92107128D01*
X120555131Y-92130038D01*
X120539220Y-92151492D01*
X120521282Y-92171282D01*
X120501492Y-92189220D01*
X120480038Y-92205131D01*
X120457128Y-92218862D01*
X120432983Y-92230282D01*
X120407835Y-92239280D01*
X120381925Y-92245770D01*
X120355505Y-92249689D01*
X120328827Y-92251000D01*
X119621173Y-92251000D01*
X119594495Y-92249689D01*
X119568075Y-92245770D01*
X119542165Y-92239280D01*
X119517017Y-92230282D01*
X119492872Y-92218862D01*
X119469962Y-92205131D01*
X119448508Y-92189220D01*
X119428718Y-92171282D01*
X119410780Y-92151492D01*
X119394869Y-92130038D01*
X119381138Y-92107128D01*
X119369718Y-92082983D01*
X119360720Y-92057835D01*
X119354230Y-92031925D01*
X119350311Y-92005505D01*
X119349000Y-91978827D01*
X119349000Y-91021173D01*
X119350311Y-90994495D01*
X119354230Y-90968075D01*
X119360720Y-90942165D01*
X119369718Y-90917017D01*
X119381138Y-90892872D01*
X119394869Y-90869962D01*
X119410780Y-90848508D01*
X119428718Y-90828718D01*
X119448508Y-90810780D01*
X119469962Y-90794869D01*
X119492872Y-90781138D01*
X119517017Y-90769718D01*
X119542165Y-90760720D01*
X119568075Y-90754230D01*
X119594495Y-90750311D01*
X119621173Y-90749000D01*
X120328827Y-90749000D01*
X120355505Y-90750311D01*
X120355505Y-90750311D01*
G37*
D12*
X119975000Y-91500000D03*
D10*
G36*
X122405505Y-90750311D02*
G01*
X122431925Y-90754230D01*
X122457835Y-90760720D01*
X122482983Y-90769718D01*
X122507128Y-90781138D01*
X122530038Y-90794869D01*
X122551492Y-90810780D01*
X122571282Y-90828718D01*
X122589220Y-90848508D01*
X122605131Y-90869962D01*
X122618862Y-90892872D01*
X122630282Y-90917017D01*
X122639280Y-90942165D01*
X122645770Y-90968075D01*
X122649689Y-90994495D01*
X122651000Y-91021173D01*
X122651000Y-91978827D01*
X122649689Y-92005505D01*
X122645770Y-92031925D01*
X122639280Y-92057835D01*
X122630282Y-92082983D01*
X122618862Y-92107128D01*
X122605131Y-92130038D01*
X122589220Y-92151492D01*
X122571282Y-92171282D01*
X122551492Y-92189220D01*
X122530038Y-92205131D01*
X122507128Y-92218862D01*
X122482983Y-92230282D01*
X122457835Y-92239280D01*
X122431925Y-92245770D01*
X122405505Y-92249689D01*
X122378827Y-92251000D01*
X121671173Y-92251000D01*
X121644495Y-92249689D01*
X121618075Y-92245770D01*
X121592165Y-92239280D01*
X121567017Y-92230282D01*
X121542872Y-92218862D01*
X121519962Y-92205131D01*
X121498508Y-92189220D01*
X121478718Y-92171282D01*
X121460780Y-92151492D01*
X121444869Y-92130038D01*
X121431138Y-92107128D01*
X121419718Y-92082983D01*
X121410720Y-92057835D01*
X121404230Y-92031925D01*
X121400311Y-92005505D01*
X121399000Y-91978827D01*
X121399000Y-91021173D01*
X121400311Y-90994495D01*
X121404230Y-90968075D01*
X121410720Y-90942165D01*
X121419718Y-90917017D01*
X121431138Y-90892872D01*
X121444869Y-90869962D01*
X121460780Y-90848508D01*
X121478718Y-90828718D01*
X121498508Y-90810780D01*
X121519962Y-90794869D01*
X121542872Y-90781138D01*
X121567017Y-90769718D01*
X121592165Y-90760720D01*
X121618075Y-90754230D01*
X121644495Y-90750311D01*
X121671173Y-90749000D01*
X122378827Y-90749000D01*
X122405505Y-90750311D01*
X122405505Y-90750311D01*
G37*
D12*
X122025000Y-91500000D03*
D10*
G36*
X126355505Y-90750311D02*
G01*
X126381925Y-90754230D01*
X126407835Y-90760720D01*
X126432983Y-90769718D01*
X126457128Y-90781138D01*
X126480038Y-90794869D01*
X126501492Y-90810780D01*
X126521282Y-90828718D01*
X126539220Y-90848508D01*
X126555131Y-90869962D01*
X126568862Y-90892872D01*
X126580282Y-90917017D01*
X126589280Y-90942165D01*
X126595770Y-90968075D01*
X126599689Y-90994495D01*
X126601000Y-91021173D01*
X126601000Y-91978827D01*
X126599689Y-92005505D01*
X126595770Y-92031925D01*
X126589280Y-92057835D01*
X126580282Y-92082983D01*
X126568862Y-92107128D01*
X126555131Y-92130038D01*
X126539220Y-92151492D01*
X126521282Y-92171282D01*
X126501492Y-92189220D01*
X126480038Y-92205131D01*
X126457128Y-92218862D01*
X126432983Y-92230282D01*
X126407835Y-92239280D01*
X126381925Y-92245770D01*
X126355505Y-92249689D01*
X126328827Y-92251000D01*
X125621173Y-92251000D01*
X125594495Y-92249689D01*
X125568075Y-92245770D01*
X125542165Y-92239280D01*
X125517017Y-92230282D01*
X125492872Y-92218862D01*
X125469962Y-92205131D01*
X125448508Y-92189220D01*
X125428718Y-92171282D01*
X125410780Y-92151492D01*
X125394869Y-92130038D01*
X125381138Y-92107128D01*
X125369718Y-92082983D01*
X125360720Y-92057835D01*
X125354230Y-92031925D01*
X125350311Y-92005505D01*
X125349000Y-91978827D01*
X125349000Y-91021173D01*
X125350311Y-90994495D01*
X125354230Y-90968075D01*
X125360720Y-90942165D01*
X125369718Y-90917017D01*
X125381138Y-90892872D01*
X125394869Y-90869962D01*
X125410780Y-90848508D01*
X125428718Y-90828718D01*
X125448508Y-90810780D01*
X125469962Y-90794869D01*
X125492872Y-90781138D01*
X125517017Y-90769718D01*
X125542165Y-90760720D01*
X125568075Y-90754230D01*
X125594495Y-90750311D01*
X125621173Y-90749000D01*
X126328827Y-90749000D01*
X126355505Y-90750311D01*
X126355505Y-90750311D01*
G37*
D12*
X125975000Y-91500000D03*
D10*
G36*
X128405505Y-90750311D02*
G01*
X128431925Y-90754230D01*
X128457835Y-90760720D01*
X128482983Y-90769718D01*
X128507128Y-90781138D01*
X128530038Y-90794869D01*
X128551492Y-90810780D01*
X128571282Y-90828718D01*
X128589220Y-90848508D01*
X128605131Y-90869962D01*
X128618862Y-90892872D01*
X128630282Y-90917017D01*
X128639280Y-90942165D01*
X128645770Y-90968075D01*
X128649689Y-90994495D01*
X128651000Y-91021173D01*
X128651000Y-91978827D01*
X128649689Y-92005505D01*
X128645770Y-92031925D01*
X128639280Y-92057835D01*
X128630282Y-92082983D01*
X128618862Y-92107128D01*
X128605131Y-92130038D01*
X128589220Y-92151492D01*
X128571282Y-92171282D01*
X128551492Y-92189220D01*
X128530038Y-92205131D01*
X128507128Y-92218862D01*
X128482983Y-92230282D01*
X128457835Y-92239280D01*
X128431925Y-92245770D01*
X128405505Y-92249689D01*
X128378827Y-92251000D01*
X127671173Y-92251000D01*
X127644495Y-92249689D01*
X127618075Y-92245770D01*
X127592165Y-92239280D01*
X127567017Y-92230282D01*
X127542872Y-92218862D01*
X127519962Y-92205131D01*
X127498508Y-92189220D01*
X127478718Y-92171282D01*
X127460780Y-92151492D01*
X127444869Y-92130038D01*
X127431138Y-92107128D01*
X127419718Y-92082983D01*
X127410720Y-92057835D01*
X127404230Y-92031925D01*
X127400311Y-92005505D01*
X127399000Y-91978827D01*
X127399000Y-91021173D01*
X127400311Y-90994495D01*
X127404230Y-90968075D01*
X127410720Y-90942165D01*
X127419718Y-90917017D01*
X127431138Y-90892872D01*
X127444869Y-90869962D01*
X127460780Y-90848508D01*
X127478718Y-90828718D01*
X127498508Y-90810780D01*
X127519962Y-90794869D01*
X127542872Y-90781138D01*
X127567017Y-90769718D01*
X127592165Y-90760720D01*
X127618075Y-90754230D01*
X127644495Y-90750311D01*
X127671173Y-90749000D01*
X128378827Y-90749000D01*
X128405505Y-90750311D01*
X128405505Y-90750311D01*
G37*
D12*
X128025000Y-91500000D03*
D10*
G36*
X120355505Y-86750311D02*
G01*
X120381925Y-86754230D01*
X120407835Y-86760720D01*
X120432983Y-86769718D01*
X120457128Y-86781138D01*
X120480038Y-86794869D01*
X120501492Y-86810780D01*
X120521282Y-86828718D01*
X120539220Y-86848508D01*
X120555131Y-86869962D01*
X120568862Y-86892872D01*
X120580282Y-86917017D01*
X120589280Y-86942165D01*
X120595770Y-86968075D01*
X120599689Y-86994495D01*
X120601000Y-87021173D01*
X120601000Y-87978827D01*
X120599689Y-88005505D01*
X120595770Y-88031925D01*
X120589280Y-88057835D01*
X120580282Y-88082983D01*
X120568862Y-88107128D01*
X120555131Y-88130038D01*
X120539220Y-88151492D01*
X120521282Y-88171282D01*
X120501492Y-88189220D01*
X120480038Y-88205131D01*
X120457128Y-88218862D01*
X120432983Y-88230282D01*
X120407835Y-88239280D01*
X120381925Y-88245770D01*
X120355505Y-88249689D01*
X120328827Y-88251000D01*
X119621173Y-88251000D01*
X119594495Y-88249689D01*
X119568075Y-88245770D01*
X119542165Y-88239280D01*
X119517017Y-88230282D01*
X119492872Y-88218862D01*
X119469962Y-88205131D01*
X119448508Y-88189220D01*
X119428718Y-88171282D01*
X119410780Y-88151492D01*
X119394869Y-88130038D01*
X119381138Y-88107128D01*
X119369718Y-88082983D01*
X119360720Y-88057835D01*
X119354230Y-88031925D01*
X119350311Y-88005505D01*
X119349000Y-87978827D01*
X119349000Y-87021173D01*
X119350311Y-86994495D01*
X119354230Y-86968075D01*
X119360720Y-86942165D01*
X119369718Y-86917017D01*
X119381138Y-86892872D01*
X119394869Y-86869962D01*
X119410780Y-86848508D01*
X119428718Y-86828718D01*
X119448508Y-86810780D01*
X119469962Y-86794869D01*
X119492872Y-86781138D01*
X119517017Y-86769718D01*
X119542165Y-86760720D01*
X119568075Y-86754230D01*
X119594495Y-86750311D01*
X119621173Y-86749000D01*
X120328827Y-86749000D01*
X120355505Y-86750311D01*
X120355505Y-86750311D01*
G37*
D12*
X119975000Y-87500000D03*
D10*
G36*
X122405505Y-86750311D02*
G01*
X122431925Y-86754230D01*
X122457835Y-86760720D01*
X122482983Y-86769718D01*
X122507128Y-86781138D01*
X122530038Y-86794869D01*
X122551492Y-86810780D01*
X122571282Y-86828718D01*
X122589220Y-86848508D01*
X122605131Y-86869962D01*
X122618862Y-86892872D01*
X122630282Y-86917017D01*
X122639280Y-86942165D01*
X122645770Y-86968075D01*
X122649689Y-86994495D01*
X122651000Y-87021173D01*
X122651000Y-87978827D01*
X122649689Y-88005505D01*
X122645770Y-88031925D01*
X122639280Y-88057835D01*
X122630282Y-88082983D01*
X122618862Y-88107128D01*
X122605131Y-88130038D01*
X122589220Y-88151492D01*
X122571282Y-88171282D01*
X122551492Y-88189220D01*
X122530038Y-88205131D01*
X122507128Y-88218862D01*
X122482983Y-88230282D01*
X122457835Y-88239280D01*
X122431925Y-88245770D01*
X122405505Y-88249689D01*
X122378827Y-88251000D01*
X121671173Y-88251000D01*
X121644495Y-88249689D01*
X121618075Y-88245770D01*
X121592165Y-88239280D01*
X121567017Y-88230282D01*
X121542872Y-88218862D01*
X121519962Y-88205131D01*
X121498508Y-88189220D01*
X121478718Y-88171282D01*
X121460780Y-88151492D01*
X121444869Y-88130038D01*
X121431138Y-88107128D01*
X121419718Y-88082983D01*
X121410720Y-88057835D01*
X121404230Y-88031925D01*
X121400311Y-88005505D01*
X121399000Y-87978827D01*
X121399000Y-87021173D01*
X121400311Y-86994495D01*
X121404230Y-86968075D01*
X121410720Y-86942165D01*
X121419718Y-86917017D01*
X121431138Y-86892872D01*
X121444869Y-86869962D01*
X121460780Y-86848508D01*
X121478718Y-86828718D01*
X121498508Y-86810780D01*
X121519962Y-86794869D01*
X121542872Y-86781138D01*
X121567017Y-86769718D01*
X121592165Y-86760720D01*
X121618075Y-86754230D01*
X121644495Y-86750311D01*
X121671173Y-86749000D01*
X122378827Y-86749000D01*
X122405505Y-86750311D01*
X122405505Y-86750311D01*
G37*
D12*
X122025000Y-87500000D03*
D10*
G36*
X126355505Y-86750311D02*
G01*
X126381925Y-86754230D01*
X126407835Y-86760720D01*
X126432983Y-86769718D01*
X126457128Y-86781138D01*
X126480038Y-86794869D01*
X126501492Y-86810780D01*
X126521282Y-86828718D01*
X126539220Y-86848508D01*
X126555131Y-86869962D01*
X126568862Y-86892872D01*
X126580282Y-86917017D01*
X126589280Y-86942165D01*
X126595770Y-86968075D01*
X126599689Y-86994495D01*
X126601000Y-87021173D01*
X126601000Y-87978827D01*
X126599689Y-88005505D01*
X126595770Y-88031925D01*
X126589280Y-88057835D01*
X126580282Y-88082983D01*
X126568862Y-88107128D01*
X126555131Y-88130038D01*
X126539220Y-88151492D01*
X126521282Y-88171282D01*
X126501492Y-88189220D01*
X126480038Y-88205131D01*
X126457128Y-88218862D01*
X126432983Y-88230282D01*
X126407835Y-88239280D01*
X126381925Y-88245770D01*
X126355505Y-88249689D01*
X126328827Y-88251000D01*
X125621173Y-88251000D01*
X125594495Y-88249689D01*
X125568075Y-88245770D01*
X125542165Y-88239280D01*
X125517017Y-88230282D01*
X125492872Y-88218862D01*
X125469962Y-88205131D01*
X125448508Y-88189220D01*
X125428718Y-88171282D01*
X125410780Y-88151492D01*
X125394869Y-88130038D01*
X125381138Y-88107128D01*
X125369718Y-88082983D01*
X125360720Y-88057835D01*
X125354230Y-88031925D01*
X125350311Y-88005505D01*
X125349000Y-87978827D01*
X125349000Y-87021173D01*
X125350311Y-86994495D01*
X125354230Y-86968075D01*
X125360720Y-86942165D01*
X125369718Y-86917017D01*
X125381138Y-86892872D01*
X125394869Y-86869962D01*
X125410780Y-86848508D01*
X125428718Y-86828718D01*
X125448508Y-86810780D01*
X125469962Y-86794869D01*
X125492872Y-86781138D01*
X125517017Y-86769718D01*
X125542165Y-86760720D01*
X125568075Y-86754230D01*
X125594495Y-86750311D01*
X125621173Y-86749000D01*
X126328827Y-86749000D01*
X126355505Y-86750311D01*
X126355505Y-86750311D01*
G37*
D12*
X125975000Y-87500000D03*
D10*
G36*
X128405505Y-86750311D02*
G01*
X128431925Y-86754230D01*
X128457835Y-86760720D01*
X128482983Y-86769718D01*
X128507128Y-86781138D01*
X128530038Y-86794869D01*
X128551492Y-86810780D01*
X128571282Y-86828718D01*
X128589220Y-86848508D01*
X128605131Y-86869962D01*
X128618862Y-86892872D01*
X128630282Y-86917017D01*
X128639280Y-86942165D01*
X128645770Y-86968075D01*
X128649689Y-86994495D01*
X128651000Y-87021173D01*
X128651000Y-87978827D01*
X128649689Y-88005505D01*
X128645770Y-88031925D01*
X128639280Y-88057835D01*
X128630282Y-88082983D01*
X128618862Y-88107128D01*
X128605131Y-88130038D01*
X128589220Y-88151492D01*
X128571282Y-88171282D01*
X128551492Y-88189220D01*
X128530038Y-88205131D01*
X128507128Y-88218862D01*
X128482983Y-88230282D01*
X128457835Y-88239280D01*
X128431925Y-88245770D01*
X128405505Y-88249689D01*
X128378827Y-88251000D01*
X127671173Y-88251000D01*
X127644495Y-88249689D01*
X127618075Y-88245770D01*
X127592165Y-88239280D01*
X127567017Y-88230282D01*
X127542872Y-88218862D01*
X127519962Y-88205131D01*
X127498508Y-88189220D01*
X127478718Y-88171282D01*
X127460780Y-88151492D01*
X127444869Y-88130038D01*
X127431138Y-88107128D01*
X127419718Y-88082983D01*
X127410720Y-88057835D01*
X127404230Y-88031925D01*
X127400311Y-88005505D01*
X127399000Y-87978827D01*
X127399000Y-87021173D01*
X127400311Y-86994495D01*
X127404230Y-86968075D01*
X127410720Y-86942165D01*
X127419718Y-86917017D01*
X127431138Y-86892872D01*
X127444869Y-86869962D01*
X127460780Y-86848508D01*
X127478718Y-86828718D01*
X127498508Y-86810780D01*
X127519962Y-86794869D01*
X127542872Y-86781138D01*
X127567017Y-86769718D01*
X127592165Y-86760720D01*
X127618075Y-86754230D01*
X127644495Y-86750311D01*
X127671173Y-86749000D01*
X128378827Y-86749000D01*
X128405505Y-86750311D01*
X128405505Y-86750311D01*
G37*
D12*
X128025000Y-87500000D03*
D10*
G36*
X120355505Y-82750311D02*
G01*
X120381925Y-82754230D01*
X120407835Y-82760720D01*
X120432983Y-82769718D01*
X120457128Y-82781138D01*
X120480038Y-82794869D01*
X120501492Y-82810780D01*
X120521282Y-82828718D01*
X120539220Y-82848508D01*
X120555131Y-82869962D01*
X120568862Y-82892872D01*
X120580282Y-82917017D01*
X120589280Y-82942165D01*
X120595770Y-82968075D01*
X120599689Y-82994495D01*
X120601000Y-83021173D01*
X120601000Y-83978827D01*
X120599689Y-84005505D01*
X120595770Y-84031925D01*
X120589280Y-84057835D01*
X120580282Y-84082983D01*
X120568862Y-84107128D01*
X120555131Y-84130038D01*
X120539220Y-84151492D01*
X120521282Y-84171282D01*
X120501492Y-84189220D01*
X120480038Y-84205131D01*
X120457128Y-84218862D01*
X120432983Y-84230282D01*
X120407835Y-84239280D01*
X120381925Y-84245770D01*
X120355505Y-84249689D01*
X120328827Y-84251000D01*
X119621173Y-84251000D01*
X119594495Y-84249689D01*
X119568075Y-84245770D01*
X119542165Y-84239280D01*
X119517017Y-84230282D01*
X119492872Y-84218862D01*
X119469962Y-84205131D01*
X119448508Y-84189220D01*
X119428718Y-84171282D01*
X119410780Y-84151492D01*
X119394869Y-84130038D01*
X119381138Y-84107128D01*
X119369718Y-84082983D01*
X119360720Y-84057835D01*
X119354230Y-84031925D01*
X119350311Y-84005505D01*
X119349000Y-83978827D01*
X119349000Y-83021173D01*
X119350311Y-82994495D01*
X119354230Y-82968075D01*
X119360720Y-82942165D01*
X119369718Y-82917017D01*
X119381138Y-82892872D01*
X119394869Y-82869962D01*
X119410780Y-82848508D01*
X119428718Y-82828718D01*
X119448508Y-82810780D01*
X119469962Y-82794869D01*
X119492872Y-82781138D01*
X119517017Y-82769718D01*
X119542165Y-82760720D01*
X119568075Y-82754230D01*
X119594495Y-82750311D01*
X119621173Y-82749000D01*
X120328827Y-82749000D01*
X120355505Y-82750311D01*
X120355505Y-82750311D01*
G37*
D12*
X119975000Y-83500000D03*
D10*
G36*
X122405505Y-82750311D02*
G01*
X122431925Y-82754230D01*
X122457835Y-82760720D01*
X122482983Y-82769718D01*
X122507128Y-82781138D01*
X122530038Y-82794869D01*
X122551492Y-82810780D01*
X122571282Y-82828718D01*
X122589220Y-82848508D01*
X122605131Y-82869962D01*
X122618862Y-82892872D01*
X122630282Y-82917017D01*
X122639280Y-82942165D01*
X122645770Y-82968075D01*
X122649689Y-82994495D01*
X122651000Y-83021173D01*
X122651000Y-83978827D01*
X122649689Y-84005505D01*
X122645770Y-84031925D01*
X122639280Y-84057835D01*
X122630282Y-84082983D01*
X122618862Y-84107128D01*
X122605131Y-84130038D01*
X122589220Y-84151492D01*
X122571282Y-84171282D01*
X122551492Y-84189220D01*
X122530038Y-84205131D01*
X122507128Y-84218862D01*
X122482983Y-84230282D01*
X122457835Y-84239280D01*
X122431925Y-84245770D01*
X122405505Y-84249689D01*
X122378827Y-84251000D01*
X121671173Y-84251000D01*
X121644495Y-84249689D01*
X121618075Y-84245770D01*
X121592165Y-84239280D01*
X121567017Y-84230282D01*
X121542872Y-84218862D01*
X121519962Y-84205131D01*
X121498508Y-84189220D01*
X121478718Y-84171282D01*
X121460780Y-84151492D01*
X121444869Y-84130038D01*
X121431138Y-84107128D01*
X121419718Y-84082983D01*
X121410720Y-84057835D01*
X121404230Y-84031925D01*
X121400311Y-84005505D01*
X121399000Y-83978827D01*
X121399000Y-83021173D01*
X121400311Y-82994495D01*
X121404230Y-82968075D01*
X121410720Y-82942165D01*
X121419718Y-82917017D01*
X121431138Y-82892872D01*
X121444869Y-82869962D01*
X121460780Y-82848508D01*
X121478718Y-82828718D01*
X121498508Y-82810780D01*
X121519962Y-82794869D01*
X121542872Y-82781138D01*
X121567017Y-82769718D01*
X121592165Y-82760720D01*
X121618075Y-82754230D01*
X121644495Y-82750311D01*
X121671173Y-82749000D01*
X122378827Y-82749000D01*
X122405505Y-82750311D01*
X122405505Y-82750311D01*
G37*
D12*
X122025000Y-83500000D03*
D10*
G36*
X107505505Y-52350311D02*
G01*
X107531925Y-52354230D01*
X107557835Y-52360720D01*
X107582983Y-52369718D01*
X107607128Y-52381138D01*
X107630038Y-52394869D01*
X107651492Y-52410780D01*
X107671282Y-52428718D01*
X107689220Y-52448508D01*
X107705131Y-52469962D01*
X107718862Y-52492872D01*
X107730282Y-52517017D01*
X107739280Y-52542165D01*
X107745770Y-52568075D01*
X107749689Y-52594495D01*
X107751000Y-52621173D01*
X107751000Y-53328827D01*
X107749689Y-53355505D01*
X107745770Y-53381925D01*
X107739280Y-53407835D01*
X107730282Y-53432983D01*
X107718862Y-53457128D01*
X107705131Y-53480038D01*
X107689220Y-53501492D01*
X107671282Y-53521282D01*
X107651492Y-53539220D01*
X107630038Y-53555131D01*
X107607128Y-53568862D01*
X107582983Y-53580282D01*
X107557835Y-53589280D01*
X107531925Y-53595770D01*
X107505505Y-53599689D01*
X107478827Y-53601000D01*
X106521173Y-53601000D01*
X106494495Y-53599689D01*
X106468075Y-53595770D01*
X106442165Y-53589280D01*
X106417017Y-53580282D01*
X106392872Y-53568862D01*
X106369962Y-53555131D01*
X106348508Y-53539220D01*
X106328718Y-53521282D01*
X106310780Y-53501492D01*
X106294869Y-53480038D01*
X106281138Y-53457128D01*
X106269718Y-53432983D01*
X106260720Y-53407835D01*
X106254230Y-53381925D01*
X106250311Y-53355505D01*
X106249000Y-53328827D01*
X106249000Y-52621173D01*
X106250311Y-52594495D01*
X106254230Y-52568075D01*
X106260720Y-52542165D01*
X106269718Y-52517017D01*
X106281138Y-52492872D01*
X106294869Y-52469962D01*
X106310780Y-52448508D01*
X106328718Y-52428718D01*
X106348508Y-52410780D01*
X106369962Y-52394869D01*
X106392872Y-52381138D01*
X106417017Y-52369718D01*
X106442165Y-52360720D01*
X106468075Y-52354230D01*
X106494495Y-52350311D01*
X106521173Y-52349000D01*
X107478827Y-52349000D01*
X107505505Y-52350311D01*
X107505505Y-52350311D01*
G37*
D12*
X107000000Y-52975000D03*
D10*
G36*
X107505505Y-54400311D02*
G01*
X107531925Y-54404230D01*
X107557835Y-54410720D01*
X107582983Y-54419718D01*
X107607128Y-54431138D01*
X107630038Y-54444869D01*
X107651492Y-54460780D01*
X107671282Y-54478718D01*
X107689220Y-54498508D01*
X107705131Y-54519962D01*
X107718862Y-54542872D01*
X107730282Y-54567017D01*
X107739280Y-54592165D01*
X107745770Y-54618075D01*
X107749689Y-54644495D01*
X107751000Y-54671173D01*
X107751000Y-55378827D01*
X107749689Y-55405505D01*
X107745770Y-55431925D01*
X107739280Y-55457835D01*
X107730282Y-55482983D01*
X107718862Y-55507128D01*
X107705131Y-55530038D01*
X107689220Y-55551492D01*
X107671282Y-55571282D01*
X107651492Y-55589220D01*
X107630038Y-55605131D01*
X107607128Y-55618862D01*
X107582983Y-55630282D01*
X107557835Y-55639280D01*
X107531925Y-55645770D01*
X107505505Y-55649689D01*
X107478827Y-55651000D01*
X106521173Y-55651000D01*
X106494495Y-55649689D01*
X106468075Y-55645770D01*
X106442165Y-55639280D01*
X106417017Y-55630282D01*
X106392872Y-55618862D01*
X106369962Y-55605131D01*
X106348508Y-55589220D01*
X106328718Y-55571282D01*
X106310780Y-55551492D01*
X106294869Y-55530038D01*
X106281138Y-55507128D01*
X106269718Y-55482983D01*
X106260720Y-55457835D01*
X106254230Y-55431925D01*
X106250311Y-55405505D01*
X106249000Y-55378827D01*
X106249000Y-54671173D01*
X106250311Y-54644495D01*
X106254230Y-54618075D01*
X106260720Y-54592165D01*
X106269718Y-54567017D01*
X106281138Y-54542872D01*
X106294869Y-54519962D01*
X106310780Y-54498508D01*
X106328718Y-54478718D01*
X106348508Y-54460780D01*
X106369962Y-54444869D01*
X106392872Y-54431138D01*
X106417017Y-54419718D01*
X106442165Y-54410720D01*
X106468075Y-54404230D01*
X106494495Y-54400311D01*
X106521173Y-54399000D01*
X107478827Y-54399000D01*
X107505505Y-54400311D01*
X107505505Y-54400311D01*
G37*
D12*
X107000000Y-55025000D03*
D10*
G36*
X114405505Y-58250311D02*
G01*
X114431925Y-58254230D01*
X114457835Y-58260720D01*
X114482983Y-58269718D01*
X114507128Y-58281138D01*
X114530038Y-58294869D01*
X114551492Y-58310780D01*
X114571282Y-58328718D01*
X114589220Y-58348508D01*
X114605131Y-58369962D01*
X114618862Y-58392872D01*
X114630282Y-58417017D01*
X114639280Y-58442165D01*
X114645770Y-58468075D01*
X114649689Y-58494495D01*
X114651000Y-58521173D01*
X114651000Y-59478827D01*
X114649689Y-59505505D01*
X114645770Y-59531925D01*
X114639280Y-59557835D01*
X114630282Y-59582983D01*
X114618862Y-59607128D01*
X114605131Y-59630038D01*
X114589220Y-59651492D01*
X114571282Y-59671282D01*
X114551492Y-59689220D01*
X114530038Y-59705131D01*
X114507128Y-59718862D01*
X114482983Y-59730282D01*
X114457835Y-59739280D01*
X114431925Y-59745770D01*
X114405505Y-59749689D01*
X114378827Y-59751000D01*
X113671173Y-59751000D01*
X113644495Y-59749689D01*
X113618075Y-59745770D01*
X113592165Y-59739280D01*
X113567017Y-59730282D01*
X113542872Y-59718862D01*
X113519962Y-59705131D01*
X113498508Y-59689220D01*
X113478718Y-59671282D01*
X113460780Y-59651492D01*
X113444869Y-59630038D01*
X113431138Y-59607128D01*
X113419718Y-59582983D01*
X113410720Y-59557835D01*
X113404230Y-59531925D01*
X113400311Y-59505505D01*
X113399000Y-59478827D01*
X113399000Y-58521173D01*
X113400311Y-58494495D01*
X113404230Y-58468075D01*
X113410720Y-58442165D01*
X113419718Y-58417017D01*
X113431138Y-58392872D01*
X113444869Y-58369962D01*
X113460780Y-58348508D01*
X113478718Y-58328718D01*
X113498508Y-58310780D01*
X113519962Y-58294869D01*
X113542872Y-58281138D01*
X113567017Y-58269718D01*
X113592165Y-58260720D01*
X113618075Y-58254230D01*
X113644495Y-58250311D01*
X113671173Y-58249000D01*
X114378827Y-58249000D01*
X114405505Y-58250311D01*
X114405505Y-58250311D01*
G37*
D12*
X114025000Y-59000000D03*
D10*
G36*
X112355505Y-58250311D02*
G01*
X112381925Y-58254230D01*
X112407835Y-58260720D01*
X112432983Y-58269718D01*
X112457128Y-58281138D01*
X112480038Y-58294869D01*
X112501492Y-58310780D01*
X112521282Y-58328718D01*
X112539220Y-58348508D01*
X112555131Y-58369962D01*
X112568862Y-58392872D01*
X112580282Y-58417017D01*
X112589280Y-58442165D01*
X112595770Y-58468075D01*
X112599689Y-58494495D01*
X112601000Y-58521173D01*
X112601000Y-59478827D01*
X112599689Y-59505505D01*
X112595770Y-59531925D01*
X112589280Y-59557835D01*
X112580282Y-59582983D01*
X112568862Y-59607128D01*
X112555131Y-59630038D01*
X112539220Y-59651492D01*
X112521282Y-59671282D01*
X112501492Y-59689220D01*
X112480038Y-59705131D01*
X112457128Y-59718862D01*
X112432983Y-59730282D01*
X112407835Y-59739280D01*
X112381925Y-59745770D01*
X112355505Y-59749689D01*
X112328827Y-59751000D01*
X111621173Y-59751000D01*
X111594495Y-59749689D01*
X111568075Y-59745770D01*
X111542165Y-59739280D01*
X111517017Y-59730282D01*
X111492872Y-59718862D01*
X111469962Y-59705131D01*
X111448508Y-59689220D01*
X111428718Y-59671282D01*
X111410780Y-59651492D01*
X111394869Y-59630038D01*
X111381138Y-59607128D01*
X111369718Y-59582983D01*
X111360720Y-59557835D01*
X111354230Y-59531925D01*
X111350311Y-59505505D01*
X111349000Y-59478827D01*
X111349000Y-58521173D01*
X111350311Y-58494495D01*
X111354230Y-58468075D01*
X111360720Y-58442165D01*
X111369718Y-58417017D01*
X111381138Y-58392872D01*
X111394869Y-58369962D01*
X111410780Y-58348508D01*
X111428718Y-58328718D01*
X111448508Y-58310780D01*
X111469962Y-58294869D01*
X111492872Y-58281138D01*
X111517017Y-58269718D01*
X111542165Y-58260720D01*
X111568075Y-58254230D01*
X111594495Y-58250311D01*
X111621173Y-58249000D01*
X112328827Y-58249000D01*
X112355505Y-58250311D01*
X112355505Y-58250311D01*
G37*
D12*
X111975000Y-59000000D03*
D10*
G36*
X106355505Y-58250311D02*
G01*
X106381925Y-58254230D01*
X106407835Y-58260720D01*
X106432983Y-58269718D01*
X106457128Y-58281138D01*
X106480038Y-58294869D01*
X106501492Y-58310780D01*
X106521282Y-58328718D01*
X106539220Y-58348508D01*
X106555131Y-58369962D01*
X106568862Y-58392872D01*
X106580282Y-58417017D01*
X106589280Y-58442165D01*
X106595770Y-58468075D01*
X106599689Y-58494495D01*
X106601000Y-58521173D01*
X106601000Y-59478827D01*
X106599689Y-59505505D01*
X106595770Y-59531925D01*
X106589280Y-59557835D01*
X106580282Y-59582983D01*
X106568862Y-59607128D01*
X106555131Y-59630038D01*
X106539220Y-59651492D01*
X106521282Y-59671282D01*
X106501492Y-59689220D01*
X106480038Y-59705131D01*
X106457128Y-59718862D01*
X106432983Y-59730282D01*
X106407835Y-59739280D01*
X106381925Y-59745770D01*
X106355505Y-59749689D01*
X106328827Y-59751000D01*
X105621173Y-59751000D01*
X105594495Y-59749689D01*
X105568075Y-59745770D01*
X105542165Y-59739280D01*
X105517017Y-59730282D01*
X105492872Y-59718862D01*
X105469962Y-59705131D01*
X105448508Y-59689220D01*
X105428718Y-59671282D01*
X105410780Y-59651492D01*
X105394869Y-59630038D01*
X105381138Y-59607128D01*
X105369718Y-59582983D01*
X105360720Y-59557835D01*
X105354230Y-59531925D01*
X105350311Y-59505505D01*
X105349000Y-59478827D01*
X105349000Y-58521173D01*
X105350311Y-58494495D01*
X105354230Y-58468075D01*
X105360720Y-58442165D01*
X105369718Y-58417017D01*
X105381138Y-58392872D01*
X105394869Y-58369962D01*
X105410780Y-58348508D01*
X105428718Y-58328718D01*
X105448508Y-58310780D01*
X105469962Y-58294869D01*
X105492872Y-58281138D01*
X105517017Y-58269718D01*
X105542165Y-58260720D01*
X105568075Y-58254230D01*
X105594495Y-58250311D01*
X105621173Y-58249000D01*
X106328827Y-58249000D01*
X106355505Y-58250311D01*
X106355505Y-58250311D01*
G37*
D12*
X105975000Y-59000000D03*
D10*
G36*
X108405505Y-58250311D02*
G01*
X108431925Y-58254230D01*
X108457835Y-58260720D01*
X108482983Y-58269718D01*
X108507128Y-58281138D01*
X108530038Y-58294869D01*
X108551492Y-58310780D01*
X108571282Y-58328718D01*
X108589220Y-58348508D01*
X108605131Y-58369962D01*
X108618862Y-58392872D01*
X108630282Y-58417017D01*
X108639280Y-58442165D01*
X108645770Y-58468075D01*
X108649689Y-58494495D01*
X108651000Y-58521173D01*
X108651000Y-59478827D01*
X108649689Y-59505505D01*
X108645770Y-59531925D01*
X108639280Y-59557835D01*
X108630282Y-59582983D01*
X108618862Y-59607128D01*
X108605131Y-59630038D01*
X108589220Y-59651492D01*
X108571282Y-59671282D01*
X108551492Y-59689220D01*
X108530038Y-59705131D01*
X108507128Y-59718862D01*
X108482983Y-59730282D01*
X108457835Y-59739280D01*
X108431925Y-59745770D01*
X108405505Y-59749689D01*
X108378827Y-59751000D01*
X107671173Y-59751000D01*
X107644495Y-59749689D01*
X107618075Y-59745770D01*
X107592165Y-59739280D01*
X107567017Y-59730282D01*
X107542872Y-59718862D01*
X107519962Y-59705131D01*
X107498508Y-59689220D01*
X107478718Y-59671282D01*
X107460780Y-59651492D01*
X107444869Y-59630038D01*
X107431138Y-59607128D01*
X107419718Y-59582983D01*
X107410720Y-59557835D01*
X107404230Y-59531925D01*
X107400311Y-59505505D01*
X107399000Y-59478827D01*
X107399000Y-58521173D01*
X107400311Y-58494495D01*
X107404230Y-58468075D01*
X107410720Y-58442165D01*
X107419718Y-58417017D01*
X107431138Y-58392872D01*
X107444869Y-58369962D01*
X107460780Y-58348508D01*
X107478718Y-58328718D01*
X107498508Y-58310780D01*
X107519962Y-58294869D01*
X107542872Y-58281138D01*
X107567017Y-58269718D01*
X107592165Y-58260720D01*
X107618075Y-58254230D01*
X107644495Y-58250311D01*
X107671173Y-58249000D01*
X108378827Y-58249000D01*
X108405505Y-58250311D01*
X108405505Y-58250311D01*
G37*
D12*
X108025000Y-59000000D03*
D10*
G36*
X144505505Y-80900311D02*
G01*
X144531925Y-80904230D01*
X144557835Y-80910720D01*
X144582983Y-80919718D01*
X144607128Y-80931138D01*
X144630038Y-80944869D01*
X144651492Y-80960780D01*
X144671282Y-80978718D01*
X144689220Y-80998508D01*
X144705131Y-81019962D01*
X144718862Y-81042872D01*
X144730282Y-81067017D01*
X144739280Y-81092165D01*
X144745770Y-81118075D01*
X144749689Y-81144495D01*
X144751000Y-81171173D01*
X144751000Y-81878827D01*
X144749689Y-81905505D01*
X144745770Y-81931925D01*
X144739280Y-81957835D01*
X144730282Y-81982983D01*
X144718862Y-82007128D01*
X144705131Y-82030038D01*
X144689220Y-82051492D01*
X144671282Y-82071282D01*
X144651492Y-82089220D01*
X144630038Y-82105131D01*
X144607128Y-82118862D01*
X144582983Y-82130282D01*
X144557835Y-82139280D01*
X144531925Y-82145770D01*
X144505505Y-82149689D01*
X144478827Y-82151000D01*
X143521173Y-82151000D01*
X143494495Y-82149689D01*
X143468075Y-82145770D01*
X143442165Y-82139280D01*
X143417017Y-82130282D01*
X143392872Y-82118862D01*
X143369962Y-82105131D01*
X143348508Y-82089220D01*
X143328718Y-82071282D01*
X143310780Y-82051492D01*
X143294869Y-82030038D01*
X143281138Y-82007128D01*
X143269718Y-81982983D01*
X143260720Y-81957835D01*
X143254230Y-81931925D01*
X143250311Y-81905505D01*
X143249000Y-81878827D01*
X143249000Y-81171173D01*
X143250311Y-81144495D01*
X143254230Y-81118075D01*
X143260720Y-81092165D01*
X143269718Y-81067017D01*
X143281138Y-81042872D01*
X143294869Y-81019962D01*
X143310780Y-80998508D01*
X143328718Y-80978718D01*
X143348508Y-80960780D01*
X143369962Y-80944869D01*
X143392872Y-80931138D01*
X143417017Y-80919718D01*
X143442165Y-80910720D01*
X143468075Y-80904230D01*
X143494495Y-80900311D01*
X143521173Y-80899000D01*
X144478827Y-80899000D01*
X144505505Y-80900311D01*
X144505505Y-80900311D01*
G37*
D12*
X144000000Y-81525000D03*
D10*
G36*
X144505505Y-78850311D02*
G01*
X144531925Y-78854230D01*
X144557835Y-78860720D01*
X144582983Y-78869718D01*
X144607128Y-78881138D01*
X144630038Y-78894869D01*
X144651492Y-78910780D01*
X144671282Y-78928718D01*
X144689220Y-78948508D01*
X144705131Y-78969962D01*
X144718862Y-78992872D01*
X144730282Y-79017017D01*
X144739280Y-79042165D01*
X144745770Y-79068075D01*
X144749689Y-79094495D01*
X144751000Y-79121173D01*
X144751000Y-79828827D01*
X144749689Y-79855505D01*
X144745770Y-79881925D01*
X144739280Y-79907835D01*
X144730282Y-79932983D01*
X144718862Y-79957128D01*
X144705131Y-79980038D01*
X144689220Y-80001492D01*
X144671282Y-80021282D01*
X144651492Y-80039220D01*
X144630038Y-80055131D01*
X144607128Y-80068862D01*
X144582983Y-80080282D01*
X144557835Y-80089280D01*
X144531925Y-80095770D01*
X144505505Y-80099689D01*
X144478827Y-80101000D01*
X143521173Y-80101000D01*
X143494495Y-80099689D01*
X143468075Y-80095770D01*
X143442165Y-80089280D01*
X143417017Y-80080282D01*
X143392872Y-80068862D01*
X143369962Y-80055131D01*
X143348508Y-80039220D01*
X143328718Y-80021282D01*
X143310780Y-80001492D01*
X143294869Y-79980038D01*
X143281138Y-79957128D01*
X143269718Y-79932983D01*
X143260720Y-79907835D01*
X143254230Y-79881925D01*
X143250311Y-79855505D01*
X143249000Y-79828827D01*
X143249000Y-79121173D01*
X143250311Y-79094495D01*
X143254230Y-79068075D01*
X143260720Y-79042165D01*
X143269718Y-79017017D01*
X143281138Y-78992872D01*
X143294869Y-78969962D01*
X143310780Y-78948508D01*
X143328718Y-78928718D01*
X143348508Y-78910780D01*
X143369962Y-78894869D01*
X143392872Y-78881138D01*
X143417017Y-78869718D01*
X143442165Y-78860720D01*
X143468075Y-78854230D01*
X143494495Y-78850311D01*
X143521173Y-78849000D01*
X144478827Y-78849000D01*
X144505505Y-78850311D01*
X144505505Y-78850311D01*
G37*
D12*
X144000000Y-79475000D03*
D13*
X71600000Y-87500000D03*
X79400000Y-87500000D03*
D14*
X106000000Y-88900000D03*
X106000000Y-81100000D03*
D10*
G36*
X147682287Y-54350274D02*
G01*
X147707977Y-54354085D01*
X147733171Y-54360396D01*
X147757625Y-54369146D01*
X147781103Y-54380250D01*
X147803380Y-54393602D01*
X147824241Y-54409074D01*
X147843485Y-54426515D01*
X147860926Y-54445759D01*
X147876398Y-54466620D01*
X147889750Y-54488897D01*
X147900854Y-54512375D01*
X147909604Y-54536829D01*
X147915915Y-54562023D01*
X147919726Y-54587713D01*
X147921000Y-54613654D01*
X147921000Y-56386346D01*
X147919726Y-56412287D01*
X147915915Y-56437977D01*
X147909604Y-56463171D01*
X147900854Y-56487625D01*
X147889750Y-56511103D01*
X147876398Y-56533380D01*
X147860926Y-56554241D01*
X147843485Y-56573485D01*
X147824241Y-56590926D01*
X147803380Y-56606398D01*
X147781103Y-56619750D01*
X147757625Y-56630854D01*
X147733171Y-56639604D01*
X147707977Y-56645915D01*
X147682287Y-56649726D01*
X147656346Y-56651000D01*
X146343654Y-56651000D01*
X146317713Y-56649726D01*
X146292023Y-56645915D01*
X146266829Y-56639604D01*
X146242375Y-56630854D01*
X146218897Y-56619750D01*
X146196620Y-56606398D01*
X146175759Y-56590926D01*
X146156515Y-56573485D01*
X146139074Y-56554241D01*
X146123602Y-56533380D01*
X146110250Y-56511103D01*
X146099146Y-56487625D01*
X146090396Y-56463171D01*
X146084085Y-56437977D01*
X146080274Y-56412287D01*
X146079000Y-56386346D01*
X146079000Y-54613654D01*
X146080274Y-54587713D01*
X146084085Y-54562023D01*
X146090396Y-54536829D01*
X146099146Y-54512375D01*
X146110250Y-54488897D01*
X146123602Y-54466620D01*
X146139074Y-54445759D01*
X146156515Y-54426515D01*
X146175759Y-54409074D01*
X146196620Y-54393602D01*
X146218897Y-54380250D01*
X146242375Y-54369146D01*
X146266829Y-54360396D01*
X146292023Y-54354085D01*
X146317713Y-54350274D01*
X146343654Y-54349000D01*
X147656346Y-54349000D01*
X147682287Y-54350274D01*
X147682287Y-54350274D01*
G37*
D15*
X147000000Y-55500000D03*
D16*
X144460000Y-55500000D03*
D17*
X68000000Y-61000000D03*
D18*
X68000000Y-66080000D03*
D19*
X154750000Y-86300000D03*
X154750000Y-88840000D03*
X154750000Y-91380000D03*
X154750000Y-93920000D03*
X154750000Y-96460000D03*
D10*
G36*
X155662287Y-98080274D02*
G01*
X155687977Y-98084085D01*
X155713171Y-98090396D01*
X155737625Y-98099146D01*
X155761103Y-98110250D01*
X155783380Y-98123602D01*
X155804241Y-98139074D01*
X155823485Y-98156515D01*
X155840926Y-98175759D01*
X155856398Y-98196620D01*
X155869750Y-98218897D01*
X155880854Y-98242375D01*
X155889604Y-98266829D01*
X155895915Y-98292023D01*
X155899726Y-98317713D01*
X155901000Y-98343654D01*
X155901000Y-99656346D01*
X155899726Y-99682287D01*
X155895915Y-99707977D01*
X155889604Y-99733171D01*
X155880854Y-99757625D01*
X155869750Y-99781103D01*
X155856398Y-99803380D01*
X155840926Y-99824241D01*
X155823485Y-99843485D01*
X155804241Y-99860926D01*
X155783380Y-99876398D01*
X155761103Y-99889750D01*
X155737625Y-99900854D01*
X155713171Y-99909604D01*
X155687977Y-99915915D01*
X155662287Y-99919726D01*
X155636346Y-99921000D01*
X153863654Y-99921000D01*
X153837713Y-99919726D01*
X153812023Y-99915915D01*
X153786829Y-99909604D01*
X153762375Y-99900854D01*
X153738897Y-99889750D01*
X153716620Y-99876398D01*
X153695759Y-99860926D01*
X153676515Y-99843485D01*
X153659074Y-99824241D01*
X153643602Y-99803380D01*
X153630250Y-99781103D01*
X153619146Y-99757625D01*
X153610396Y-99733171D01*
X153604085Y-99707977D01*
X153600274Y-99682287D01*
X153599000Y-99656346D01*
X153599000Y-98343654D01*
X153600274Y-98317713D01*
X153604085Y-98292023D01*
X153610396Y-98266829D01*
X153619146Y-98242375D01*
X153630250Y-98218897D01*
X153643602Y-98196620D01*
X153659074Y-98175759D01*
X153676515Y-98156515D01*
X153695759Y-98139074D01*
X153716620Y-98123602D01*
X153738897Y-98110250D01*
X153762375Y-98099146D01*
X153786829Y-98090396D01*
X153812023Y-98084085D01*
X153837713Y-98080274D01*
X153863654Y-98079000D01*
X155636346Y-98079000D01*
X155662287Y-98080274D01*
X155662287Y-98080274D01*
G37*
D15*
X154750000Y-99000000D03*
D10*
G36*
X144932287Y-68850274D02*
G01*
X144957977Y-68854085D01*
X144983171Y-68860396D01*
X145007625Y-68869146D01*
X145031103Y-68880250D01*
X145053380Y-68893602D01*
X145074241Y-68909074D01*
X145093485Y-68926515D01*
X145110926Y-68945759D01*
X145126398Y-68966620D01*
X145139750Y-68988897D01*
X145150854Y-69012375D01*
X145159604Y-69036829D01*
X145165915Y-69062023D01*
X145169726Y-69087713D01*
X145171000Y-69113654D01*
X145171000Y-70886346D01*
X145169726Y-70912287D01*
X145165915Y-70937977D01*
X145159604Y-70963171D01*
X145150854Y-70987625D01*
X145139750Y-71011103D01*
X145126398Y-71033380D01*
X145110926Y-71054241D01*
X145093485Y-71073485D01*
X145074241Y-71090926D01*
X145053380Y-71106398D01*
X145031103Y-71119750D01*
X145007625Y-71130854D01*
X144983171Y-71139604D01*
X144957977Y-71145915D01*
X144932287Y-71149726D01*
X144906346Y-71151000D01*
X143593654Y-71151000D01*
X143567713Y-71149726D01*
X143542023Y-71145915D01*
X143516829Y-71139604D01*
X143492375Y-71130854D01*
X143468897Y-71119750D01*
X143446620Y-71106398D01*
X143425759Y-71090926D01*
X143406515Y-71073485D01*
X143389074Y-71054241D01*
X143373602Y-71033380D01*
X143360250Y-71011103D01*
X143349146Y-70987625D01*
X143340396Y-70963171D01*
X143334085Y-70937977D01*
X143330274Y-70912287D01*
X143329000Y-70886346D01*
X143329000Y-69113654D01*
X143330274Y-69087713D01*
X143334085Y-69062023D01*
X143340396Y-69036829D01*
X143349146Y-69012375D01*
X143360250Y-68988897D01*
X143373602Y-68966620D01*
X143389074Y-68945759D01*
X143406515Y-68926515D01*
X143425759Y-68909074D01*
X143446620Y-68893602D01*
X143468897Y-68880250D01*
X143492375Y-68869146D01*
X143516829Y-68860396D01*
X143542023Y-68854085D01*
X143567713Y-68850274D01*
X143593654Y-68849000D01*
X144906346Y-68849000D01*
X144932287Y-68850274D01*
X144932287Y-68850274D01*
G37*
D15*
X144250000Y-70000000D03*
D16*
X141710000Y-70000000D03*
X139170000Y-70000000D03*
X136630000Y-70000000D03*
X134090000Y-70000000D03*
X131550000Y-70000000D03*
X129010000Y-70000000D03*
X126470000Y-70000000D03*
D18*
X153000000Y-74420000D03*
D17*
X153000000Y-79500000D03*
D10*
G36*
X139932287Y-54350274D02*
G01*
X139957977Y-54354085D01*
X139983171Y-54360396D01*
X140007625Y-54369146D01*
X140031103Y-54380250D01*
X140053380Y-54393602D01*
X140074241Y-54409074D01*
X140093485Y-54426515D01*
X140110926Y-54445759D01*
X140126398Y-54466620D01*
X140139750Y-54488897D01*
X140150854Y-54512375D01*
X140159604Y-54536829D01*
X140165915Y-54562023D01*
X140169726Y-54587713D01*
X140171000Y-54613654D01*
X140171000Y-56386346D01*
X140169726Y-56412287D01*
X140165915Y-56437977D01*
X140159604Y-56463171D01*
X140150854Y-56487625D01*
X140139750Y-56511103D01*
X140126398Y-56533380D01*
X140110926Y-56554241D01*
X140093485Y-56573485D01*
X140074241Y-56590926D01*
X140053380Y-56606398D01*
X140031103Y-56619750D01*
X140007625Y-56630854D01*
X139983171Y-56639604D01*
X139957977Y-56645915D01*
X139932287Y-56649726D01*
X139906346Y-56651000D01*
X138593654Y-56651000D01*
X138567713Y-56649726D01*
X138542023Y-56645915D01*
X138516829Y-56639604D01*
X138492375Y-56630854D01*
X138468897Y-56619750D01*
X138446620Y-56606398D01*
X138425759Y-56590926D01*
X138406515Y-56573485D01*
X138389074Y-56554241D01*
X138373602Y-56533380D01*
X138360250Y-56511103D01*
X138349146Y-56487625D01*
X138340396Y-56463171D01*
X138334085Y-56437977D01*
X138330274Y-56412287D01*
X138329000Y-56386346D01*
X138329000Y-54613654D01*
X138330274Y-54587713D01*
X138334085Y-54562023D01*
X138340396Y-54536829D01*
X138349146Y-54512375D01*
X138360250Y-54488897D01*
X138373602Y-54466620D01*
X138389074Y-54445759D01*
X138406515Y-54426515D01*
X138425759Y-54409074D01*
X138446620Y-54393602D01*
X138468897Y-54380250D01*
X138492375Y-54369146D01*
X138516829Y-54360396D01*
X138542023Y-54354085D01*
X138567713Y-54350274D01*
X138593654Y-54349000D01*
X139906346Y-54349000D01*
X139932287Y-54350274D01*
X139932287Y-54350274D01*
G37*
D15*
X139250000Y-55500000D03*
D16*
X136710000Y-55500000D03*
X134170000Y-55500000D03*
X131630000Y-55500000D03*
X129090000Y-55500000D03*
X126550000Y-55500000D03*
D20*
X91000000Y-87450000D03*
X91000000Y-100550000D03*
D21*
X88750000Y-77250000D03*
D22*
X86210000Y-77250000D03*
X83670000Y-77250000D03*
D23*
X120270000Y-63000000D03*
X121540000Y-63000000D03*
D24*
X119000000Y-63000000D03*
D10*
G36*
X64505505Y-77350311D02*
G01*
X64531925Y-77354230D01*
X64557835Y-77360720D01*
X64582983Y-77369718D01*
X64607128Y-77381138D01*
X64630038Y-77394869D01*
X64651492Y-77410780D01*
X64671282Y-77428718D01*
X64689220Y-77448508D01*
X64705131Y-77469962D01*
X64718862Y-77492872D01*
X64730282Y-77517017D01*
X64739280Y-77542165D01*
X64745770Y-77568075D01*
X64749689Y-77594495D01*
X64751000Y-77621173D01*
X64751000Y-78328827D01*
X64749689Y-78355505D01*
X64745770Y-78381925D01*
X64739280Y-78407835D01*
X64730282Y-78432983D01*
X64718862Y-78457128D01*
X64705131Y-78480038D01*
X64689220Y-78501492D01*
X64671282Y-78521282D01*
X64651492Y-78539220D01*
X64630038Y-78555131D01*
X64607128Y-78568862D01*
X64582983Y-78580282D01*
X64557835Y-78589280D01*
X64531925Y-78595770D01*
X64505505Y-78599689D01*
X64478827Y-78601000D01*
X63521173Y-78601000D01*
X63494495Y-78599689D01*
X63468075Y-78595770D01*
X63442165Y-78589280D01*
X63417017Y-78580282D01*
X63392872Y-78568862D01*
X63369962Y-78555131D01*
X63348508Y-78539220D01*
X63328718Y-78521282D01*
X63310780Y-78501492D01*
X63294869Y-78480038D01*
X63281138Y-78457128D01*
X63269718Y-78432983D01*
X63260720Y-78407835D01*
X63254230Y-78381925D01*
X63250311Y-78355505D01*
X63249000Y-78328827D01*
X63249000Y-77621173D01*
X63250311Y-77594495D01*
X63254230Y-77568075D01*
X63260720Y-77542165D01*
X63269718Y-77517017D01*
X63281138Y-77492872D01*
X63294869Y-77469962D01*
X63310780Y-77448508D01*
X63328718Y-77428718D01*
X63348508Y-77410780D01*
X63369962Y-77394869D01*
X63392872Y-77381138D01*
X63417017Y-77369718D01*
X63442165Y-77360720D01*
X63468075Y-77354230D01*
X63494495Y-77350311D01*
X63521173Y-77349000D01*
X64478827Y-77349000D01*
X64505505Y-77350311D01*
X64505505Y-77350311D01*
G37*
D12*
X64000000Y-77975000D03*
D10*
G36*
X64505505Y-79400311D02*
G01*
X64531925Y-79404230D01*
X64557835Y-79410720D01*
X64582983Y-79419718D01*
X64607128Y-79431138D01*
X64630038Y-79444869D01*
X64651492Y-79460780D01*
X64671282Y-79478718D01*
X64689220Y-79498508D01*
X64705131Y-79519962D01*
X64718862Y-79542872D01*
X64730282Y-79567017D01*
X64739280Y-79592165D01*
X64745770Y-79618075D01*
X64749689Y-79644495D01*
X64751000Y-79671173D01*
X64751000Y-80378827D01*
X64749689Y-80405505D01*
X64745770Y-80431925D01*
X64739280Y-80457835D01*
X64730282Y-80482983D01*
X64718862Y-80507128D01*
X64705131Y-80530038D01*
X64689220Y-80551492D01*
X64671282Y-80571282D01*
X64651492Y-80589220D01*
X64630038Y-80605131D01*
X64607128Y-80618862D01*
X64582983Y-80630282D01*
X64557835Y-80639280D01*
X64531925Y-80645770D01*
X64505505Y-80649689D01*
X64478827Y-80651000D01*
X63521173Y-80651000D01*
X63494495Y-80649689D01*
X63468075Y-80645770D01*
X63442165Y-80639280D01*
X63417017Y-80630282D01*
X63392872Y-80618862D01*
X63369962Y-80605131D01*
X63348508Y-80589220D01*
X63328718Y-80571282D01*
X63310780Y-80551492D01*
X63294869Y-80530038D01*
X63281138Y-80507128D01*
X63269718Y-80482983D01*
X63260720Y-80457835D01*
X63254230Y-80431925D01*
X63250311Y-80405505D01*
X63249000Y-80378827D01*
X63249000Y-79671173D01*
X63250311Y-79644495D01*
X63254230Y-79618075D01*
X63260720Y-79592165D01*
X63269718Y-79567017D01*
X63281138Y-79542872D01*
X63294869Y-79519962D01*
X63310780Y-79498508D01*
X63328718Y-79478718D01*
X63348508Y-79460780D01*
X63369962Y-79444869D01*
X63392872Y-79431138D01*
X63417017Y-79419718D01*
X63442165Y-79410720D01*
X63468075Y-79404230D01*
X63494495Y-79400311D01*
X63521173Y-79399000D01*
X64478827Y-79399000D01*
X64505505Y-79400311D01*
X64505505Y-79400311D01*
G37*
D12*
X64000000Y-80025000D03*
D10*
G36*
X86505505Y-72400311D02*
G01*
X86531925Y-72404230D01*
X86557835Y-72410720D01*
X86582983Y-72419718D01*
X86607128Y-72431138D01*
X86630038Y-72444869D01*
X86651492Y-72460780D01*
X86671282Y-72478718D01*
X86689220Y-72498508D01*
X86705131Y-72519962D01*
X86718862Y-72542872D01*
X86730282Y-72567017D01*
X86739280Y-72592165D01*
X86745770Y-72618075D01*
X86749689Y-72644495D01*
X86751000Y-72671173D01*
X86751000Y-73378827D01*
X86749689Y-73405505D01*
X86745770Y-73431925D01*
X86739280Y-73457835D01*
X86730282Y-73482983D01*
X86718862Y-73507128D01*
X86705131Y-73530038D01*
X86689220Y-73551492D01*
X86671282Y-73571282D01*
X86651492Y-73589220D01*
X86630038Y-73605131D01*
X86607128Y-73618862D01*
X86582983Y-73630282D01*
X86557835Y-73639280D01*
X86531925Y-73645770D01*
X86505505Y-73649689D01*
X86478827Y-73651000D01*
X85521173Y-73651000D01*
X85494495Y-73649689D01*
X85468075Y-73645770D01*
X85442165Y-73639280D01*
X85417017Y-73630282D01*
X85392872Y-73618862D01*
X85369962Y-73605131D01*
X85348508Y-73589220D01*
X85328718Y-73571282D01*
X85310780Y-73551492D01*
X85294869Y-73530038D01*
X85281138Y-73507128D01*
X85269718Y-73482983D01*
X85260720Y-73457835D01*
X85254230Y-73431925D01*
X85250311Y-73405505D01*
X85249000Y-73378827D01*
X85249000Y-72671173D01*
X85250311Y-72644495D01*
X85254230Y-72618075D01*
X85260720Y-72592165D01*
X85269718Y-72567017D01*
X85281138Y-72542872D01*
X85294869Y-72519962D01*
X85310780Y-72498508D01*
X85328718Y-72478718D01*
X85348508Y-72460780D01*
X85369962Y-72444869D01*
X85392872Y-72431138D01*
X85417017Y-72419718D01*
X85442165Y-72410720D01*
X85468075Y-72404230D01*
X85494495Y-72400311D01*
X85521173Y-72399000D01*
X86478827Y-72399000D01*
X86505505Y-72400311D01*
X86505505Y-72400311D01*
G37*
D12*
X86000000Y-73025000D03*
D10*
G36*
X86505505Y-70350311D02*
G01*
X86531925Y-70354230D01*
X86557835Y-70360720D01*
X86582983Y-70369718D01*
X86607128Y-70381138D01*
X86630038Y-70394869D01*
X86651492Y-70410780D01*
X86671282Y-70428718D01*
X86689220Y-70448508D01*
X86705131Y-70469962D01*
X86718862Y-70492872D01*
X86730282Y-70517017D01*
X86739280Y-70542165D01*
X86745770Y-70568075D01*
X86749689Y-70594495D01*
X86751000Y-70621173D01*
X86751000Y-71328827D01*
X86749689Y-71355505D01*
X86745770Y-71381925D01*
X86739280Y-71407835D01*
X86730282Y-71432983D01*
X86718862Y-71457128D01*
X86705131Y-71480038D01*
X86689220Y-71501492D01*
X86671282Y-71521282D01*
X86651492Y-71539220D01*
X86630038Y-71555131D01*
X86607128Y-71568862D01*
X86582983Y-71580282D01*
X86557835Y-71589280D01*
X86531925Y-71595770D01*
X86505505Y-71599689D01*
X86478827Y-71601000D01*
X85521173Y-71601000D01*
X85494495Y-71599689D01*
X85468075Y-71595770D01*
X85442165Y-71589280D01*
X85417017Y-71580282D01*
X85392872Y-71568862D01*
X85369962Y-71555131D01*
X85348508Y-71539220D01*
X85328718Y-71521282D01*
X85310780Y-71501492D01*
X85294869Y-71480038D01*
X85281138Y-71457128D01*
X85269718Y-71432983D01*
X85260720Y-71407835D01*
X85254230Y-71381925D01*
X85250311Y-71355505D01*
X85249000Y-71328827D01*
X85249000Y-70621173D01*
X85250311Y-70594495D01*
X85254230Y-70568075D01*
X85260720Y-70542165D01*
X85269718Y-70517017D01*
X85281138Y-70492872D01*
X85294869Y-70469962D01*
X85310780Y-70448508D01*
X85328718Y-70428718D01*
X85348508Y-70410780D01*
X85369962Y-70394869D01*
X85392872Y-70381138D01*
X85417017Y-70369718D01*
X85442165Y-70360720D01*
X85468075Y-70354230D01*
X85494495Y-70350311D01*
X85521173Y-70349000D01*
X86478827Y-70349000D01*
X86505505Y-70350311D01*
X86505505Y-70350311D01*
G37*
D12*
X86000000Y-70975000D03*
D10*
G36*
X79355505Y-97250311D02*
G01*
X79381925Y-97254230D01*
X79407835Y-97260720D01*
X79432983Y-97269718D01*
X79457128Y-97281138D01*
X79480038Y-97294869D01*
X79501492Y-97310780D01*
X79521282Y-97328718D01*
X79539220Y-97348508D01*
X79555131Y-97369962D01*
X79568862Y-97392872D01*
X79580282Y-97417017D01*
X79589280Y-97442165D01*
X79595770Y-97468075D01*
X79599689Y-97494495D01*
X79601000Y-97521173D01*
X79601000Y-98478827D01*
X79599689Y-98505505D01*
X79595770Y-98531925D01*
X79589280Y-98557835D01*
X79580282Y-98582983D01*
X79568862Y-98607128D01*
X79555131Y-98630038D01*
X79539220Y-98651492D01*
X79521282Y-98671282D01*
X79501492Y-98689220D01*
X79480038Y-98705131D01*
X79457128Y-98718862D01*
X79432983Y-98730282D01*
X79407835Y-98739280D01*
X79381925Y-98745770D01*
X79355505Y-98749689D01*
X79328827Y-98751000D01*
X78621173Y-98751000D01*
X78594495Y-98749689D01*
X78568075Y-98745770D01*
X78542165Y-98739280D01*
X78517017Y-98730282D01*
X78492872Y-98718862D01*
X78469962Y-98705131D01*
X78448508Y-98689220D01*
X78428718Y-98671282D01*
X78410780Y-98651492D01*
X78394869Y-98630038D01*
X78381138Y-98607128D01*
X78369718Y-98582983D01*
X78360720Y-98557835D01*
X78354230Y-98531925D01*
X78350311Y-98505505D01*
X78349000Y-98478827D01*
X78349000Y-97521173D01*
X78350311Y-97494495D01*
X78354230Y-97468075D01*
X78360720Y-97442165D01*
X78369718Y-97417017D01*
X78381138Y-97392872D01*
X78394869Y-97369962D01*
X78410780Y-97348508D01*
X78428718Y-97328718D01*
X78448508Y-97310780D01*
X78469962Y-97294869D01*
X78492872Y-97281138D01*
X78517017Y-97269718D01*
X78542165Y-97260720D01*
X78568075Y-97254230D01*
X78594495Y-97250311D01*
X78621173Y-97249000D01*
X79328827Y-97249000D01*
X79355505Y-97250311D01*
X79355505Y-97250311D01*
G37*
D12*
X78975000Y-98000000D03*
D10*
G36*
X81405505Y-97250311D02*
G01*
X81431925Y-97254230D01*
X81457835Y-97260720D01*
X81482983Y-97269718D01*
X81507128Y-97281138D01*
X81530038Y-97294869D01*
X81551492Y-97310780D01*
X81571282Y-97328718D01*
X81589220Y-97348508D01*
X81605131Y-97369962D01*
X81618862Y-97392872D01*
X81630282Y-97417017D01*
X81639280Y-97442165D01*
X81645770Y-97468075D01*
X81649689Y-97494495D01*
X81651000Y-97521173D01*
X81651000Y-98478827D01*
X81649689Y-98505505D01*
X81645770Y-98531925D01*
X81639280Y-98557835D01*
X81630282Y-98582983D01*
X81618862Y-98607128D01*
X81605131Y-98630038D01*
X81589220Y-98651492D01*
X81571282Y-98671282D01*
X81551492Y-98689220D01*
X81530038Y-98705131D01*
X81507128Y-98718862D01*
X81482983Y-98730282D01*
X81457835Y-98739280D01*
X81431925Y-98745770D01*
X81405505Y-98749689D01*
X81378827Y-98751000D01*
X80671173Y-98751000D01*
X80644495Y-98749689D01*
X80618075Y-98745770D01*
X80592165Y-98739280D01*
X80567017Y-98730282D01*
X80542872Y-98718862D01*
X80519962Y-98705131D01*
X80498508Y-98689220D01*
X80478718Y-98671282D01*
X80460780Y-98651492D01*
X80444869Y-98630038D01*
X80431138Y-98607128D01*
X80419718Y-98582983D01*
X80410720Y-98557835D01*
X80404230Y-98531925D01*
X80400311Y-98505505D01*
X80399000Y-98478827D01*
X80399000Y-97521173D01*
X80400311Y-97494495D01*
X80404230Y-97468075D01*
X80410720Y-97442165D01*
X80419718Y-97417017D01*
X80431138Y-97392872D01*
X80444869Y-97369962D01*
X80460780Y-97348508D01*
X80478718Y-97328718D01*
X80498508Y-97310780D01*
X80519962Y-97294869D01*
X80542872Y-97281138D01*
X80567017Y-97269718D01*
X80592165Y-97260720D01*
X80618075Y-97254230D01*
X80644495Y-97250311D01*
X80671173Y-97249000D01*
X81378827Y-97249000D01*
X81405505Y-97250311D01*
X81405505Y-97250311D01*
G37*
D12*
X81025000Y-98000000D03*
D10*
G36*
X66505505Y-93325311D02*
G01*
X66531925Y-93329230D01*
X66557835Y-93335720D01*
X66582983Y-93344718D01*
X66607128Y-93356138D01*
X66630038Y-93369869D01*
X66651492Y-93385780D01*
X66671282Y-93403718D01*
X66689220Y-93423508D01*
X66705131Y-93444962D01*
X66718862Y-93467872D01*
X66730282Y-93492017D01*
X66739280Y-93517165D01*
X66745770Y-93543075D01*
X66749689Y-93569495D01*
X66751000Y-93596173D01*
X66751000Y-94303827D01*
X66749689Y-94330505D01*
X66745770Y-94356925D01*
X66739280Y-94382835D01*
X66730282Y-94407983D01*
X66718862Y-94432128D01*
X66705131Y-94455038D01*
X66689220Y-94476492D01*
X66671282Y-94496282D01*
X66651492Y-94514220D01*
X66630038Y-94530131D01*
X66607128Y-94543862D01*
X66582983Y-94555282D01*
X66557835Y-94564280D01*
X66531925Y-94570770D01*
X66505505Y-94574689D01*
X66478827Y-94576000D01*
X65521173Y-94576000D01*
X65494495Y-94574689D01*
X65468075Y-94570770D01*
X65442165Y-94564280D01*
X65417017Y-94555282D01*
X65392872Y-94543862D01*
X65369962Y-94530131D01*
X65348508Y-94514220D01*
X65328718Y-94496282D01*
X65310780Y-94476492D01*
X65294869Y-94455038D01*
X65281138Y-94432128D01*
X65269718Y-94407983D01*
X65260720Y-94382835D01*
X65254230Y-94356925D01*
X65250311Y-94330505D01*
X65249000Y-94303827D01*
X65249000Y-93596173D01*
X65250311Y-93569495D01*
X65254230Y-93543075D01*
X65260720Y-93517165D01*
X65269718Y-93492017D01*
X65281138Y-93467872D01*
X65294869Y-93444962D01*
X65310780Y-93423508D01*
X65328718Y-93403718D01*
X65348508Y-93385780D01*
X65369962Y-93369869D01*
X65392872Y-93356138D01*
X65417017Y-93344718D01*
X65442165Y-93335720D01*
X65468075Y-93329230D01*
X65494495Y-93325311D01*
X65521173Y-93324000D01*
X66478827Y-93324000D01*
X66505505Y-93325311D01*
X66505505Y-93325311D01*
G37*
D12*
X66000000Y-93950000D03*
D10*
G36*
X66505505Y-95375311D02*
G01*
X66531925Y-95379230D01*
X66557835Y-95385720D01*
X66582983Y-95394718D01*
X66607128Y-95406138D01*
X66630038Y-95419869D01*
X66651492Y-95435780D01*
X66671282Y-95453718D01*
X66689220Y-95473508D01*
X66705131Y-95494962D01*
X66718862Y-95517872D01*
X66730282Y-95542017D01*
X66739280Y-95567165D01*
X66745770Y-95593075D01*
X66749689Y-95619495D01*
X66751000Y-95646173D01*
X66751000Y-96353827D01*
X66749689Y-96380505D01*
X66745770Y-96406925D01*
X66739280Y-96432835D01*
X66730282Y-96457983D01*
X66718862Y-96482128D01*
X66705131Y-96505038D01*
X66689220Y-96526492D01*
X66671282Y-96546282D01*
X66651492Y-96564220D01*
X66630038Y-96580131D01*
X66607128Y-96593862D01*
X66582983Y-96605282D01*
X66557835Y-96614280D01*
X66531925Y-96620770D01*
X66505505Y-96624689D01*
X66478827Y-96626000D01*
X65521173Y-96626000D01*
X65494495Y-96624689D01*
X65468075Y-96620770D01*
X65442165Y-96614280D01*
X65417017Y-96605282D01*
X65392872Y-96593862D01*
X65369962Y-96580131D01*
X65348508Y-96564220D01*
X65328718Y-96546282D01*
X65310780Y-96526492D01*
X65294869Y-96505038D01*
X65281138Y-96482128D01*
X65269718Y-96457983D01*
X65260720Y-96432835D01*
X65254230Y-96406925D01*
X65250311Y-96380505D01*
X65249000Y-96353827D01*
X65249000Y-95646173D01*
X65250311Y-95619495D01*
X65254230Y-95593075D01*
X65260720Y-95567165D01*
X65269718Y-95542017D01*
X65281138Y-95517872D01*
X65294869Y-95494962D01*
X65310780Y-95473508D01*
X65328718Y-95453718D01*
X65348508Y-95435780D01*
X65369962Y-95419869D01*
X65392872Y-95406138D01*
X65417017Y-95394718D01*
X65442165Y-95385720D01*
X65468075Y-95379230D01*
X65494495Y-95375311D01*
X65521173Y-95374000D01*
X66478827Y-95374000D01*
X66505505Y-95375311D01*
X66505505Y-95375311D01*
G37*
D12*
X66000000Y-96000000D03*
D10*
G36*
X81405505Y-101250311D02*
G01*
X81431925Y-101254230D01*
X81457835Y-101260720D01*
X81482983Y-101269718D01*
X81507128Y-101281138D01*
X81530038Y-101294869D01*
X81551492Y-101310780D01*
X81571282Y-101328718D01*
X81589220Y-101348508D01*
X81605131Y-101369962D01*
X81618862Y-101392872D01*
X81630282Y-101417017D01*
X81639280Y-101442165D01*
X81645770Y-101468075D01*
X81649689Y-101494495D01*
X81651000Y-101521173D01*
X81651000Y-102478827D01*
X81649689Y-102505505D01*
X81645770Y-102531925D01*
X81639280Y-102557835D01*
X81630282Y-102582983D01*
X81618862Y-102607128D01*
X81605131Y-102630038D01*
X81589220Y-102651492D01*
X81571282Y-102671282D01*
X81551492Y-102689220D01*
X81530038Y-102705131D01*
X81507128Y-102718862D01*
X81482983Y-102730282D01*
X81457835Y-102739280D01*
X81431925Y-102745770D01*
X81405505Y-102749689D01*
X81378827Y-102751000D01*
X80671173Y-102751000D01*
X80644495Y-102749689D01*
X80618075Y-102745770D01*
X80592165Y-102739280D01*
X80567017Y-102730282D01*
X80542872Y-102718862D01*
X80519962Y-102705131D01*
X80498508Y-102689220D01*
X80478718Y-102671282D01*
X80460780Y-102651492D01*
X80444869Y-102630038D01*
X80431138Y-102607128D01*
X80419718Y-102582983D01*
X80410720Y-102557835D01*
X80404230Y-102531925D01*
X80400311Y-102505505D01*
X80399000Y-102478827D01*
X80399000Y-101521173D01*
X80400311Y-101494495D01*
X80404230Y-101468075D01*
X80410720Y-101442165D01*
X80419718Y-101417017D01*
X80431138Y-101392872D01*
X80444869Y-101369962D01*
X80460780Y-101348508D01*
X80478718Y-101328718D01*
X80498508Y-101310780D01*
X80519962Y-101294869D01*
X80542872Y-101281138D01*
X80567017Y-101269718D01*
X80592165Y-101260720D01*
X80618075Y-101254230D01*
X80644495Y-101250311D01*
X80671173Y-101249000D01*
X81378827Y-101249000D01*
X81405505Y-101250311D01*
X81405505Y-101250311D01*
G37*
D12*
X81025000Y-102000000D03*
D10*
G36*
X79355505Y-101250311D02*
G01*
X79381925Y-101254230D01*
X79407835Y-101260720D01*
X79432983Y-101269718D01*
X79457128Y-101281138D01*
X79480038Y-101294869D01*
X79501492Y-101310780D01*
X79521282Y-101328718D01*
X79539220Y-101348508D01*
X79555131Y-101369962D01*
X79568862Y-101392872D01*
X79580282Y-101417017D01*
X79589280Y-101442165D01*
X79595770Y-101468075D01*
X79599689Y-101494495D01*
X79601000Y-101521173D01*
X79601000Y-102478827D01*
X79599689Y-102505505D01*
X79595770Y-102531925D01*
X79589280Y-102557835D01*
X79580282Y-102582983D01*
X79568862Y-102607128D01*
X79555131Y-102630038D01*
X79539220Y-102651492D01*
X79521282Y-102671282D01*
X79501492Y-102689220D01*
X79480038Y-102705131D01*
X79457128Y-102718862D01*
X79432983Y-102730282D01*
X79407835Y-102739280D01*
X79381925Y-102745770D01*
X79355505Y-102749689D01*
X79328827Y-102751000D01*
X78621173Y-102751000D01*
X78594495Y-102749689D01*
X78568075Y-102745770D01*
X78542165Y-102739280D01*
X78517017Y-102730282D01*
X78492872Y-102718862D01*
X78469962Y-102705131D01*
X78448508Y-102689220D01*
X78428718Y-102671282D01*
X78410780Y-102651492D01*
X78394869Y-102630038D01*
X78381138Y-102607128D01*
X78369718Y-102582983D01*
X78360720Y-102557835D01*
X78354230Y-102531925D01*
X78350311Y-102505505D01*
X78349000Y-102478827D01*
X78349000Y-101521173D01*
X78350311Y-101494495D01*
X78354230Y-101468075D01*
X78360720Y-101442165D01*
X78369718Y-101417017D01*
X78381138Y-101392872D01*
X78394869Y-101369962D01*
X78410780Y-101348508D01*
X78428718Y-101328718D01*
X78448508Y-101310780D01*
X78469962Y-101294869D01*
X78492872Y-101281138D01*
X78517017Y-101269718D01*
X78542165Y-101260720D01*
X78568075Y-101254230D01*
X78594495Y-101250311D01*
X78621173Y-101249000D01*
X79328827Y-101249000D01*
X79355505Y-101250311D01*
X79355505Y-101250311D01*
G37*
D12*
X78975000Y-102000000D03*
D10*
G36*
X73355505Y-101250311D02*
G01*
X73381925Y-101254230D01*
X73407835Y-101260720D01*
X73432983Y-101269718D01*
X73457128Y-101281138D01*
X73480038Y-101294869D01*
X73501492Y-101310780D01*
X73521282Y-101328718D01*
X73539220Y-101348508D01*
X73555131Y-101369962D01*
X73568862Y-101392872D01*
X73580282Y-101417017D01*
X73589280Y-101442165D01*
X73595770Y-101468075D01*
X73599689Y-101494495D01*
X73601000Y-101521173D01*
X73601000Y-102478827D01*
X73599689Y-102505505D01*
X73595770Y-102531925D01*
X73589280Y-102557835D01*
X73580282Y-102582983D01*
X73568862Y-102607128D01*
X73555131Y-102630038D01*
X73539220Y-102651492D01*
X73521282Y-102671282D01*
X73501492Y-102689220D01*
X73480038Y-102705131D01*
X73457128Y-102718862D01*
X73432983Y-102730282D01*
X73407835Y-102739280D01*
X73381925Y-102745770D01*
X73355505Y-102749689D01*
X73328827Y-102751000D01*
X72621173Y-102751000D01*
X72594495Y-102749689D01*
X72568075Y-102745770D01*
X72542165Y-102739280D01*
X72517017Y-102730282D01*
X72492872Y-102718862D01*
X72469962Y-102705131D01*
X72448508Y-102689220D01*
X72428718Y-102671282D01*
X72410780Y-102651492D01*
X72394869Y-102630038D01*
X72381138Y-102607128D01*
X72369718Y-102582983D01*
X72360720Y-102557835D01*
X72354230Y-102531925D01*
X72350311Y-102505505D01*
X72349000Y-102478827D01*
X72349000Y-101521173D01*
X72350311Y-101494495D01*
X72354230Y-101468075D01*
X72360720Y-101442165D01*
X72369718Y-101417017D01*
X72381138Y-101392872D01*
X72394869Y-101369962D01*
X72410780Y-101348508D01*
X72428718Y-101328718D01*
X72448508Y-101310780D01*
X72469962Y-101294869D01*
X72492872Y-101281138D01*
X72517017Y-101269718D01*
X72542165Y-101260720D01*
X72568075Y-101254230D01*
X72594495Y-101250311D01*
X72621173Y-101249000D01*
X73328827Y-101249000D01*
X73355505Y-101250311D01*
X73355505Y-101250311D01*
G37*
D12*
X72975000Y-102000000D03*
D10*
G36*
X75405505Y-101250311D02*
G01*
X75431925Y-101254230D01*
X75457835Y-101260720D01*
X75482983Y-101269718D01*
X75507128Y-101281138D01*
X75530038Y-101294869D01*
X75551492Y-101310780D01*
X75571282Y-101328718D01*
X75589220Y-101348508D01*
X75605131Y-101369962D01*
X75618862Y-101392872D01*
X75630282Y-101417017D01*
X75639280Y-101442165D01*
X75645770Y-101468075D01*
X75649689Y-101494495D01*
X75651000Y-101521173D01*
X75651000Y-102478827D01*
X75649689Y-102505505D01*
X75645770Y-102531925D01*
X75639280Y-102557835D01*
X75630282Y-102582983D01*
X75618862Y-102607128D01*
X75605131Y-102630038D01*
X75589220Y-102651492D01*
X75571282Y-102671282D01*
X75551492Y-102689220D01*
X75530038Y-102705131D01*
X75507128Y-102718862D01*
X75482983Y-102730282D01*
X75457835Y-102739280D01*
X75431925Y-102745770D01*
X75405505Y-102749689D01*
X75378827Y-102751000D01*
X74671173Y-102751000D01*
X74644495Y-102749689D01*
X74618075Y-102745770D01*
X74592165Y-102739280D01*
X74567017Y-102730282D01*
X74542872Y-102718862D01*
X74519962Y-102705131D01*
X74498508Y-102689220D01*
X74478718Y-102671282D01*
X74460780Y-102651492D01*
X74444869Y-102630038D01*
X74431138Y-102607128D01*
X74419718Y-102582983D01*
X74410720Y-102557835D01*
X74404230Y-102531925D01*
X74400311Y-102505505D01*
X74399000Y-102478827D01*
X74399000Y-101521173D01*
X74400311Y-101494495D01*
X74404230Y-101468075D01*
X74410720Y-101442165D01*
X74419718Y-101417017D01*
X74431138Y-101392872D01*
X74444869Y-101369962D01*
X74460780Y-101348508D01*
X74478718Y-101328718D01*
X74498508Y-101310780D01*
X74519962Y-101294869D01*
X74542872Y-101281138D01*
X74567017Y-101269718D01*
X74592165Y-101260720D01*
X74618075Y-101254230D01*
X74644495Y-101250311D01*
X74671173Y-101249000D01*
X75378827Y-101249000D01*
X75405505Y-101250311D01*
X75405505Y-101250311D01*
G37*
D12*
X75025000Y-102000000D03*
D10*
G36*
X114355505Y-68250311D02*
G01*
X114381925Y-68254230D01*
X114407835Y-68260720D01*
X114432983Y-68269718D01*
X114457128Y-68281138D01*
X114480038Y-68294869D01*
X114501492Y-68310780D01*
X114521282Y-68328718D01*
X114539220Y-68348508D01*
X114555131Y-68369962D01*
X114568862Y-68392872D01*
X114580282Y-68417017D01*
X114589280Y-68442165D01*
X114595770Y-68468075D01*
X114599689Y-68494495D01*
X114601000Y-68521173D01*
X114601000Y-69478827D01*
X114599689Y-69505505D01*
X114595770Y-69531925D01*
X114589280Y-69557835D01*
X114580282Y-69582983D01*
X114568862Y-69607128D01*
X114555131Y-69630038D01*
X114539220Y-69651492D01*
X114521282Y-69671282D01*
X114501492Y-69689220D01*
X114480038Y-69705131D01*
X114457128Y-69718862D01*
X114432983Y-69730282D01*
X114407835Y-69739280D01*
X114381925Y-69745770D01*
X114355505Y-69749689D01*
X114328827Y-69751000D01*
X113621173Y-69751000D01*
X113594495Y-69749689D01*
X113568075Y-69745770D01*
X113542165Y-69739280D01*
X113517017Y-69730282D01*
X113492872Y-69718862D01*
X113469962Y-69705131D01*
X113448508Y-69689220D01*
X113428718Y-69671282D01*
X113410780Y-69651492D01*
X113394869Y-69630038D01*
X113381138Y-69607128D01*
X113369718Y-69582983D01*
X113360720Y-69557835D01*
X113354230Y-69531925D01*
X113350311Y-69505505D01*
X113349000Y-69478827D01*
X113349000Y-68521173D01*
X113350311Y-68494495D01*
X113354230Y-68468075D01*
X113360720Y-68442165D01*
X113369718Y-68417017D01*
X113381138Y-68392872D01*
X113394869Y-68369962D01*
X113410780Y-68348508D01*
X113428718Y-68328718D01*
X113448508Y-68310780D01*
X113469962Y-68294869D01*
X113492872Y-68281138D01*
X113517017Y-68269718D01*
X113542165Y-68260720D01*
X113568075Y-68254230D01*
X113594495Y-68250311D01*
X113621173Y-68249000D01*
X114328827Y-68249000D01*
X114355505Y-68250311D01*
X114355505Y-68250311D01*
G37*
D12*
X113975000Y-69000000D03*
D10*
G36*
X116405505Y-68250311D02*
G01*
X116431925Y-68254230D01*
X116457835Y-68260720D01*
X116482983Y-68269718D01*
X116507128Y-68281138D01*
X116530038Y-68294869D01*
X116551492Y-68310780D01*
X116571282Y-68328718D01*
X116589220Y-68348508D01*
X116605131Y-68369962D01*
X116618862Y-68392872D01*
X116630282Y-68417017D01*
X116639280Y-68442165D01*
X116645770Y-68468075D01*
X116649689Y-68494495D01*
X116651000Y-68521173D01*
X116651000Y-69478827D01*
X116649689Y-69505505D01*
X116645770Y-69531925D01*
X116639280Y-69557835D01*
X116630282Y-69582983D01*
X116618862Y-69607128D01*
X116605131Y-69630038D01*
X116589220Y-69651492D01*
X116571282Y-69671282D01*
X116551492Y-69689220D01*
X116530038Y-69705131D01*
X116507128Y-69718862D01*
X116482983Y-69730282D01*
X116457835Y-69739280D01*
X116431925Y-69745770D01*
X116405505Y-69749689D01*
X116378827Y-69751000D01*
X115671173Y-69751000D01*
X115644495Y-69749689D01*
X115618075Y-69745770D01*
X115592165Y-69739280D01*
X115567017Y-69730282D01*
X115542872Y-69718862D01*
X115519962Y-69705131D01*
X115498508Y-69689220D01*
X115478718Y-69671282D01*
X115460780Y-69651492D01*
X115444869Y-69630038D01*
X115431138Y-69607128D01*
X115419718Y-69582983D01*
X115410720Y-69557835D01*
X115404230Y-69531925D01*
X115400311Y-69505505D01*
X115399000Y-69478827D01*
X115399000Y-68521173D01*
X115400311Y-68494495D01*
X115404230Y-68468075D01*
X115410720Y-68442165D01*
X115419718Y-68417017D01*
X115431138Y-68392872D01*
X115444869Y-68369962D01*
X115460780Y-68348508D01*
X115478718Y-68328718D01*
X115498508Y-68310780D01*
X115519962Y-68294869D01*
X115542872Y-68281138D01*
X115567017Y-68269718D01*
X115592165Y-68260720D01*
X115618075Y-68254230D01*
X115644495Y-68250311D01*
X115671173Y-68249000D01*
X116378827Y-68249000D01*
X116405505Y-68250311D01*
X116405505Y-68250311D01*
G37*
D12*
X116025000Y-69000000D03*
D10*
G36*
X114355505Y-72250311D02*
G01*
X114381925Y-72254230D01*
X114407835Y-72260720D01*
X114432983Y-72269718D01*
X114457128Y-72281138D01*
X114480038Y-72294869D01*
X114501492Y-72310780D01*
X114521282Y-72328718D01*
X114539220Y-72348508D01*
X114555131Y-72369962D01*
X114568862Y-72392872D01*
X114580282Y-72417017D01*
X114589280Y-72442165D01*
X114595770Y-72468075D01*
X114599689Y-72494495D01*
X114601000Y-72521173D01*
X114601000Y-73478827D01*
X114599689Y-73505505D01*
X114595770Y-73531925D01*
X114589280Y-73557835D01*
X114580282Y-73582983D01*
X114568862Y-73607128D01*
X114555131Y-73630038D01*
X114539220Y-73651492D01*
X114521282Y-73671282D01*
X114501492Y-73689220D01*
X114480038Y-73705131D01*
X114457128Y-73718862D01*
X114432983Y-73730282D01*
X114407835Y-73739280D01*
X114381925Y-73745770D01*
X114355505Y-73749689D01*
X114328827Y-73751000D01*
X113621173Y-73751000D01*
X113594495Y-73749689D01*
X113568075Y-73745770D01*
X113542165Y-73739280D01*
X113517017Y-73730282D01*
X113492872Y-73718862D01*
X113469962Y-73705131D01*
X113448508Y-73689220D01*
X113428718Y-73671282D01*
X113410780Y-73651492D01*
X113394869Y-73630038D01*
X113381138Y-73607128D01*
X113369718Y-73582983D01*
X113360720Y-73557835D01*
X113354230Y-73531925D01*
X113350311Y-73505505D01*
X113349000Y-73478827D01*
X113349000Y-72521173D01*
X113350311Y-72494495D01*
X113354230Y-72468075D01*
X113360720Y-72442165D01*
X113369718Y-72417017D01*
X113381138Y-72392872D01*
X113394869Y-72369962D01*
X113410780Y-72348508D01*
X113428718Y-72328718D01*
X113448508Y-72310780D01*
X113469962Y-72294869D01*
X113492872Y-72281138D01*
X113517017Y-72269718D01*
X113542165Y-72260720D01*
X113568075Y-72254230D01*
X113594495Y-72250311D01*
X113621173Y-72249000D01*
X114328827Y-72249000D01*
X114355505Y-72250311D01*
X114355505Y-72250311D01*
G37*
D12*
X113975000Y-73000000D03*
D10*
G36*
X116405505Y-72250311D02*
G01*
X116431925Y-72254230D01*
X116457835Y-72260720D01*
X116482983Y-72269718D01*
X116507128Y-72281138D01*
X116530038Y-72294869D01*
X116551492Y-72310780D01*
X116571282Y-72328718D01*
X116589220Y-72348508D01*
X116605131Y-72369962D01*
X116618862Y-72392872D01*
X116630282Y-72417017D01*
X116639280Y-72442165D01*
X116645770Y-72468075D01*
X116649689Y-72494495D01*
X116651000Y-72521173D01*
X116651000Y-73478827D01*
X116649689Y-73505505D01*
X116645770Y-73531925D01*
X116639280Y-73557835D01*
X116630282Y-73582983D01*
X116618862Y-73607128D01*
X116605131Y-73630038D01*
X116589220Y-73651492D01*
X116571282Y-73671282D01*
X116551492Y-73689220D01*
X116530038Y-73705131D01*
X116507128Y-73718862D01*
X116482983Y-73730282D01*
X116457835Y-73739280D01*
X116431925Y-73745770D01*
X116405505Y-73749689D01*
X116378827Y-73751000D01*
X115671173Y-73751000D01*
X115644495Y-73749689D01*
X115618075Y-73745770D01*
X115592165Y-73739280D01*
X115567017Y-73730282D01*
X115542872Y-73718862D01*
X115519962Y-73705131D01*
X115498508Y-73689220D01*
X115478718Y-73671282D01*
X115460780Y-73651492D01*
X115444869Y-73630038D01*
X115431138Y-73607128D01*
X115419718Y-73582983D01*
X115410720Y-73557835D01*
X115404230Y-73531925D01*
X115400311Y-73505505D01*
X115399000Y-73478827D01*
X115399000Y-72521173D01*
X115400311Y-72494495D01*
X115404230Y-72468075D01*
X115410720Y-72442165D01*
X115419718Y-72417017D01*
X115431138Y-72392872D01*
X115444869Y-72369962D01*
X115460780Y-72348508D01*
X115478718Y-72328718D01*
X115498508Y-72310780D01*
X115519962Y-72294869D01*
X115542872Y-72281138D01*
X115567017Y-72269718D01*
X115592165Y-72260720D01*
X115618075Y-72254230D01*
X115644495Y-72250311D01*
X115671173Y-72249000D01*
X116378827Y-72249000D01*
X116405505Y-72250311D01*
X116405505Y-72250311D01*
G37*
D12*
X116025000Y-73000000D03*
D10*
G36*
X116405505Y-76250311D02*
G01*
X116431925Y-76254230D01*
X116457835Y-76260720D01*
X116482983Y-76269718D01*
X116507128Y-76281138D01*
X116530038Y-76294869D01*
X116551492Y-76310780D01*
X116571282Y-76328718D01*
X116589220Y-76348508D01*
X116605131Y-76369962D01*
X116618862Y-76392872D01*
X116630282Y-76417017D01*
X116639280Y-76442165D01*
X116645770Y-76468075D01*
X116649689Y-76494495D01*
X116651000Y-76521173D01*
X116651000Y-77478827D01*
X116649689Y-77505505D01*
X116645770Y-77531925D01*
X116639280Y-77557835D01*
X116630282Y-77582983D01*
X116618862Y-77607128D01*
X116605131Y-77630038D01*
X116589220Y-77651492D01*
X116571282Y-77671282D01*
X116551492Y-77689220D01*
X116530038Y-77705131D01*
X116507128Y-77718862D01*
X116482983Y-77730282D01*
X116457835Y-77739280D01*
X116431925Y-77745770D01*
X116405505Y-77749689D01*
X116378827Y-77751000D01*
X115671173Y-77751000D01*
X115644495Y-77749689D01*
X115618075Y-77745770D01*
X115592165Y-77739280D01*
X115567017Y-77730282D01*
X115542872Y-77718862D01*
X115519962Y-77705131D01*
X115498508Y-77689220D01*
X115478718Y-77671282D01*
X115460780Y-77651492D01*
X115444869Y-77630038D01*
X115431138Y-77607128D01*
X115419718Y-77582983D01*
X115410720Y-77557835D01*
X115404230Y-77531925D01*
X115400311Y-77505505D01*
X115399000Y-77478827D01*
X115399000Y-76521173D01*
X115400311Y-76494495D01*
X115404230Y-76468075D01*
X115410720Y-76442165D01*
X115419718Y-76417017D01*
X115431138Y-76392872D01*
X115444869Y-76369962D01*
X115460780Y-76348508D01*
X115478718Y-76328718D01*
X115498508Y-76310780D01*
X115519962Y-76294869D01*
X115542872Y-76281138D01*
X115567017Y-76269718D01*
X115592165Y-76260720D01*
X115618075Y-76254230D01*
X115644495Y-76250311D01*
X115671173Y-76249000D01*
X116378827Y-76249000D01*
X116405505Y-76250311D01*
X116405505Y-76250311D01*
G37*
D12*
X116025000Y-77000000D03*
D10*
G36*
X114355505Y-76250311D02*
G01*
X114381925Y-76254230D01*
X114407835Y-76260720D01*
X114432983Y-76269718D01*
X114457128Y-76281138D01*
X114480038Y-76294869D01*
X114501492Y-76310780D01*
X114521282Y-76328718D01*
X114539220Y-76348508D01*
X114555131Y-76369962D01*
X114568862Y-76392872D01*
X114580282Y-76417017D01*
X114589280Y-76442165D01*
X114595770Y-76468075D01*
X114599689Y-76494495D01*
X114601000Y-76521173D01*
X114601000Y-77478827D01*
X114599689Y-77505505D01*
X114595770Y-77531925D01*
X114589280Y-77557835D01*
X114580282Y-77582983D01*
X114568862Y-77607128D01*
X114555131Y-77630038D01*
X114539220Y-77651492D01*
X114521282Y-77671282D01*
X114501492Y-77689220D01*
X114480038Y-77705131D01*
X114457128Y-77718862D01*
X114432983Y-77730282D01*
X114407835Y-77739280D01*
X114381925Y-77745770D01*
X114355505Y-77749689D01*
X114328827Y-77751000D01*
X113621173Y-77751000D01*
X113594495Y-77749689D01*
X113568075Y-77745770D01*
X113542165Y-77739280D01*
X113517017Y-77730282D01*
X113492872Y-77718862D01*
X113469962Y-77705131D01*
X113448508Y-77689220D01*
X113428718Y-77671282D01*
X113410780Y-77651492D01*
X113394869Y-77630038D01*
X113381138Y-77607128D01*
X113369718Y-77582983D01*
X113360720Y-77557835D01*
X113354230Y-77531925D01*
X113350311Y-77505505D01*
X113349000Y-77478827D01*
X113349000Y-76521173D01*
X113350311Y-76494495D01*
X113354230Y-76468075D01*
X113360720Y-76442165D01*
X113369718Y-76417017D01*
X113381138Y-76392872D01*
X113394869Y-76369962D01*
X113410780Y-76348508D01*
X113428718Y-76328718D01*
X113448508Y-76310780D01*
X113469962Y-76294869D01*
X113492872Y-76281138D01*
X113517017Y-76269718D01*
X113542165Y-76260720D01*
X113568075Y-76254230D01*
X113594495Y-76250311D01*
X113621173Y-76249000D01*
X114328827Y-76249000D01*
X114355505Y-76250311D01*
X114355505Y-76250311D01*
G37*
D12*
X113975000Y-77000000D03*
D10*
G36*
X147305505Y-99350311D02*
G01*
X147331925Y-99354230D01*
X147357835Y-99360720D01*
X147382983Y-99369718D01*
X147407128Y-99381138D01*
X147430038Y-99394869D01*
X147451492Y-99410780D01*
X147471282Y-99428718D01*
X147489220Y-99448508D01*
X147505131Y-99469962D01*
X147518862Y-99492872D01*
X147530282Y-99517017D01*
X147539280Y-99542165D01*
X147545770Y-99568075D01*
X147549689Y-99594495D01*
X147551000Y-99621173D01*
X147551000Y-100578827D01*
X147549689Y-100605505D01*
X147545770Y-100631925D01*
X147539280Y-100657835D01*
X147530282Y-100682983D01*
X147518862Y-100707128D01*
X147505131Y-100730038D01*
X147489220Y-100751492D01*
X147471282Y-100771282D01*
X147451492Y-100789220D01*
X147430038Y-100805131D01*
X147407128Y-100818862D01*
X147382983Y-100830282D01*
X147357835Y-100839280D01*
X147331925Y-100845770D01*
X147305505Y-100849689D01*
X147278827Y-100851000D01*
X146571173Y-100851000D01*
X146544495Y-100849689D01*
X146518075Y-100845770D01*
X146492165Y-100839280D01*
X146467017Y-100830282D01*
X146442872Y-100818862D01*
X146419962Y-100805131D01*
X146398508Y-100789220D01*
X146378718Y-100771282D01*
X146360780Y-100751492D01*
X146344869Y-100730038D01*
X146331138Y-100707128D01*
X146319718Y-100682983D01*
X146310720Y-100657835D01*
X146304230Y-100631925D01*
X146300311Y-100605505D01*
X146299000Y-100578827D01*
X146299000Y-99621173D01*
X146300311Y-99594495D01*
X146304230Y-99568075D01*
X146310720Y-99542165D01*
X146319718Y-99517017D01*
X146331138Y-99492872D01*
X146344869Y-99469962D01*
X146360780Y-99448508D01*
X146378718Y-99428718D01*
X146398508Y-99410780D01*
X146419962Y-99394869D01*
X146442872Y-99381138D01*
X146467017Y-99369718D01*
X146492165Y-99360720D01*
X146518075Y-99354230D01*
X146544495Y-99350311D01*
X146571173Y-99349000D01*
X147278827Y-99349000D01*
X147305505Y-99350311D01*
X147305505Y-99350311D01*
G37*
D12*
X146925000Y-100100000D03*
D10*
G36*
X145255505Y-99350311D02*
G01*
X145281925Y-99354230D01*
X145307835Y-99360720D01*
X145332983Y-99369718D01*
X145357128Y-99381138D01*
X145380038Y-99394869D01*
X145401492Y-99410780D01*
X145421282Y-99428718D01*
X145439220Y-99448508D01*
X145455131Y-99469962D01*
X145468862Y-99492872D01*
X145480282Y-99517017D01*
X145489280Y-99542165D01*
X145495770Y-99568075D01*
X145499689Y-99594495D01*
X145501000Y-99621173D01*
X145501000Y-100578827D01*
X145499689Y-100605505D01*
X145495770Y-100631925D01*
X145489280Y-100657835D01*
X145480282Y-100682983D01*
X145468862Y-100707128D01*
X145455131Y-100730038D01*
X145439220Y-100751492D01*
X145421282Y-100771282D01*
X145401492Y-100789220D01*
X145380038Y-100805131D01*
X145357128Y-100818862D01*
X145332983Y-100830282D01*
X145307835Y-100839280D01*
X145281925Y-100845770D01*
X145255505Y-100849689D01*
X145228827Y-100851000D01*
X144521173Y-100851000D01*
X144494495Y-100849689D01*
X144468075Y-100845770D01*
X144442165Y-100839280D01*
X144417017Y-100830282D01*
X144392872Y-100818862D01*
X144369962Y-100805131D01*
X144348508Y-100789220D01*
X144328718Y-100771282D01*
X144310780Y-100751492D01*
X144294869Y-100730038D01*
X144281138Y-100707128D01*
X144269718Y-100682983D01*
X144260720Y-100657835D01*
X144254230Y-100631925D01*
X144250311Y-100605505D01*
X144249000Y-100578827D01*
X144249000Y-99621173D01*
X144250311Y-99594495D01*
X144254230Y-99568075D01*
X144260720Y-99542165D01*
X144269718Y-99517017D01*
X144281138Y-99492872D01*
X144294869Y-99469962D01*
X144310780Y-99448508D01*
X144328718Y-99428718D01*
X144348508Y-99410780D01*
X144369962Y-99394869D01*
X144392872Y-99381138D01*
X144417017Y-99369718D01*
X144442165Y-99360720D01*
X144468075Y-99354230D01*
X144494495Y-99350311D01*
X144521173Y-99349000D01*
X145228827Y-99349000D01*
X145255505Y-99350311D01*
X145255505Y-99350311D01*
G37*
D12*
X144875000Y-100100000D03*
D10*
G36*
X123905505Y-108250311D02*
G01*
X123931925Y-108254230D01*
X123957835Y-108260720D01*
X123982983Y-108269718D01*
X124007128Y-108281138D01*
X124030038Y-108294869D01*
X124051492Y-108310780D01*
X124071282Y-108328718D01*
X124089220Y-108348508D01*
X124105131Y-108369962D01*
X124118862Y-108392872D01*
X124130282Y-108417017D01*
X124139280Y-108442165D01*
X124145770Y-108468075D01*
X124149689Y-108494495D01*
X124151000Y-108521173D01*
X124151000Y-109478827D01*
X124149689Y-109505505D01*
X124145770Y-109531925D01*
X124139280Y-109557835D01*
X124130282Y-109582983D01*
X124118862Y-109607128D01*
X124105131Y-109630038D01*
X124089220Y-109651492D01*
X124071282Y-109671282D01*
X124051492Y-109689220D01*
X124030038Y-109705131D01*
X124007128Y-109718862D01*
X123982983Y-109730282D01*
X123957835Y-109739280D01*
X123931925Y-109745770D01*
X123905505Y-109749689D01*
X123878827Y-109751000D01*
X123171173Y-109751000D01*
X123144495Y-109749689D01*
X123118075Y-109745770D01*
X123092165Y-109739280D01*
X123067017Y-109730282D01*
X123042872Y-109718862D01*
X123019962Y-109705131D01*
X122998508Y-109689220D01*
X122978718Y-109671282D01*
X122960780Y-109651492D01*
X122944869Y-109630038D01*
X122931138Y-109607128D01*
X122919718Y-109582983D01*
X122910720Y-109557835D01*
X122904230Y-109531925D01*
X122900311Y-109505505D01*
X122899000Y-109478827D01*
X122899000Y-108521173D01*
X122900311Y-108494495D01*
X122904230Y-108468075D01*
X122910720Y-108442165D01*
X122919718Y-108417017D01*
X122931138Y-108392872D01*
X122944869Y-108369962D01*
X122960780Y-108348508D01*
X122978718Y-108328718D01*
X122998508Y-108310780D01*
X123019962Y-108294869D01*
X123042872Y-108281138D01*
X123067017Y-108269718D01*
X123092165Y-108260720D01*
X123118075Y-108254230D01*
X123144495Y-108250311D01*
X123171173Y-108249000D01*
X123878827Y-108249000D01*
X123905505Y-108250311D01*
X123905505Y-108250311D01*
G37*
D12*
X123525000Y-109000000D03*
D10*
G36*
X121855505Y-108250311D02*
G01*
X121881925Y-108254230D01*
X121907835Y-108260720D01*
X121932983Y-108269718D01*
X121957128Y-108281138D01*
X121980038Y-108294869D01*
X122001492Y-108310780D01*
X122021282Y-108328718D01*
X122039220Y-108348508D01*
X122055131Y-108369962D01*
X122068862Y-108392872D01*
X122080282Y-108417017D01*
X122089280Y-108442165D01*
X122095770Y-108468075D01*
X122099689Y-108494495D01*
X122101000Y-108521173D01*
X122101000Y-109478827D01*
X122099689Y-109505505D01*
X122095770Y-109531925D01*
X122089280Y-109557835D01*
X122080282Y-109582983D01*
X122068862Y-109607128D01*
X122055131Y-109630038D01*
X122039220Y-109651492D01*
X122021282Y-109671282D01*
X122001492Y-109689220D01*
X121980038Y-109705131D01*
X121957128Y-109718862D01*
X121932983Y-109730282D01*
X121907835Y-109739280D01*
X121881925Y-109745770D01*
X121855505Y-109749689D01*
X121828827Y-109751000D01*
X121121173Y-109751000D01*
X121094495Y-109749689D01*
X121068075Y-109745770D01*
X121042165Y-109739280D01*
X121017017Y-109730282D01*
X120992872Y-109718862D01*
X120969962Y-109705131D01*
X120948508Y-109689220D01*
X120928718Y-109671282D01*
X120910780Y-109651492D01*
X120894869Y-109630038D01*
X120881138Y-109607128D01*
X120869718Y-109582983D01*
X120860720Y-109557835D01*
X120854230Y-109531925D01*
X120850311Y-109505505D01*
X120849000Y-109478827D01*
X120849000Y-108521173D01*
X120850311Y-108494495D01*
X120854230Y-108468075D01*
X120860720Y-108442165D01*
X120869718Y-108417017D01*
X120881138Y-108392872D01*
X120894869Y-108369962D01*
X120910780Y-108348508D01*
X120928718Y-108328718D01*
X120948508Y-108310780D01*
X120969962Y-108294869D01*
X120992872Y-108281138D01*
X121017017Y-108269718D01*
X121042165Y-108260720D01*
X121068075Y-108254230D01*
X121094495Y-108250311D01*
X121121173Y-108249000D01*
X121828827Y-108249000D01*
X121855505Y-108250311D01*
X121855505Y-108250311D01*
G37*
D12*
X121475000Y-109000000D03*
D10*
G36*
X139355505Y-99350311D02*
G01*
X139381925Y-99354230D01*
X139407835Y-99360720D01*
X139432983Y-99369718D01*
X139457128Y-99381138D01*
X139480038Y-99394869D01*
X139501492Y-99410780D01*
X139521282Y-99428718D01*
X139539220Y-99448508D01*
X139555131Y-99469962D01*
X139568862Y-99492872D01*
X139580282Y-99517017D01*
X139589280Y-99542165D01*
X139595770Y-99568075D01*
X139599689Y-99594495D01*
X139601000Y-99621173D01*
X139601000Y-100578827D01*
X139599689Y-100605505D01*
X139595770Y-100631925D01*
X139589280Y-100657835D01*
X139580282Y-100682983D01*
X139568862Y-100707128D01*
X139555131Y-100730038D01*
X139539220Y-100751492D01*
X139521282Y-100771282D01*
X139501492Y-100789220D01*
X139480038Y-100805131D01*
X139457128Y-100818862D01*
X139432983Y-100830282D01*
X139407835Y-100839280D01*
X139381925Y-100845770D01*
X139355505Y-100849689D01*
X139328827Y-100851000D01*
X138621173Y-100851000D01*
X138594495Y-100849689D01*
X138568075Y-100845770D01*
X138542165Y-100839280D01*
X138517017Y-100830282D01*
X138492872Y-100818862D01*
X138469962Y-100805131D01*
X138448508Y-100789220D01*
X138428718Y-100771282D01*
X138410780Y-100751492D01*
X138394869Y-100730038D01*
X138381138Y-100707128D01*
X138369718Y-100682983D01*
X138360720Y-100657835D01*
X138354230Y-100631925D01*
X138350311Y-100605505D01*
X138349000Y-100578827D01*
X138349000Y-99621173D01*
X138350311Y-99594495D01*
X138354230Y-99568075D01*
X138360720Y-99542165D01*
X138369718Y-99517017D01*
X138381138Y-99492872D01*
X138394869Y-99469962D01*
X138410780Y-99448508D01*
X138428718Y-99428718D01*
X138448508Y-99410780D01*
X138469962Y-99394869D01*
X138492872Y-99381138D01*
X138517017Y-99369718D01*
X138542165Y-99360720D01*
X138568075Y-99354230D01*
X138594495Y-99350311D01*
X138621173Y-99349000D01*
X139328827Y-99349000D01*
X139355505Y-99350311D01*
X139355505Y-99350311D01*
G37*
D12*
X138975000Y-100100000D03*
D10*
G36*
X141405505Y-99350311D02*
G01*
X141431925Y-99354230D01*
X141457835Y-99360720D01*
X141482983Y-99369718D01*
X141507128Y-99381138D01*
X141530038Y-99394869D01*
X141551492Y-99410780D01*
X141571282Y-99428718D01*
X141589220Y-99448508D01*
X141605131Y-99469962D01*
X141618862Y-99492872D01*
X141630282Y-99517017D01*
X141639280Y-99542165D01*
X141645770Y-99568075D01*
X141649689Y-99594495D01*
X141651000Y-99621173D01*
X141651000Y-100578827D01*
X141649689Y-100605505D01*
X141645770Y-100631925D01*
X141639280Y-100657835D01*
X141630282Y-100682983D01*
X141618862Y-100707128D01*
X141605131Y-100730038D01*
X141589220Y-100751492D01*
X141571282Y-100771282D01*
X141551492Y-100789220D01*
X141530038Y-100805131D01*
X141507128Y-100818862D01*
X141482983Y-100830282D01*
X141457835Y-100839280D01*
X141431925Y-100845770D01*
X141405505Y-100849689D01*
X141378827Y-100851000D01*
X140671173Y-100851000D01*
X140644495Y-100849689D01*
X140618075Y-100845770D01*
X140592165Y-100839280D01*
X140567017Y-100830282D01*
X140542872Y-100818862D01*
X140519962Y-100805131D01*
X140498508Y-100789220D01*
X140478718Y-100771282D01*
X140460780Y-100751492D01*
X140444869Y-100730038D01*
X140431138Y-100707128D01*
X140419718Y-100682983D01*
X140410720Y-100657835D01*
X140404230Y-100631925D01*
X140400311Y-100605505D01*
X140399000Y-100578827D01*
X140399000Y-99621173D01*
X140400311Y-99594495D01*
X140404230Y-99568075D01*
X140410720Y-99542165D01*
X140419718Y-99517017D01*
X140431138Y-99492872D01*
X140444869Y-99469962D01*
X140460780Y-99448508D01*
X140478718Y-99428718D01*
X140498508Y-99410780D01*
X140519962Y-99394869D01*
X140542872Y-99381138D01*
X140567017Y-99369718D01*
X140592165Y-99360720D01*
X140618075Y-99354230D01*
X140644495Y-99350311D01*
X140671173Y-99349000D01*
X141378827Y-99349000D01*
X141405505Y-99350311D01*
X141405505Y-99350311D01*
G37*
D12*
X141025000Y-100100000D03*
D10*
G36*
X121855505Y-99250311D02*
G01*
X121881925Y-99254230D01*
X121907835Y-99260720D01*
X121932983Y-99269718D01*
X121957128Y-99281138D01*
X121980038Y-99294869D01*
X122001492Y-99310780D01*
X122021282Y-99328718D01*
X122039220Y-99348508D01*
X122055131Y-99369962D01*
X122068862Y-99392872D01*
X122080282Y-99417017D01*
X122089280Y-99442165D01*
X122095770Y-99468075D01*
X122099689Y-99494495D01*
X122101000Y-99521173D01*
X122101000Y-100478827D01*
X122099689Y-100505505D01*
X122095770Y-100531925D01*
X122089280Y-100557835D01*
X122080282Y-100582983D01*
X122068862Y-100607128D01*
X122055131Y-100630038D01*
X122039220Y-100651492D01*
X122021282Y-100671282D01*
X122001492Y-100689220D01*
X121980038Y-100705131D01*
X121957128Y-100718862D01*
X121932983Y-100730282D01*
X121907835Y-100739280D01*
X121881925Y-100745770D01*
X121855505Y-100749689D01*
X121828827Y-100751000D01*
X121121173Y-100751000D01*
X121094495Y-100749689D01*
X121068075Y-100745770D01*
X121042165Y-100739280D01*
X121017017Y-100730282D01*
X120992872Y-100718862D01*
X120969962Y-100705131D01*
X120948508Y-100689220D01*
X120928718Y-100671282D01*
X120910780Y-100651492D01*
X120894869Y-100630038D01*
X120881138Y-100607128D01*
X120869718Y-100582983D01*
X120860720Y-100557835D01*
X120854230Y-100531925D01*
X120850311Y-100505505D01*
X120849000Y-100478827D01*
X120849000Y-99521173D01*
X120850311Y-99494495D01*
X120854230Y-99468075D01*
X120860720Y-99442165D01*
X120869718Y-99417017D01*
X120881138Y-99392872D01*
X120894869Y-99369962D01*
X120910780Y-99348508D01*
X120928718Y-99328718D01*
X120948508Y-99310780D01*
X120969962Y-99294869D01*
X120992872Y-99281138D01*
X121017017Y-99269718D01*
X121042165Y-99260720D01*
X121068075Y-99254230D01*
X121094495Y-99250311D01*
X121121173Y-99249000D01*
X121828827Y-99249000D01*
X121855505Y-99250311D01*
X121855505Y-99250311D01*
G37*
D12*
X121475000Y-100000000D03*
D10*
G36*
X123905505Y-99250311D02*
G01*
X123931925Y-99254230D01*
X123957835Y-99260720D01*
X123982983Y-99269718D01*
X124007128Y-99281138D01*
X124030038Y-99294869D01*
X124051492Y-99310780D01*
X124071282Y-99328718D01*
X124089220Y-99348508D01*
X124105131Y-99369962D01*
X124118862Y-99392872D01*
X124130282Y-99417017D01*
X124139280Y-99442165D01*
X124145770Y-99468075D01*
X124149689Y-99494495D01*
X124151000Y-99521173D01*
X124151000Y-100478827D01*
X124149689Y-100505505D01*
X124145770Y-100531925D01*
X124139280Y-100557835D01*
X124130282Y-100582983D01*
X124118862Y-100607128D01*
X124105131Y-100630038D01*
X124089220Y-100651492D01*
X124071282Y-100671282D01*
X124051492Y-100689220D01*
X124030038Y-100705131D01*
X124007128Y-100718862D01*
X123982983Y-100730282D01*
X123957835Y-100739280D01*
X123931925Y-100745770D01*
X123905505Y-100749689D01*
X123878827Y-100751000D01*
X123171173Y-100751000D01*
X123144495Y-100749689D01*
X123118075Y-100745770D01*
X123092165Y-100739280D01*
X123067017Y-100730282D01*
X123042872Y-100718862D01*
X123019962Y-100705131D01*
X122998508Y-100689220D01*
X122978718Y-100671282D01*
X122960780Y-100651492D01*
X122944869Y-100630038D01*
X122931138Y-100607128D01*
X122919718Y-100582983D01*
X122910720Y-100557835D01*
X122904230Y-100531925D01*
X122900311Y-100505505D01*
X122899000Y-100478827D01*
X122899000Y-99521173D01*
X122900311Y-99494495D01*
X122904230Y-99468075D01*
X122910720Y-99442165D01*
X122919718Y-99417017D01*
X122931138Y-99392872D01*
X122944869Y-99369962D01*
X122960780Y-99348508D01*
X122978718Y-99328718D01*
X122998508Y-99310780D01*
X123019962Y-99294869D01*
X123042872Y-99281138D01*
X123067017Y-99269718D01*
X123092165Y-99260720D01*
X123118075Y-99254230D01*
X123144495Y-99250311D01*
X123171173Y-99249000D01*
X123878827Y-99249000D01*
X123905505Y-99250311D01*
X123905505Y-99250311D01*
G37*
D12*
X123525000Y-100000000D03*
D10*
G36*
X128355505Y-95250311D02*
G01*
X128381925Y-95254230D01*
X128407835Y-95260720D01*
X128432983Y-95269718D01*
X128457128Y-95281138D01*
X128480038Y-95294869D01*
X128501492Y-95310780D01*
X128521282Y-95328718D01*
X128539220Y-95348508D01*
X128555131Y-95369962D01*
X128568862Y-95392872D01*
X128580282Y-95417017D01*
X128589280Y-95442165D01*
X128595770Y-95468075D01*
X128599689Y-95494495D01*
X128601000Y-95521173D01*
X128601000Y-96478827D01*
X128599689Y-96505505D01*
X128595770Y-96531925D01*
X128589280Y-96557835D01*
X128580282Y-96582983D01*
X128568862Y-96607128D01*
X128555131Y-96630038D01*
X128539220Y-96651492D01*
X128521282Y-96671282D01*
X128501492Y-96689220D01*
X128480038Y-96705131D01*
X128457128Y-96718862D01*
X128432983Y-96730282D01*
X128407835Y-96739280D01*
X128381925Y-96745770D01*
X128355505Y-96749689D01*
X128328827Y-96751000D01*
X127621173Y-96751000D01*
X127594495Y-96749689D01*
X127568075Y-96745770D01*
X127542165Y-96739280D01*
X127517017Y-96730282D01*
X127492872Y-96718862D01*
X127469962Y-96705131D01*
X127448508Y-96689220D01*
X127428718Y-96671282D01*
X127410780Y-96651492D01*
X127394869Y-96630038D01*
X127381138Y-96607128D01*
X127369718Y-96582983D01*
X127360720Y-96557835D01*
X127354230Y-96531925D01*
X127350311Y-96505505D01*
X127349000Y-96478827D01*
X127349000Y-95521173D01*
X127350311Y-95494495D01*
X127354230Y-95468075D01*
X127360720Y-95442165D01*
X127369718Y-95417017D01*
X127381138Y-95392872D01*
X127394869Y-95369962D01*
X127410780Y-95348508D01*
X127428718Y-95328718D01*
X127448508Y-95310780D01*
X127469962Y-95294869D01*
X127492872Y-95281138D01*
X127517017Y-95269718D01*
X127542165Y-95260720D01*
X127568075Y-95254230D01*
X127594495Y-95250311D01*
X127621173Y-95249000D01*
X128328827Y-95249000D01*
X128355505Y-95250311D01*
X128355505Y-95250311D01*
G37*
D12*
X127975000Y-96000000D03*
D10*
G36*
X130405505Y-95250311D02*
G01*
X130431925Y-95254230D01*
X130457835Y-95260720D01*
X130482983Y-95269718D01*
X130507128Y-95281138D01*
X130530038Y-95294869D01*
X130551492Y-95310780D01*
X130571282Y-95328718D01*
X130589220Y-95348508D01*
X130605131Y-95369962D01*
X130618862Y-95392872D01*
X130630282Y-95417017D01*
X130639280Y-95442165D01*
X130645770Y-95468075D01*
X130649689Y-95494495D01*
X130651000Y-95521173D01*
X130651000Y-96478827D01*
X130649689Y-96505505D01*
X130645770Y-96531925D01*
X130639280Y-96557835D01*
X130630282Y-96582983D01*
X130618862Y-96607128D01*
X130605131Y-96630038D01*
X130589220Y-96651492D01*
X130571282Y-96671282D01*
X130551492Y-96689220D01*
X130530038Y-96705131D01*
X130507128Y-96718862D01*
X130482983Y-96730282D01*
X130457835Y-96739280D01*
X130431925Y-96745770D01*
X130405505Y-96749689D01*
X130378827Y-96751000D01*
X129671173Y-96751000D01*
X129644495Y-96749689D01*
X129618075Y-96745770D01*
X129592165Y-96739280D01*
X129567017Y-96730282D01*
X129542872Y-96718862D01*
X129519962Y-96705131D01*
X129498508Y-96689220D01*
X129478718Y-96671282D01*
X129460780Y-96651492D01*
X129444869Y-96630038D01*
X129431138Y-96607128D01*
X129419718Y-96582983D01*
X129410720Y-96557835D01*
X129404230Y-96531925D01*
X129400311Y-96505505D01*
X129399000Y-96478827D01*
X129399000Y-95521173D01*
X129400311Y-95494495D01*
X129404230Y-95468075D01*
X129410720Y-95442165D01*
X129419718Y-95417017D01*
X129431138Y-95392872D01*
X129444869Y-95369962D01*
X129460780Y-95348508D01*
X129478718Y-95328718D01*
X129498508Y-95310780D01*
X129519962Y-95294869D01*
X129542872Y-95281138D01*
X129567017Y-95269718D01*
X129592165Y-95260720D01*
X129618075Y-95254230D01*
X129644495Y-95250311D01*
X129671173Y-95249000D01*
X130378827Y-95249000D01*
X130405505Y-95250311D01*
X130405505Y-95250311D01*
G37*
D12*
X130025000Y-96000000D03*
D10*
G36*
X130405505Y-99250311D02*
G01*
X130431925Y-99254230D01*
X130457835Y-99260720D01*
X130482983Y-99269718D01*
X130507128Y-99281138D01*
X130530038Y-99294869D01*
X130551492Y-99310780D01*
X130571282Y-99328718D01*
X130589220Y-99348508D01*
X130605131Y-99369962D01*
X130618862Y-99392872D01*
X130630282Y-99417017D01*
X130639280Y-99442165D01*
X130645770Y-99468075D01*
X130649689Y-99494495D01*
X130651000Y-99521173D01*
X130651000Y-100478827D01*
X130649689Y-100505505D01*
X130645770Y-100531925D01*
X130639280Y-100557835D01*
X130630282Y-100582983D01*
X130618862Y-100607128D01*
X130605131Y-100630038D01*
X130589220Y-100651492D01*
X130571282Y-100671282D01*
X130551492Y-100689220D01*
X130530038Y-100705131D01*
X130507128Y-100718862D01*
X130482983Y-100730282D01*
X130457835Y-100739280D01*
X130431925Y-100745770D01*
X130405505Y-100749689D01*
X130378827Y-100751000D01*
X129671173Y-100751000D01*
X129644495Y-100749689D01*
X129618075Y-100745770D01*
X129592165Y-100739280D01*
X129567017Y-100730282D01*
X129542872Y-100718862D01*
X129519962Y-100705131D01*
X129498508Y-100689220D01*
X129478718Y-100671282D01*
X129460780Y-100651492D01*
X129444869Y-100630038D01*
X129431138Y-100607128D01*
X129419718Y-100582983D01*
X129410720Y-100557835D01*
X129404230Y-100531925D01*
X129400311Y-100505505D01*
X129399000Y-100478827D01*
X129399000Y-99521173D01*
X129400311Y-99494495D01*
X129404230Y-99468075D01*
X129410720Y-99442165D01*
X129419718Y-99417017D01*
X129431138Y-99392872D01*
X129444869Y-99369962D01*
X129460780Y-99348508D01*
X129478718Y-99328718D01*
X129498508Y-99310780D01*
X129519962Y-99294869D01*
X129542872Y-99281138D01*
X129567017Y-99269718D01*
X129592165Y-99260720D01*
X129618075Y-99254230D01*
X129644495Y-99250311D01*
X129671173Y-99249000D01*
X130378827Y-99249000D01*
X130405505Y-99250311D01*
X130405505Y-99250311D01*
G37*
D12*
X130025000Y-100000000D03*
D10*
G36*
X128355505Y-99250311D02*
G01*
X128381925Y-99254230D01*
X128407835Y-99260720D01*
X128432983Y-99269718D01*
X128457128Y-99281138D01*
X128480038Y-99294869D01*
X128501492Y-99310780D01*
X128521282Y-99328718D01*
X128539220Y-99348508D01*
X128555131Y-99369962D01*
X128568862Y-99392872D01*
X128580282Y-99417017D01*
X128589280Y-99442165D01*
X128595770Y-99468075D01*
X128599689Y-99494495D01*
X128601000Y-99521173D01*
X128601000Y-100478827D01*
X128599689Y-100505505D01*
X128595770Y-100531925D01*
X128589280Y-100557835D01*
X128580282Y-100582983D01*
X128568862Y-100607128D01*
X128555131Y-100630038D01*
X128539220Y-100651492D01*
X128521282Y-100671282D01*
X128501492Y-100689220D01*
X128480038Y-100705131D01*
X128457128Y-100718862D01*
X128432983Y-100730282D01*
X128407835Y-100739280D01*
X128381925Y-100745770D01*
X128355505Y-100749689D01*
X128328827Y-100751000D01*
X127621173Y-100751000D01*
X127594495Y-100749689D01*
X127568075Y-100745770D01*
X127542165Y-100739280D01*
X127517017Y-100730282D01*
X127492872Y-100718862D01*
X127469962Y-100705131D01*
X127448508Y-100689220D01*
X127428718Y-100671282D01*
X127410780Y-100651492D01*
X127394869Y-100630038D01*
X127381138Y-100607128D01*
X127369718Y-100582983D01*
X127360720Y-100557835D01*
X127354230Y-100531925D01*
X127350311Y-100505505D01*
X127349000Y-100478827D01*
X127349000Y-99521173D01*
X127350311Y-99494495D01*
X127354230Y-99468075D01*
X127360720Y-99442165D01*
X127369718Y-99417017D01*
X127381138Y-99392872D01*
X127394869Y-99369962D01*
X127410780Y-99348508D01*
X127428718Y-99328718D01*
X127448508Y-99310780D01*
X127469962Y-99294869D01*
X127492872Y-99281138D01*
X127517017Y-99269718D01*
X127542165Y-99260720D01*
X127568075Y-99254230D01*
X127594495Y-99250311D01*
X127621173Y-99249000D01*
X128328827Y-99249000D01*
X128355505Y-99250311D01*
X128355505Y-99250311D01*
G37*
D12*
X127975000Y-100000000D03*
D10*
G36*
X128405505Y-82750311D02*
G01*
X128431925Y-82754230D01*
X128457835Y-82760720D01*
X128482983Y-82769718D01*
X128507128Y-82781138D01*
X128530038Y-82794869D01*
X128551492Y-82810780D01*
X128571282Y-82828718D01*
X128589220Y-82848508D01*
X128605131Y-82869962D01*
X128618862Y-82892872D01*
X128630282Y-82917017D01*
X128639280Y-82942165D01*
X128645770Y-82968075D01*
X128649689Y-82994495D01*
X128651000Y-83021173D01*
X128651000Y-83978827D01*
X128649689Y-84005505D01*
X128645770Y-84031925D01*
X128639280Y-84057835D01*
X128630282Y-84082983D01*
X128618862Y-84107128D01*
X128605131Y-84130038D01*
X128589220Y-84151492D01*
X128571282Y-84171282D01*
X128551492Y-84189220D01*
X128530038Y-84205131D01*
X128507128Y-84218862D01*
X128482983Y-84230282D01*
X128457835Y-84239280D01*
X128431925Y-84245770D01*
X128405505Y-84249689D01*
X128378827Y-84251000D01*
X127671173Y-84251000D01*
X127644495Y-84249689D01*
X127618075Y-84245770D01*
X127592165Y-84239280D01*
X127567017Y-84230282D01*
X127542872Y-84218862D01*
X127519962Y-84205131D01*
X127498508Y-84189220D01*
X127478718Y-84171282D01*
X127460780Y-84151492D01*
X127444869Y-84130038D01*
X127431138Y-84107128D01*
X127419718Y-84082983D01*
X127410720Y-84057835D01*
X127404230Y-84031925D01*
X127400311Y-84005505D01*
X127399000Y-83978827D01*
X127399000Y-83021173D01*
X127400311Y-82994495D01*
X127404230Y-82968075D01*
X127410720Y-82942165D01*
X127419718Y-82917017D01*
X127431138Y-82892872D01*
X127444869Y-82869962D01*
X127460780Y-82848508D01*
X127478718Y-82828718D01*
X127498508Y-82810780D01*
X127519962Y-82794869D01*
X127542872Y-82781138D01*
X127567017Y-82769718D01*
X127592165Y-82760720D01*
X127618075Y-82754230D01*
X127644495Y-82750311D01*
X127671173Y-82749000D01*
X128378827Y-82749000D01*
X128405505Y-82750311D01*
X128405505Y-82750311D01*
G37*
D12*
X128025000Y-83500000D03*
D10*
G36*
X126355505Y-82750311D02*
G01*
X126381925Y-82754230D01*
X126407835Y-82760720D01*
X126432983Y-82769718D01*
X126457128Y-82781138D01*
X126480038Y-82794869D01*
X126501492Y-82810780D01*
X126521282Y-82828718D01*
X126539220Y-82848508D01*
X126555131Y-82869962D01*
X126568862Y-82892872D01*
X126580282Y-82917017D01*
X126589280Y-82942165D01*
X126595770Y-82968075D01*
X126599689Y-82994495D01*
X126601000Y-83021173D01*
X126601000Y-83978827D01*
X126599689Y-84005505D01*
X126595770Y-84031925D01*
X126589280Y-84057835D01*
X126580282Y-84082983D01*
X126568862Y-84107128D01*
X126555131Y-84130038D01*
X126539220Y-84151492D01*
X126521282Y-84171282D01*
X126501492Y-84189220D01*
X126480038Y-84205131D01*
X126457128Y-84218862D01*
X126432983Y-84230282D01*
X126407835Y-84239280D01*
X126381925Y-84245770D01*
X126355505Y-84249689D01*
X126328827Y-84251000D01*
X125621173Y-84251000D01*
X125594495Y-84249689D01*
X125568075Y-84245770D01*
X125542165Y-84239280D01*
X125517017Y-84230282D01*
X125492872Y-84218862D01*
X125469962Y-84205131D01*
X125448508Y-84189220D01*
X125428718Y-84171282D01*
X125410780Y-84151492D01*
X125394869Y-84130038D01*
X125381138Y-84107128D01*
X125369718Y-84082983D01*
X125360720Y-84057835D01*
X125354230Y-84031925D01*
X125350311Y-84005505D01*
X125349000Y-83978827D01*
X125349000Y-83021173D01*
X125350311Y-82994495D01*
X125354230Y-82968075D01*
X125360720Y-82942165D01*
X125369718Y-82917017D01*
X125381138Y-82892872D01*
X125394869Y-82869962D01*
X125410780Y-82848508D01*
X125428718Y-82828718D01*
X125448508Y-82810780D01*
X125469962Y-82794869D01*
X125492872Y-82781138D01*
X125517017Y-82769718D01*
X125542165Y-82760720D01*
X125568075Y-82754230D01*
X125594495Y-82750311D01*
X125621173Y-82749000D01*
X126328827Y-82749000D01*
X126355505Y-82750311D01*
X126355505Y-82750311D01*
G37*
D12*
X125975000Y-83500000D03*
D10*
G36*
X122405505Y-78750311D02*
G01*
X122431925Y-78754230D01*
X122457835Y-78760720D01*
X122482983Y-78769718D01*
X122507128Y-78781138D01*
X122530038Y-78794869D01*
X122551492Y-78810780D01*
X122571282Y-78828718D01*
X122589220Y-78848508D01*
X122605131Y-78869962D01*
X122618862Y-78892872D01*
X122630282Y-78917017D01*
X122639280Y-78942165D01*
X122645770Y-78968075D01*
X122649689Y-78994495D01*
X122651000Y-79021173D01*
X122651000Y-79978827D01*
X122649689Y-80005505D01*
X122645770Y-80031925D01*
X122639280Y-80057835D01*
X122630282Y-80082983D01*
X122618862Y-80107128D01*
X122605131Y-80130038D01*
X122589220Y-80151492D01*
X122571282Y-80171282D01*
X122551492Y-80189220D01*
X122530038Y-80205131D01*
X122507128Y-80218862D01*
X122482983Y-80230282D01*
X122457835Y-80239280D01*
X122431925Y-80245770D01*
X122405505Y-80249689D01*
X122378827Y-80251000D01*
X121671173Y-80251000D01*
X121644495Y-80249689D01*
X121618075Y-80245770D01*
X121592165Y-80239280D01*
X121567017Y-80230282D01*
X121542872Y-80218862D01*
X121519962Y-80205131D01*
X121498508Y-80189220D01*
X121478718Y-80171282D01*
X121460780Y-80151492D01*
X121444869Y-80130038D01*
X121431138Y-80107128D01*
X121419718Y-80082983D01*
X121410720Y-80057835D01*
X121404230Y-80031925D01*
X121400311Y-80005505D01*
X121399000Y-79978827D01*
X121399000Y-79021173D01*
X121400311Y-78994495D01*
X121404230Y-78968075D01*
X121410720Y-78942165D01*
X121419718Y-78917017D01*
X121431138Y-78892872D01*
X121444869Y-78869962D01*
X121460780Y-78848508D01*
X121478718Y-78828718D01*
X121498508Y-78810780D01*
X121519962Y-78794869D01*
X121542872Y-78781138D01*
X121567017Y-78769718D01*
X121592165Y-78760720D01*
X121618075Y-78754230D01*
X121644495Y-78750311D01*
X121671173Y-78749000D01*
X122378827Y-78749000D01*
X122405505Y-78750311D01*
X122405505Y-78750311D01*
G37*
D12*
X122025000Y-79500000D03*
D10*
G36*
X120355505Y-78750311D02*
G01*
X120381925Y-78754230D01*
X120407835Y-78760720D01*
X120432983Y-78769718D01*
X120457128Y-78781138D01*
X120480038Y-78794869D01*
X120501492Y-78810780D01*
X120521282Y-78828718D01*
X120539220Y-78848508D01*
X120555131Y-78869962D01*
X120568862Y-78892872D01*
X120580282Y-78917017D01*
X120589280Y-78942165D01*
X120595770Y-78968075D01*
X120599689Y-78994495D01*
X120601000Y-79021173D01*
X120601000Y-79978827D01*
X120599689Y-80005505D01*
X120595770Y-80031925D01*
X120589280Y-80057835D01*
X120580282Y-80082983D01*
X120568862Y-80107128D01*
X120555131Y-80130038D01*
X120539220Y-80151492D01*
X120521282Y-80171282D01*
X120501492Y-80189220D01*
X120480038Y-80205131D01*
X120457128Y-80218862D01*
X120432983Y-80230282D01*
X120407835Y-80239280D01*
X120381925Y-80245770D01*
X120355505Y-80249689D01*
X120328827Y-80251000D01*
X119621173Y-80251000D01*
X119594495Y-80249689D01*
X119568075Y-80245770D01*
X119542165Y-80239280D01*
X119517017Y-80230282D01*
X119492872Y-80218862D01*
X119469962Y-80205131D01*
X119448508Y-80189220D01*
X119428718Y-80171282D01*
X119410780Y-80151492D01*
X119394869Y-80130038D01*
X119381138Y-80107128D01*
X119369718Y-80082983D01*
X119360720Y-80057835D01*
X119354230Y-80031925D01*
X119350311Y-80005505D01*
X119349000Y-79978827D01*
X119349000Y-79021173D01*
X119350311Y-78994495D01*
X119354230Y-78968075D01*
X119360720Y-78942165D01*
X119369718Y-78917017D01*
X119381138Y-78892872D01*
X119394869Y-78869962D01*
X119410780Y-78848508D01*
X119428718Y-78828718D01*
X119448508Y-78810780D01*
X119469962Y-78794869D01*
X119492872Y-78781138D01*
X119517017Y-78769718D01*
X119542165Y-78760720D01*
X119568075Y-78754230D01*
X119594495Y-78750311D01*
X119621173Y-78749000D01*
X120328827Y-78749000D01*
X120355505Y-78750311D01*
X120355505Y-78750311D01*
G37*
D12*
X119975000Y-79500000D03*
D10*
G36*
X128405505Y-78750311D02*
G01*
X128431925Y-78754230D01*
X128457835Y-78760720D01*
X128482983Y-78769718D01*
X128507128Y-78781138D01*
X128530038Y-78794869D01*
X128551492Y-78810780D01*
X128571282Y-78828718D01*
X128589220Y-78848508D01*
X128605131Y-78869962D01*
X128618862Y-78892872D01*
X128630282Y-78917017D01*
X128639280Y-78942165D01*
X128645770Y-78968075D01*
X128649689Y-78994495D01*
X128651000Y-79021173D01*
X128651000Y-79978827D01*
X128649689Y-80005505D01*
X128645770Y-80031925D01*
X128639280Y-80057835D01*
X128630282Y-80082983D01*
X128618862Y-80107128D01*
X128605131Y-80130038D01*
X128589220Y-80151492D01*
X128571282Y-80171282D01*
X128551492Y-80189220D01*
X128530038Y-80205131D01*
X128507128Y-80218862D01*
X128482983Y-80230282D01*
X128457835Y-80239280D01*
X128431925Y-80245770D01*
X128405505Y-80249689D01*
X128378827Y-80251000D01*
X127671173Y-80251000D01*
X127644495Y-80249689D01*
X127618075Y-80245770D01*
X127592165Y-80239280D01*
X127567017Y-80230282D01*
X127542872Y-80218862D01*
X127519962Y-80205131D01*
X127498508Y-80189220D01*
X127478718Y-80171282D01*
X127460780Y-80151492D01*
X127444869Y-80130038D01*
X127431138Y-80107128D01*
X127419718Y-80082983D01*
X127410720Y-80057835D01*
X127404230Y-80031925D01*
X127400311Y-80005505D01*
X127399000Y-79978827D01*
X127399000Y-79021173D01*
X127400311Y-78994495D01*
X127404230Y-78968075D01*
X127410720Y-78942165D01*
X127419718Y-78917017D01*
X127431138Y-78892872D01*
X127444869Y-78869962D01*
X127460780Y-78848508D01*
X127478718Y-78828718D01*
X127498508Y-78810780D01*
X127519962Y-78794869D01*
X127542872Y-78781138D01*
X127567017Y-78769718D01*
X127592165Y-78760720D01*
X127618075Y-78754230D01*
X127644495Y-78750311D01*
X127671173Y-78749000D01*
X128378827Y-78749000D01*
X128405505Y-78750311D01*
X128405505Y-78750311D01*
G37*
D12*
X128025000Y-79500000D03*
D10*
G36*
X126355505Y-78750311D02*
G01*
X126381925Y-78754230D01*
X126407835Y-78760720D01*
X126432983Y-78769718D01*
X126457128Y-78781138D01*
X126480038Y-78794869D01*
X126501492Y-78810780D01*
X126521282Y-78828718D01*
X126539220Y-78848508D01*
X126555131Y-78869962D01*
X126568862Y-78892872D01*
X126580282Y-78917017D01*
X126589280Y-78942165D01*
X126595770Y-78968075D01*
X126599689Y-78994495D01*
X126601000Y-79021173D01*
X126601000Y-79978827D01*
X126599689Y-80005505D01*
X126595770Y-80031925D01*
X126589280Y-80057835D01*
X126580282Y-80082983D01*
X126568862Y-80107128D01*
X126555131Y-80130038D01*
X126539220Y-80151492D01*
X126521282Y-80171282D01*
X126501492Y-80189220D01*
X126480038Y-80205131D01*
X126457128Y-80218862D01*
X126432983Y-80230282D01*
X126407835Y-80239280D01*
X126381925Y-80245770D01*
X126355505Y-80249689D01*
X126328827Y-80251000D01*
X125621173Y-80251000D01*
X125594495Y-80249689D01*
X125568075Y-80245770D01*
X125542165Y-80239280D01*
X125517017Y-80230282D01*
X125492872Y-80218862D01*
X125469962Y-80205131D01*
X125448508Y-80189220D01*
X125428718Y-80171282D01*
X125410780Y-80151492D01*
X125394869Y-80130038D01*
X125381138Y-80107128D01*
X125369718Y-80082983D01*
X125360720Y-80057835D01*
X125354230Y-80031925D01*
X125350311Y-80005505D01*
X125349000Y-79978827D01*
X125349000Y-79021173D01*
X125350311Y-78994495D01*
X125354230Y-78968075D01*
X125360720Y-78942165D01*
X125369718Y-78917017D01*
X125381138Y-78892872D01*
X125394869Y-78869962D01*
X125410780Y-78848508D01*
X125428718Y-78828718D01*
X125448508Y-78810780D01*
X125469962Y-78794869D01*
X125492872Y-78781138D01*
X125517017Y-78769718D01*
X125542165Y-78760720D01*
X125568075Y-78754230D01*
X125594495Y-78750311D01*
X125621173Y-78749000D01*
X126328827Y-78749000D01*
X126355505Y-78750311D01*
X126355505Y-78750311D01*
G37*
D12*
X125975000Y-79500000D03*
D10*
G36*
X122405505Y-74750311D02*
G01*
X122431925Y-74754230D01*
X122457835Y-74760720D01*
X122482983Y-74769718D01*
X122507128Y-74781138D01*
X122530038Y-74794869D01*
X122551492Y-74810780D01*
X122571282Y-74828718D01*
X122589220Y-74848508D01*
X122605131Y-74869962D01*
X122618862Y-74892872D01*
X122630282Y-74917017D01*
X122639280Y-74942165D01*
X122645770Y-74968075D01*
X122649689Y-74994495D01*
X122651000Y-75021173D01*
X122651000Y-75978827D01*
X122649689Y-76005505D01*
X122645770Y-76031925D01*
X122639280Y-76057835D01*
X122630282Y-76082983D01*
X122618862Y-76107128D01*
X122605131Y-76130038D01*
X122589220Y-76151492D01*
X122571282Y-76171282D01*
X122551492Y-76189220D01*
X122530038Y-76205131D01*
X122507128Y-76218862D01*
X122482983Y-76230282D01*
X122457835Y-76239280D01*
X122431925Y-76245770D01*
X122405505Y-76249689D01*
X122378827Y-76251000D01*
X121671173Y-76251000D01*
X121644495Y-76249689D01*
X121618075Y-76245770D01*
X121592165Y-76239280D01*
X121567017Y-76230282D01*
X121542872Y-76218862D01*
X121519962Y-76205131D01*
X121498508Y-76189220D01*
X121478718Y-76171282D01*
X121460780Y-76151492D01*
X121444869Y-76130038D01*
X121431138Y-76107128D01*
X121419718Y-76082983D01*
X121410720Y-76057835D01*
X121404230Y-76031925D01*
X121400311Y-76005505D01*
X121399000Y-75978827D01*
X121399000Y-75021173D01*
X121400311Y-74994495D01*
X121404230Y-74968075D01*
X121410720Y-74942165D01*
X121419718Y-74917017D01*
X121431138Y-74892872D01*
X121444869Y-74869962D01*
X121460780Y-74848508D01*
X121478718Y-74828718D01*
X121498508Y-74810780D01*
X121519962Y-74794869D01*
X121542872Y-74781138D01*
X121567017Y-74769718D01*
X121592165Y-74760720D01*
X121618075Y-74754230D01*
X121644495Y-74750311D01*
X121671173Y-74749000D01*
X122378827Y-74749000D01*
X122405505Y-74750311D01*
X122405505Y-74750311D01*
G37*
D12*
X122025000Y-75500000D03*
D10*
G36*
X120355505Y-74750311D02*
G01*
X120381925Y-74754230D01*
X120407835Y-74760720D01*
X120432983Y-74769718D01*
X120457128Y-74781138D01*
X120480038Y-74794869D01*
X120501492Y-74810780D01*
X120521282Y-74828718D01*
X120539220Y-74848508D01*
X120555131Y-74869962D01*
X120568862Y-74892872D01*
X120580282Y-74917017D01*
X120589280Y-74942165D01*
X120595770Y-74968075D01*
X120599689Y-74994495D01*
X120601000Y-75021173D01*
X120601000Y-75978827D01*
X120599689Y-76005505D01*
X120595770Y-76031925D01*
X120589280Y-76057835D01*
X120580282Y-76082983D01*
X120568862Y-76107128D01*
X120555131Y-76130038D01*
X120539220Y-76151492D01*
X120521282Y-76171282D01*
X120501492Y-76189220D01*
X120480038Y-76205131D01*
X120457128Y-76218862D01*
X120432983Y-76230282D01*
X120407835Y-76239280D01*
X120381925Y-76245770D01*
X120355505Y-76249689D01*
X120328827Y-76251000D01*
X119621173Y-76251000D01*
X119594495Y-76249689D01*
X119568075Y-76245770D01*
X119542165Y-76239280D01*
X119517017Y-76230282D01*
X119492872Y-76218862D01*
X119469962Y-76205131D01*
X119448508Y-76189220D01*
X119428718Y-76171282D01*
X119410780Y-76151492D01*
X119394869Y-76130038D01*
X119381138Y-76107128D01*
X119369718Y-76082983D01*
X119360720Y-76057835D01*
X119354230Y-76031925D01*
X119350311Y-76005505D01*
X119349000Y-75978827D01*
X119349000Y-75021173D01*
X119350311Y-74994495D01*
X119354230Y-74968075D01*
X119360720Y-74942165D01*
X119369718Y-74917017D01*
X119381138Y-74892872D01*
X119394869Y-74869962D01*
X119410780Y-74848508D01*
X119428718Y-74828718D01*
X119448508Y-74810780D01*
X119469962Y-74794869D01*
X119492872Y-74781138D01*
X119517017Y-74769718D01*
X119542165Y-74760720D01*
X119568075Y-74754230D01*
X119594495Y-74750311D01*
X119621173Y-74749000D01*
X120328827Y-74749000D01*
X120355505Y-74750311D01*
X120355505Y-74750311D01*
G37*
D12*
X119975000Y-75500000D03*
D10*
G36*
X112355505Y-62250311D02*
G01*
X112381925Y-62254230D01*
X112407835Y-62260720D01*
X112432983Y-62269718D01*
X112457128Y-62281138D01*
X112480038Y-62294869D01*
X112501492Y-62310780D01*
X112521282Y-62328718D01*
X112539220Y-62348508D01*
X112555131Y-62369962D01*
X112568862Y-62392872D01*
X112580282Y-62417017D01*
X112589280Y-62442165D01*
X112595770Y-62468075D01*
X112599689Y-62494495D01*
X112601000Y-62521173D01*
X112601000Y-63478827D01*
X112599689Y-63505505D01*
X112595770Y-63531925D01*
X112589280Y-63557835D01*
X112580282Y-63582983D01*
X112568862Y-63607128D01*
X112555131Y-63630038D01*
X112539220Y-63651492D01*
X112521282Y-63671282D01*
X112501492Y-63689220D01*
X112480038Y-63705131D01*
X112457128Y-63718862D01*
X112432983Y-63730282D01*
X112407835Y-63739280D01*
X112381925Y-63745770D01*
X112355505Y-63749689D01*
X112328827Y-63751000D01*
X111621173Y-63751000D01*
X111594495Y-63749689D01*
X111568075Y-63745770D01*
X111542165Y-63739280D01*
X111517017Y-63730282D01*
X111492872Y-63718862D01*
X111469962Y-63705131D01*
X111448508Y-63689220D01*
X111428718Y-63671282D01*
X111410780Y-63651492D01*
X111394869Y-63630038D01*
X111381138Y-63607128D01*
X111369718Y-63582983D01*
X111360720Y-63557835D01*
X111354230Y-63531925D01*
X111350311Y-63505505D01*
X111349000Y-63478827D01*
X111349000Y-62521173D01*
X111350311Y-62494495D01*
X111354230Y-62468075D01*
X111360720Y-62442165D01*
X111369718Y-62417017D01*
X111381138Y-62392872D01*
X111394869Y-62369962D01*
X111410780Y-62348508D01*
X111428718Y-62328718D01*
X111448508Y-62310780D01*
X111469962Y-62294869D01*
X111492872Y-62281138D01*
X111517017Y-62269718D01*
X111542165Y-62260720D01*
X111568075Y-62254230D01*
X111594495Y-62250311D01*
X111621173Y-62249000D01*
X112328827Y-62249000D01*
X112355505Y-62250311D01*
X112355505Y-62250311D01*
G37*
D12*
X111975000Y-63000000D03*
D10*
G36*
X114405505Y-62250311D02*
G01*
X114431925Y-62254230D01*
X114457835Y-62260720D01*
X114482983Y-62269718D01*
X114507128Y-62281138D01*
X114530038Y-62294869D01*
X114551492Y-62310780D01*
X114571282Y-62328718D01*
X114589220Y-62348508D01*
X114605131Y-62369962D01*
X114618862Y-62392872D01*
X114630282Y-62417017D01*
X114639280Y-62442165D01*
X114645770Y-62468075D01*
X114649689Y-62494495D01*
X114651000Y-62521173D01*
X114651000Y-63478827D01*
X114649689Y-63505505D01*
X114645770Y-63531925D01*
X114639280Y-63557835D01*
X114630282Y-63582983D01*
X114618862Y-63607128D01*
X114605131Y-63630038D01*
X114589220Y-63651492D01*
X114571282Y-63671282D01*
X114551492Y-63689220D01*
X114530038Y-63705131D01*
X114507128Y-63718862D01*
X114482983Y-63730282D01*
X114457835Y-63739280D01*
X114431925Y-63745770D01*
X114405505Y-63749689D01*
X114378827Y-63751000D01*
X113671173Y-63751000D01*
X113644495Y-63749689D01*
X113618075Y-63745770D01*
X113592165Y-63739280D01*
X113567017Y-63730282D01*
X113542872Y-63718862D01*
X113519962Y-63705131D01*
X113498508Y-63689220D01*
X113478718Y-63671282D01*
X113460780Y-63651492D01*
X113444869Y-63630038D01*
X113431138Y-63607128D01*
X113419718Y-63582983D01*
X113410720Y-63557835D01*
X113404230Y-63531925D01*
X113400311Y-63505505D01*
X113399000Y-63478827D01*
X113399000Y-62521173D01*
X113400311Y-62494495D01*
X113404230Y-62468075D01*
X113410720Y-62442165D01*
X113419718Y-62417017D01*
X113431138Y-62392872D01*
X113444869Y-62369962D01*
X113460780Y-62348508D01*
X113478718Y-62328718D01*
X113498508Y-62310780D01*
X113519962Y-62294869D01*
X113542872Y-62281138D01*
X113567017Y-62269718D01*
X113592165Y-62260720D01*
X113618075Y-62254230D01*
X113644495Y-62250311D01*
X113671173Y-62249000D01*
X114378827Y-62249000D01*
X114405505Y-62250311D01*
X114405505Y-62250311D01*
G37*
D12*
X114025000Y-63000000D03*
D10*
G36*
X142405505Y-86250311D02*
G01*
X142431925Y-86254230D01*
X142457835Y-86260720D01*
X142482983Y-86269718D01*
X142507128Y-86281138D01*
X142530038Y-86294869D01*
X142551492Y-86310780D01*
X142571282Y-86328718D01*
X142589220Y-86348508D01*
X142605131Y-86369962D01*
X142618862Y-86392872D01*
X142630282Y-86417017D01*
X142639280Y-86442165D01*
X142645770Y-86468075D01*
X142649689Y-86494495D01*
X142651000Y-86521173D01*
X142651000Y-87478827D01*
X142649689Y-87505505D01*
X142645770Y-87531925D01*
X142639280Y-87557835D01*
X142630282Y-87582983D01*
X142618862Y-87607128D01*
X142605131Y-87630038D01*
X142589220Y-87651492D01*
X142571282Y-87671282D01*
X142551492Y-87689220D01*
X142530038Y-87705131D01*
X142507128Y-87718862D01*
X142482983Y-87730282D01*
X142457835Y-87739280D01*
X142431925Y-87745770D01*
X142405505Y-87749689D01*
X142378827Y-87751000D01*
X141671173Y-87751000D01*
X141644495Y-87749689D01*
X141618075Y-87745770D01*
X141592165Y-87739280D01*
X141567017Y-87730282D01*
X141542872Y-87718862D01*
X141519962Y-87705131D01*
X141498508Y-87689220D01*
X141478718Y-87671282D01*
X141460780Y-87651492D01*
X141444869Y-87630038D01*
X141431138Y-87607128D01*
X141419718Y-87582983D01*
X141410720Y-87557835D01*
X141404230Y-87531925D01*
X141400311Y-87505505D01*
X141399000Y-87478827D01*
X141399000Y-86521173D01*
X141400311Y-86494495D01*
X141404230Y-86468075D01*
X141410720Y-86442165D01*
X141419718Y-86417017D01*
X141431138Y-86392872D01*
X141444869Y-86369962D01*
X141460780Y-86348508D01*
X141478718Y-86328718D01*
X141498508Y-86310780D01*
X141519962Y-86294869D01*
X141542872Y-86281138D01*
X141567017Y-86269718D01*
X141592165Y-86260720D01*
X141618075Y-86254230D01*
X141644495Y-86250311D01*
X141671173Y-86249000D01*
X142378827Y-86249000D01*
X142405505Y-86250311D01*
X142405505Y-86250311D01*
G37*
D12*
X142025000Y-87000000D03*
D10*
G36*
X140355505Y-86250311D02*
G01*
X140381925Y-86254230D01*
X140407835Y-86260720D01*
X140432983Y-86269718D01*
X140457128Y-86281138D01*
X140480038Y-86294869D01*
X140501492Y-86310780D01*
X140521282Y-86328718D01*
X140539220Y-86348508D01*
X140555131Y-86369962D01*
X140568862Y-86392872D01*
X140580282Y-86417017D01*
X140589280Y-86442165D01*
X140595770Y-86468075D01*
X140599689Y-86494495D01*
X140601000Y-86521173D01*
X140601000Y-87478827D01*
X140599689Y-87505505D01*
X140595770Y-87531925D01*
X140589280Y-87557835D01*
X140580282Y-87582983D01*
X140568862Y-87607128D01*
X140555131Y-87630038D01*
X140539220Y-87651492D01*
X140521282Y-87671282D01*
X140501492Y-87689220D01*
X140480038Y-87705131D01*
X140457128Y-87718862D01*
X140432983Y-87730282D01*
X140407835Y-87739280D01*
X140381925Y-87745770D01*
X140355505Y-87749689D01*
X140328827Y-87751000D01*
X139621173Y-87751000D01*
X139594495Y-87749689D01*
X139568075Y-87745770D01*
X139542165Y-87739280D01*
X139517017Y-87730282D01*
X139492872Y-87718862D01*
X139469962Y-87705131D01*
X139448508Y-87689220D01*
X139428718Y-87671282D01*
X139410780Y-87651492D01*
X139394869Y-87630038D01*
X139381138Y-87607128D01*
X139369718Y-87582983D01*
X139360720Y-87557835D01*
X139354230Y-87531925D01*
X139350311Y-87505505D01*
X139349000Y-87478827D01*
X139349000Y-86521173D01*
X139350311Y-86494495D01*
X139354230Y-86468075D01*
X139360720Y-86442165D01*
X139369718Y-86417017D01*
X139381138Y-86392872D01*
X139394869Y-86369962D01*
X139410780Y-86348508D01*
X139428718Y-86328718D01*
X139448508Y-86310780D01*
X139469962Y-86294869D01*
X139492872Y-86281138D01*
X139517017Y-86269718D01*
X139542165Y-86260720D01*
X139568075Y-86254230D01*
X139594495Y-86250311D01*
X139621173Y-86249000D01*
X140328827Y-86249000D01*
X140355505Y-86250311D01*
X140355505Y-86250311D01*
G37*
D12*
X139975000Y-87000000D03*
D10*
G36*
X142405505Y-90250311D02*
G01*
X142431925Y-90254230D01*
X142457835Y-90260720D01*
X142482983Y-90269718D01*
X142507128Y-90281138D01*
X142530038Y-90294869D01*
X142551492Y-90310780D01*
X142571282Y-90328718D01*
X142589220Y-90348508D01*
X142605131Y-90369962D01*
X142618862Y-90392872D01*
X142630282Y-90417017D01*
X142639280Y-90442165D01*
X142645770Y-90468075D01*
X142649689Y-90494495D01*
X142651000Y-90521173D01*
X142651000Y-91478827D01*
X142649689Y-91505505D01*
X142645770Y-91531925D01*
X142639280Y-91557835D01*
X142630282Y-91582983D01*
X142618862Y-91607128D01*
X142605131Y-91630038D01*
X142589220Y-91651492D01*
X142571282Y-91671282D01*
X142551492Y-91689220D01*
X142530038Y-91705131D01*
X142507128Y-91718862D01*
X142482983Y-91730282D01*
X142457835Y-91739280D01*
X142431925Y-91745770D01*
X142405505Y-91749689D01*
X142378827Y-91751000D01*
X141671173Y-91751000D01*
X141644495Y-91749689D01*
X141618075Y-91745770D01*
X141592165Y-91739280D01*
X141567017Y-91730282D01*
X141542872Y-91718862D01*
X141519962Y-91705131D01*
X141498508Y-91689220D01*
X141478718Y-91671282D01*
X141460780Y-91651492D01*
X141444869Y-91630038D01*
X141431138Y-91607128D01*
X141419718Y-91582983D01*
X141410720Y-91557835D01*
X141404230Y-91531925D01*
X141400311Y-91505505D01*
X141399000Y-91478827D01*
X141399000Y-90521173D01*
X141400311Y-90494495D01*
X141404230Y-90468075D01*
X141410720Y-90442165D01*
X141419718Y-90417017D01*
X141431138Y-90392872D01*
X141444869Y-90369962D01*
X141460780Y-90348508D01*
X141478718Y-90328718D01*
X141498508Y-90310780D01*
X141519962Y-90294869D01*
X141542872Y-90281138D01*
X141567017Y-90269718D01*
X141592165Y-90260720D01*
X141618075Y-90254230D01*
X141644495Y-90250311D01*
X141671173Y-90249000D01*
X142378827Y-90249000D01*
X142405505Y-90250311D01*
X142405505Y-90250311D01*
G37*
D12*
X142025000Y-91000000D03*
D10*
G36*
X140355505Y-90250311D02*
G01*
X140381925Y-90254230D01*
X140407835Y-90260720D01*
X140432983Y-90269718D01*
X140457128Y-90281138D01*
X140480038Y-90294869D01*
X140501492Y-90310780D01*
X140521282Y-90328718D01*
X140539220Y-90348508D01*
X140555131Y-90369962D01*
X140568862Y-90392872D01*
X140580282Y-90417017D01*
X140589280Y-90442165D01*
X140595770Y-90468075D01*
X140599689Y-90494495D01*
X140601000Y-90521173D01*
X140601000Y-91478827D01*
X140599689Y-91505505D01*
X140595770Y-91531925D01*
X140589280Y-91557835D01*
X140580282Y-91582983D01*
X140568862Y-91607128D01*
X140555131Y-91630038D01*
X140539220Y-91651492D01*
X140521282Y-91671282D01*
X140501492Y-91689220D01*
X140480038Y-91705131D01*
X140457128Y-91718862D01*
X140432983Y-91730282D01*
X140407835Y-91739280D01*
X140381925Y-91745770D01*
X140355505Y-91749689D01*
X140328827Y-91751000D01*
X139621173Y-91751000D01*
X139594495Y-91749689D01*
X139568075Y-91745770D01*
X139542165Y-91739280D01*
X139517017Y-91730282D01*
X139492872Y-91718862D01*
X139469962Y-91705131D01*
X139448508Y-91689220D01*
X139428718Y-91671282D01*
X139410780Y-91651492D01*
X139394869Y-91630038D01*
X139381138Y-91607128D01*
X139369718Y-91582983D01*
X139360720Y-91557835D01*
X139354230Y-91531925D01*
X139350311Y-91505505D01*
X139349000Y-91478827D01*
X139349000Y-90521173D01*
X139350311Y-90494495D01*
X139354230Y-90468075D01*
X139360720Y-90442165D01*
X139369718Y-90417017D01*
X139381138Y-90392872D01*
X139394869Y-90369962D01*
X139410780Y-90348508D01*
X139428718Y-90328718D01*
X139448508Y-90310780D01*
X139469962Y-90294869D01*
X139492872Y-90281138D01*
X139517017Y-90269718D01*
X139542165Y-90260720D01*
X139568075Y-90254230D01*
X139594495Y-90250311D01*
X139621173Y-90249000D01*
X140328827Y-90249000D01*
X140355505Y-90250311D01*
X140355505Y-90250311D01*
G37*
D12*
X139975000Y-91000000D03*
D10*
G36*
X129505505Y-60850311D02*
G01*
X129531925Y-60854230D01*
X129557835Y-60860720D01*
X129582983Y-60869718D01*
X129607128Y-60881138D01*
X129630038Y-60894869D01*
X129651492Y-60910780D01*
X129671282Y-60928718D01*
X129689220Y-60948508D01*
X129705131Y-60969962D01*
X129718862Y-60992872D01*
X129730282Y-61017017D01*
X129739280Y-61042165D01*
X129745770Y-61068075D01*
X129749689Y-61094495D01*
X129751000Y-61121173D01*
X129751000Y-61828827D01*
X129749689Y-61855505D01*
X129745770Y-61881925D01*
X129739280Y-61907835D01*
X129730282Y-61932983D01*
X129718862Y-61957128D01*
X129705131Y-61980038D01*
X129689220Y-62001492D01*
X129671282Y-62021282D01*
X129651492Y-62039220D01*
X129630038Y-62055131D01*
X129607128Y-62068862D01*
X129582983Y-62080282D01*
X129557835Y-62089280D01*
X129531925Y-62095770D01*
X129505505Y-62099689D01*
X129478827Y-62101000D01*
X128521173Y-62101000D01*
X128494495Y-62099689D01*
X128468075Y-62095770D01*
X128442165Y-62089280D01*
X128417017Y-62080282D01*
X128392872Y-62068862D01*
X128369962Y-62055131D01*
X128348508Y-62039220D01*
X128328718Y-62021282D01*
X128310780Y-62001492D01*
X128294869Y-61980038D01*
X128281138Y-61957128D01*
X128269718Y-61932983D01*
X128260720Y-61907835D01*
X128254230Y-61881925D01*
X128250311Y-61855505D01*
X128249000Y-61828827D01*
X128249000Y-61121173D01*
X128250311Y-61094495D01*
X128254230Y-61068075D01*
X128260720Y-61042165D01*
X128269718Y-61017017D01*
X128281138Y-60992872D01*
X128294869Y-60969962D01*
X128310780Y-60948508D01*
X128328718Y-60928718D01*
X128348508Y-60910780D01*
X128369962Y-60894869D01*
X128392872Y-60881138D01*
X128417017Y-60869718D01*
X128442165Y-60860720D01*
X128468075Y-60854230D01*
X128494495Y-60850311D01*
X128521173Y-60849000D01*
X129478827Y-60849000D01*
X129505505Y-60850311D01*
X129505505Y-60850311D01*
G37*
D12*
X129000000Y-61475000D03*
D10*
G36*
X129505505Y-62900311D02*
G01*
X129531925Y-62904230D01*
X129557835Y-62910720D01*
X129582983Y-62919718D01*
X129607128Y-62931138D01*
X129630038Y-62944869D01*
X129651492Y-62960780D01*
X129671282Y-62978718D01*
X129689220Y-62998508D01*
X129705131Y-63019962D01*
X129718862Y-63042872D01*
X129730282Y-63067017D01*
X129739280Y-63092165D01*
X129745770Y-63118075D01*
X129749689Y-63144495D01*
X129751000Y-63171173D01*
X129751000Y-63878827D01*
X129749689Y-63905505D01*
X129745770Y-63931925D01*
X129739280Y-63957835D01*
X129730282Y-63982983D01*
X129718862Y-64007128D01*
X129705131Y-64030038D01*
X129689220Y-64051492D01*
X129671282Y-64071282D01*
X129651492Y-64089220D01*
X129630038Y-64105131D01*
X129607128Y-64118862D01*
X129582983Y-64130282D01*
X129557835Y-64139280D01*
X129531925Y-64145770D01*
X129505505Y-64149689D01*
X129478827Y-64151000D01*
X128521173Y-64151000D01*
X128494495Y-64149689D01*
X128468075Y-64145770D01*
X128442165Y-64139280D01*
X128417017Y-64130282D01*
X128392872Y-64118862D01*
X128369962Y-64105131D01*
X128348508Y-64089220D01*
X128328718Y-64071282D01*
X128310780Y-64051492D01*
X128294869Y-64030038D01*
X128281138Y-64007128D01*
X128269718Y-63982983D01*
X128260720Y-63957835D01*
X128254230Y-63931925D01*
X128250311Y-63905505D01*
X128249000Y-63878827D01*
X128249000Y-63171173D01*
X128250311Y-63144495D01*
X128254230Y-63118075D01*
X128260720Y-63092165D01*
X128269718Y-63067017D01*
X128281138Y-63042872D01*
X128294869Y-63019962D01*
X128310780Y-62998508D01*
X128328718Y-62978718D01*
X128348508Y-62960780D01*
X128369962Y-62944869D01*
X128392872Y-62931138D01*
X128417017Y-62919718D01*
X128442165Y-62910720D01*
X128468075Y-62904230D01*
X128494495Y-62900311D01*
X128521173Y-62899000D01*
X129478827Y-62899000D01*
X129505505Y-62900311D01*
X129505505Y-62900311D01*
G37*
D12*
X129000000Y-63525000D03*
D10*
G36*
X139755505Y-62900311D02*
G01*
X139781925Y-62904230D01*
X139807835Y-62910720D01*
X139832983Y-62919718D01*
X139857128Y-62931138D01*
X139880038Y-62944869D01*
X139901492Y-62960780D01*
X139921282Y-62978718D01*
X139939220Y-62998508D01*
X139955131Y-63019962D01*
X139968862Y-63042872D01*
X139980282Y-63067017D01*
X139989280Y-63092165D01*
X139995770Y-63118075D01*
X139999689Y-63144495D01*
X140001000Y-63171173D01*
X140001000Y-63878827D01*
X139999689Y-63905505D01*
X139995770Y-63931925D01*
X139989280Y-63957835D01*
X139980282Y-63982983D01*
X139968862Y-64007128D01*
X139955131Y-64030038D01*
X139939220Y-64051492D01*
X139921282Y-64071282D01*
X139901492Y-64089220D01*
X139880038Y-64105131D01*
X139857128Y-64118862D01*
X139832983Y-64130282D01*
X139807835Y-64139280D01*
X139781925Y-64145770D01*
X139755505Y-64149689D01*
X139728827Y-64151000D01*
X138771173Y-64151000D01*
X138744495Y-64149689D01*
X138718075Y-64145770D01*
X138692165Y-64139280D01*
X138667017Y-64130282D01*
X138642872Y-64118862D01*
X138619962Y-64105131D01*
X138598508Y-64089220D01*
X138578718Y-64071282D01*
X138560780Y-64051492D01*
X138544869Y-64030038D01*
X138531138Y-64007128D01*
X138519718Y-63982983D01*
X138510720Y-63957835D01*
X138504230Y-63931925D01*
X138500311Y-63905505D01*
X138499000Y-63878827D01*
X138499000Y-63171173D01*
X138500311Y-63144495D01*
X138504230Y-63118075D01*
X138510720Y-63092165D01*
X138519718Y-63067017D01*
X138531138Y-63042872D01*
X138544869Y-63019962D01*
X138560780Y-62998508D01*
X138578718Y-62978718D01*
X138598508Y-62960780D01*
X138619962Y-62944869D01*
X138642872Y-62931138D01*
X138667017Y-62919718D01*
X138692165Y-62910720D01*
X138718075Y-62904230D01*
X138744495Y-62900311D01*
X138771173Y-62899000D01*
X139728827Y-62899000D01*
X139755505Y-62900311D01*
X139755505Y-62900311D01*
G37*
D12*
X139250000Y-63525000D03*
D10*
G36*
X139755505Y-60850311D02*
G01*
X139781925Y-60854230D01*
X139807835Y-60860720D01*
X139832983Y-60869718D01*
X139857128Y-60881138D01*
X139880038Y-60894869D01*
X139901492Y-60910780D01*
X139921282Y-60928718D01*
X139939220Y-60948508D01*
X139955131Y-60969962D01*
X139968862Y-60992872D01*
X139980282Y-61017017D01*
X139989280Y-61042165D01*
X139995770Y-61068075D01*
X139999689Y-61094495D01*
X140001000Y-61121173D01*
X140001000Y-61828827D01*
X139999689Y-61855505D01*
X139995770Y-61881925D01*
X139989280Y-61907835D01*
X139980282Y-61932983D01*
X139968862Y-61957128D01*
X139955131Y-61980038D01*
X139939220Y-62001492D01*
X139921282Y-62021282D01*
X139901492Y-62039220D01*
X139880038Y-62055131D01*
X139857128Y-62068862D01*
X139832983Y-62080282D01*
X139807835Y-62089280D01*
X139781925Y-62095770D01*
X139755505Y-62099689D01*
X139728827Y-62101000D01*
X138771173Y-62101000D01*
X138744495Y-62099689D01*
X138718075Y-62095770D01*
X138692165Y-62089280D01*
X138667017Y-62080282D01*
X138642872Y-62068862D01*
X138619962Y-62055131D01*
X138598508Y-62039220D01*
X138578718Y-62021282D01*
X138560780Y-62001492D01*
X138544869Y-61980038D01*
X138531138Y-61957128D01*
X138519718Y-61932983D01*
X138510720Y-61907835D01*
X138504230Y-61881925D01*
X138500311Y-61855505D01*
X138499000Y-61828827D01*
X138499000Y-61121173D01*
X138500311Y-61094495D01*
X138504230Y-61068075D01*
X138510720Y-61042165D01*
X138519718Y-61017017D01*
X138531138Y-60992872D01*
X138544869Y-60969962D01*
X138560780Y-60948508D01*
X138578718Y-60928718D01*
X138598508Y-60910780D01*
X138619962Y-60894869D01*
X138642872Y-60881138D01*
X138667017Y-60869718D01*
X138692165Y-60860720D01*
X138718075Y-60854230D01*
X138744495Y-60850311D01*
X138771173Y-60849000D01*
X139728827Y-60849000D01*
X139755505Y-60850311D01*
X139755505Y-60850311D01*
G37*
D12*
X139250000Y-61475000D03*
D10*
G36*
X134755505Y-62900311D02*
G01*
X134781925Y-62904230D01*
X134807835Y-62910720D01*
X134832983Y-62919718D01*
X134857128Y-62931138D01*
X134880038Y-62944869D01*
X134901492Y-62960780D01*
X134921282Y-62978718D01*
X134939220Y-62998508D01*
X134955131Y-63019962D01*
X134968862Y-63042872D01*
X134980282Y-63067017D01*
X134989280Y-63092165D01*
X134995770Y-63118075D01*
X134999689Y-63144495D01*
X135001000Y-63171173D01*
X135001000Y-63878827D01*
X134999689Y-63905505D01*
X134995770Y-63931925D01*
X134989280Y-63957835D01*
X134980282Y-63982983D01*
X134968862Y-64007128D01*
X134955131Y-64030038D01*
X134939220Y-64051492D01*
X134921282Y-64071282D01*
X134901492Y-64089220D01*
X134880038Y-64105131D01*
X134857128Y-64118862D01*
X134832983Y-64130282D01*
X134807835Y-64139280D01*
X134781925Y-64145770D01*
X134755505Y-64149689D01*
X134728827Y-64151000D01*
X133771173Y-64151000D01*
X133744495Y-64149689D01*
X133718075Y-64145770D01*
X133692165Y-64139280D01*
X133667017Y-64130282D01*
X133642872Y-64118862D01*
X133619962Y-64105131D01*
X133598508Y-64089220D01*
X133578718Y-64071282D01*
X133560780Y-64051492D01*
X133544869Y-64030038D01*
X133531138Y-64007128D01*
X133519718Y-63982983D01*
X133510720Y-63957835D01*
X133504230Y-63931925D01*
X133500311Y-63905505D01*
X133499000Y-63878827D01*
X133499000Y-63171173D01*
X133500311Y-63144495D01*
X133504230Y-63118075D01*
X133510720Y-63092165D01*
X133519718Y-63067017D01*
X133531138Y-63042872D01*
X133544869Y-63019962D01*
X133560780Y-62998508D01*
X133578718Y-62978718D01*
X133598508Y-62960780D01*
X133619962Y-62944869D01*
X133642872Y-62931138D01*
X133667017Y-62919718D01*
X133692165Y-62910720D01*
X133718075Y-62904230D01*
X133744495Y-62900311D01*
X133771173Y-62899000D01*
X134728827Y-62899000D01*
X134755505Y-62900311D01*
X134755505Y-62900311D01*
G37*
D12*
X134250000Y-63525000D03*
D10*
G36*
X134755505Y-60850311D02*
G01*
X134781925Y-60854230D01*
X134807835Y-60860720D01*
X134832983Y-60869718D01*
X134857128Y-60881138D01*
X134880038Y-60894869D01*
X134901492Y-60910780D01*
X134921282Y-60928718D01*
X134939220Y-60948508D01*
X134955131Y-60969962D01*
X134968862Y-60992872D01*
X134980282Y-61017017D01*
X134989280Y-61042165D01*
X134995770Y-61068075D01*
X134999689Y-61094495D01*
X135001000Y-61121173D01*
X135001000Y-61828827D01*
X134999689Y-61855505D01*
X134995770Y-61881925D01*
X134989280Y-61907835D01*
X134980282Y-61932983D01*
X134968862Y-61957128D01*
X134955131Y-61980038D01*
X134939220Y-62001492D01*
X134921282Y-62021282D01*
X134901492Y-62039220D01*
X134880038Y-62055131D01*
X134857128Y-62068862D01*
X134832983Y-62080282D01*
X134807835Y-62089280D01*
X134781925Y-62095770D01*
X134755505Y-62099689D01*
X134728827Y-62101000D01*
X133771173Y-62101000D01*
X133744495Y-62099689D01*
X133718075Y-62095770D01*
X133692165Y-62089280D01*
X133667017Y-62080282D01*
X133642872Y-62068862D01*
X133619962Y-62055131D01*
X133598508Y-62039220D01*
X133578718Y-62021282D01*
X133560780Y-62001492D01*
X133544869Y-61980038D01*
X133531138Y-61957128D01*
X133519718Y-61932983D01*
X133510720Y-61907835D01*
X133504230Y-61881925D01*
X133500311Y-61855505D01*
X133499000Y-61828827D01*
X133499000Y-61121173D01*
X133500311Y-61094495D01*
X133504230Y-61068075D01*
X133510720Y-61042165D01*
X133519718Y-61017017D01*
X133531138Y-60992872D01*
X133544869Y-60969962D01*
X133560780Y-60948508D01*
X133578718Y-60928718D01*
X133598508Y-60910780D01*
X133619962Y-60894869D01*
X133642872Y-60881138D01*
X133667017Y-60869718D01*
X133692165Y-60860720D01*
X133718075Y-60854230D01*
X133744495Y-60850311D01*
X133771173Y-60849000D01*
X134728827Y-60849000D01*
X134755505Y-60850311D01*
X134755505Y-60850311D01*
G37*
D12*
X134250000Y-61475000D03*
D25*
X72300000Y-72095000D03*
X72300000Y-73365000D03*
X72300000Y-74635000D03*
X72300000Y-75905000D03*
X77700000Y-75905000D03*
X77700000Y-74635000D03*
X77700000Y-73365000D03*
X77700000Y-72095000D03*
D26*
X102850000Y-72000000D03*
D27*
X109150000Y-72000000D03*
X109150000Y-69700000D03*
X109150000Y-74300000D03*
D28*
X111290000Y-53050000D03*
X111290000Y-54000000D03*
X111290000Y-54950000D03*
X114710000Y-54950000D03*
X114710000Y-54000000D03*
X114710000Y-53050000D03*
D29*
X134050000Y-78725000D03*
X134050000Y-79375000D03*
X134050000Y-80025000D03*
X134050000Y-80675000D03*
X134050000Y-81325000D03*
X134050000Y-81975000D03*
X134050000Y-82625000D03*
X134050000Y-83275000D03*
X139950000Y-83275000D03*
X139950000Y-82625000D03*
X139950000Y-81975000D03*
X139950000Y-81325000D03*
X139950000Y-80675000D03*
X139950000Y-80025000D03*
X139950000Y-79375000D03*
X139950000Y-78725000D03*
D30*
X72460000Y-95500000D03*
X69920000Y-95500000D03*
D31*
X75000000Y-95500000D03*
X146500000Y-106500000D03*
D32*
X145230000Y-110200000D03*
X143960000Y-106500000D03*
X142690000Y-110200000D03*
X141420000Y-106500000D03*
X140150000Y-110200000D03*
X138880000Y-106500000D03*
X110630000Y-106500000D03*
X111900000Y-110200000D03*
X113170000Y-106500000D03*
X114440000Y-110200000D03*
X115710000Y-106500000D03*
X116980000Y-110200000D03*
D31*
X118250000Y-106500000D03*
D33*
X97750000Y-61040000D03*
D34*
X97750000Y-58460000D03*
X97750000Y-55960000D03*
M02*
