M48
; DRILL file {KiCad (5.1.0-0)} date Sunday, 09 June 2019 at 17:55:55
; FORMAT={-:-/ absolute / inch / decimal}
; #@! TF.CreationDate,2019-06-09T17:55:55+01:00
; #@! TF.GenerationSoftware,Kicad,Pcbnew,(5.1.0-0)
; #@! TF.FileFunction,Plated,1,2,PTH
FMAT,2
INCH
T1C0.0157
T2C0.0295
T3C0.0315
T4C0.0433
T5C0.0472
T6C0.0512
%
G90
G05
T1
X2.4409Y-3.2874
X2.4409Y-3.3661
X2.4409Y-3.4449
X2.4409Y-3.5236
X2.4409Y-3.6024
X2.4409Y-3.6811
X2.4409Y-3.75
X2.4409Y-3.8189
X2.4409Y-3.8878
X2.4409Y-3.9665
X2.4409Y-4.1339
X2.5Y-3.248
X2.5Y-3.3268
X2.5Y-3.4055
X2.5Y-3.4843
X2.5Y-3.563
X2.5Y-3.6417
X2.5Y-4.0354
X2.5Y-4.2323
X2.5591Y-3.937
X2.5591Y-4.1339
X2.6181Y-4.0354
X2.6181Y-4.2323
X2.6575Y-3.3169
X2.6575Y-3.3858
X2.6575Y-3.4547
X2.6575Y-3.5335
X2.6575Y-3.6024
X2.6575Y-3.937
X2.6772Y-4.1339
X2.6969Y-3.1004
X2.6969Y-3.1791
X2.6969Y-3.248
X2.7165Y-2.2047
X2.7559Y-2.126
X2.7559Y-4.2028
X2.7657Y-3.1004
X2.7657Y-3.1791
X2.7657Y-3.248
X2.7953Y-2.2047
X2.8346Y-2.126
X2.8346Y-3.1004
X2.8346Y-3.1791
X2.8346Y-3.248
X2.8543Y-4.2717
X2.8543Y-4.3701
X2.8543Y-4.4685
X2.874Y-2.2047
X2.874Y-4.1339
X2.9134Y-2.126
X2.9528Y-2.2047
X2.9528Y-2.874
X2.9528Y-4.3307
X2.9528Y-4.4291
X2.9921Y-2.126
X2.9921Y-2.2835
X2.9921Y-2.4016
X3.0315Y-2.2047
X3.0709Y-2.126
X3.0709Y-2.3425
X3.1102Y-2.2047
X3.1398Y-2.874
X3.1496Y-2.126
X3.1496Y-3.0079
X3.189Y-2.2047
X3.2283Y-2.126
X3.2677Y-2.2047
X3.3071Y-2.126
X3.3071Y-2.9528
X3.3465Y-2.2047
X3.3858Y-2.126
X3.4252Y-2.2047
X3.4646Y-2.126
X3.4646Y-2.9528
X3.5039Y-2.2047
X3.5138Y-2.6673
X3.5827Y-4.2717
X3.5827Y-4.3701
X3.5827Y-4.4685
X3.6024Y-2.6673
X3.622Y-2.0276
X3.6811Y-2.8543
X3.6811Y-2.9528
X3.6811Y-3.0512
X3.6811Y-3.1496
X3.6811Y-3.248
X3.6811Y-4.4685
X3.6909Y-2.6673
X3.7008Y-2.0276
X3.7598Y-4.0354
X3.7598Y-4.1142
X3.7697Y-2.6673
X3.7795Y-2.0276
X3.7992Y-2.7953
X3.7992Y-2.8937
X3.7992Y-2.9921
X3.7992Y-3.0906
X3.7992Y-3.189
X3.7992Y-3.2874
X3.8386Y-4.0354
X3.8386Y-4.1142
X3.8386Y-4.2717
X3.8484Y-2.6673
X3.8583Y-2.0276
X3.878Y-4.3701
X3.937Y-2.0276
X3.9764Y-3.8189
X3.9764Y-4.2717
X3.9764Y-4.3701
X3.9764Y-4.4685
X3.9961Y-4.8425
X4.0039Y-2.3228
X4.0059Y-2.2638
X4.0157Y-2.0276
X4.0748Y-4.8425
X4.0945Y-3.6811
X4.0945Y-3.7795
X4.0945Y-3.878
X4.0945Y-4.0748
X4.0945Y-4.1732
X4.0945Y-4.2717
X4.0945Y-4.3701
X4.0945Y-4.4685
X4.1535Y-4.8425
X4.1732Y-4.3209
X4.1732Y-4.4193
X4.1929Y-3.7795
X4.1929Y-3.878
X4.1929Y-3.9764
X4.2323Y-4.8425
X4.252Y-2.4213
X4.2559Y-4.3425
X4.2874Y-2.0118
X4.2913Y-2.4803
X4.2913Y-3.6811
X4.2913Y-3.7795
X4.2913Y-3.878
X4.311Y-4.8425
X4.3701Y-2.5984
X4.3898Y-3.0709
X4.3898Y-3.1378
X4.3898Y-3.248
X4.3898Y-3.4843
X4.3898Y-3.5827
X4.3898Y-3.7795
X4.3898Y-4.8425
X4.4094Y-2.6575
X4.4173Y-2.8661
X4.4488Y-2.5984
X4.4685Y-3.4843
X4.4685Y-3.5827
X4.4685Y-3.6811
X4.4685Y-4.8425
X4.5079Y-3.2283
X4.5472Y-4.8425
X4.5709Y-3.1457
X4.626Y-4.8425
X4.6457Y-2.0669
X4.6457Y-2.126
X4.6457Y-2.185
X4.6457Y-2.2441
X4.6457Y-2.3031
X4.6752Y-4.0453
X4.685Y-3.8583
X4.7047Y-2.6378
X4.7047Y-2.6969
X4.7047Y-2.7559
X4.7047Y-4.8425
X4.7244Y-2.1063
X4.7244Y-2.1654
X4.7244Y-2.2244
X4.7441Y-4.1969
X4.7835Y-3.8386
X4.8425Y-2.6378
X4.8425Y-2.6969
X4.8425Y-2.7559
X4.8425Y-2.815
X4.8425Y-2.874
X4.8819Y-3.1299
X4.8819Y-3.2126
X4.8819Y-3.2874
X4.8819Y-3.3661
X4.8819Y-3.4488
X4.8819Y-3.5354
X4.9173Y-4.2244
X4.9213Y-3.7835
X4.9213Y-4.1732
X4.9409Y-2.4213
X4.9409Y-2.5
X5.0394Y-4.3622
X5.0472Y-3.6929
X5.1378Y-3.6811
X5.1772Y-3.5236
X5.185Y-3.2283
X5.1969Y-3.7795
X5.2362Y-3.9961
X5.2362Y-4.0846
X5.2362Y-4.1732
X5.2559Y-3.3858
X5.2559Y-3.4646
X5.3051Y-4.3602
X5.3346Y-3.4646
X5.3346Y-3.5236
X5.3543Y-2.9921
X5.3543Y-3.2283
X5.3701Y-2.563
X5.3858Y-2.3622
X5.4134Y-2.9724
X5.4134Y-3.2283
X5.4134Y-3.8583
X5.4291Y-3.3701
X5.4429Y-4.0846
X5.5118Y-2.9724
X5.5472Y-2.3583
X5.5827Y-2.5748
X5.5984Y-3.2559
X5.6107Y-3.1895
X5.6693Y-3.2874
X5.6807Y-3.7976
X5.7087Y-3.4055
X5.7283Y-3.5236
X5.7283Y-4.0748
X5.7756Y-2.9488
X5.7874Y-3.3661
X5.7874Y-3.4449
X5.8661Y-3.3268
X5.8661Y-3.4055
X5.8661Y-3.4843
X5.8858Y-4.1142
X5.8858Y-4.2224
X5.8858Y-4.3209
X5.8858Y-4.4291
X5.9843Y-4.1142
X5.9843Y-4.2224
X5.9843Y-4.3209
X5.9843Y-4.4291
T2
X4.685Y-2.4803
X4.735Y-2.4803
X4.785Y-2.4803
T3
X2.7528Y-3.7598
X2.8528Y-3.7598
X2.9528Y-3.7598
T4
X3.2941Y-3.0413
X3.3941Y-3.0413
X3.4941Y-3.0413
X3.8484Y-2.2031
X3.8484Y-2.3016
X3.8484Y-2.4031
T5
X4.3555Y-4.1929
X5.6874Y-2.185
X5.7874Y-2.185
X4.4055Y-4.3386
X4.4555Y-4.1929
X4.5055Y-4.3386
X4.5555Y-4.1929
X4.6055Y-4.3386
X4.6555Y-4.1929
X5.4677Y-4.1929
X5.5177Y-4.3386
X5.5677Y-4.1929
X5.6177Y-4.3386
X5.6677Y-4.1929
X5.7177Y-4.3386
X5.7677Y-4.1929
X6.0925Y-3.3976
X6.0925Y-3.4976
X6.0925Y-3.5976
X6.0925Y-3.6976
X6.0925Y-3.7976
X6.0925Y-3.8976
X4.9791Y-2.7559
X5.0791Y-2.7559
X5.1791Y-2.7559
X5.2791Y-2.7559
X5.3791Y-2.7559
X5.4791Y-2.7559
X5.5791Y-2.7559
X5.6791Y-2.7559
X4.9823Y-2.185
X5.0823Y-2.185
X5.1823Y-2.185
X5.2823Y-2.185
X5.3823Y-2.185
X5.4823Y-2.185
T6
X6.0236Y-2.9299
X6.0236Y-3.1299
X2.6772Y-2.4016
X2.6772Y-2.6016
T0
M30
