G04 #@! TF.GenerationSoftware,KiCad,Pcbnew,(5.1.0-0)*
G04 #@! TF.CreationDate,2019-06-09T17:55:59+01:00*
G04 #@! TF.ProjectId,PowerSupply,506f7765-7253-4757-9070-6c792e6b6963,0.1*
G04 #@! TF.SameCoordinates,Original*
G04 #@! TF.FileFunction,Copper,L2,Bot*
G04 #@! TF.FilePolarity,Positive*
%FSLAX46Y46*%
G04 Gerber Fmt 4.6, Leading zero omitted, Abs format (unit mm)*
G04 Created by KiCad (PCBNEW (5.1.0-0)) date 2019-06-09 17:55:59*
%MOMM*%
%LPD*%
G04 APERTURE LIST*
%ADD10C,0.150000*%
%ADD11C,1.740000*%
%ADD12O,1.740000X2.200000*%
%ADD13R,2.600000X2.600000*%
%ADD14C,2.600000*%
%ADD15O,2.200000X1.740000*%
%ADD16R,1.905000X2.000000*%
%ADD17O,1.905000X2.000000*%
%ADD18O,1.050000X1.500000*%
%ADD19R,1.050000X1.500000*%
%ADD20C,2.000000*%
%ADD21C,1.800000*%
%ADD22R,1.800000X1.800000*%
%ADD23O,1.800000X1.800000*%
%ADD24R,2.000000X2.000000*%
%ADD25C,0.800000*%
%ADD26C,0.500000*%
%ADD27C,0.250000*%
%ADD28C,0.350000*%
%ADD29C,0.254000*%
G04 APERTURE END LIST*
D10*
G36*
X102000000Y-64000000D02*
G01*
X106000000Y-64000000D01*
X106000000Y-62000000D01*
X102000000Y-62000000D01*
X102000000Y-64000000D01*
G37*
G36*
X147644505Y-54401204D02*
G01*
X147668773Y-54404804D01*
X147692572Y-54410765D01*
X147715671Y-54419030D01*
X147737850Y-54429520D01*
X147758893Y-54442132D01*
X147778599Y-54456747D01*
X147796777Y-54473223D01*
X147813253Y-54491401D01*
X147827868Y-54511107D01*
X147840480Y-54532150D01*
X147850970Y-54554329D01*
X147859235Y-54577428D01*
X147865196Y-54601227D01*
X147868796Y-54625495D01*
X147870000Y-54649999D01*
X147870000Y-56350001D01*
X147868796Y-56374505D01*
X147865196Y-56398773D01*
X147859235Y-56422572D01*
X147850970Y-56445671D01*
X147840480Y-56467850D01*
X147827868Y-56488893D01*
X147813253Y-56508599D01*
X147796777Y-56526777D01*
X147778599Y-56543253D01*
X147758893Y-56557868D01*
X147737850Y-56570480D01*
X147715671Y-56580970D01*
X147692572Y-56589235D01*
X147668773Y-56595196D01*
X147644505Y-56598796D01*
X147620001Y-56600000D01*
X146379999Y-56600000D01*
X146355495Y-56598796D01*
X146331227Y-56595196D01*
X146307428Y-56589235D01*
X146284329Y-56580970D01*
X146262150Y-56570480D01*
X146241107Y-56557868D01*
X146221401Y-56543253D01*
X146203223Y-56526777D01*
X146186747Y-56508599D01*
X146172132Y-56488893D01*
X146159520Y-56467850D01*
X146149030Y-56445671D01*
X146140765Y-56422572D01*
X146134804Y-56398773D01*
X146131204Y-56374505D01*
X146130000Y-56350001D01*
X146130000Y-54649999D01*
X146131204Y-54625495D01*
X146134804Y-54601227D01*
X146140765Y-54577428D01*
X146149030Y-54554329D01*
X146159520Y-54532150D01*
X146172132Y-54511107D01*
X146186747Y-54491401D01*
X146203223Y-54473223D01*
X146221401Y-54456747D01*
X146241107Y-54442132D01*
X146262150Y-54429520D01*
X146284329Y-54419030D01*
X146307428Y-54410765D01*
X146331227Y-54404804D01*
X146355495Y-54401204D01*
X146379999Y-54400000D01*
X147620001Y-54400000D01*
X147644505Y-54401204D01*
X147644505Y-54401204D01*
G37*
D11*
X147000000Y-55500000D03*
D12*
X144460000Y-55500000D03*
D13*
X68000000Y-61000000D03*
D14*
X68000000Y-66080000D03*
D15*
X154750000Y-86300000D03*
X154750000Y-88840000D03*
X154750000Y-91380000D03*
X154750000Y-93920000D03*
X154750000Y-96460000D03*
D10*
G36*
X155624505Y-98131204D02*
G01*
X155648773Y-98134804D01*
X155672572Y-98140765D01*
X155695671Y-98149030D01*
X155717850Y-98159520D01*
X155738893Y-98172132D01*
X155758599Y-98186747D01*
X155776777Y-98203223D01*
X155793253Y-98221401D01*
X155807868Y-98241107D01*
X155820480Y-98262150D01*
X155830970Y-98284329D01*
X155839235Y-98307428D01*
X155845196Y-98331227D01*
X155848796Y-98355495D01*
X155850000Y-98379999D01*
X155850000Y-99620001D01*
X155848796Y-99644505D01*
X155845196Y-99668773D01*
X155839235Y-99692572D01*
X155830970Y-99715671D01*
X155820480Y-99737850D01*
X155807868Y-99758893D01*
X155793253Y-99778599D01*
X155776777Y-99796777D01*
X155758599Y-99813253D01*
X155738893Y-99827868D01*
X155717850Y-99840480D01*
X155695671Y-99850970D01*
X155672572Y-99859235D01*
X155648773Y-99865196D01*
X155624505Y-99868796D01*
X155600001Y-99870000D01*
X153899999Y-99870000D01*
X153875495Y-99868796D01*
X153851227Y-99865196D01*
X153827428Y-99859235D01*
X153804329Y-99850970D01*
X153782150Y-99840480D01*
X153761107Y-99827868D01*
X153741401Y-99813253D01*
X153723223Y-99796777D01*
X153706747Y-99778599D01*
X153692132Y-99758893D01*
X153679520Y-99737850D01*
X153669030Y-99715671D01*
X153660765Y-99692572D01*
X153654804Y-99668773D01*
X153651204Y-99644505D01*
X153650000Y-99620001D01*
X153650000Y-98379999D01*
X153651204Y-98355495D01*
X153654804Y-98331227D01*
X153660765Y-98307428D01*
X153669030Y-98284329D01*
X153679520Y-98262150D01*
X153692132Y-98241107D01*
X153706747Y-98221401D01*
X153723223Y-98203223D01*
X153741401Y-98186747D01*
X153761107Y-98172132D01*
X153782150Y-98159520D01*
X153804329Y-98149030D01*
X153827428Y-98140765D01*
X153851227Y-98134804D01*
X153875495Y-98131204D01*
X153899999Y-98130000D01*
X155600001Y-98130000D01*
X155624505Y-98131204D01*
X155624505Y-98131204D01*
G37*
D11*
X154750000Y-99000000D03*
D10*
G36*
X144894505Y-68901204D02*
G01*
X144918773Y-68904804D01*
X144942572Y-68910765D01*
X144965671Y-68919030D01*
X144987850Y-68929520D01*
X145008893Y-68942132D01*
X145028599Y-68956747D01*
X145046777Y-68973223D01*
X145063253Y-68991401D01*
X145077868Y-69011107D01*
X145090480Y-69032150D01*
X145100970Y-69054329D01*
X145109235Y-69077428D01*
X145115196Y-69101227D01*
X145118796Y-69125495D01*
X145120000Y-69149999D01*
X145120000Y-70850001D01*
X145118796Y-70874505D01*
X145115196Y-70898773D01*
X145109235Y-70922572D01*
X145100970Y-70945671D01*
X145090480Y-70967850D01*
X145077868Y-70988893D01*
X145063253Y-71008599D01*
X145046777Y-71026777D01*
X145028599Y-71043253D01*
X145008893Y-71057868D01*
X144987850Y-71070480D01*
X144965671Y-71080970D01*
X144942572Y-71089235D01*
X144918773Y-71095196D01*
X144894505Y-71098796D01*
X144870001Y-71100000D01*
X143629999Y-71100000D01*
X143605495Y-71098796D01*
X143581227Y-71095196D01*
X143557428Y-71089235D01*
X143534329Y-71080970D01*
X143512150Y-71070480D01*
X143491107Y-71057868D01*
X143471401Y-71043253D01*
X143453223Y-71026777D01*
X143436747Y-71008599D01*
X143422132Y-70988893D01*
X143409520Y-70967850D01*
X143399030Y-70945671D01*
X143390765Y-70922572D01*
X143384804Y-70898773D01*
X143381204Y-70874505D01*
X143380000Y-70850001D01*
X143380000Y-69149999D01*
X143381204Y-69125495D01*
X143384804Y-69101227D01*
X143390765Y-69077428D01*
X143399030Y-69054329D01*
X143409520Y-69032150D01*
X143422132Y-69011107D01*
X143436747Y-68991401D01*
X143453223Y-68973223D01*
X143471401Y-68956747D01*
X143491107Y-68942132D01*
X143512150Y-68929520D01*
X143534329Y-68919030D01*
X143557428Y-68910765D01*
X143581227Y-68904804D01*
X143605495Y-68901204D01*
X143629999Y-68900000D01*
X144870001Y-68900000D01*
X144894505Y-68901204D01*
X144894505Y-68901204D01*
G37*
D11*
X144250000Y-70000000D03*
D12*
X141710000Y-70000000D03*
X139170000Y-70000000D03*
X136630000Y-70000000D03*
X134090000Y-70000000D03*
X131550000Y-70000000D03*
X129010000Y-70000000D03*
X126470000Y-70000000D03*
D14*
X153000000Y-74420000D03*
D13*
X153000000Y-79500000D03*
D10*
G36*
X139894505Y-54401204D02*
G01*
X139918773Y-54404804D01*
X139942572Y-54410765D01*
X139965671Y-54419030D01*
X139987850Y-54429520D01*
X140008893Y-54442132D01*
X140028599Y-54456747D01*
X140046777Y-54473223D01*
X140063253Y-54491401D01*
X140077868Y-54511107D01*
X140090480Y-54532150D01*
X140100970Y-54554329D01*
X140109235Y-54577428D01*
X140115196Y-54601227D01*
X140118796Y-54625495D01*
X140120000Y-54649999D01*
X140120000Y-56350001D01*
X140118796Y-56374505D01*
X140115196Y-56398773D01*
X140109235Y-56422572D01*
X140100970Y-56445671D01*
X140090480Y-56467850D01*
X140077868Y-56488893D01*
X140063253Y-56508599D01*
X140046777Y-56526777D01*
X140028599Y-56543253D01*
X140008893Y-56557868D01*
X139987850Y-56570480D01*
X139965671Y-56580970D01*
X139942572Y-56589235D01*
X139918773Y-56595196D01*
X139894505Y-56598796D01*
X139870001Y-56600000D01*
X138629999Y-56600000D01*
X138605495Y-56598796D01*
X138581227Y-56595196D01*
X138557428Y-56589235D01*
X138534329Y-56580970D01*
X138512150Y-56570480D01*
X138491107Y-56557868D01*
X138471401Y-56543253D01*
X138453223Y-56526777D01*
X138436747Y-56508599D01*
X138422132Y-56488893D01*
X138409520Y-56467850D01*
X138399030Y-56445671D01*
X138390765Y-56422572D01*
X138384804Y-56398773D01*
X138381204Y-56374505D01*
X138380000Y-56350001D01*
X138380000Y-54649999D01*
X138381204Y-54625495D01*
X138384804Y-54601227D01*
X138390765Y-54577428D01*
X138399030Y-54554329D01*
X138409520Y-54532150D01*
X138422132Y-54511107D01*
X138436747Y-54491401D01*
X138453223Y-54473223D01*
X138471401Y-54456747D01*
X138491107Y-54442132D01*
X138512150Y-54429520D01*
X138534329Y-54419030D01*
X138557428Y-54410765D01*
X138581227Y-54404804D01*
X138605495Y-54401204D01*
X138629999Y-54400000D01*
X139870001Y-54400000D01*
X139894505Y-54401204D01*
X139894505Y-54401204D01*
G37*
D11*
X139250000Y-55500000D03*
D12*
X136710000Y-55500000D03*
X134170000Y-55500000D03*
X131630000Y-55500000D03*
X129090000Y-55500000D03*
X126550000Y-55500000D03*
D16*
X88750000Y-77250000D03*
D17*
X86210000Y-77250000D03*
X83670000Y-77250000D03*
D18*
X120270000Y-63000000D03*
X121540000Y-63000000D03*
D19*
X119000000Y-63000000D03*
D20*
X102000000Y-63000000D03*
X106000000Y-63000000D03*
D21*
X72460000Y-95500000D03*
X69920000Y-95500000D03*
D22*
X75000000Y-95500000D03*
X146500000Y-106500000D03*
D23*
X145230000Y-110200000D03*
X143960000Y-106500000D03*
X142690000Y-110200000D03*
X141420000Y-106500000D03*
X140150000Y-110200000D03*
X138880000Y-106500000D03*
X110630000Y-106500000D03*
X111900000Y-110200000D03*
X113170000Y-106500000D03*
X114440000Y-110200000D03*
X115710000Y-106500000D03*
X116980000Y-110200000D03*
D22*
X118250000Y-106500000D03*
D24*
X97750000Y-61040000D03*
D20*
X97750000Y-58460000D03*
X97750000Y-55960000D03*
D25*
X79750000Y-73000000D03*
X75000000Y-73000000D03*
X125000000Y-106000000D03*
X118750000Y-102750000D03*
X114500000Y-82000000D03*
X144290000Y-96460000D03*
X130500000Y-93500000D03*
X146700000Y-74900000D03*
X142200000Y-82700000D03*
X73000000Y-105000000D03*
X101000000Y-97000000D03*
X132000000Y-96000000D03*
X121500000Y-97500000D03*
X140000000Y-75500000D03*
X145500000Y-89500000D03*
X120500000Y-106600000D03*
X124900000Y-107300000D03*
X137500000Y-82000000D03*
X137500000Y-75500000D03*
X136000000Y-82000000D03*
X136000000Y-76000000D03*
X128000000Y-110800000D03*
X87000000Y-56000000D03*
X85000000Y-56000000D03*
X83000000Y-56000000D03*
X81000000Y-56000000D03*
X79000000Y-56000000D03*
X77000000Y-56000000D03*
X75000000Y-56000000D03*
X73000000Y-56000000D03*
X84000000Y-54000000D03*
X82000000Y-54000000D03*
X80000000Y-54000000D03*
X78000000Y-54000000D03*
X76000000Y-54000000D03*
X74000000Y-54000000D03*
X72000000Y-54000000D03*
X100000000Y-51500000D03*
X98000000Y-51500000D03*
X96000000Y-51500000D03*
X94000000Y-51500000D03*
X92000000Y-51500000D03*
X86000000Y-54000000D03*
X89000000Y-56000000D03*
X101700000Y-59000000D03*
X102000000Y-51500000D03*
X71000000Y-56000000D03*
X70000000Y-54000000D03*
X69000000Y-56000000D03*
X88000000Y-54000000D03*
X76000000Y-58000000D03*
X78000000Y-59500000D03*
X76000000Y-61000000D03*
X101750000Y-57500000D03*
X89250000Y-67750000D03*
X91500000Y-67750000D03*
X93750000Y-67750000D03*
X95750000Y-67750000D03*
X97750000Y-67750000D03*
X144000000Y-83500000D03*
X131700000Y-82000000D03*
X142512653Y-81012653D03*
X109000000Y-63000000D03*
X70250000Y-80750000D03*
X125000000Y-96100000D03*
X124000000Y-89800000D03*
X108900000Y-51100000D03*
X118000000Y-54000000D03*
X141800000Y-65400000D03*
X136400000Y-65100000D03*
X120000000Y-55000000D03*
X137900000Y-85600000D03*
X128200000Y-93800000D03*
X108100000Y-110300000D03*
X116100000Y-79900000D03*
X80000000Y-76400000D03*
X136800000Y-60000000D03*
X140900000Y-59900000D03*
X112200000Y-72800000D03*
X72000000Y-78750000D03*
X70250000Y-78750000D03*
X72000000Y-80750000D03*
X72000000Y-82500000D03*
X70250000Y-82500000D03*
X68500000Y-82500000D03*
X68500000Y-80750000D03*
X68500000Y-78750000D03*
X63500000Y-82500000D03*
X62000000Y-83500000D03*
X63500000Y-84500000D03*
X63500000Y-86500000D03*
X62000000Y-85500000D03*
X62000000Y-87500000D03*
X63500000Y-88500000D03*
X63500000Y-90500000D03*
X62000000Y-89500000D03*
X62000000Y-91500000D03*
X62000000Y-93500000D03*
X63500000Y-102500000D03*
X66500000Y-102500000D03*
X68000000Y-105000000D03*
X65000000Y-105000000D03*
X62000000Y-105000000D03*
X63500000Y-107500000D03*
X66500000Y-107500000D03*
X75000000Y-110000000D03*
X72500000Y-108500000D03*
X72500000Y-111000000D03*
X75000000Y-112500000D03*
X72500000Y-113500000D03*
X91000000Y-108500000D03*
X91000000Y-111000000D03*
X91000000Y-113500000D03*
X93500000Y-113500000D03*
X93500000Y-72500000D03*
X96500000Y-71000000D03*
X96500000Y-73500000D03*
X93500000Y-75000000D03*
X96500000Y-76000000D03*
X96500000Y-78500000D03*
X93500000Y-77500000D03*
X93500000Y-80000000D03*
X96500000Y-81000000D03*
X93500000Y-82500000D03*
X95500000Y-102500000D03*
X97500000Y-102500000D03*
X97500000Y-104500000D03*
X95500000Y-104500000D03*
X97500000Y-108500000D03*
X108000000Y-61500000D03*
X120000000Y-53500000D03*
X118000000Y-52500000D03*
X118000000Y-55500000D03*
X120000000Y-56500000D03*
X118000000Y-57000000D03*
X118000000Y-58500000D03*
X113000000Y-66000000D03*
X111000000Y-66000000D03*
X112000000Y-67500000D03*
X111500000Y-78000000D03*
X111500000Y-79700000D03*
X111500000Y-82500000D03*
X111500000Y-88500000D03*
X113500000Y-88500000D03*
X113500000Y-91000000D03*
X111500000Y-91000000D03*
X113500000Y-93500000D03*
X111500000Y-96000000D03*
X104000000Y-103500000D03*
X104000000Y-98500000D03*
X104000000Y-93500000D03*
X106500000Y-101000000D03*
X106500000Y-96000000D03*
X109000000Y-98500000D03*
X109000000Y-93500000D03*
X104000000Y-108500000D03*
X104000000Y-111000000D03*
X104000000Y-113500000D03*
X101000000Y-113500000D03*
X101000000Y-111000000D03*
X101000000Y-108500000D03*
X98500000Y-111000000D03*
X101500000Y-123000000D03*
X103500000Y-123000000D03*
X105500000Y-123000000D03*
X107500000Y-123000000D03*
X109500000Y-123000000D03*
X111500000Y-123000000D03*
X113500000Y-123000000D03*
X115500000Y-123000000D03*
X117500000Y-123000000D03*
X119500000Y-123000000D03*
X119000000Y-98000000D03*
X133000000Y-106000000D03*
X149500000Y-112500000D03*
X152000000Y-112500000D03*
X152000000Y-104500000D03*
X149500000Y-104500000D03*
X119500000Y-67000000D03*
X119500000Y-68500000D03*
X119500000Y-70000000D03*
X123000000Y-67000000D03*
X123000000Y-68500000D03*
X123000000Y-70000000D03*
X123000000Y-71500000D03*
X123000000Y-73000000D03*
X131500000Y-89500000D03*
X133500000Y-88000000D03*
X135500000Y-88000000D03*
X135500000Y-89500000D03*
X133500000Y-86000000D03*
X145500000Y-103500000D03*
X149000000Y-88500000D03*
X147000000Y-87500000D03*
X149000000Y-86500000D03*
X149000000Y-84500000D03*
X147000000Y-85500000D03*
X145000000Y-86500000D03*
X125500000Y-61500000D03*
X125500000Y-63500000D03*
X96500000Y-83500000D03*
X124000000Y-87600000D03*
X124000000Y-83500000D03*
X124000000Y-85500000D03*
X124000000Y-81600000D03*
X124000000Y-79500000D03*
X63500000Y-92500000D03*
X67500000Y-84250000D03*
X67500000Y-86000000D03*
X67500000Y-87750000D03*
X67500000Y-89750000D03*
X67500000Y-91500000D03*
X62000000Y-100750000D03*
X62000000Y-98750000D03*
X62000000Y-97000000D03*
X62000000Y-95250000D03*
X65000000Y-100000000D03*
X67500000Y-100000000D03*
X70000000Y-106750000D03*
X104000000Y-106000000D03*
X106000000Y-109750000D03*
X106000000Y-112250000D03*
X106500000Y-98500000D03*
X109000000Y-96000000D03*
X104000000Y-96000000D03*
X133000000Y-103750000D03*
X133000000Y-101500000D03*
X149500000Y-107250000D03*
X149500000Y-109750000D03*
X152000000Y-109750000D03*
X152000000Y-107250000D03*
X138250000Y-103750000D03*
X137500000Y-98000000D03*
X134750000Y-110750000D03*
X88000000Y-75000000D03*
X84000000Y-75000000D03*
D26*
X79750000Y-73000000D02*
X75000000Y-73000000D01*
X118750000Y-102750000D02*
X116750000Y-100750000D01*
X116750000Y-84250000D02*
X114500000Y-82000000D01*
X116750000Y-100750000D02*
X116750000Y-84250000D01*
X125000000Y-106000000D02*
X134540000Y-96460000D01*
X116980000Y-111472792D02*
X118307208Y-112800000D01*
X116980000Y-110200000D02*
X116980000Y-111472792D01*
X142630000Y-112800000D02*
X145230000Y-110200000D01*
X118307208Y-112800000D02*
X142630000Y-112800000D01*
D27*
X116980000Y-104520000D02*
X118750000Y-102750000D01*
X116980000Y-110200000D02*
X116980000Y-104520000D01*
D26*
X134540000Y-96460000D02*
X144290000Y-96460000D01*
X144290000Y-96460000D02*
X154750000Y-96460000D01*
X132620000Y-91380000D02*
X154750000Y-91380000D01*
X130500000Y-93500000D02*
X132620000Y-91380000D01*
X146700000Y-80400000D02*
X142200000Y-82700000D01*
X146700000Y-74900000D02*
X146700000Y-80400000D01*
X73000000Y-105000000D02*
X75000000Y-107000000D01*
X75000000Y-107000000D02*
X99000000Y-107000000D01*
X101000000Y-105000000D02*
X101000000Y-97000000D01*
X99000000Y-107000000D02*
X101000000Y-105000000D01*
X134080000Y-93920000D02*
X154750000Y-93920000D01*
X132000000Y-96000000D02*
X134080000Y-93920000D01*
X121500000Y-97500000D02*
X130500000Y-89000000D01*
X130500000Y-89000000D02*
X130500000Y-76000000D01*
X134090000Y-72410000D02*
X134090000Y-70000000D01*
X130500000Y-76000000D02*
X134090000Y-72410000D01*
X140000000Y-84000000D02*
X145500000Y-89500000D01*
X140000000Y-75500000D02*
X140000000Y-84000000D01*
X129500000Y-87500000D02*
X129400000Y-75000000D01*
X120500000Y-96000000D02*
X129500000Y-87500000D01*
X131400000Y-73000000D02*
X131550000Y-70000000D01*
X129400000Y-75000000D02*
X131400000Y-73000000D01*
X120500000Y-106600000D02*
X120500000Y-96000000D01*
X142500000Y-108000000D02*
X143960000Y-106500000D01*
X125500000Y-107900000D02*
X142500000Y-108000000D01*
X124900000Y-107300000D02*
X125500000Y-107900000D01*
X137500000Y-82000000D02*
X137500000Y-75500000D01*
X136000000Y-82000000D02*
X136000000Y-76000000D01*
X145698298Y-108701702D02*
X142785830Y-108701702D01*
X146500000Y-107900000D02*
X145698298Y-108701702D01*
X146500000Y-106500000D02*
X146500000Y-107900000D01*
X118250000Y-106500000D02*
X118250000Y-108850000D01*
X118250000Y-108850000D02*
X120200000Y-110800000D01*
X130800000Y-110800000D02*
X132899434Y-108700566D01*
X120200000Y-110800000D02*
X130800000Y-110800000D01*
X142785830Y-108701702D02*
X132899434Y-108700566D01*
D28*
X102000000Y-59300000D02*
X101700000Y-59000000D01*
X102000000Y-63000000D02*
X102000000Y-59300000D01*
X106000000Y-63000000D02*
X109000000Y-63000000D01*
D26*
X88000000Y-75000000D02*
X84000000Y-75000000D01*
D29*
G36*
X159340001Y-124340000D02*
G01*
X60660000Y-124340000D01*
X60660000Y-120631834D01*
X62320222Y-120631834D01*
X62369823Y-121074039D01*
X62504371Y-121498188D01*
X62718741Y-121888125D01*
X63004768Y-122228998D01*
X63351556Y-122507823D01*
X63745897Y-122713979D01*
X64172771Y-122839615D01*
X64615917Y-122879944D01*
X65058458Y-122833432D01*
X65483536Y-122701848D01*
X65874960Y-122490206D01*
X66217821Y-122206566D01*
X66499060Y-121861733D01*
X66707965Y-121468840D01*
X66836578Y-121042854D01*
X66876878Y-120631834D01*
X153120222Y-120631834D01*
X153169823Y-121074039D01*
X153304371Y-121498188D01*
X153518741Y-121888125D01*
X153804768Y-122228998D01*
X154151556Y-122507823D01*
X154545897Y-122713979D01*
X154972771Y-122839615D01*
X155415917Y-122879944D01*
X155858458Y-122833432D01*
X156283536Y-122701848D01*
X156674960Y-122490206D01*
X157017821Y-122206566D01*
X157299060Y-121861733D01*
X157507965Y-121468840D01*
X157636578Y-121042854D01*
X157680000Y-120600000D01*
X157679111Y-120536339D01*
X157623341Y-120094869D01*
X157482884Y-119672640D01*
X157263090Y-119285734D01*
X156972333Y-118948888D01*
X156621685Y-118674932D01*
X156224504Y-118474302D01*
X155795918Y-118354638D01*
X155352251Y-118320500D01*
X154910403Y-118373187D01*
X154487204Y-118510693D01*
X154098773Y-118727780D01*
X153759905Y-119016179D01*
X153483508Y-119364905D01*
X153280110Y-119760676D01*
X153157457Y-120188416D01*
X153120222Y-120631834D01*
X66876878Y-120631834D01*
X66880000Y-120600000D01*
X66879111Y-120536339D01*
X66823341Y-120094869D01*
X66682884Y-119672640D01*
X66463090Y-119285734D01*
X66172333Y-118948888D01*
X65821685Y-118674932D01*
X65424504Y-118474302D01*
X64995918Y-118354638D01*
X64552251Y-118320500D01*
X64110403Y-118373187D01*
X63687204Y-118510693D01*
X63298773Y-118727780D01*
X62959905Y-119016179D01*
X62683508Y-119364905D01*
X62480110Y-119760676D01*
X62357457Y-120188416D01*
X62320222Y-120631834D01*
X60660000Y-120631834D01*
X60660000Y-104898061D01*
X71965000Y-104898061D01*
X71965000Y-105101939D01*
X72004774Y-105301898D01*
X72082795Y-105490256D01*
X72196063Y-105659774D01*
X72340226Y-105803937D01*
X72509744Y-105917205D01*
X72698102Y-105995226D01*
X72754957Y-106006535D01*
X74343470Y-107595049D01*
X74371183Y-107628817D01*
X74404951Y-107656530D01*
X74404953Y-107656532D01*
X74414694Y-107664526D01*
X74505941Y-107739411D01*
X74659687Y-107821589D01*
X74826510Y-107872195D01*
X74956523Y-107885000D01*
X74956533Y-107885000D01*
X74999999Y-107889281D01*
X75043465Y-107885000D01*
X98956531Y-107885000D01*
X99000000Y-107889281D01*
X99043469Y-107885000D01*
X99043477Y-107885000D01*
X99173490Y-107872195D01*
X99340313Y-107821589D01*
X99494059Y-107739411D01*
X99628817Y-107628817D01*
X99656534Y-107595044D01*
X100751578Y-106500000D01*
X109087573Y-106500000D01*
X109117210Y-106800913D01*
X109204983Y-107090261D01*
X109347519Y-107356927D01*
X109539339Y-107590661D01*
X109773073Y-107782481D01*
X110039739Y-107925017D01*
X110329087Y-108012790D01*
X110554592Y-108035000D01*
X110705408Y-108035000D01*
X110930913Y-108012790D01*
X111220261Y-107925017D01*
X111486927Y-107782481D01*
X111720661Y-107590661D01*
X111900000Y-107372135D01*
X112079339Y-107590661D01*
X112313073Y-107782481D01*
X112579739Y-107925017D01*
X112869087Y-108012790D01*
X113094592Y-108035000D01*
X113245408Y-108035000D01*
X113470913Y-108012790D01*
X113760261Y-107925017D01*
X114026927Y-107782481D01*
X114260661Y-107590661D01*
X114440000Y-107372135D01*
X114619339Y-107590661D01*
X114853073Y-107782481D01*
X115119739Y-107925017D01*
X115409087Y-108012790D01*
X115634592Y-108035000D01*
X115785408Y-108035000D01*
X116010913Y-108012790D01*
X116220000Y-107949364D01*
X116220000Y-108865710D01*
X116123073Y-108917519D01*
X115889339Y-109109339D01*
X115710000Y-109327865D01*
X115530661Y-109109339D01*
X115296927Y-108917519D01*
X115030261Y-108774983D01*
X114740913Y-108687210D01*
X114515408Y-108665000D01*
X114364592Y-108665000D01*
X114139087Y-108687210D01*
X113849739Y-108774983D01*
X113583073Y-108917519D01*
X113349339Y-109109339D01*
X113170000Y-109327865D01*
X112990661Y-109109339D01*
X112756927Y-108917519D01*
X112490261Y-108774983D01*
X112200913Y-108687210D01*
X111975408Y-108665000D01*
X111824592Y-108665000D01*
X111599087Y-108687210D01*
X111309739Y-108774983D01*
X111043073Y-108917519D01*
X110809339Y-109109339D01*
X110617519Y-109343073D01*
X110474983Y-109609739D01*
X110387210Y-109899087D01*
X110357573Y-110200000D01*
X110387210Y-110500913D01*
X110474983Y-110790261D01*
X110617519Y-111056927D01*
X110809339Y-111290661D01*
X111043073Y-111482481D01*
X111309739Y-111625017D01*
X111599087Y-111712790D01*
X111824592Y-111735000D01*
X111975408Y-111735000D01*
X112200913Y-111712790D01*
X112490261Y-111625017D01*
X112756927Y-111482481D01*
X112990661Y-111290661D01*
X113170000Y-111072135D01*
X113349339Y-111290661D01*
X113583073Y-111482481D01*
X113849739Y-111625017D01*
X114139087Y-111712790D01*
X114364592Y-111735000D01*
X114515408Y-111735000D01*
X114740913Y-111712790D01*
X115030261Y-111625017D01*
X115296927Y-111482481D01*
X115530661Y-111290661D01*
X115710000Y-111072135D01*
X115889339Y-111290661D01*
X116092256Y-111457190D01*
X116090719Y-111472792D01*
X116107805Y-111646282D01*
X116158412Y-111813105D01*
X116240590Y-111966851D01*
X116323468Y-112067838D01*
X116323471Y-112067841D01*
X116351184Y-112101609D01*
X116384951Y-112129321D01*
X117650678Y-113395049D01*
X117678391Y-113428817D01*
X117712159Y-113456530D01*
X117712161Y-113456532D01*
X117813149Y-113539411D01*
X117966894Y-113621589D01*
X118133718Y-113672195D01*
X118263731Y-113685000D01*
X118263739Y-113685000D01*
X118307208Y-113689281D01*
X118350677Y-113685000D01*
X142586531Y-113685000D01*
X142630000Y-113689281D01*
X142673469Y-113685000D01*
X142673477Y-113685000D01*
X142803490Y-113672195D01*
X142970313Y-113621589D01*
X143124059Y-113539411D01*
X143258817Y-113428817D01*
X143286534Y-113395044D01*
X144965229Y-111716350D01*
X145154592Y-111735000D01*
X145305408Y-111735000D01*
X145530913Y-111712790D01*
X145820261Y-111625017D01*
X146086927Y-111482481D01*
X146320661Y-111290661D01*
X146512481Y-111056927D01*
X146655017Y-110790261D01*
X146742790Y-110500913D01*
X146772427Y-110200000D01*
X146742790Y-109899087D01*
X146655017Y-109609739D01*
X146512481Y-109343073D01*
X146420538Y-109231040D01*
X147095049Y-108556530D01*
X147128817Y-108528817D01*
X147239411Y-108394059D01*
X147321589Y-108240313D01*
X147372195Y-108073490D01*
X147375683Y-108038072D01*
X147400000Y-108038072D01*
X147524482Y-108025812D01*
X147644180Y-107989502D01*
X147754494Y-107930537D01*
X147851185Y-107851185D01*
X147930537Y-107754494D01*
X147989502Y-107644180D01*
X148025812Y-107524482D01*
X148038072Y-107400000D01*
X148038072Y-105600000D01*
X148025812Y-105475518D01*
X147989502Y-105355820D01*
X147930537Y-105245506D01*
X147851185Y-105148815D01*
X147754494Y-105069463D01*
X147644180Y-105010498D01*
X147524482Y-104974188D01*
X147400000Y-104961928D01*
X145600000Y-104961928D01*
X145475518Y-104974188D01*
X145355820Y-105010498D01*
X145245506Y-105069463D01*
X145148815Y-105148815D01*
X145069463Y-105245506D01*
X145010498Y-105355820D01*
X145005505Y-105372280D01*
X144816927Y-105217519D01*
X144550261Y-105074983D01*
X144260913Y-104987210D01*
X144035408Y-104965000D01*
X143884592Y-104965000D01*
X143659087Y-104987210D01*
X143369739Y-105074983D01*
X143103073Y-105217519D01*
X142869339Y-105409339D01*
X142690000Y-105627865D01*
X142510661Y-105409339D01*
X142276927Y-105217519D01*
X142010261Y-105074983D01*
X141720913Y-104987210D01*
X141495408Y-104965000D01*
X141344592Y-104965000D01*
X141119087Y-104987210D01*
X140829739Y-105074983D01*
X140563073Y-105217519D01*
X140329339Y-105409339D01*
X140150000Y-105627865D01*
X139970661Y-105409339D01*
X139736927Y-105217519D01*
X139470261Y-105074983D01*
X139180913Y-104987210D01*
X138955408Y-104965000D01*
X138804592Y-104965000D01*
X138579087Y-104987210D01*
X138289739Y-105074983D01*
X138023073Y-105217519D01*
X137789339Y-105409339D01*
X137597519Y-105643073D01*
X137454983Y-105909739D01*
X137367210Y-106199087D01*
X137337573Y-106500000D01*
X137367210Y-106800913D01*
X137453478Y-107085300D01*
X125899051Y-107017332D01*
X125895226Y-106998102D01*
X125817205Y-106809744D01*
X125751821Y-106711890D01*
X125803937Y-106659774D01*
X125917205Y-106490256D01*
X125995226Y-106301898D01*
X126006535Y-106245043D01*
X132381578Y-99870000D01*
X153011928Y-99870000D01*
X153024188Y-99994482D01*
X153060498Y-100114180D01*
X153119463Y-100224494D01*
X153198815Y-100321185D01*
X153295506Y-100400537D01*
X153405820Y-100459502D01*
X153525518Y-100495812D01*
X153650000Y-100508072D01*
X154464250Y-100505000D01*
X154623000Y-100346250D01*
X154623000Y-99127000D01*
X154877000Y-99127000D01*
X154877000Y-100346250D01*
X155035750Y-100505000D01*
X155850000Y-100508072D01*
X155974482Y-100495812D01*
X156094180Y-100459502D01*
X156204494Y-100400537D01*
X156301185Y-100321185D01*
X156380537Y-100224494D01*
X156439502Y-100114180D01*
X156475812Y-99994482D01*
X156488072Y-99870000D01*
X156485000Y-99285750D01*
X156326250Y-99127000D01*
X154877000Y-99127000D01*
X154623000Y-99127000D01*
X153173750Y-99127000D01*
X153015000Y-99285750D01*
X153011928Y-99870000D01*
X132381578Y-99870000D01*
X134906579Y-97345000D01*
X143751546Y-97345000D01*
X143799744Y-97377205D01*
X143988102Y-97455226D01*
X144188061Y-97495000D01*
X144391939Y-97495000D01*
X144591898Y-97455226D01*
X144780256Y-97377205D01*
X144828454Y-97345000D01*
X153299367Y-97345000D01*
X153449047Y-97527385D01*
X153405820Y-97540498D01*
X153295506Y-97599463D01*
X153198815Y-97678815D01*
X153119463Y-97775506D01*
X153060498Y-97885820D01*
X153024188Y-98005518D01*
X153011928Y-98130000D01*
X153015000Y-98714250D01*
X153173750Y-98873000D01*
X154623000Y-98873000D01*
X154623000Y-98853000D01*
X154877000Y-98853000D01*
X154877000Y-98873000D01*
X156326250Y-98873000D01*
X156485000Y-98714250D01*
X156488072Y-98130000D01*
X156475812Y-98005518D01*
X156439502Y-97885820D01*
X156380537Y-97775506D01*
X156301185Y-97678815D01*
X156204494Y-97599463D01*
X156094180Y-97540498D01*
X156050953Y-97527385D01*
X156237417Y-97300179D01*
X156377166Y-97038725D01*
X156463224Y-96755032D01*
X156492282Y-96460000D01*
X156463224Y-96164968D01*
X156377166Y-95881275D01*
X156237417Y-95619821D01*
X156049345Y-95390655D01*
X155820179Y-95202583D01*
X155796638Y-95190000D01*
X155820179Y-95177417D01*
X156049345Y-94989345D01*
X156237417Y-94760179D01*
X156377166Y-94498725D01*
X156463224Y-94215032D01*
X156492282Y-93920000D01*
X156463224Y-93624968D01*
X156377166Y-93341275D01*
X156237417Y-93079821D01*
X156049345Y-92850655D01*
X155820179Y-92662583D01*
X155796638Y-92650000D01*
X155820179Y-92637417D01*
X156049345Y-92449345D01*
X156237417Y-92220179D01*
X156377166Y-91958725D01*
X156463224Y-91675032D01*
X156492282Y-91380000D01*
X156463224Y-91084968D01*
X156377166Y-90801275D01*
X156237417Y-90539821D01*
X156049345Y-90310655D01*
X155820179Y-90122583D01*
X155792331Y-90107698D01*
X155928903Y-90018256D01*
X156140536Y-89810494D01*
X156307571Y-89565437D01*
X156423588Y-89292502D01*
X156441302Y-89200031D01*
X156320246Y-88967000D01*
X154877000Y-88967000D01*
X154877000Y-88987000D01*
X154623000Y-88987000D01*
X154623000Y-88967000D01*
X153179754Y-88967000D01*
X153058698Y-89200031D01*
X153076412Y-89292502D01*
X153192429Y-89565437D01*
X153359464Y-89810494D01*
X153571097Y-90018256D01*
X153707669Y-90107698D01*
X153679821Y-90122583D01*
X153450655Y-90310655D01*
X153299367Y-90495000D01*
X145802444Y-90495000D01*
X145990256Y-90417205D01*
X146159774Y-90303937D01*
X146303937Y-90159774D01*
X146417205Y-89990256D01*
X146495226Y-89801898D01*
X146535000Y-89601939D01*
X146535000Y-89398061D01*
X146495226Y-89198102D01*
X146417205Y-89009744D01*
X146303937Y-88840226D01*
X146159774Y-88696063D01*
X145990256Y-88582795D01*
X145801898Y-88504774D01*
X145745044Y-88493465D01*
X143551579Y-86300000D01*
X153007718Y-86300000D01*
X153036776Y-86595032D01*
X153122834Y-86878725D01*
X153262583Y-87140179D01*
X153450655Y-87369345D01*
X153679821Y-87557417D01*
X153707669Y-87572302D01*
X153571097Y-87661744D01*
X153359464Y-87869506D01*
X153192429Y-88114563D01*
X153076412Y-88387498D01*
X153058698Y-88479969D01*
X153179754Y-88713000D01*
X154623000Y-88713000D01*
X154623000Y-88693000D01*
X154877000Y-88693000D01*
X154877000Y-88713000D01*
X156320246Y-88713000D01*
X156441302Y-88479969D01*
X156423588Y-88387498D01*
X156307571Y-88114563D01*
X156140536Y-87869506D01*
X155928903Y-87661744D01*
X155792331Y-87572302D01*
X155820179Y-87557417D01*
X156049345Y-87369345D01*
X156237417Y-87140179D01*
X156377166Y-86878725D01*
X156463224Y-86595032D01*
X156492282Y-86300000D01*
X156463224Y-86004968D01*
X156377166Y-85721275D01*
X156237417Y-85459821D01*
X156049345Y-85230655D01*
X155820179Y-85042583D01*
X155558725Y-84902834D01*
X155275032Y-84816776D01*
X155053936Y-84795000D01*
X154446064Y-84795000D01*
X154224968Y-84816776D01*
X153941275Y-84902834D01*
X153679821Y-85042583D01*
X153450655Y-85230655D01*
X153262583Y-85459821D01*
X153122834Y-85721275D01*
X153036776Y-86004968D01*
X153007718Y-86300000D01*
X143551579Y-86300000D01*
X140885000Y-83633422D01*
X140885000Y-82598061D01*
X141165000Y-82598061D01*
X141165000Y-82801939D01*
X141204774Y-83001898D01*
X141282795Y-83190256D01*
X141396063Y-83359774D01*
X141540226Y-83503937D01*
X141709744Y-83617205D01*
X141898102Y-83695226D01*
X142098061Y-83735000D01*
X142301939Y-83735000D01*
X142501898Y-83695226D01*
X142690256Y-83617205D01*
X142859774Y-83503937D01*
X143003937Y-83359774D01*
X143081846Y-83243174D01*
X147032468Y-81223969D01*
X147040313Y-81221589D01*
X147109983Y-81184350D01*
X147141487Y-81168248D01*
X147148349Y-81163843D01*
X147194059Y-81139411D01*
X147221522Y-81116872D01*
X147251427Y-81097676D01*
X147288752Y-81061698D01*
X147328817Y-81028817D01*
X147351358Y-81001351D01*
X147376941Y-80976691D01*
X147406524Y-80934131D01*
X147439411Y-80894059D01*
X147456161Y-80862722D01*
X147476441Y-80833546D01*
X147497156Y-80786025D01*
X147521589Y-80740313D01*
X147531903Y-80706312D01*
X147546102Y-80673739D01*
X147557147Y-80623096D01*
X147572195Y-80573490D01*
X147575678Y-80538129D01*
X147583249Y-80503413D01*
X147584201Y-80451589D01*
X147585000Y-80443477D01*
X147585000Y-80408098D01*
X147586451Y-80329113D01*
X147585000Y-80321046D01*
X147585000Y-78200000D01*
X151061928Y-78200000D01*
X151061928Y-80800000D01*
X151074188Y-80924482D01*
X151110498Y-81044180D01*
X151169463Y-81154494D01*
X151248815Y-81251185D01*
X151345506Y-81330537D01*
X151455820Y-81389502D01*
X151575518Y-81425812D01*
X151700000Y-81438072D01*
X154300000Y-81438072D01*
X154424482Y-81425812D01*
X154544180Y-81389502D01*
X154654494Y-81330537D01*
X154751185Y-81251185D01*
X154830537Y-81154494D01*
X154889502Y-81044180D01*
X154925812Y-80924482D01*
X154938072Y-80800000D01*
X154938072Y-78200000D01*
X154925812Y-78075518D01*
X154889502Y-77955820D01*
X154830537Y-77845506D01*
X154751185Y-77748815D01*
X154654494Y-77669463D01*
X154544180Y-77610498D01*
X154424482Y-77574188D01*
X154300000Y-77561928D01*
X151700000Y-77561928D01*
X151575518Y-77574188D01*
X151455820Y-77610498D01*
X151345506Y-77669463D01*
X151248815Y-77748815D01*
X151169463Y-77845506D01*
X151110498Y-77955820D01*
X151074188Y-78075518D01*
X151061928Y-78200000D01*
X147585000Y-78200000D01*
X147585000Y-75769224D01*
X151830381Y-75769224D01*
X151962317Y-76064312D01*
X152303045Y-76235159D01*
X152670557Y-76336250D01*
X153050729Y-76363701D01*
X153428951Y-76316457D01*
X153790690Y-76196333D01*
X154037683Y-76064312D01*
X154169619Y-75769224D01*
X153000000Y-74599605D01*
X151830381Y-75769224D01*
X147585000Y-75769224D01*
X147585000Y-75438454D01*
X147617205Y-75390256D01*
X147695226Y-75201898D01*
X147735000Y-75001939D01*
X147735000Y-74798061D01*
X147695226Y-74598102D01*
X147642466Y-74470729D01*
X151056299Y-74470729D01*
X151103543Y-74848951D01*
X151223667Y-75210690D01*
X151355688Y-75457683D01*
X151650776Y-75589619D01*
X152820395Y-74420000D01*
X153179605Y-74420000D01*
X154349224Y-75589619D01*
X154644312Y-75457683D01*
X154815159Y-75116955D01*
X154916250Y-74749443D01*
X154943701Y-74369271D01*
X154896457Y-73991049D01*
X154776333Y-73629310D01*
X154644312Y-73382317D01*
X154349224Y-73250381D01*
X153179605Y-74420000D01*
X152820395Y-74420000D01*
X151650776Y-73250381D01*
X151355688Y-73382317D01*
X151184841Y-73723045D01*
X151083750Y-74090557D01*
X151056299Y-74470729D01*
X147642466Y-74470729D01*
X147617205Y-74409744D01*
X147503937Y-74240226D01*
X147359774Y-74096063D01*
X147190256Y-73982795D01*
X147001898Y-73904774D01*
X146801939Y-73865000D01*
X146598061Y-73865000D01*
X146398102Y-73904774D01*
X146209744Y-73982795D01*
X146040226Y-74096063D01*
X145896063Y-74240226D01*
X145782795Y-74409744D01*
X145704774Y-74598102D01*
X145665000Y-74798061D01*
X145665000Y-75001939D01*
X145704774Y-75201898D01*
X145782795Y-75390256D01*
X145815000Y-75438454D01*
X145815001Y-79858437D01*
X142280422Y-81665000D01*
X142098061Y-81665000D01*
X141898102Y-81704774D01*
X141709744Y-81782795D01*
X141540226Y-81896063D01*
X141396063Y-82040226D01*
X141282795Y-82209744D01*
X141204774Y-82398102D01*
X141165000Y-82598061D01*
X140885000Y-82598061D01*
X140885000Y-76038454D01*
X140917205Y-75990256D01*
X140995226Y-75801898D01*
X141035000Y-75601939D01*
X141035000Y-75398061D01*
X140995226Y-75198102D01*
X140917205Y-75009744D01*
X140803937Y-74840226D01*
X140659774Y-74696063D01*
X140490256Y-74582795D01*
X140301898Y-74504774D01*
X140101939Y-74465000D01*
X139898061Y-74465000D01*
X139698102Y-74504774D01*
X139509744Y-74582795D01*
X139340226Y-74696063D01*
X139196063Y-74840226D01*
X139082795Y-75009744D01*
X139004774Y-75198102D01*
X138965000Y-75398061D01*
X138965000Y-75601939D01*
X139004774Y-75801898D01*
X139082795Y-75990256D01*
X139115000Y-76038454D01*
X139115001Y-83956521D01*
X139110719Y-84000000D01*
X139127805Y-84173490D01*
X139178412Y-84340313D01*
X139260590Y-84494059D01*
X139343468Y-84595046D01*
X139343471Y-84595049D01*
X139371184Y-84628817D01*
X139404952Y-84656530D01*
X144493465Y-89745044D01*
X144504774Y-89801898D01*
X144582795Y-89990256D01*
X144696063Y-90159774D01*
X144840226Y-90303937D01*
X145009744Y-90417205D01*
X145197556Y-90495000D01*
X132663469Y-90495000D01*
X132620000Y-90490719D01*
X132576531Y-90495000D01*
X132576523Y-90495000D01*
X132446510Y-90507805D01*
X132279687Y-90558411D01*
X132125941Y-90640589D01*
X132024953Y-90723468D01*
X132024951Y-90723470D01*
X131991183Y-90751183D01*
X131963470Y-90784951D01*
X130254957Y-92493465D01*
X130198102Y-92504774D01*
X130009744Y-92582795D01*
X129840226Y-92696063D01*
X129696063Y-92840226D01*
X129582795Y-93009744D01*
X129504774Y-93198102D01*
X129465000Y-93398061D01*
X129465000Y-93601939D01*
X129504774Y-93801898D01*
X129582795Y-93990256D01*
X129696063Y-94159774D01*
X129840226Y-94303937D01*
X130009744Y-94417205D01*
X130198102Y-94495226D01*
X130398061Y-94535000D01*
X130601939Y-94535000D01*
X130801898Y-94495226D01*
X130990256Y-94417205D01*
X131159774Y-94303937D01*
X131303937Y-94159774D01*
X131417205Y-93990256D01*
X131495226Y-93801898D01*
X131506535Y-93745043D01*
X132986579Y-92265000D01*
X153299367Y-92265000D01*
X153450655Y-92449345D01*
X153679821Y-92637417D01*
X153703362Y-92650000D01*
X153679821Y-92662583D01*
X153450655Y-92850655D01*
X153299367Y-93035000D01*
X134123465Y-93035000D01*
X134079999Y-93030719D01*
X134036533Y-93035000D01*
X134036523Y-93035000D01*
X133906510Y-93047805D01*
X133739687Y-93098411D01*
X133585941Y-93180589D01*
X133585939Y-93180590D01*
X133585940Y-93180590D01*
X133484953Y-93263468D01*
X133484951Y-93263470D01*
X133451183Y-93291183D01*
X133423470Y-93324951D01*
X131754957Y-94993465D01*
X131698102Y-95004774D01*
X131509744Y-95082795D01*
X131340226Y-95196063D01*
X131196063Y-95340226D01*
X131082795Y-95509744D01*
X131004774Y-95698102D01*
X130965000Y-95898061D01*
X130965000Y-96101939D01*
X131004774Y-96301898D01*
X131082795Y-96490256D01*
X131196063Y-96659774D01*
X131340226Y-96803937D01*
X131509744Y-96917205D01*
X131698102Y-96995226D01*
X131898061Y-97035000D01*
X132101939Y-97035000D01*
X132301898Y-96995226D01*
X132490256Y-96917205D01*
X132659774Y-96803937D01*
X132803937Y-96659774D01*
X132917205Y-96490256D01*
X132995226Y-96301898D01*
X133006535Y-96245043D01*
X134446579Y-94805000D01*
X153299367Y-94805000D01*
X153450655Y-94989345D01*
X153679821Y-95177417D01*
X153703362Y-95190000D01*
X153679821Y-95202583D01*
X153450655Y-95390655D01*
X153299367Y-95575000D01*
X144828454Y-95575000D01*
X144780256Y-95542795D01*
X144591898Y-95464774D01*
X144391939Y-95425000D01*
X144188061Y-95425000D01*
X143988102Y-95464774D01*
X143799744Y-95542795D01*
X143751546Y-95575000D01*
X134583465Y-95575000D01*
X134539999Y-95570719D01*
X134496533Y-95575000D01*
X134496523Y-95575000D01*
X134366510Y-95587805D01*
X134199687Y-95638411D01*
X134045941Y-95720589D01*
X134045939Y-95720590D01*
X134045940Y-95720590D01*
X133944953Y-95803468D01*
X133944951Y-95803470D01*
X133911183Y-95831183D01*
X133883470Y-95864951D01*
X124754957Y-104993465D01*
X124698102Y-105004774D01*
X124509744Y-105082795D01*
X124340226Y-105196063D01*
X124196063Y-105340226D01*
X124082795Y-105509744D01*
X124004774Y-105698102D01*
X123965000Y-105898061D01*
X123965000Y-106101939D01*
X124004774Y-106301898D01*
X124082795Y-106490256D01*
X124148179Y-106588110D01*
X124096063Y-106640226D01*
X123982795Y-106809744D01*
X123904774Y-106998102D01*
X123865000Y-107198061D01*
X123865000Y-107401939D01*
X123904774Y-107601898D01*
X123982795Y-107790256D01*
X124096063Y-107959774D01*
X124240226Y-108103937D01*
X124409744Y-108217205D01*
X124598102Y-108295226D01*
X124654956Y-108306535D01*
X124841630Y-108493209D01*
X124867496Y-108525107D01*
X124903100Y-108554679D01*
X124904953Y-108556532D01*
X124936663Y-108582555D01*
X125001601Y-108636492D01*
X125003909Y-108637743D01*
X125005940Y-108639410D01*
X125080592Y-108679312D01*
X125154861Y-108719572D01*
X125157366Y-108720348D01*
X125159686Y-108721588D01*
X125240634Y-108746144D01*
X125321383Y-108771159D01*
X125323997Y-108771432D01*
X125326509Y-108772194D01*
X125410643Y-108780480D01*
X125451318Y-108784728D01*
X125453927Y-108784743D01*
X125499999Y-108789281D01*
X125540878Y-108785255D01*
X131527948Y-108820473D01*
X130433422Y-109915000D01*
X128538454Y-109915000D01*
X128490256Y-109882795D01*
X128301898Y-109804774D01*
X128101939Y-109765000D01*
X127898061Y-109765000D01*
X127698102Y-109804774D01*
X127509744Y-109882795D01*
X127461546Y-109915000D01*
X120566579Y-109915000D01*
X119135000Y-108483422D01*
X119135000Y-108038072D01*
X119150000Y-108038072D01*
X119274482Y-108025812D01*
X119394180Y-107989502D01*
X119504494Y-107930537D01*
X119601185Y-107851185D01*
X119680537Y-107754494D01*
X119739502Y-107644180D01*
X119775812Y-107524482D01*
X119788072Y-107400000D01*
X119788072Y-107351783D01*
X119840226Y-107403937D01*
X120009744Y-107517205D01*
X120198102Y-107595226D01*
X120398061Y-107635000D01*
X120601939Y-107635000D01*
X120801898Y-107595226D01*
X120990256Y-107517205D01*
X121159774Y-107403937D01*
X121303937Y-107259774D01*
X121417205Y-107090256D01*
X121495226Y-106901898D01*
X121535000Y-106701939D01*
X121535000Y-106498061D01*
X121495226Y-106298102D01*
X121417205Y-106109744D01*
X121385000Y-106061546D01*
X121385000Y-98532402D01*
X121398061Y-98535000D01*
X121601939Y-98535000D01*
X121801898Y-98495226D01*
X121990256Y-98417205D01*
X122159774Y-98303937D01*
X122303937Y-98159774D01*
X122417205Y-97990256D01*
X122495226Y-97801898D01*
X122501233Y-97771699D01*
X131085261Y-89664562D01*
X131128817Y-89628817D01*
X131176095Y-89571209D01*
X131224998Y-89514976D01*
X131231324Y-89503913D01*
X131239411Y-89494059D01*
X131274545Y-89428327D01*
X131311534Y-89363640D01*
X131315581Y-89351554D01*
X131321589Y-89340313D01*
X131343222Y-89268999D01*
X131366884Y-89198330D01*
X131368495Y-89185688D01*
X131372195Y-89173490D01*
X131379503Y-89099295D01*
X131388918Y-89025398D01*
X131385000Y-88969203D01*
X131385000Y-76366578D01*
X131853517Y-75898061D01*
X134965000Y-75898061D01*
X134965000Y-76101939D01*
X135004774Y-76301898D01*
X135082795Y-76490256D01*
X135115001Y-76538456D01*
X135115000Y-81461546D01*
X135082795Y-81509744D01*
X135004774Y-81698102D01*
X134965000Y-81898061D01*
X134965000Y-82101939D01*
X135004774Y-82301898D01*
X135082795Y-82490256D01*
X135196063Y-82659774D01*
X135340226Y-82803937D01*
X135509744Y-82917205D01*
X135698102Y-82995226D01*
X135898061Y-83035000D01*
X136101939Y-83035000D01*
X136301898Y-82995226D01*
X136490256Y-82917205D01*
X136659774Y-82803937D01*
X136750000Y-82713711D01*
X136840226Y-82803937D01*
X137009744Y-82917205D01*
X137198102Y-82995226D01*
X137398061Y-83035000D01*
X137601939Y-83035000D01*
X137801898Y-82995226D01*
X137990256Y-82917205D01*
X138159774Y-82803937D01*
X138303937Y-82659774D01*
X138417205Y-82490256D01*
X138495226Y-82301898D01*
X138535000Y-82101939D01*
X138535000Y-81898061D01*
X138495226Y-81698102D01*
X138417205Y-81509744D01*
X138385000Y-81461546D01*
X138385000Y-76038454D01*
X138417205Y-75990256D01*
X138495226Y-75801898D01*
X138535000Y-75601939D01*
X138535000Y-75398061D01*
X138495226Y-75198102D01*
X138417205Y-75009744D01*
X138303937Y-74840226D01*
X138159774Y-74696063D01*
X137990256Y-74582795D01*
X137801898Y-74504774D01*
X137601939Y-74465000D01*
X137398061Y-74465000D01*
X137198102Y-74504774D01*
X137009744Y-74582795D01*
X136840226Y-74696063D01*
X136696063Y-74840226D01*
X136582795Y-75009744D01*
X136539035Y-75115388D01*
X136490256Y-75082795D01*
X136301898Y-75004774D01*
X136101939Y-74965000D01*
X135898061Y-74965000D01*
X135698102Y-75004774D01*
X135509744Y-75082795D01*
X135340226Y-75196063D01*
X135196063Y-75340226D01*
X135082795Y-75509744D01*
X135004774Y-75698102D01*
X134965000Y-75898061D01*
X131853517Y-75898061D01*
X134680802Y-73070776D01*
X151830381Y-73070776D01*
X153000000Y-74240395D01*
X154169619Y-73070776D01*
X154037683Y-72775688D01*
X153696955Y-72604841D01*
X153329443Y-72503750D01*
X152949271Y-72476299D01*
X152571049Y-72523543D01*
X152209310Y-72643667D01*
X151962317Y-72775688D01*
X151830381Y-73070776D01*
X134680802Y-73070776D01*
X134685050Y-73066529D01*
X134718817Y-73038817D01*
X134751308Y-72999228D01*
X134829411Y-72904059D01*
X134911589Y-72750314D01*
X134962195Y-72583490D01*
X134969458Y-72509744D01*
X134975000Y-72453477D01*
X134975000Y-72453469D01*
X134979281Y-72410000D01*
X134975000Y-72366531D01*
X134975000Y-71450633D01*
X135159345Y-71299345D01*
X135347417Y-71070179D01*
X135360000Y-71046637D01*
X135372583Y-71070178D01*
X135560655Y-71299345D01*
X135789821Y-71487417D01*
X136051275Y-71627166D01*
X136334968Y-71713224D01*
X136630000Y-71742282D01*
X136925031Y-71713224D01*
X137208724Y-71627166D01*
X137470178Y-71487417D01*
X137699345Y-71299345D01*
X137887417Y-71070179D01*
X137900000Y-71046637D01*
X137912583Y-71070178D01*
X138100655Y-71299345D01*
X138329821Y-71487417D01*
X138591275Y-71627166D01*
X138874968Y-71713224D01*
X139170000Y-71742282D01*
X139465031Y-71713224D01*
X139748724Y-71627166D01*
X140010178Y-71487417D01*
X140239345Y-71299345D01*
X140427417Y-71070179D01*
X140440000Y-71046637D01*
X140452583Y-71070178D01*
X140640655Y-71299345D01*
X140869821Y-71487417D01*
X141131275Y-71627166D01*
X141414968Y-71713224D01*
X141710000Y-71742282D01*
X142005031Y-71713224D01*
X142288724Y-71627166D01*
X142550178Y-71487417D01*
X142779345Y-71299345D01*
X142833066Y-71233886D01*
X142891595Y-71343387D01*
X143002038Y-71477962D01*
X143136613Y-71588405D01*
X143290149Y-71670472D01*
X143456745Y-71721008D01*
X143629999Y-71738072D01*
X144870001Y-71738072D01*
X145043255Y-71721008D01*
X145209851Y-71670472D01*
X145363387Y-71588405D01*
X145497962Y-71477962D01*
X145608405Y-71343387D01*
X145690472Y-71189851D01*
X145741008Y-71023255D01*
X145758072Y-70850001D01*
X145758072Y-69149999D01*
X145741008Y-68976745D01*
X145690472Y-68810149D01*
X145608405Y-68656613D01*
X145497962Y-68522038D01*
X145363387Y-68411595D01*
X145209851Y-68329528D01*
X145043255Y-68278992D01*
X144870001Y-68261928D01*
X143629999Y-68261928D01*
X143456745Y-68278992D01*
X143290149Y-68329528D01*
X143136613Y-68411595D01*
X143002038Y-68522038D01*
X142891595Y-68656613D01*
X142833066Y-68766114D01*
X142779345Y-68700655D01*
X142550179Y-68512583D01*
X142288725Y-68372834D01*
X142005032Y-68286776D01*
X141710000Y-68257718D01*
X141414969Y-68286776D01*
X141131276Y-68372834D01*
X140869822Y-68512583D01*
X140640655Y-68700655D01*
X140452583Y-68929821D01*
X140440000Y-68953362D01*
X140427417Y-68929821D01*
X140239345Y-68700655D01*
X140010179Y-68512583D01*
X139748725Y-68372834D01*
X139465032Y-68286776D01*
X139170000Y-68257718D01*
X138874969Y-68286776D01*
X138591276Y-68372834D01*
X138329822Y-68512583D01*
X138100655Y-68700655D01*
X137912583Y-68929821D01*
X137900000Y-68953362D01*
X137887417Y-68929821D01*
X137699345Y-68700655D01*
X137470179Y-68512583D01*
X137208725Y-68372834D01*
X136925032Y-68286776D01*
X136630000Y-68257718D01*
X136334969Y-68286776D01*
X136051276Y-68372834D01*
X135789822Y-68512583D01*
X135560655Y-68700655D01*
X135372583Y-68929821D01*
X135360000Y-68953362D01*
X135347417Y-68929821D01*
X135159345Y-68700655D01*
X134930179Y-68512583D01*
X134668725Y-68372834D01*
X134385032Y-68286776D01*
X134090000Y-68257718D01*
X133794969Y-68286776D01*
X133511276Y-68372834D01*
X133249822Y-68512583D01*
X133020655Y-68700655D01*
X132832583Y-68929821D01*
X132820000Y-68953362D01*
X132807417Y-68929821D01*
X132619345Y-68700655D01*
X132390179Y-68512583D01*
X132128725Y-68372834D01*
X131845032Y-68286776D01*
X131550000Y-68257718D01*
X131254969Y-68286776D01*
X130971276Y-68372834D01*
X130709822Y-68512583D01*
X130480655Y-68700655D01*
X130292583Y-68929821D01*
X130280000Y-68953362D01*
X130267417Y-68929821D01*
X130079345Y-68700655D01*
X129850179Y-68512583D01*
X129588725Y-68372834D01*
X129305032Y-68286776D01*
X129010000Y-68257718D01*
X128714969Y-68286776D01*
X128431276Y-68372834D01*
X128169822Y-68512583D01*
X127940655Y-68700655D01*
X127752583Y-68929821D01*
X127740000Y-68953362D01*
X127727417Y-68929821D01*
X127539345Y-68700655D01*
X127310179Y-68512583D01*
X127048725Y-68372834D01*
X126765032Y-68286776D01*
X126470000Y-68257718D01*
X126174969Y-68286776D01*
X125891276Y-68372834D01*
X125629822Y-68512583D01*
X125400655Y-68700655D01*
X125212583Y-68929821D01*
X125072834Y-69191275D01*
X124986776Y-69474968D01*
X124965000Y-69696064D01*
X124965000Y-70303935D01*
X124986776Y-70525031D01*
X125072834Y-70808724D01*
X125212583Y-71070178D01*
X125400655Y-71299345D01*
X125629821Y-71487417D01*
X125891275Y-71627166D01*
X126174968Y-71713224D01*
X126470000Y-71742282D01*
X126765031Y-71713224D01*
X127048724Y-71627166D01*
X127310178Y-71487417D01*
X127539345Y-71299345D01*
X127727417Y-71070179D01*
X127740000Y-71046637D01*
X127752583Y-71070178D01*
X127940655Y-71299345D01*
X128169821Y-71487417D01*
X128431275Y-71627166D01*
X128714968Y-71713224D01*
X129010000Y-71742282D01*
X129305031Y-71713224D01*
X129588724Y-71627166D01*
X129850178Y-71487417D01*
X130079345Y-71299345D01*
X130267417Y-71070179D01*
X130280000Y-71046637D01*
X130292583Y-71070178D01*
X130480655Y-71299345D01*
X130594266Y-71392583D01*
X130533131Y-72615290D01*
X128802442Y-74345980D01*
X128766173Y-74376234D01*
X128713649Y-74441288D01*
X128660590Y-74505941D01*
X128658906Y-74509091D01*
X128656661Y-74511872D01*
X128617809Y-74585979D01*
X128578412Y-74659687D01*
X128577376Y-74663104D01*
X128575715Y-74666271D01*
X128552088Y-74746464D01*
X128527805Y-74826510D01*
X128527454Y-74830071D01*
X128526446Y-74833493D01*
X128518917Y-74916759D01*
X128510719Y-75000000D01*
X128515348Y-75047005D01*
X128611944Y-87121411D01*
X119914735Y-95335441D01*
X119871184Y-95371183D01*
X119823919Y-95428775D01*
X119775001Y-95485026D01*
X119768674Y-95496090D01*
X119760590Y-95505941D01*
X119725465Y-95571656D01*
X119688466Y-95636361D01*
X119684418Y-95648450D01*
X119678412Y-95659687D01*
X119656783Y-95730986D01*
X119633116Y-95801672D01*
X119631505Y-95814317D01*
X119627806Y-95826510D01*
X119620501Y-95900677D01*
X119611082Y-95974603D01*
X119615001Y-96030817D01*
X119615000Y-102181614D01*
X119553937Y-102090226D01*
X119409774Y-101946063D01*
X119240256Y-101832795D01*
X119051898Y-101754774D01*
X118995044Y-101743465D01*
X117635000Y-100383422D01*
X117635000Y-84293469D01*
X117639281Y-84250000D01*
X117635000Y-84206531D01*
X117635000Y-84206523D01*
X117622195Y-84076510D01*
X117571589Y-83909687D01*
X117571589Y-83909686D01*
X117489411Y-83755941D01*
X117406532Y-83654953D01*
X117406530Y-83654951D01*
X117378817Y-83621183D01*
X117345049Y-83593470D01*
X115506535Y-81754957D01*
X115495226Y-81698102D01*
X115417205Y-81509744D01*
X115303937Y-81340226D01*
X115159774Y-81196063D01*
X114990256Y-81082795D01*
X114801898Y-81004774D01*
X114601939Y-80965000D01*
X114398061Y-80965000D01*
X114198102Y-81004774D01*
X114009744Y-81082795D01*
X113840226Y-81196063D01*
X113696063Y-81340226D01*
X113582795Y-81509744D01*
X113504774Y-81698102D01*
X113465000Y-81898061D01*
X113465000Y-82101939D01*
X113504774Y-82301898D01*
X113582795Y-82490256D01*
X113696063Y-82659774D01*
X113840226Y-82803937D01*
X114009744Y-82917205D01*
X114198102Y-82995226D01*
X114254957Y-83006535D01*
X115865001Y-84616580D01*
X115865000Y-100706531D01*
X115860719Y-100750000D01*
X115865000Y-100793469D01*
X115865000Y-100793476D01*
X115877805Y-100923489D01*
X115928411Y-101090312D01*
X116010589Y-101244058D01*
X116121183Y-101378817D01*
X116154956Y-101406534D01*
X117586810Y-102838389D01*
X116468998Y-103956201D01*
X116440000Y-103979999D01*
X116416202Y-104008997D01*
X116416201Y-104008998D01*
X116345026Y-104095724D01*
X116274454Y-104227754D01*
X116230998Y-104371015D01*
X116216324Y-104520000D01*
X116220001Y-104557332D01*
X116220001Y-105050636D01*
X116010913Y-104987210D01*
X115785408Y-104965000D01*
X115634592Y-104965000D01*
X115409087Y-104987210D01*
X115119739Y-105074983D01*
X114853073Y-105217519D01*
X114619339Y-105409339D01*
X114440000Y-105627865D01*
X114260661Y-105409339D01*
X114026927Y-105217519D01*
X113760261Y-105074983D01*
X113470913Y-104987210D01*
X113245408Y-104965000D01*
X113094592Y-104965000D01*
X112869087Y-104987210D01*
X112579739Y-105074983D01*
X112313073Y-105217519D01*
X112079339Y-105409339D01*
X111900000Y-105627865D01*
X111720661Y-105409339D01*
X111486927Y-105217519D01*
X111220261Y-105074983D01*
X110930913Y-104987210D01*
X110705408Y-104965000D01*
X110554592Y-104965000D01*
X110329087Y-104987210D01*
X110039739Y-105074983D01*
X109773073Y-105217519D01*
X109539339Y-105409339D01*
X109347519Y-105643073D01*
X109204983Y-105909739D01*
X109117210Y-106199087D01*
X109087573Y-106500000D01*
X100751578Y-106500000D01*
X101595050Y-105656529D01*
X101628817Y-105628817D01*
X101656533Y-105595046D01*
X101715210Y-105523548D01*
X101739411Y-105494059D01*
X101821589Y-105340313D01*
X101872195Y-105173490D01*
X101885000Y-105043477D01*
X101885000Y-105043467D01*
X101889281Y-105000001D01*
X101885000Y-104956535D01*
X101885000Y-97538454D01*
X101917205Y-97490256D01*
X101995226Y-97301898D01*
X102035000Y-97101939D01*
X102035000Y-96898061D01*
X101995226Y-96698102D01*
X101917205Y-96509744D01*
X101803937Y-96340226D01*
X101659774Y-96196063D01*
X101490256Y-96082795D01*
X101301898Y-96004774D01*
X101101939Y-95965000D01*
X100898061Y-95965000D01*
X100698102Y-96004774D01*
X100509744Y-96082795D01*
X100340226Y-96196063D01*
X100196063Y-96340226D01*
X100082795Y-96509744D01*
X100004774Y-96698102D01*
X99965000Y-96898061D01*
X99965000Y-97101939D01*
X100004774Y-97301898D01*
X100082795Y-97490256D01*
X100115001Y-97538456D01*
X100115000Y-104633421D01*
X98633422Y-106115000D01*
X75366579Y-106115000D01*
X74006535Y-104754957D01*
X73995226Y-104698102D01*
X73917205Y-104509744D01*
X73803937Y-104340226D01*
X73659774Y-104196063D01*
X73490256Y-104082795D01*
X73301898Y-104004774D01*
X73101939Y-103965000D01*
X72898061Y-103965000D01*
X72698102Y-104004774D01*
X72509744Y-104082795D01*
X72340226Y-104196063D01*
X72196063Y-104340226D01*
X72082795Y-104509744D01*
X72004774Y-104698102D01*
X71965000Y-104898061D01*
X60660000Y-104898061D01*
X60660000Y-95348816D01*
X68385000Y-95348816D01*
X68385000Y-95651184D01*
X68443989Y-95947743D01*
X68559701Y-96227095D01*
X68727688Y-96478505D01*
X68941495Y-96692312D01*
X69192905Y-96860299D01*
X69472257Y-96976011D01*
X69768816Y-97035000D01*
X70071184Y-97035000D01*
X70367743Y-96976011D01*
X70647095Y-96860299D01*
X70898505Y-96692312D01*
X71112312Y-96478505D01*
X71190000Y-96362237D01*
X71267688Y-96478505D01*
X71481495Y-96692312D01*
X71732905Y-96860299D01*
X72012257Y-96976011D01*
X72308816Y-97035000D01*
X72611184Y-97035000D01*
X72907743Y-96976011D01*
X73187095Y-96860299D01*
X73438505Y-96692312D01*
X73504944Y-96625873D01*
X73510498Y-96644180D01*
X73569463Y-96754494D01*
X73648815Y-96851185D01*
X73745506Y-96930537D01*
X73855820Y-96989502D01*
X73975518Y-97025812D01*
X74100000Y-97038072D01*
X75900000Y-97038072D01*
X76024482Y-97025812D01*
X76144180Y-96989502D01*
X76254494Y-96930537D01*
X76351185Y-96851185D01*
X76430537Y-96754494D01*
X76489502Y-96644180D01*
X76525812Y-96524482D01*
X76538072Y-96400000D01*
X76538072Y-94600000D01*
X76525812Y-94475518D01*
X76489502Y-94355820D01*
X76430537Y-94245506D01*
X76351185Y-94148815D01*
X76254494Y-94069463D01*
X76144180Y-94010498D01*
X76024482Y-93974188D01*
X75900000Y-93961928D01*
X74100000Y-93961928D01*
X73975518Y-93974188D01*
X73855820Y-94010498D01*
X73745506Y-94069463D01*
X73648815Y-94148815D01*
X73569463Y-94245506D01*
X73510498Y-94355820D01*
X73504944Y-94374127D01*
X73438505Y-94307688D01*
X73187095Y-94139701D01*
X72907743Y-94023989D01*
X72611184Y-93965000D01*
X72308816Y-93965000D01*
X72012257Y-94023989D01*
X71732905Y-94139701D01*
X71481495Y-94307688D01*
X71267688Y-94521495D01*
X71190000Y-94637763D01*
X71112312Y-94521495D01*
X70898505Y-94307688D01*
X70647095Y-94139701D01*
X70367743Y-94023989D01*
X70071184Y-93965000D01*
X69768816Y-93965000D01*
X69472257Y-94023989D01*
X69192905Y-94139701D01*
X68941495Y-94307688D01*
X68727688Y-94521495D01*
X68559701Y-94772905D01*
X68443989Y-95052257D01*
X68385000Y-95348816D01*
X60660000Y-95348816D01*
X60660000Y-77124514D01*
X82082500Y-77124514D01*
X82082500Y-77375485D01*
X82105470Y-77608703D01*
X82196245Y-77907948D01*
X82343655Y-78183734D01*
X82542037Y-78425463D01*
X82783765Y-78623845D01*
X83059551Y-78771255D01*
X83358796Y-78862030D01*
X83670000Y-78892681D01*
X83981203Y-78862030D01*
X84280448Y-78771255D01*
X84556234Y-78623845D01*
X84797963Y-78425463D01*
X84940000Y-78252391D01*
X85082037Y-78425463D01*
X85323765Y-78623845D01*
X85599551Y-78771255D01*
X85898796Y-78862030D01*
X86210000Y-78892681D01*
X86521203Y-78862030D01*
X86820448Y-78771255D01*
X87096234Y-78623845D01*
X87222095Y-78520553D01*
X87266963Y-78604494D01*
X87346315Y-78701185D01*
X87443006Y-78780537D01*
X87553320Y-78839502D01*
X87673018Y-78875812D01*
X87797500Y-78888072D01*
X89702500Y-78888072D01*
X89826982Y-78875812D01*
X89946680Y-78839502D01*
X90056994Y-78780537D01*
X90153685Y-78701185D01*
X90233037Y-78604494D01*
X90292002Y-78494180D01*
X90328312Y-78374482D01*
X90340572Y-78250000D01*
X90340572Y-76250000D01*
X90328312Y-76125518D01*
X90292002Y-76005820D01*
X90233037Y-75895506D01*
X90153685Y-75798815D01*
X90056994Y-75719463D01*
X89946680Y-75660498D01*
X89826982Y-75624188D01*
X89702500Y-75611928D01*
X88835907Y-75611928D01*
X88917205Y-75490256D01*
X88995226Y-75301898D01*
X89035000Y-75101939D01*
X89035000Y-74898061D01*
X88995226Y-74698102D01*
X88917205Y-74509744D01*
X88803937Y-74340226D01*
X88659774Y-74196063D01*
X88490256Y-74082795D01*
X88301898Y-74004774D01*
X88101939Y-73965000D01*
X87898061Y-73965000D01*
X87698102Y-74004774D01*
X87509744Y-74082795D01*
X87461546Y-74115000D01*
X84538454Y-74115000D01*
X84490256Y-74082795D01*
X84301898Y-74004774D01*
X84101939Y-73965000D01*
X83898061Y-73965000D01*
X83698102Y-74004774D01*
X83509744Y-74082795D01*
X83340226Y-74196063D01*
X83196063Y-74340226D01*
X83082795Y-74509744D01*
X83004774Y-74698102D01*
X82965000Y-74898061D01*
X82965000Y-75101939D01*
X83004774Y-75301898D01*
X83082795Y-75490256D01*
X83196063Y-75659774D01*
X83217209Y-75680920D01*
X83059552Y-75728745D01*
X82783766Y-75876155D01*
X82542037Y-76074537D01*
X82343655Y-76316265D01*
X82196245Y-76592051D01*
X82105470Y-76891296D01*
X82082500Y-77124514D01*
X60660000Y-77124514D01*
X60660000Y-72898061D01*
X73965000Y-72898061D01*
X73965000Y-73101939D01*
X74004774Y-73301898D01*
X74082795Y-73490256D01*
X74196063Y-73659774D01*
X74340226Y-73803937D01*
X74509744Y-73917205D01*
X74698102Y-73995226D01*
X74898061Y-74035000D01*
X75101939Y-74035000D01*
X75301898Y-73995226D01*
X75490256Y-73917205D01*
X75538454Y-73885000D01*
X79211546Y-73885000D01*
X79259744Y-73917205D01*
X79448102Y-73995226D01*
X79648061Y-74035000D01*
X79851939Y-74035000D01*
X80051898Y-73995226D01*
X80240256Y-73917205D01*
X80409774Y-73803937D01*
X80553937Y-73659774D01*
X80667205Y-73490256D01*
X80745226Y-73301898D01*
X80785000Y-73101939D01*
X80785000Y-72898061D01*
X80745226Y-72698102D01*
X80667205Y-72509744D01*
X80553937Y-72340226D01*
X80409774Y-72196063D01*
X80240256Y-72082795D01*
X80051898Y-72004774D01*
X79851939Y-71965000D01*
X79648061Y-71965000D01*
X79448102Y-72004774D01*
X79259744Y-72082795D01*
X79211546Y-72115000D01*
X75538454Y-72115000D01*
X75490256Y-72082795D01*
X75301898Y-72004774D01*
X75101939Y-71965000D01*
X74898061Y-71965000D01*
X74698102Y-72004774D01*
X74509744Y-72082795D01*
X74340226Y-72196063D01*
X74196063Y-72340226D01*
X74082795Y-72509744D01*
X74004774Y-72698102D01*
X73965000Y-72898061D01*
X60660000Y-72898061D01*
X60660000Y-69627000D01*
X104500000Y-69627000D01*
X104524776Y-69624560D01*
X104548601Y-69617333D01*
X104570557Y-69605597D01*
X104589803Y-69589803D01*
X104605597Y-69570557D01*
X104617333Y-69548601D01*
X104624560Y-69524776D01*
X104627000Y-69500000D01*
X104627000Y-64635000D01*
X105950888Y-64635000D01*
X106062595Y-64641718D01*
X106381675Y-64597961D01*
X106686088Y-64492795D01*
X106860044Y-64399814D01*
X106955808Y-64135413D01*
X106635000Y-63814605D01*
X106635000Y-63455395D01*
X107135413Y-63955808D01*
X107399814Y-63860044D01*
X107540704Y-63570429D01*
X107622384Y-63258892D01*
X107641718Y-62937405D01*
X107597961Y-62618325D01*
X107492795Y-62313912D01*
X107458634Y-62250000D01*
X117836928Y-62250000D01*
X117836928Y-63750000D01*
X117849188Y-63874482D01*
X117885498Y-63994180D01*
X117944463Y-64104494D01*
X118023815Y-64201185D01*
X118120506Y-64280537D01*
X118230820Y-64339502D01*
X118350518Y-64375812D01*
X118475000Y-64388072D01*
X119525000Y-64388072D01*
X119649482Y-64375812D01*
X119769180Y-64339502D01*
X119834057Y-64304824D01*
X119902663Y-64335272D01*
X119964190Y-64343964D01*
X120143000Y-64218163D01*
X120143000Y-63900235D01*
X120150812Y-63874482D01*
X120163072Y-63750000D01*
X120163072Y-62718022D01*
X120380000Y-62718022D01*
X120380000Y-63281979D01*
X120396785Y-63452400D01*
X120397000Y-63453109D01*
X120397000Y-64218163D01*
X120575810Y-64343964D01*
X120637337Y-64335272D01*
X120846882Y-64242275D01*
X120905331Y-64201071D01*
X121093941Y-64301885D01*
X121312601Y-64368215D01*
X121540000Y-64390612D01*
X121767400Y-64368215D01*
X121986060Y-64301885D01*
X122187579Y-64194171D01*
X122364212Y-64049212D01*
X122509171Y-63872579D01*
X122616885Y-63671059D01*
X122683215Y-63452399D01*
X122700000Y-63281978D01*
X122700000Y-62718021D01*
X122683215Y-62547600D01*
X122616885Y-62328940D01*
X122509171Y-62127421D01*
X122364212Y-61950788D01*
X122187578Y-61805829D01*
X121986059Y-61698115D01*
X121767399Y-61631785D01*
X121540000Y-61609388D01*
X121312600Y-61631785D01*
X121093940Y-61698115D01*
X120905331Y-61798929D01*
X120846882Y-61757725D01*
X120637337Y-61664728D01*
X120575810Y-61656036D01*
X120397000Y-61781837D01*
X120397000Y-62546892D01*
X120396785Y-62547601D01*
X120380000Y-62718022D01*
X120163072Y-62718022D01*
X120163072Y-62250000D01*
X120150812Y-62125518D01*
X120143000Y-62099765D01*
X120143000Y-61781837D01*
X119964190Y-61656036D01*
X119902663Y-61664728D01*
X119834057Y-61695176D01*
X119769180Y-61660498D01*
X119649482Y-61624188D01*
X119525000Y-61611928D01*
X118475000Y-61611928D01*
X118350518Y-61624188D01*
X118230820Y-61660498D01*
X118120506Y-61719463D01*
X118023815Y-61798815D01*
X117944463Y-61895506D01*
X117885498Y-62005820D01*
X117849188Y-62125518D01*
X117836928Y-62250000D01*
X107458634Y-62250000D01*
X107399814Y-62139956D01*
X107135413Y-62044192D01*
X106635000Y-62544605D01*
X106635000Y-62185395D01*
X106955808Y-61864587D01*
X106860044Y-61600186D01*
X106570429Y-61459296D01*
X106258892Y-61377616D01*
X105937405Y-61358282D01*
X105888417Y-61365000D01*
X104627000Y-61365000D01*
X104627000Y-55196064D01*
X125045000Y-55196064D01*
X125045000Y-55803935D01*
X125066776Y-56025031D01*
X125152834Y-56308724D01*
X125292583Y-56570178D01*
X125480655Y-56799345D01*
X125709821Y-56987417D01*
X125971275Y-57127166D01*
X126254968Y-57213224D01*
X126550000Y-57242282D01*
X126845031Y-57213224D01*
X127128724Y-57127166D01*
X127390178Y-56987417D01*
X127619345Y-56799345D01*
X127807417Y-56570179D01*
X127820000Y-56546637D01*
X127832583Y-56570178D01*
X128020655Y-56799345D01*
X128249821Y-56987417D01*
X128511275Y-57127166D01*
X128794968Y-57213224D01*
X129090000Y-57242282D01*
X129385031Y-57213224D01*
X129668724Y-57127166D01*
X129930178Y-56987417D01*
X130159345Y-56799345D01*
X130347417Y-56570179D01*
X130360000Y-56546637D01*
X130372583Y-56570178D01*
X130560655Y-56799345D01*
X130789821Y-56987417D01*
X131051275Y-57127166D01*
X131334968Y-57213224D01*
X131630000Y-57242282D01*
X131925031Y-57213224D01*
X132208724Y-57127166D01*
X132470178Y-56987417D01*
X132699345Y-56799345D01*
X132887417Y-56570179D01*
X132900000Y-56546637D01*
X132912583Y-56570178D01*
X133100655Y-56799345D01*
X133329821Y-56987417D01*
X133591275Y-57127166D01*
X133874968Y-57213224D01*
X134170000Y-57242282D01*
X134465031Y-57213224D01*
X134748724Y-57127166D01*
X135010178Y-56987417D01*
X135239345Y-56799345D01*
X135427417Y-56570179D01*
X135440000Y-56546637D01*
X135452583Y-56570178D01*
X135640655Y-56799345D01*
X135869821Y-56987417D01*
X136131275Y-57127166D01*
X136414968Y-57213224D01*
X136710000Y-57242282D01*
X137005031Y-57213224D01*
X137288724Y-57127166D01*
X137550178Y-56987417D01*
X137779345Y-56799345D01*
X137833066Y-56733886D01*
X137891595Y-56843387D01*
X138002038Y-56977962D01*
X138136613Y-57088405D01*
X138290149Y-57170472D01*
X138456745Y-57221008D01*
X138629999Y-57238072D01*
X139870001Y-57238072D01*
X140043255Y-57221008D01*
X140209851Y-57170472D01*
X140363387Y-57088405D01*
X140497962Y-56977962D01*
X140608405Y-56843387D01*
X140690472Y-56689851D01*
X140741008Y-56523255D01*
X140758072Y-56350001D01*
X140758072Y-55196064D01*
X142955000Y-55196064D01*
X142955000Y-55803935D01*
X142976776Y-56025031D01*
X143062834Y-56308724D01*
X143202583Y-56570178D01*
X143390655Y-56799345D01*
X143619821Y-56987417D01*
X143881275Y-57127166D01*
X144164968Y-57213224D01*
X144460000Y-57242282D01*
X144755031Y-57213224D01*
X145038724Y-57127166D01*
X145300178Y-56987417D01*
X145527385Y-56800953D01*
X145540498Y-56844180D01*
X145599463Y-56954494D01*
X145678815Y-57051185D01*
X145775506Y-57130537D01*
X145885820Y-57189502D01*
X146005518Y-57225812D01*
X146130000Y-57238072D01*
X146714250Y-57235000D01*
X146873000Y-57076250D01*
X146873000Y-55627000D01*
X147127000Y-55627000D01*
X147127000Y-57076250D01*
X147285750Y-57235000D01*
X147870000Y-57238072D01*
X147994482Y-57225812D01*
X148114180Y-57189502D01*
X148224494Y-57130537D01*
X148321185Y-57051185D01*
X148400537Y-56954494D01*
X148459502Y-56844180D01*
X148495812Y-56724482D01*
X148508072Y-56600000D01*
X148505000Y-55785750D01*
X148346250Y-55627000D01*
X147127000Y-55627000D01*
X146873000Y-55627000D01*
X146853000Y-55627000D01*
X146853000Y-55373000D01*
X146873000Y-55373000D01*
X146873000Y-53923750D01*
X147127000Y-53923750D01*
X147127000Y-55373000D01*
X148346250Y-55373000D01*
X148505000Y-55214250D01*
X148507197Y-54631834D01*
X153120222Y-54631834D01*
X153169823Y-55074039D01*
X153304371Y-55498188D01*
X153518741Y-55888125D01*
X153804768Y-56228998D01*
X154151556Y-56507823D01*
X154545897Y-56713979D01*
X154972771Y-56839615D01*
X155415917Y-56879944D01*
X155858458Y-56833432D01*
X156283536Y-56701848D01*
X156674960Y-56490206D01*
X157017821Y-56206566D01*
X157299060Y-55861733D01*
X157507965Y-55468840D01*
X157636578Y-55042854D01*
X157680000Y-54600000D01*
X157679111Y-54536339D01*
X157623341Y-54094869D01*
X157482884Y-53672640D01*
X157263090Y-53285734D01*
X156972333Y-52948888D01*
X156621685Y-52674932D01*
X156224504Y-52474302D01*
X155795918Y-52354638D01*
X155352251Y-52320500D01*
X154910403Y-52373187D01*
X154487204Y-52510693D01*
X154098773Y-52727780D01*
X153759905Y-53016179D01*
X153483508Y-53364905D01*
X153280110Y-53760676D01*
X153157457Y-54188416D01*
X153120222Y-54631834D01*
X148507197Y-54631834D01*
X148508072Y-54400000D01*
X148495812Y-54275518D01*
X148459502Y-54155820D01*
X148400537Y-54045506D01*
X148321185Y-53948815D01*
X148224494Y-53869463D01*
X148114180Y-53810498D01*
X147994482Y-53774188D01*
X147870000Y-53761928D01*
X147285750Y-53765000D01*
X147127000Y-53923750D01*
X146873000Y-53923750D01*
X146714250Y-53765000D01*
X146130000Y-53761928D01*
X146005518Y-53774188D01*
X145885820Y-53810498D01*
X145775506Y-53869463D01*
X145678815Y-53948815D01*
X145599463Y-54045506D01*
X145540498Y-54155820D01*
X145527385Y-54199047D01*
X145300179Y-54012583D01*
X145038725Y-53872834D01*
X144755032Y-53786776D01*
X144460000Y-53757718D01*
X144164969Y-53786776D01*
X143881276Y-53872834D01*
X143619822Y-54012583D01*
X143390655Y-54200655D01*
X143202583Y-54429821D01*
X143062834Y-54691275D01*
X142976776Y-54974968D01*
X142955000Y-55196064D01*
X140758072Y-55196064D01*
X140758072Y-54649999D01*
X140741008Y-54476745D01*
X140690472Y-54310149D01*
X140608405Y-54156613D01*
X140497962Y-54022038D01*
X140363387Y-53911595D01*
X140209851Y-53829528D01*
X140043255Y-53778992D01*
X139870001Y-53761928D01*
X138629999Y-53761928D01*
X138456745Y-53778992D01*
X138290149Y-53829528D01*
X138136613Y-53911595D01*
X138002038Y-54022038D01*
X137891595Y-54156613D01*
X137833066Y-54266114D01*
X137779345Y-54200655D01*
X137550179Y-54012583D01*
X137288725Y-53872834D01*
X137005032Y-53786776D01*
X136710000Y-53757718D01*
X136414969Y-53786776D01*
X136131276Y-53872834D01*
X135869822Y-54012583D01*
X135640655Y-54200655D01*
X135452583Y-54429821D01*
X135440000Y-54453362D01*
X135427417Y-54429821D01*
X135239345Y-54200655D01*
X135010179Y-54012583D01*
X134748725Y-53872834D01*
X134465032Y-53786776D01*
X134170000Y-53757718D01*
X133874969Y-53786776D01*
X133591276Y-53872834D01*
X133329822Y-54012583D01*
X133100655Y-54200655D01*
X132912583Y-54429821D01*
X132900000Y-54453362D01*
X132887417Y-54429821D01*
X132699345Y-54200655D01*
X132470179Y-54012583D01*
X132208725Y-53872834D01*
X131925032Y-53786776D01*
X131630000Y-53757718D01*
X131334969Y-53786776D01*
X131051276Y-53872834D01*
X130789822Y-54012583D01*
X130560655Y-54200655D01*
X130372583Y-54429821D01*
X130360000Y-54453362D01*
X130347417Y-54429821D01*
X130159345Y-54200655D01*
X129930179Y-54012583D01*
X129668725Y-53872834D01*
X129385032Y-53786776D01*
X129090000Y-53757718D01*
X128794969Y-53786776D01*
X128511276Y-53872834D01*
X128249822Y-54012583D01*
X128020655Y-54200655D01*
X127832583Y-54429821D01*
X127820000Y-54453362D01*
X127807417Y-54429821D01*
X127619345Y-54200655D01*
X127390179Y-54012583D01*
X127128725Y-53872834D01*
X126845032Y-53786776D01*
X126550000Y-53757718D01*
X126254969Y-53786776D01*
X125971276Y-53872834D01*
X125709822Y-54012583D01*
X125480655Y-54200655D01*
X125292583Y-54429821D01*
X125152834Y-54691275D01*
X125066776Y-54974968D01*
X125045000Y-55196064D01*
X104627000Y-55196064D01*
X104627000Y-50660000D01*
X159340000Y-50660000D01*
X159340001Y-124340000D01*
X159340001Y-124340000D01*
G37*
X159340001Y-124340000D02*
X60660000Y-124340000D01*
X60660000Y-120631834D01*
X62320222Y-120631834D01*
X62369823Y-121074039D01*
X62504371Y-121498188D01*
X62718741Y-121888125D01*
X63004768Y-122228998D01*
X63351556Y-122507823D01*
X63745897Y-122713979D01*
X64172771Y-122839615D01*
X64615917Y-122879944D01*
X65058458Y-122833432D01*
X65483536Y-122701848D01*
X65874960Y-122490206D01*
X66217821Y-122206566D01*
X66499060Y-121861733D01*
X66707965Y-121468840D01*
X66836578Y-121042854D01*
X66876878Y-120631834D01*
X153120222Y-120631834D01*
X153169823Y-121074039D01*
X153304371Y-121498188D01*
X153518741Y-121888125D01*
X153804768Y-122228998D01*
X154151556Y-122507823D01*
X154545897Y-122713979D01*
X154972771Y-122839615D01*
X155415917Y-122879944D01*
X155858458Y-122833432D01*
X156283536Y-122701848D01*
X156674960Y-122490206D01*
X157017821Y-122206566D01*
X157299060Y-121861733D01*
X157507965Y-121468840D01*
X157636578Y-121042854D01*
X157680000Y-120600000D01*
X157679111Y-120536339D01*
X157623341Y-120094869D01*
X157482884Y-119672640D01*
X157263090Y-119285734D01*
X156972333Y-118948888D01*
X156621685Y-118674932D01*
X156224504Y-118474302D01*
X155795918Y-118354638D01*
X155352251Y-118320500D01*
X154910403Y-118373187D01*
X154487204Y-118510693D01*
X154098773Y-118727780D01*
X153759905Y-119016179D01*
X153483508Y-119364905D01*
X153280110Y-119760676D01*
X153157457Y-120188416D01*
X153120222Y-120631834D01*
X66876878Y-120631834D01*
X66880000Y-120600000D01*
X66879111Y-120536339D01*
X66823341Y-120094869D01*
X66682884Y-119672640D01*
X66463090Y-119285734D01*
X66172333Y-118948888D01*
X65821685Y-118674932D01*
X65424504Y-118474302D01*
X64995918Y-118354638D01*
X64552251Y-118320500D01*
X64110403Y-118373187D01*
X63687204Y-118510693D01*
X63298773Y-118727780D01*
X62959905Y-119016179D01*
X62683508Y-119364905D01*
X62480110Y-119760676D01*
X62357457Y-120188416D01*
X62320222Y-120631834D01*
X60660000Y-120631834D01*
X60660000Y-104898061D01*
X71965000Y-104898061D01*
X71965000Y-105101939D01*
X72004774Y-105301898D01*
X72082795Y-105490256D01*
X72196063Y-105659774D01*
X72340226Y-105803937D01*
X72509744Y-105917205D01*
X72698102Y-105995226D01*
X72754957Y-106006535D01*
X74343470Y-107595049D01*
X74371183Y-107628817D01*
X74404951Y-107656530D01*
X74404953Y-107656532D01*
X74414694Y-107664526D01*
X74505941Y-107739411D01*
X74659687Y-107821589D01*
X74826510Y-107872195D01*
X74956523Y-107885000D01*
X74956533Y-107885000D01*
X74999999Y-107889281D01*
X75043465Y-107885000D01*
X98956531Y-107885000D01*
X99000000Y-107889281D01*
X99043469Y-107885000D01*
X99043477Y-107885000D01*
X99173490Y-107872195D01*
X99340313Y-107821589D01*
X99494059Y-107739411D01*
X99628817Y-107628817D01*
X99656534Y-107595044D01*
X100751578Y-106500000D01*
X109087573Y-106500000D01*
X109117210Y-106800913D01*
X109204983Y-107090261D01*
X109347519Y-107356927D01*
X109539339Y-107590661D01*
X109773073Y-107782481D01*
X110039739Y-107925017D01*
X110329087Y-108012790D01*
X110554592Y-108035000D01*
X110705408Y-108035000D01*
X110930913Y-108012790D01*
X111220261Y-107925017D01*
X111486927Y-107782481D01*
X111720661Y-107590661D01*
X111900000Y-107372135D01*
X112079339Y-107590661D01*
X112313073Y-107782481D01*
X112579739Y-107925017D01*
X112869087Y-108012790D01*
X113094592Y-108035000D01*
X113245408Y-108035000D01*
X113470913Y-108012790D01*
X113760261Y-107925017D01*
X114026927Y-107782481D01*
X114260661Y-107590661D01*
X114440000Y-107372135D01*
X114619339Y-107590661D01*
X114853073Y-107782481D01*
X115119739Y-107925017D01*
X115409087Y-108012790D01*
X115634592Y-108035000D01*
X115785408Y-108035000D01*
X116010913Y-108012790D01*
X116220000Y-107949364D01*
X116220000Y-108865710D01*
X116123073Y-108917519D01*
X115889339Y-109109339D01*
X115710000Y-109327865D01*
X115530661Y-109109339D01*
X115296927Y-108917519D01*
X115030261Y-108774983D01*
X114740913Y-108687210D01*
X114515408Y-108665000D01*
X114364592Y-108665000D01*
X114139087Y-108687210D01*
X113849739Y-108774983D01*
X113583073Y-108917519D01*
X113349339Y-109109339D01*
X113170000Y-109327865D01*
X112990661Y-109109339D01*
X112756927Y-108917519D01*
X112490261Y-108774983D01*
X112200913Y-108687210D01*
X111975408Y-108665000D01*
X111824592Y-108665000D01*
X111599087Y-108687210D01*
X111309739Y-108774983D01*
X111043073Y-108917519D01*
X110809339Y-109109339D01*
X110617519Y-109343073D01*
X110474983Y-109609739D01*
X110387210Y-109899087D01*
X110357573Y-110200000D01*
X110387210Y-110500913D01*
X110474983Y-110790261D01*
X110617519Y-111056927D01*
X110809339Y-111290661D01*
X111043073Y-111482481D01*
X111309739Y-111625017D01*
X111599087Y-111712790D01*
X111824592Y-111735000D01*
X111975408Y-111735000D01*
X112200913Y-111712790D01*
X112490261Y-111625017D01*
X112756927Y-111482481D01*
X112990661Y-111290661D01*
X113170000Y-111072135D01*
X113349339Y-111290661D01*
X113583073Y-111482481D01*
X113849739Y-111625017D01*
X114139087Y-111712790D01*
X114364592Y-111735000D01*
X114515408Y-111735000D01*
X114740913Y-111712790D01*
X115030261Y-111625017D01*
X115296927Y-111482481D01*
X115530661Y-111290661D01*
X115710000Y-111072135D01*
X115889339Y-111290661D01*
X116092256Y-111457190D01*
X116090719Y-111472792D01*
X116107805Y-111646282D01*
X116158412Y-111813105D01*
X116240590Y-111966851D01*
X116323468Y-112067838D01*
X116323471Y-112067841D01*
X116351184Y-112101609D01*
X116384951Y-112129321D01*
X117650678Y-113395049D01*
X117678391Y-113428817D01*
X117712159Y-113456530D01*
X117712161Y-113456532D01*
X117813149Y-113539411D01*
X117966894Y-113621589D01*
X118133718Y-113672195D01*
X118263731Y-113685000D01*
X118263739Y-113685000D01*
X118307208Y-113689281D01*
X118350677Y-113685000D01*
X142586531Y-113685000D01*
X142630000Y-113689281D01*
X142673469Y-113685000D01*
X142673477Y-113685000D01*
X142803490Y-113672195D01*
X142970313Y-113621589D01*
X143124059Y-113539411D01*
X143258817Y-113428817D01*
X143286534Y-113395044D01*
X144965229Y-111716350D01*
X145154592Y-111735000D01*
X145305408Y-111735000D01*
X145530913Y-111712790D01*
X145820261Y-111625017D01*
X146086927Y-111482481D01*
X146320661Y-111290661D01*
X146512481Y-111056927D01*
X146655017Y-110790261D01*
X146742790Y-110500913D01*
X146772427Y-110200000D01*
X146742790Y-109899087D01*
X146655017Y-109609739D01*
X146512481Y-109343073D01*
X146420538Y-109231040D01*
X147095049Y-108556530D01*
X147128817Y-108528817D01*
X147239411Y-108394059D01*
X147321589Y-108240313D01*
X147372195Y-108073490D01*
X147375683Y-108038072D01*
X147400000Y-108038072D01*
X147524482Y-108025812D01*
X147644180Y-107989502D01*
X147754494Y-107930537D01*
X147851185Y-107851185D01*
X147930537Y-107754494D01*
X147989502Y-107644180D01*
X148025812Y-107524482D01*
X148038072Y-107400000D01*
X148038072Y-105600000D01*
X148025812Y-105475518D01*
X147989502Y-105355820D01*
X147930537Y-105245506D01*
X147851185Y-105148815D01*
X147754494Y-105069463D01*
X147644180Y-105010498D01*
X147524482Y-104974188D01*
X147400000Y-104961928D01*
X145600000Y-104961928D01*
X145475518Y-104974188D01*
X145355820Y-105010498D01*
X145245506Y-105069463D01*
X145148815Y-105148815D01*
X145069463Y-105245506D01*
X145010498Y-105355820D01*
X145005505Y-105372280D01*
X144816927Y-105217519D01*
X144550261Y-105074983D01*
X144260913Y-104987210D01*
X144035408Y-104965000D01*
X143884592Y-104965000D01*
X143659087Y-104987210D01*
X143369739Y-105074983D01*
X143103073Y-105217519D01*
X142869339Y-105409339D01*
X142690000Y-105627865D01*
X142510661Y-105409339D01*
X142276927Y-105217519D01*
X142010261Y-105074983D01*
X141720913Y-104987210D01*
X141495408Y-104965000D01*
X141344592Y-104965000D01*
X141119087Y-104987210D01*
X140829739Y-105074983D01*
X140563073Y-105217519D01*
X140329339Y-105409339D01*
X140150000Y-105627865D01*
X139970661Y-105409339D01*
X139736927Y-105217519D01*
X139470261Y-105074983D01*
X139180913Y-104987210D01*
X138955408Y-104965000D01*
X138804592Y-104965000D01*
X138579087Y-104987210D01*
X138289739Y-105074983D01*
X138023073Y-105217519D01*
X137789339Y-105409339D01*
X137597519Y-105643073D01*
X137454983Y-105909739D01*
X137367210Y-106199087D01*
X137337573Y-106500000D01*
X137367210Y-106800913D01*
X137453478Y-107085300D01*
X125899051Y-107017332D01*
X125895226Y-106998102D01*
X125817205Y-106809744D01*
X125751821Y-106711890D01*
X125803937Y-106659774D01*
X125917205Y-106490256D01*
X125995226Y-106301898D01*
X126006535Y-106245043D01*
X132381578Y-99870000D01*
X153011928Y-99870000D01*
X153024188Y-99994482D01*
X153060498Y-100114180D01*
X153119463Y-100224494D01*
X153198815Y-100321185D01*
X153295506Y-100400537D01*
X153405820Y-100459502D01*
X153525518Y-100495812D01*
X153650000Y-100508072D01*
X154464250Y-100505000D01*
X154623000Y-100346250D01*
X154623000Y-99127000D01*
X154877000Y-99127000D01*
X154877000Y-100346250D01*
X155035750Y-100505000D01*
X155850000Y-100508072D01*
X155974482Y-100495812D01*
X156094180Y-100459502D01*
X156204494Y-100400537D01*
X156301185Y-100321185D01*
X156380537Y-100224494D01*
X156439502Y-100114180D01*
X156475812Y-99994482D01*
X156488072Y-99870000D01*
X156485000Y-99285750D01*
X156326250Y-99127000D01*
X154877000Y-99127000D01*
X154623000Y-99127000D01*
X153173750Y-99127000D01*
X153015000Y-99285750D01*
X153011928Y-99870000D01*
X132381578Y-99870000D01*
X134906579Y-97345000D01*
X143751546Y-97345000D01*
X143799744Y-97377205D01*
X143988102Y-97455226D01*
X144188061Y-97495000D01*
X144391939Y-97495000D01*
X144591898Y-97455226D01*
X144780256Y-97377205D01*
X144828454Y-97345000D01*
X153299367Y-97345000D01*
X153449047Y-97527385D01*
X153405820Y-97540498D01*
X153295506Y-97599463D01*
X153198815Y-97678815D01*
X153119463Y-97775506D01*
X153060498Y-97885820D01*
X153024188Y-98005518D01*
X153011928Y-98130000D01*
X153015000Y-98714250D01*
X153173750Y-98873000D01*
X154623000Y-98873000D01*
X154623000Y-98853000D01*
X154877000Y-98853000D01*
X154877000Y-98873000D01*
X156326250Y-98873000D01*
X156485000Y-98714250D01*
X156488072Y-98130000D01*
X156475812Y-98005518D01*
X156439502Y-97885820D01*
X156380537Y-97775506D01*
X156301185Y-97678815D01*
X156204494Y-97599463D01*
X156094180Y-97540498D01*
X156050953Y-97527385D01*
X156237417Y-97300179D01*
X156377166Y-97038725D01*
X156463224Y-96755032D01*
X156492282Y-96460000D01*
X156463224Y-96164968D01*
X156377166Y-95881275D01*
X156237417Y-95619821D01*
X156049345Y-95390655D01*
X155820179Y-95202583D01*
X155796638Y-95190000D01*
X155820179Y-95177417D01*
X156049345Y-94989345D01*
X156237417Y-94760179D01*
X156377166Y-94498725D01*
X156463224Y-94215032D01*
X156492282Y-93920000D01*
X156463224Y-93624968D01*
X156377166Y-93341275D01*
X156237417Y-93079821D01*
X156049345Y-92850655D01*
X155820179Y-92662583D01*
X155796638Y-92650000D01*
X155820179Y-92637417D01*
X156049345Y-92449345D01*
X156237417Y-92220179D01*
X156377166Y-91958725D01*
X156463224Y-91675032D01*
X156492282Y-91380000D01*
X156463224Y-91084968D01*
X156377166Y-90801275D01*
X156237417Y-90539821D01*
X156049345Y-90310655D01*
X155820179Y-90122583D01*
X155792331Y-90107698D01*
X155928903Y-90018256D01*
X156140536Y-89810494D01*
X156307571Y-89565437D01*
X156423588Y-89292502D01*
X156441302Y-89200031D01*
X156320246Y-88967000D01*
X154877000Y-88967000D01*
X154877000Y-88987000D01*
X154623000Y-88987000D01*
X154623000Y-88967000D01*
X153179754Y-88967000D01*
X153058698Y-89200031D01*
X153076412Y-89292502D01*
X153192429Y-89565437D01*
X153359464Y-89810494D01*
X153571097Y-90018256D01*
X153707669Y-90107698D01*
X153679821Y-90122583D01*
X153450655Y-90310655D01*
X153299367Y-90495000D01*
X145802444Y-90495000D01*
X145990256Y-90417205D01*
X146159774Y-90303937D01*
X146303937Y-90159774D01*
X146417205Y-89990256D01*
X146495226Y-89801898D01*
X146535000Y-89601939D01*
X146535000Y-89398061D01*
X146495226Y-89198102D01*
X146417205Y-89009744D01*
X146303937Y-88840226D01*
X146159774Y-88696063D01*
X145990256Y-88582795D01*
X145801898Y-88504774D01*
X145745044Y-88493465D01*
X143551579Y-86300000D01*
X153007718Y-86300000D01*
X153036776Y-86595032D01*
X153122834Y-86878725D01*
X153262583Y-87140179D01*
X153450655Y-87369345D01*
X153679821Y-87557417D01*
X153707669Y-87572302D01*
X153571097Y-87661744D01*
X153359464Y-87869506D01*
X153192429Y-88114563D01*
X153076412Y-88387498D01*
X153058698Y-88479969D01*
X153179754Y-88713000D01*
X154623000Y-88713000D01*
X154623000Y-88693000D01*
X154877000Y-88693000D01*
X154877000Y-88713000D01*
X156320246Y-88713000D01*
X156441302Y-88479969D01*
X156423588Y-88387498D01*
X156307571Y-88114563D01*
X156140536Y-87869506D01*
X155928903Y-87661744D01*
X155792331Y-87572302D01*
X155820179Y-87557417D01*
X156049345Y-87369345D01*
X156237417Y-87140179D01*
X156377166Y-86878725D01*
X156463224Y-86595032D01*
X156492282Y-86300000D01*
X156463224Y-86004968D01*
X156377166Y-85721275D01*
X156237417Y-85459821D01*
X156049345Y-85230655D01*
X155820179Y-85042583D01*
X155558725Y-84902834D01*
X155275032Y-84816776D01*
X155053936Y-84795000D01*
X154446064Y-84795000D01*
X154224968Y-84816776D01*
X153941275Y-84902834D01*
X153679821Y-85042583D01*
X153450655Y-85230655D01*
X153262583Y-85459821D01*
X153122834Y-85721275D01*
X153036776Y-86004968D01*
X153007718Y-86300000D01*
X143551579Y-86300000D01*
X140885000Y-83633422D01*
X140885000Y-82598061D01*
X141165000Y-82598061D01*
X141165000Y-82801939D01*
X141204774Y-83001898D01*
X141282795Y-83190256D01*
X141396063Y-83359774D01*
X141540226Y-83503937D01*
X141709744Y-83617205D01*
X141898102Y-83695226D01*
X142098061Y-83735000D01*
X142301939Y-83735000D01*
X142501898Y-83695226D01*
X142690256Y-83617205D01*
X142859774Y-83503937D01*
X143003937Y-83359774D01*
X143081846Y-83243174D01*
X147032468Y-81223969D01*
X147040313Y-81221589D01*
X147109983Y-81184350D01*
X147141487Y-81168248D01*
X147148349Y-81163843D01*
X147194059Y-81139411D01*
X147221522Y-81116872D01*
X147251427Y-81097676D01*
X147288752Y-81061698D01*
X147328817Y-81028817D01*
X147351358Y-81001351D01*
X147376941Y-80976691D01*
X147406524Y-80934131D01*
X147439411Y-80894059D01*
X147456161Y-80862722D01*
X147476441Y-80833546D01*
X147497156Y-80786025D01*
X147521589Y-80740313D01*
X147531903Y-80706312D01*
X147546102Y-80673739D01*
X147557147Y-80623096D01*
X147572195Y-80573490D01*
X147575678Y-80538129D01*
X147583249Y-80503413D01*
X147584201Y-80451589D01*
X147585000Y-80443477D01*
X147585000Y-80408098D01*
X147586451Y-80329113D01*
X147585000Y-80321046D01*
X147585000Y-78200000D01*
X151061928Y-78200000D01*
X151061928Y-80800000D01*
X151074188Y-80924482D01*
X151110498Y-81044180D01*
X151169463Y-81154494D01*
X151248815Y-81251185D01*
X151345506Y-81330537D01*
X151455820Y-81389502D01*
X151575518Y-81425812D01*
X151700000Y-81438072D01*
X154300000Y-81438072D01*
X154424482Y-81425812D01*
X154544180Y-81389502D01*
X154654494Y-81330537D01*
X154751185Y-81251185D01*
X154830537Y-81154494D01*
X154889502Y-81044180D01*
X154925812Y-80924482D01*
X154938072Y-80800000D01*
X154938072Y-78200000D01*
X154925812Y-78075518D01*
X154889502Y-77955820D01*
X154830537Y-77845506D01*
X154751185Y-77748815D01*
X154654494Y-77669463D01*
X154544180Y-77610498D01*
X154424482Y-77574188D01*
X154300000Y-77561928D01*
X151700000Y-77561928D01*
X151575518Y-77574188D01*
X151455820Y-77610498D01*
X151345506Y-77669463D01*
X151248815Y-77748815D01*
X151169463Y-77845506D01*
X151110498Y-77955820D01*
X151074188Y-78075518D01*
X151061928Y-78200000D01*
X147585000Y-78200000D01*
X147585000Y-75769224D01*
X151830381Y-75769224D01*
X151962317Y-76064312D01*
X152303045Y-76235159D01*
X152670557Y-76336250D01*
X153050729Y-76363701D01*
X153428951Y-76316457D01*
X153790690Y-76196333D01*
X154037683Y-76064312D01*
X154169619Y-75769224D01*
X153000000Y-74599605D01*
X151830381Y-75769224D01*
X147585000Y-75769224D01*
X147585000Y-75438454D01*
X147617205Y-75390256D01*
X147695226Y-75201898D01*
X147735000Y-75001939D01*
X147735000Y-74798061D01*
X147695226Y-74598102D01*
X147642466Y-74470729D01*
X151056299Y-74470729D01*
X151103543Y-74848951D01*
X151223667Y-75210690D01*
X151355688Y-75457683D01*
X151650776Y-75589619D01*
X152820395Y-74420000D01*
X153179605Y-74420000D01*
X154349224Y-75589619D01*
X154644312Y-75457683D01*
X154815159Y-75116955D01*
X154916250Y-74749443D01*
X154943701Y-74369271D01*
X154896457Y-73991049D01*
X154776333Y-73629310D01*
X154644312Y-73382317D01*
X154349224Y-73250381D01*
X153179605Y-74420000D01*
X152820395Y-74420000D01*
X151650776Y-73250381D01*
X151355688Y-73382317D01*
X151184841Y-73723045D01*
X151083750Y-74090557D01*
X151056299Y-74470729D01*
X147642466Y-74470729D01*
X147617205Y-74409744D01*
X147503937Y-74240226D01*
X147359774Y-74096063D01*
X147190256Y-73982795D01*
X147001898Y-73904774D01*
X146801939Y-73865000D01*
X146598061Y-73865000D01*
X146398102Y-73904774D01*
X146209744Y-73982795D01*
X146040226Y-74096063D01*
X145896063Y-74240226D01*
X145782795Y-74409744D01*
X145704774Y-74598102D01*
X145665000Y-74798061D01*
X145665000Y-75001939D01*
X145704774Y-75201898D01*
X145782795Y-75390256D01*
X145815000Y-75438454D01*
X145815001Y-79858437D01*
X142280422Y-81665000D01*
X142098061Y-81665000D01*
X141898102Y-81704774D01*
X141709744Y-81782795D01*
X141540226Y-81896063D01*
X141396063Y-82040226D01*
X141282795Y-82209744D01*
X141204774Y-82398102D01*
X141165000Y-82598061D01*
X140885000Y-82598061D01*
X140885000Y-76038454D01*
X140917205Y-75990256D01*
X140995226Y-75801898D01*
X141035000Y-75601939D01*
X141035000Y-75398061D01*
X140995226Y-75198102D01*
X140917205Y-75009744D01*
X140803937Y-74840226D01*
X140659774Y-74696063D01*
X140490256Y-74582795D01*
X140301898Y-74504774D01*
X140101939Y-74465000D01*
X139898061Y-74465000D01*
X139698102Y-74504774D01*
X139509744Y-74582795D01*
X139340226Y-74696063D01*
X139196063Y-74840226D01*
X139082795Y-75009744D01*
X139004774Y-75198102D01*
X138965000Y-75398061D01*
X138965000Y-75601939D01*
X139004774Y-75801898D01*
X139082795Y-75990256D01*
X139115000Y-76038454D01*
X139115001Y-83956521D01*
X139110719Y-84000000D01*
X139127805Y-84173490D01*
X139178412Y-84340313D01*
X139260590Y-84494059D01*
X139343468Y-84595046D01*
X139343471Y-84595049D01*
X139371184Y-84628817D01*
X139404952Y-84656530D01*
X144493465Y-89745044D01*
X144504774Y-89801898D01*
X144582795Y-89990256D01*
X144696063Y-90159774D01*
X144840226Y-90303937D01*
X145009744Y-90417205D01*
X145197556Y-90495000D01*
X132663469Y-90495000D01*
X132620000Y-90490719D01*
X132576531Y-90495000D01*
X132576523Y-90495000D01*
X132446510Y-90507805D01*
X132279687Y-90558411D01*
X132125941Y-90640589D01*
X132024953Y-90723468D01*
X132024951Y-90723470D01*
X131991183Y-90751183D01*
X131963470Y-90784951D01*
X130254957Y-92493465D01*
X130198102Y-92504774D01*
X130009744Y-92582795D01*
X129840226Y-92696063D01*
X129696063Y-92840226D01*
X129582795Y-93009744D01*
X129504774Y-93198102D01*
X129465000Y-93398061D01*
X129465000Y-93601939D01*
X129504774Y-93801898D01*
X129582795Y-93990256D01*
X129696063Y-94159774D01*
X129840226Y-94303937D01*
X130009744Y-94417205D01*
X130198102Y-94495226D01*
X130398061Y-94535000D01*
X130601939Y-94535000D01*
X130801898Y-94495226D01*
X130990256Y-94417205D01*
X131159774Y-94303937D01*
X131303937Y-94159774D01*
X131417205Y-93990256D01*
X131495226Y-93801898D01*
X131506535Y-93745043D01*
X132986579Y-92265000D01*
X153299367Y-92265000D01*
X153450655Y-92449345D01*
X153679821Y-92637417D01*
X153703362Y-92650000D01*
X153679821Y-92662583D01*
X153450655Y-92850655D01*
X153299367Y-93035000D01*
X134123465Y-93035000D01*
X134079999Y-93030719D01*
X134036533Y-93035000D01*
X134036523Y-93035000D01*
X133906510Y-93047805D01*
X133739687Y-93098411D01*
X133585941Y-93180589D01*
X133585939Y-93180590D01*
X133585940Y-93180590D01*
X133484953Y-93263468D01*
X133484951Y-93263470D01*
X133451183Y-93291183D01*
X133423470Y-93324951D01*
X131754957Y-94993465D01*
X131698102Y-95004774D01*
X131509744Y-95082795D01*
X131340226Y-95196063D01*
X131196063Y-95340226D01*
X131082795Y-95509744D01*
X131004774Y-95698102D01*
X130965000Y-95898061D01*
X130965000Y-96101939D01*
X131004774Y-96301898D01*
X131082795Y-96490256D01*
X131196063Y-96659774D01*
X131340226Y-96803937D01*
X131509744Y-96917205D01*
X131698102Y-96995226D01*
X131898061Y-97035000D01*
X132101939Y-97035000D01*
X132301898Y-96995226D01*
X132490256Y-96917205D01*
X132659774Y-96803937D01*
X132803937Y-96659774D01*
X132917205Y-96490256D01*
X132995226Y-96301898D01*
X133006535Y-96245043D01*
X134446579Y-94805000D01*
X153299367Y-94805000D01*
X153450655Y-94989345D01*
X153679821Y-95177417D01*
X153703362Y-95190000D01*
X153679821Y-95202583D01*
X153450655Y-95390655D01*
X153299367Y-95575000D01*
X144828454Y-95575000D01*
X144780256Y-95542795D01*
X144591898Y-95464774D01*
X144391939Y-95425000D01*
X144188061Y-95425000D01*
X143988102Y-95464774D01*
X143799744Y-95542795D01*
X143751546Y-95575000D01*
X134583465Y-95575000D01*
X134539999Y-95570719D01*
X134496533Y-95575000D01*
X134496523Y-95575000D01*
X134366510Y-95587805D01*
X134199687Y-95638411D01*
X134045941Y-95720589D01*
X134045939Y-95720590D01*
X134045940Y-95720590D01*
X133944953Y-95803468D01*
X133944951Y-95803470D01*
X133911183Y-95831183D01*
X133883470Y-95864951D01*
X124754957Y-104993465D01*
X124698102Y-105004774D01*
X124509744Y-105082795D01*
X124340226Y-105196063D01*
X124196063Y-105340226D01*
X124082795Y-105509744D01*
X124004774Y-105698102D01*
X123965000Y-105898061D01*
X123965000Y-106101939D01*
X124004774Y-106301898D01*
X124082795Y-106490256D01*
X124148179Y-106588110D01*
X124096063Y-106640226D01*
X123982795Y-106809744D01*
X123904774Y-106998102D01*
X123865000Y-107198061D01*
X123865000Y-107401939D01*
X123904774Y-107601898D01*
X123982795Y-107790256D01*
X124096063Y-107959774D01*
X124240226Y-108103937D01*
X124409744Y-108217205D01*
X124598102Y-108295226D01*
X124654956Y-108306535D01*
X124841630Y-108493209D01*
X124867496Y-108525107D01*
X124903100Y-108554679D01*
X124904953Y-108556532D01*
X124936663Y-108582555D01*
X125001601Y-108636492D01*
X125003909Y-108637743D01*
X125005940Y-108639410D01*
X125080592Y-108679312D01*
X125154861Y-108719572D01*
X125157366Y-108720348D01*
X125159686Y-108721588D01*
X125240634Y-108746144D01*
X125321383Y-108771159D01*
X125323997Y-108771432D01*
X125326509Y-108772194D01*
X125410643Y-108780480D01*
X125451318Y-108784728D01*
X125453927Y-108784743D01*
X125499999Y-108789281D01*
X125540878Y-108785255D01*
X131527948Y-108820473D01*
X130433422Y-109915000D01*
X128538454Y-109915000D01*
X128490256Y-109882795D01*
X128301898Y-109804774D01*
X128101939Y-109765000D01*
X127898061Y-109765000D01*
X127698102Y-109804774D01*
X127509744Y-109882795D01*
X127461546Y-109915000D01*
X120566579Y-109915000D01*
X119135000Y-108483422D01*
X119135000Y-108038072D01*
X119150000Y-108038072D01*
X119274482Y-108025812D01*
X119394180Y-107989502D01*
X119504494Y-107930537D01*
X119601185Y-107851185D01*
X119680537Y-107754494D01*
X119739502Y-107644180D01*
X119775812Y-107524482D01*
X119788072Y-107400000D01*
X119788072Y-107351783D01*
X119840226Y-107403937D01*
X120009744Y-107517205D01*
X120198102Y-107595226D01*
X120398061Y-107635000D01*
X120601939Y-107635000D01*
X120801898Y-107595226D01*
X120990256Y-107517205D01*
X121159774Y-107403937D01*
X121303937Y-107259774D01*
X121417205Y-107090256D01*
X121495226Y-106901898D01*
X121535000Y-106701939D01*
X121535000Y-106498061D01*
X121495226Y-106298102D01*
X121417205Y-106109744D01*
X121385000Y-106061546D01*
X121385000Y-98532402D01*
X121398061Y-98535000D01*
X121601939Y-98535000D01*
X121801898Y-98495226D01*
X121990256Y-98417205D01*
X122159774Y-98303937D01*
X122303937Y-98159774D01*
X122417205Y-97990256D01*
X122495226Y-97801898D01*
X122501233Y-97771699D01*
X131085261Y-89664562D01*
X131128817Y-89628817D01*
X131176095Y-89571209D01*
X131224998Y-89514976D01*
X131231324Y-89503913D01*
X131239411Y-89494059D01*
X131274545Y-89428327D01*
X131311534Y-89363640D01*
X131315581Y-89351554D01*
X131321589Y-89340313D01*
X131343222Y-89268999D01*
X131366884Y-89198330D01*
X131368495Y-89185688D01*
X131372195Y-89173490D01*
X131379503Y-89099295D01*
X131388918Y-89025398D01*
X131385000Y-88969203D01*
X131385000Y-76366578D01*
X131853517Y-75898061D01*
X134965000Y-75898061D01*
X134965000Y-76101939D01*
X135004774Y-76301898D01*
X135082795Y-76490256D01*
X135115001Y-76538456D01*
X135115000Y-81461546D01*
X135082795Y-81509744D01*
X135004774Y-81698102D01*
X134965000Y-81898061D01*
X134965000Y-82101939D01*
X135004774Y-82301898D01*
X135082795Y-82490256D01*
X135196063Y-82659774D01*
X135340226Y-82803937D01*
X135509744Y-82917205D01*
X135698102Y-82995226D01*
X135898061Y-83035000D01*
X136101939Y-83035000D01*
X136301898Y-82995226D01*
X136490256Y-82917205D01*
X136659774Y-82803937D01*
X136750000Y-82713711D01*
X136840226Y-82803937D01*
X137009744Y-82917205D01*
X137198102Y-82995226D01*
X137398061Y-83035000D01*
X137601939Y-83035000D01*
X137801898Y-82995226D01*
X137990256Y-82917205D01*
X138159774Y-82803937D01*
X138303937Y-82659774D01*
X138417205Y-82490256D01*
X138495226Y-82301898D01*
X138535000Y-82101939D01*
X138535000Y-81898061D01*
X138495226Y-81698102D01*
X138417205Y-81509744D01*
X138385000Y-81461546D01*
X138385000Y-76038454D01*
X138417205Y-75990256D01*
X138495226Y-75801898D01*
X138535000Y-75601939D01*
X138535000Y-75398061D01*
X138495226Y-75198102D01*
X138417205Y-75009744D01*
X138303937Y-74840226D01*
X138159774Y-74696063D01*
X137990256Y-74582795D01*
X137801898Y-74504774D01*
X137601939Y-74465000D01*
X137398061Y-74465000D01*
X137198102Y-74504774D01*
X137009744Y-74582795D01*
X136840226Y-74696063D01*
X136696063Y-74840226D01*
X136582795Y-75009744D01*
X136539035Y-75115388D01*
X136490256Y-75082795D01*
X136301898Y-75004774D01*
X136101939Y-74965000D01*
X135898061Y-74965000D01*
X135698102Y-75004774D01*
X135509744Y-75082795D01*
X135340226Y-75196063D01*
X135196063Y-75340226D01*
X135082795Y-75509744D01*
X135004774Y-75698102D01*
X134965000Y-75898061D01*
X131853517Y-75898061D01*
X134680802Y-73070776D01*
X151830381Y-73070776D01*
X153000000Y-74240395D01*
X154169619Y-73070776D01*
X154037683Y-72775688D01*
X153696955Y-72604841D01*
X153329443Y-72503750D01*
X152949271Y-72476299D01*
X152571049Y-72523543D01*
X152209310Y-72643667D01*
X151962317Y-72775688D01*
X151830381Y-73070776D01*
X134680802Y-73070776D01*
X134685050Y-73066529D01*
X134718817Y-73038817D01*
X134751308Y-72999228D01*
X134829411Y-72904059D01*
X134911589Y-72750314D01*
X134962195Y-72583490D01*
X134969458Y-72509744D01*
X134975000Y-72453477D01*
X134975000Y-72453469D01*
X134979281Y-72410000D01*
X134975000Y-72366531D01*
X134975000Y-71450633D01*
X135159345Y-71299345D01*
X135347417Y-71070179D01*
X135360000Y-71046637D01*
X135372583Y-71070178D01*
X135560655Y-71299345D01*
X135789821Y-71487417D01*
X136051275Y-71627166D01*
X136334968Y-71713224D01*
X136630000Y-71742282D01*
X136925031Y-71713224D01*
X137208724Y-71627166D01*
X137470178Y-71487417D01*
X137699345Y-71299345D01*
X137887417Y-71070179D01*
X137900000Y-71046637D01*
X137912583Y-71070178D01*
X138100655Y-71299345D01*
X138329821Y-71487417D01*
X138591275Y-71627166D01*
X138874968Y-71713224D01*
X139170000Y-71742282D01*
X139465031Y-71713224D01*
X139748724Y-71627166D01*
X140010178Y-71487417D01*
X140239345Y-71299345D01*
X140427417Y-71070179D01*
X140440000Y-71046637D01*
X140452583Y-71070178D01*
X140640655Y-71299345D01*
X140869821Y-71487417D01*
X141131275Y-71627166D01*
X141414968Y-71713224D01*
X141710000Y-71742282D01*
X142005031Y-71713224D01*
X142288724Y-71627166D01*
X142550178Y-71487417D01*
X142779345Y-71299345D01*
X142833066Y-71233886D01*
X142891595Y-71343387D01*
X143002038Y-71477962D01*
X143136613Y-71588405D01*
X143290149Y-71670472D01*
X143456745Y-71721008D01*
X143629999Y-71738072D01*
X144870001Y-71738072D01*
X145043255Y-71721008D01*
X145209851Y-71670472D01*
X145363387Y-71588405D01*
X145497962Y-71477962D01*
X145608405Y-71343387D01*
X145690472Y-71189851D01*
X145741008Y-71023255D01*
X145758072Y-70850001D01*
X145758072Y-69149999D01*
X145741008Y-68976745D01*
X145690472Y-68810149D01*
X145608405Y-68656613D01*
X145497962Y-68522038D01*
X145363387Y-68411595D01*
X145209851Y-68329528D01*
X145043255Y-68278992D01*
X144870001Y-68261928D01*
X143629999Y-68261928D01*
X143456745Y-68278992D01*
X143290149Y-68329528D01*
X143136613Y-68411595D01*
X143002038Y-68522038D01*
X142891595Y-68656613D01*
X142833066Y-68766114D01*
X142779345Y-68700655D01*
X142550179Y-68512583D01*
X142288725Y-68372834D01*
X142005032Y-68286776D01*
X141710000Y-68257718D01*
X141414969Y-68286776D01*
X141131276Y-68372834D01*
X140869822Y-68512583D01*
X140640655Y-68700655D01*
X140452583Y-68929821D01*
X140440000Y-68953362D01*
X140427417Y-68929821D01*
X140239345Y-68700655D01*
X140010179Y-68512583D01*
X139748725Y-68372834D01*
X139465032Y-68286776D01*
X139170000Y-68257718D01*
X138874969Y-68286776D01*
X138591276Y-68372834D01*
X138329822Y-68512583D01*
X138100655Y-68700655D01*
X137912583Y-68929821D01*
X137900000Y-68953362D01*
X137887417Y-68929821D01*
X137699345Y-68700655D01*
X137470179Y-68512583D01*
X137208725Y-68372834D01*
X136925032Y-68286776D01*
X136630000Y-68257718D01*
X136334969Y-68286776D01*
X136051276Y-68372834D01*
X135789822Y-68512583D01*
X135560655Y-68700655D01*
X135372583Y-68929821D01*
X135360000Y-68953362D01*
X135347417Y-68929821D01*
X135159345Y-68700655D01*
X134930179Y-68512583D01*
X134668725Y-68372834D01*
X134385032Y-68286776D01*
X134090000Y-68257718D01*
X133794969Y-68286776D01*
X133511276Y-68372834D01*
X133249822Y-68512583D01*
X133020655Y-68700655D01*
X132832583Y-68929821D01*
X132820000Y-68953362D01*
X132807417Y-68929821D01*
X132619345Y-68700655D01*
X132390179Y-68512583D01*
X132128725Y-68372834D01*
X131845032Y-68286776D01*
X131550000Y-68257718D01*
X131254969Y-68286776D01*
X130971276Y-68372834D01*
X130709822Y-68512583D01*
X130480655Y-68700655D01*
X130292583Y-68929821D01*
X130280000Y-68953362D01*
X130267417Y-68929821D01*
X130079345Y-68700655D01*
X129850179Y-68512583D01*
X129588725Y-68372834D01*
X129305032Y-68286776D01*
X129010000Y-68257718D01*
X128714969Y-68286776D01*
X128431276Y-68372834D01*
X128169822Y-68512583D01*
X127940655Y-68700655D01*
X127752583Y-68929821D01*
X127740000Y-68953362D01*
X127727417Y-68929821D01*
X127539345Y-68700655D01*
X127310179Y-68512583D01*
X127048725Y-68372834D01*
X126765032Y-68286776D01*
X126470000Y-68257718D01*
X126174969Y-68286776D01*
X125891276Y-68372834D01*
X125629822Y-68512583D01*
X125400655Y-68700655D01*
X125212583Y-68929821D01*
X125072834Y-69191275D01*
X124986776Y-69474968D01*
X124965000Y-69696064D01*
X124965000Y-70303935D01*
X124986776Y-70525031D01*
X125072834Y-70808724D01*
X125212583Y-71070178D01*
X125400655Y-71299345D01*
X125629821Y-71487417D01*
X125891275Y-71627166D01*
X126174968Y-71713224D01*
X126470000Y-71742282D01*
X126765031Y-71713224D01*
X127048724Y-71627166D01*
X127310178Y-71487417D01*
X127539345Y-71299345D01*
X127727417Y-71070179D01*
X127740000Y-71046637D01*
X127752583Y-71070178D01*
X127940655Y-71299345D01*
X128169821Y-71487417D01*
X128431275Y-71627166D01*
X128714968Y-71713224D01*
X129010000Y-71742282D01*
X129305031Y-71713224D01*
X129588724Y-71627166D01*
X129850178Y-71487417D01*
X130079345Y-71299345D01*
X130267417Y-71070179D01*
X130280000Y-71046637D01*
X130292583Y-71070178D01*
X130480655Y-71299345D01*
X130594266Y-71392583D01*
X130533131Y-72615290D01*
X128802442Y-74345980D01*
X128766173Y-74376234D01*
X128713649Y-74441288D01*
X128660590Y-74505941D01*
X128658906Y-74509091D01*
X128656661Y-74511872D01*
X128617809Y-74585979D01*
X128578412Y-74659687D01*
X128577376Y-74663104D01*
X128575715Y-74666271D01*
X128552088Y-74746464D01*
X128527805Y-74826510D01*
X128527454Y-74830071D01*
X128526446Y-74833493D01*
X128518917Y-74916759D01*
X128510719Y-75000000D01*
X128515348Y-75047005D01*
X128611944Y-87121411D01*
X119914735Y-95335441D01*
X119871184Y-95371183D01*
X119823919Y-95428775D01*
X119775001Y-95485026D01*
X119768674Y-95496090D01*
X119760590Y-95505941D01*
X119725465Y-95571656D01*
X119688466Y-95636361D01*
X119684418Y-95648450D01*
X119678412Y-95659687D01*
X119656783Y-95730986D01*
X119633116Y-95801672D01*
X119631505Y-95814317D01*
X119627806Y-95826510D01*
X119620501Y-95900677D01*
X119611082Y-95974603D01*
X119615001Y-96030817D01*
X119615000Y-102181614D01*
X119553937Y-102090226D01*
X119409774Y-101946063D01*
X119240256Y-101832795D01*
X119051898Y-101754774D01*
X118995044Y-101743465D01*
X117635000Y-100383422D01*
X117635000Y-84293469D01*
X117639281Y-84250000D01*
X117635000Y-84206531D01*
X117635000Y-84206523D01*
X117622195Y-84076510D01*
X117571589Y-83909687D01*
X117571589Y-83909686D01*
X117489411Y-83755941D01*
X117406532Y-83654953D01*
X117406530Y-83654951D01*
X117378817Y-83621183D01*
X117345049Y-83593470D01*
X115506535Y-81754957D01*
X115495226Y-81698102D01*
X115417205Y-81509744D01*
X115303937Y-81340226D01*
X115159774Y-81196063D01*
X114990256Y-81082795D01*
X114801898Y-81004774D01*
X114601939Y-80965000D01*
X114398061Y-80965000D01*
X114198102Y-81004774D01*
X114009744Y-81082795D01*
X113840226Y-81196063D01*
X113696063Y-81340226D01*
X113582795Y-81509744D01*
X113504774Y-81698102D01*
X113465000Y-81898061D01*
X113465000Y-82101939D01*
X113504774Y-82301898D01*
X113582795Y-82490256D01*
X113696063Y-82659774D01*
X113840226Y-82803937D01*
X114009744Y-82917205D01*
X114198102Y-82995226D01*
X114254957Y-83006535D01*
X115865001Y-84616580D01*
X115865000Y-100706531D01*
X115860719Y-100750000D01*
X115865000Y-100793469D01*
X115865000Y-100793476D01*
X115877805Y-100923489D01*
X115928411Y-101090312D01*
X116010589Y-101244058D01*
X116121183Y-101378817D01*
X116154956Y-101406534D01*
X117586810Y-102838389D01*
X116468998Y-103956201D01*
X116440000Y-103979999D01*
X116416202Y-104008997D01*
X116416201Y-104008998D01*
X116345026Y-104095724D01*
X116274454Y-104227754D01*
X116230998Y-104371015D01*
X116216324Y-104520000D01*
X116220001Y-104557332D01*
X116220001Y-105050636D01*
X116010913Y-104987210D01*
X115785408Y-104965000D01*
X115634592Y-104965000D01*
X115409087Y-104987210D01*
X115119739Y-105074983D01*
X114853073Y-105217519D01*
X114619339Y-105409339D01*
X114440000Y-105627865D01*
X114260661Y-105409339D01*
X114026927Y-105217519D01*
X113760261Y-105074983D01*
X113470913Y-104987210D01*
X113245408Y-104965000D01*
X113094592Y-104965000D01*
X112869087Y-104987210D01*
X112579739Y-105074983D01*
X112313073Y-105217519D01*
X112079339Y-105409339D01*
X111900000Y-105627865D01*
X111720661Y-105409339D01*
X111486927Y-105217519D01*
X111220261Y-105074983D01*
X110930913Y-104987210D01*
X110705408Y-104965000D01*
X110554592Y-104965000D01*
X110329087Y-104987210D01*
X110039739Y-105074983D01*
X109773073Y-105217519D01*
X109539339Y-105409339D01*
X109347519Y-105643073D01*
X109204983Y-105909739D01*
X109117210Y-106199087D01*
X109087573Y-106500000D01*
X100751578Y-106500000D01*
X101595050Y-105656529D01*
X101628817Y-105628817D01*
X101656533Y-105595046D01*
X101715210Y-105523548D01*
X101739411Y-105494059D01*
X101821589Y-105340313D01*
X101872195Y-105173490D01*
X101885000Y-105043477D01*
X101885000Y-105043467D01*
X101889281Y-105000001D01*
X101885000Y-104956535D01*
X101885000Y-97538454D01*
X101917205Y-97490256D01*
X101995226Y-97301898D01*
X102035000Y-97101939D01*
X102035000Y-96898061D01*
X101995226Y-96698102D01*
X101917205Y-96509744D01*
X101803937Y-96340226D01*
X101659774Y-96196063D01*
X101490256Y-96082795D01*
X101301898Y-96004774D01*
X101101939Y-95965000D01*
X100898061Y-95965000D01*
X100698102Y-96004774D01*
X100509744Y-96082795D01*
X100340226Y-96196063D01*
X100196063Y-96340226D01*
X100082795Y-96509744D01*
X100004774Y-96698102D01*
X99965000Y-96898061D01*
X99965000Y-97101939D01*
X100004774Y-97301898D01*
X100082795Y-97490256D01*
X100115001Y-97538456D01*
X100115000Y-104633421D01*
X98633422Y-106115000D01*
X75366579Y-106115000D01*
X74006535Y-104754957D01*
X73995226Y-104698102D01*
X73917205Y-104509744D01*
X73803937Y-104340226D01*
X73659774Y-104196063D01*
X73490256Y-104082795D01*
X73301898Y-104004774D01*
X73101939Y-103965000D01*
X72898061Y-103965000D01*
X72698102Y-104004774D01*
X72509744Y-104082795D01*
X72340226Y-104196063D01*
X72196063Y-104340226D01*
X72082795Y-104509744D01*
X72004774Y-104698102D01*
X71965000Y-104898061D01*
X60660000Y-104898061D01*
X60660000Y-95348816D01*
X68385000Y-95348816D01*
X68385000Y-95651184D01*
X68443989Y-95947743D01*
X68559701Y-96227095D01*
X68727688Y-96478505D01*
X68941495Y-96692312D01*
X69192905Y-96860299D01*
X69472257Y-96976011D01*
X69768816Y-97035000D01*
X70071184Y-97035000D01*
X70367743Y-96976011D01*
X70647095Y-96860299D01*
X70898505Y-96692312D01*
X71112312Y-96478505D01*
X71190000Y-96362237D01*
X71267688Y-96478505D01*
X71481495Y-96692312D01*
X71732905Y-96860299D01*
X72012257Y-96976011D01*
X72308816Y-97035000D01*
X72611184Y-97035000D01*
X72907743Y-96976011D01*
X73187095Y-96860299D01*
X73438505Y-96692312D01*
X73504944Y-96625873D01*
X73510498Y-96644180D01*
X73569463Y-96754494D01*
X73648815Y-96851185D01*
X73745506Y-96930537D01*
X73855820Y-96989502D01*
X73975518Y-97025812D01*
X74100000Y-97038072D01*
X75900000Y-97038072D01*
X76024482Y-97025812D01*
X76144180Y-96989502D01*
X76254494Y-96930537D01*
X76351185Y-96851185D01*
X76430537Y-96754494D01*
X76489502Y-96644180D01*
X76525812Y-96524482D01*
X76538072Y-96400000D01*
X76538072Y-94600000D01*
X76525812Y-94475518D01*
X76489502Y-94355820D01*
X76430537Y-94245506D01*
X76351185Y-94148815D01*
X76254494Y-94069463D01*
X76144180Y-94010498D01*
X76024482Y-93974188D01*
X75900000Y-93961928D01*
X74100000Y-93961928D01*
X73975518Y-93974188D01*
X73855820Y-94010498D01*
X73745506Y-94069463D01*
X73648815Y-94148815D01*
X73569463Y-94245506D01*
X73510498Y-94355820D01*
X73504944Y-94374127D01*
X73438505Y-94307688D01*
X73187095Y-94139701D01*
X72907743Y-94023989D01*
X72611184Y-93965000D01*
X72308816Y-93965000D01*
X72012257Y-94023989D01*
X71732905Y-94139701D01*
X71481495Y-94307688D01*
X71267688Y-94521495D01*
X71190000Y-94637763D01*
X71112312Y-94521495D01*
X70898505Y-94307688D01*
X70647095Y-94139701D01*
X70367743Y-94023989D01*
X70071184Y-93965000D01*
X69768816Y-93965000D01*
X69472257Y-94023989D01*
X69192905Y-94139701D01*
X68941495Y-94307688D01*
X68727688Y-94521495D01*
X68559701Y-94772905D01*
X68443989Y-95052257D01*
X68385000Y-95348816D01*
X60660000Y-95348816D01*
X60660000Y-77124514D01*
X82082500Y-77124514D01*
X82082500Y-77375485D01*
X82105470Y-77608703D01*
X82196245Y-77907948D01*
X82343655Y-78183734D01*
X82542037Y-78425463D01*
X82783765Y-78623845D01*
X83059551Y-78771255D01*
X83358796Y-78862030D01*
X83670000Y-78892681D01*
X83981203Y-78862030D01*
X84280448Y-78771255D01*
X84556234Y-78623845D01*
X84797963Y-78425463D01*
X84940000Y-78252391D01*
X85082037Y-78425463D01*
X85323765Y-78623845D01*
X85599551Y-78771255D01*
X85898796Y-78862030D01*
X86210000Y-78892681D01*
X86521203Y-78862030D01*
X86820448Y-78771255D01*
X87096234Y-78623845D01*
X87222095Y-78520553D01*
X87266963Y-78604494D01*
X87346315Y-78701185D01*
X87443006Y-78780537D01*
X87553320Y-78839502D01*
X87673018Y-78875812D01*
X87797500Y-78888072D01*
X89702500Y-78888072D01*
X89826982Y-78875812D01*
X89946680Y-78839502D01*
X90056994Y-78780537D01*
X90153685Y-78701185D01*
X90233037Y-78604494D01*
X90292002Y-78494180D01*
X90328312Y-78374482D01*
X90340572Y-78250000D01*
X90340572Y-76250000D01*
X90328312Y-76125518D01*
X90292002Y-76005820D01*
X90233037Y-75895506D01*
X90153685Y-75798815D01*
X90056994Y-75719463D01*
X89946680Y-75660498D01*
X89826982Y-75624188D01*
X89702500Y-75611928D01*
X88835907Y-75611928D01*
X88917205Y-75490256D01*
X88995226Y-75301898D01*
X89035000Y-75101939D01*
X89035000Y-74898061D01*
X88995226Y-74698102D01*
X88917205Y-74509744D01*
X88803937Y-74340226D01*
X88659774Y-74196063D01*
X88490256Y-74082795D01*
X88301898Y-74004774D01*
X88101939Y-73965000D01*
X87898061Y-73965000D01*
X87698102Y-74004774D01*
X87509744Y-74082795D01*
X87461546Y-74115000D01*
X84538454Y-74115000D01*
X84490256Y-74082795D01*
X84301898Y-74004774D01*
X84101939Y-73965000D01*
X83898061Y-73965000D01*
X83698102Y-74004774D01*
X83509744Y-74082795D01*
X83340226Y-74196063D01*
X83196063Y-74340226D01*
X83082795Y-74509744D01*
X83004774Y-74698102D01*
X82965000Y-74898061D01*
X82965000Y-75101939D01*
X83004774Y-75301898D01*
X83082795Y-75490256D01*
X83196063Y-75659774D01*
X83217209Y-75680920D01*
X83059552Y-75728745D01*
X82783766Y-75876155D01*
X82542037Y-76074537D01*
X82343655Y-76316265D01*
X82196245Y-76592051D01*
X82105470Y-76891296D01*
X82082500Y-77124514D01*
X60660000Y-77124514D01*
X60660000Y-72898061D01*
X73965000Y-72898061D01*
X73965000Y-73101939D01*
X74004774Y-73301898D01*
X74082795Y-73490256D01*
X74196063Y-73659774D01*
X74340226Y-73803937D01*
X74509744Y-73917205D01*
X74698102Y-73995226D01*
X74898061Y-74035000D01*
X75101939Y-74035000D01*
X75301898Y-73995226D01*
X75490256Y-73917205D01*
X75538454Y-73885000D01*
X79211546Y-73885000D01*
X79259744Y-73917205D01*
X79448102Y-73995226D01*
X79648061Y-74035000D01*
X79851939Y-74035000D01*
X80051898Y-73995226D01*
X80240256Y-73917205D01*
X80409774Y-73803937D01*
X80553937Y-73659774D01*
X80667205Y-73490256D01*
X80745226Y-73301898D01*
X80785000Y-73101939D01*
X80785000Y-72898061D01*
X80745226Y-72698102D01*
X80667205Y-72509744D01*
X80553937Y-72340226D01*
X80409774Y-72196063D01*
X80240256Y-72082795D01*
X80051898Y-72004774D01*
X79851939Y-71965000D01*
X79648061Y-71965000D01*
X79448102Y-72004774D01*
X79259744Y-72082795D01*
X79211546Y-72115000D01*
X75538454Y-72115000D01*
X75490256Y-72082795D01*
X75301898Y-72004774D01*
X75101939Y-71965000D01*
X74898061Y-71965000D01*
X74698102Y-72004774D01*
X74509744Y-72082795D01*
X74340226Y-72196063D01*
X74196063Y-72340226D01*
X74082795Y-72509744D01*
X74004774Y-72698102D01*
X73965000Y-72898061D01*
X60660000Y-72898061D01*
X60660000Y-69627000D01*
X104500000Y-69627000D01*
X104524776Y-69624560D01*
X104548601Y-69617333D01*
X104570557Y-69605597D01*
X104589803Y-69589803D01*
X104605597Y-69570557D01*
X104617333Y-69548601D01*
X104624560Y-69524776D01*
X104627000Y-69500000D01*
X104627000Y-64635000D01*
X105950888Y-64635000D01*
X106062595Y-64641718D01*
X106381675Y-64597961D01*
X106686088Y-64492795D01*
X106860044Y-64399814D01*
X106955808Y-64135413D01*
X106635000Y-63814605D01*
X106635000Y-63455395D01*
X107135413Y-63955808D01*
X107399814Y-63860044D01*
X107540704Y-63570429D01*
X107622384Y-63258892D01*
X107641718Y-62937405D01*
X107597961Y-62618325D01*
X107492795Y-62313912D01*
X107458634Y-62250000D01*
X117836928Y-62250000D01*
X117836928Y-63750000D01*
X117849188Y-63874482D01*
X117885498Y-63994180D01*
X117944463Y-64104494D01*
X118023815Y-64201185D01*
X118120506Y-64280537D01*
X118230820Y-64339502D01*
X118350518Y-64375812D01*
X118475000Y-64388072D01*
X119525000Y-64388072D01*
X119649482Y-64375812D01*
X119769180Y-64339502D01*
X119834057Y-64304824D01*
X119902663Y-64335272D01*
X119964190Y-64343964D01*
X120143000Y-64218163D01*
X120143000Y-63900235D01*
X120150812Y-63874482D01*
X120163072Y-63750000D01*
X120163072Y-62718022D01*
X120380000Y-62718022D01*
X120380000Y-63281979D01*
X120396785Y-63452400D01*
X120397000Y-63453109D01*
X120397000Y-64218163D01*
X120575810Y-64343964D01*
X120637337Y-64335272D01*
X120846882Y-64242275D01*
X120905331Y-64201071D01*
X121093941Y-64301885D01*
X121312601Y-64368215D01*
X121540000Y-64390612D01*
X121767400Y-64368215D01*
X121986060Y-64301885D01*
X122187579Y-64194171D01*
X122364212Y-64049212D01*
X122509171Y-63872579D01*
X122616885Y-63671059D01*
X122683215Y-63452399D01*
X122700000Y-63281978D01*
X122700000Y-62718021D01*
X122683215Y-62547600D01*
X122616885Y-62328940D01*
X122509171Y-62127421D01*
X122364212Y-61950788D01*
X122187578Y-61805829D01*
X121986059Y-61698115D01*
X121767399Y-61631785D01*
X121540000Y-61609388D01*
X121312600Y-61631785D01*
X121093940Y-61698115D01*
X120905331Y-61798929D01*
X120846882Y-61757725D01*
X120637337Y-61664728D01*
X120575810Y-61656036D01*
X120397000Y-61781837D01*
X120397000Y-62546892D01*
X120396785Y-62547601D01*
X120380000Y-62718022D01*
X120163072Y-62718022D01*
X120163072Y-62250000D01*
X120150812Y-62125518D01*
X120143000Y-62099765D01*
X120143000Y-61781837D01*
X119964190Y-61656036D01*
X119902663Y-61664728D01*
X119834057Y-61695176D01*
X119769180Y-61660498D01*
X119649482Y-61624188D01*
X119525000Y-61611928D01*
X118475000Y-61611928D01*
X118350518Y-61624188D01*
X118230820Y-61660498D01*
X118120506Y-61719463D01*
X118023815Y-61798815D01*
X117944463Y-61895506D01*
X117885498Y-62005820D01*
X117849188Y-62125518D01*
X117836928Y-62250000D01*
X107458634Y-62250000D01*
X107399814Y-62139956D01*
X107135413Y-62044192D01*
X106635000Y-62544605D01*
X106635000Y-62185395D01*
X106955808Y-61864587D01*
X106860044Y-61600186D01*
X106570429Y-61459296D01*
X106258892Y-61377616D01*
X105937405Y-61358282D01*
X105888417Y-61365000D01*
X104627000Y-61365000D01*
X104627000Y-55196064D01*
X125045000Y-55196064D01*
X125045000Y-55803935D01*
X125066776Y-56025031D01*
X125152834Y-56308724D01*
X125292583Y-56570178D01*
X125480655Y-56799345D01*
X125709821Y-56987417D01*
X125971275Y-57127166D01*
X126254968Y-57213224D01*
X126550000Y-57242282D01*
X126845031Y-57213224D01*
X127128724Y-57127166D01*
X127390178Y-56987417D01*
X127619345Y-56799345D01*
X127807417Y-56570179D01*
X127820000Y-56546637D01*
X127832583Y-56570178D01*
X128020655Y-56799345D01*
X128249821Y-56987417D01*
X128511275Y-57127166D01*
X128794968Y-57213224D01*
X129090000Y-57242282D01*
X129385031Y-57213224D01*
X129668724Y-57127166D01*
X129930178Y-56987417D01*
X130159345Y-56799345D01*
X130347417Y-56570179D01*
X130360000Y-56546637D01*
X130372583Y-56570178D01*
X130560655Y-56799345D01*
X130789821Y-56987417D01*
X131051275Y-57127166D01*
X131334968Y-57213224D01*
X131630000Y-57242282D01*
X131925031Y-57213224D01*
X132208724Y-57127166D01*
X132470178Y-56987417D01*
X132699345Y-56799345D01*
X132887417Y-56570179D01*
X132900000Y-56546637D01*
X132912583Y-56570178D01*
X133100655Y-56799345D01*
X133329821Y-56987417D01*
X133591275Y-57127166D01*
X133874968Y-57213224D01*
X134170000Y-57242282D01*
X134465031Y-57213224D01*
X134748724Y-57127166D01*
X135010178Y-56987417D01*
X135239345Y-56799345D01*
X135427417Y-56570179D01*
X135440000Y-56546637D01*
X135452583Y-56570178D01*
X135640655Y-56799345D01*
X135869821Y-56987417D01*
X136131275Y-57127166D01*
X136414968Y-57213224D01*
X136710000Y-57242282D01*
X137005031Y-57213224D01*
X137288724Y-57127166D01*
X137550178Y-56987417D01*
X137779345Y-56799345D01*
X137833066Y-56733886D01*
X137891595Y-56843387D01*
X138002038Y-56977962D01*
X138136613Y-57088405D01*
X138290149Y-57170472D01*
X138456745Y-57221008D01*
X138629999Y-57238072D01*
X139870001Y-57238072D01*
X140043255Y-57221008D01*
X140209851Y-57170472D01*
X140363387Y-57088405D01*
X140497962Y-56977962D01*
X140608405Y-56843387D01*
X140690472Y-56689851D01*
X140741008Y-56523255D01*
X140758072Y-56350001D01*
X140758072Y-55196064D01*
X142955000Y-55196064D01*
X142955000Y-55803935D01*
X142976776Y-56025031D01*
X143062834Y-56308724D01*
X143202583Y-56570178D01*
X143390655Y-56799345D01*
X143619821Y-56987417D01*
X143881275Y-57127166D01*
X144164968Y-57213224D01*
X144460000Y-57242282D01*
X144755031Y-57213224D01*
X145038724Y-57127166D01*
X145300178Y-56987417D01*
X145527385Y-56800953D01*
X145540498Y-56844180D01*
X145599463Y-56954494D01*
X145678815Y-57051185D01*
X145775506Y-57130537D01*
X145885820Y-57189502D01*
X146005518Y-57225812D01*
X146130000Y-57238072D01*
X146714250Y-57235000D01*
X146873000Y-57076250D01*
X146873000Y-55627000D01*
X147127000Y-55627000D01*
X147127000Y-57076250D01*
X147285750Y-57235000D01*
X147870000Y-57238072D01*
X147994482Y-57225812D01*
X148114180Y-57189502D01*
X148224494Y-57130537D01*
X148321185Y-57051185D01*
X148400537Y-56954494D01*
X148459502Y-56844180D01*
X148495812Y-56724482D01*
X148508072Y-56600000D01*
X148505000Y-55785750D01*
X148346250Y-55627000D01*
X147127000Y-55627000D01*
X146873000Y-55627000D01*
X146853000Y-55627000D01*
X146853000Y-55373000D01*
X146873000Y-55373000D01*
X146873000Y-53923750D01*
X147127000Y-53923750D01*
X147127000Y-55373000D01*
X148346250Y-55373000D01*
X148505000Y-55214250D01*
X148507197Y-54631834D01*
X153120222Y-54631834D01*
X153169823Y-55074039D01*
X153304371Y-55498188D01*
X153518741Y-55888125D01*
X153804768Y-56228998D01*
X154151556Y-56507823D01*
X154545897Y-56713979D01*
X154972771Y-56839615D01*
X155415917Y-56879944D01*
X155858458Y-56833432D01*
X156283536Y-56701848D01*
X156674960Y-56490206D01*
X157017821Y-56206566D01*
X157299060Y-55861733D01*
X157507965Y-55468840D01*
X157636578Y-55042854D01*
X157680000Y-54600000D01*
X157679111Y-54536339D01*
X157623341Y-54094869D01*
X157482884Y-53672640D01*
X157263090Y-53285734D01*
X156972333Y-52948888D01*
X156621685Y-52674932D01*
X156224504Y-52474302D01*
X155795918Y-52354638D01*
X155352251Y-52320500D01*
X154910403Y-52373187D01*
X154487204Y-52510693D01*
X154098773Y-52727780D01*
X153759905Y-53016179D01*
X153483508Y-53364905D01*
X153280110Y-53760676D01*
X153157457Y-54188416D01*
X153120222Y-54631834D01*
X148507197Y-54631834D01*
X148508072Y-54400000D01*
X148495812Y-54275518D01*
X148459502Y-54155820D01*
X148400537Y-54045506D01*
X148321185Y-53948815D01*
X148224494Y-53869463D01*
X148114180Y-53810498D01*
X147994482Y-53774188D01*
X147870000Y-53761928D01*
X147285750Y-53765000D01*
X147127000Y-53923750D01*
X146873000Y-53923750D01*
X146714250Y-53765000D01*
X146130000Y-53761928D01*
X146005518Y-53774188D01*
X145885820Y-53810498D01*
X145775506Y-53869463D01*
X145678815Y-53948815D01*
X145599463Y-54045506D01*
X145540498Y-54155820D01*
X145527385Y-54199047D01*
X145300179Y-54012583D01*
X145038725Y-53872834D01*
X144755032Y-53786776D01*
X144460000Y-53757718D01*
X144164969Y-53786776D01*
X143881276Y-53872834D01*
X143619822Y-54012583D01*
X143390655Y-54200655D01*
X143202583Y-54429821D01*
X143062834Y-54691275D01*
X142976776Y-54974968D01*
X142955000Y-55196064D01*
X140758072Y-55196064D01*
X140758072Y-54649999D01*
X140741008Y-54476745D01*
X140690472Y-54310149D01*
X140608405Y-54156613D01*
X140497962Y-54022038D01*
X140363387Y-53911595D01*
X140209851Y-53829528D01*
X140043255Y-53778992D01*
X139870001Y-53761928D01*
X138629999Y-53761928D01*
X138456745Y-53778992D01*
X138290149Y-53829528D01*
X138136613Y-53911595D01*
X138002038Y-54022038D01*
X137891595Y-54156613D01*
X137833066Y-54266114D01*
X137779345Y-54200655D01*
X137550179Y-54012583D01*
X137288725Y-53872834D01*
X137005032Y-53786776D01*
X136710000Y-53757718D01*
X136414969Y-53786776D01*
X136131276Y-53872834D01*
X135869822Y-54012583D01*
X135640655Y-54200655D01*
X135452583Y-54429821D01*
X135440000Y-54453362D01*
X135427417Y-54429821D01*
X135239345Y-54200655D01*
X135010179Y-54012583D01*
X134748725Y-53872834D01*
X134465032Y-53786776D01*
X134170000Y-53757718D01*
X133874969Y-53786776D01*
X133591276Y-53872834D01*
X133329822Y-54012583D01*
X133100655Y-54200655D01*
X132912583Y-54429821D01*
X132900000Y-54453362D01*
X132887417Y-54429821D01*
X132699345Y-54200655D01*
X132470179Y-54012583D01*
X132208725Y-53872834D01*
X131925032Y-53786776D01*
X131630000Y-53757718D01*
X131334969Y-53786776D01*
X131051276Y-53872834D01*
X130789822Y-54012583D01*
X130560655Y-54200655D01*
X130372583Y-54429821D01*
X130360000Y-54453362D01*
X130347417Y-54429821D01*
X130159345Y-54200655D01*
X129930179Y-54012583D01*
X129668725Y-53872834D01*
X129385032Y-53786776D01*
X129090000Y-53757718D01*
X128794969Y-53786776D01*
X128511276Y-53872834D01*
X128249822Y-54012583D01*
X128020655Y-54200655D01*
X127832583Y-54429821D01*
X127820000Y-54453362D01*
X127807417Y-54429821D01*
X127619345Y-54200655D01*
X127390179Y-54012583D01*
X127128725Y-53872834D01*
X126845032Y-53786776D01*
X126550000Y-53757718D01*
X126254969Y-53786776D01*
X125971276Y-53872834D01*
X125709822Y-54012583D01*
X125480655Y-54200655D01*
X125292583Y-54429821D01*
X125152834Y-54691275D01*
X125066776Y-54974968D01*
X125045000Y-55196064D01*
X104627000Y-55196064D01*
X104627000Y-50660000D01*
X159340000Y-50660000D01*
X159340001Y-124340000D01*
G36*
X138737546Y-109586236D02*
G01*
X138724983Y-109609739D01*
X138637210Y-109899087D01*
X138607573Y-110200000D01*
X138637210Y-110500913D01*
X138724983Y-110790261D01*
X138867519Y-111056927D01*
X139059339Y-111290661D01*
X139293073Y-111482481D01*
X139559739Y-111625017D01*
X139849087Y-111712790D01*
X140074592Y-111735000D01*
X140225408Y-111735000D01*
X140450913Y-111712790D01*
X140740261Y-111625017D01*
X141006927Y-111482481D01*
X141240661Y-111290661D01*
X141420000Y-111072135D01*
X141599339Y-111290661D01*
X141833073Y-111482481D01*
X142099739Y-111625017D01*
X142389087Y-111712790D01*
X142458769Y-111719653D01*
X142263422Y-111915000D01*
X118673787Y-111915000D01*
X118059009Y-111300223D01*
X118070661Y-111290661D01*
X118262481Y-111056927D01*
X118405017Y-110790261D01*
X118492790Y-110500913D01*
X118506826Y-110358404D01*
X119543470Y-111395049D01*
X119571183Y-111428817D01*
X119604951Y-111456530D01*
X119604953Y-111456532D01*
X119624766Y-111472792D01*
X119705941Y-111539411D01*
X119859687Y-111621589D01*
X120026510Y-111672195D01*
X120156523Y-111685000D01*
X120156533Y-111685000D01*
X120199999Y-111689281D01*
X120243465Y-111685000D01*
X127461546Y-111685000D01*
X127509744Y-111717205D01*
X127698102Y-111795226D01*
X127898061Y-111835000D01*
X128101939Y-111835000D01*
X128301898Y-111795226D01*
X128490256Y-111717205D01*
X128538454Y-111685000D01*
X130756531Y-111685000D01*
X130800000Y-111689281D01*
X130843469Y-111685000D01*
X130843477Y-111685000D01*
X130973490Y-111672195D01*
X131140313Y-111621589D01*
X131294059Y-111539411D01*
X131428817Y-111428817D01*
X131456534Y-111395044D01*
X133265972Y-109585607D01*
X138737546Y-109586236D01*
X138737546Y-109586236D01*
G37*
X138737546Y-109586236D02*
X138724983Y-109609739D01*
X138637210Y-109899087D01*
X138607573Y-110200000D01*
X138637210Y-110500913D01*
X138724983Y-110790261D01*
X138867519Y-111056927D01*
X139059339Y-111290661D01*
X139293073Y-111482481D01*
X139559739Y-111625017D01*
X139849087Y-111712790D01*
X140074592Y-111735000D01*
X140225408Y-111735000D01*
X140450913Y-111712790D01*
X140740261Y-111625017D01*
X141006927Y-111482481D01*
X141240661Y-111290661D01*
X141420000Y-111072135D01*
X141599339Y-111290661D01*
X141833073Y-111482481D01*
X142099739Y-111625017D01*
X142389087Y-111712790D01*
X142458769Y-111719653D01*
X142263422Y-111915000D01*
X118673787Y-111915000D01*
X118059009Y-111300223D01*
X118070661Y-111290661D01*
X118262481Y-111056927D01*
X118405017Y-110790261D01*
X118492790Y-110500913D01*
X118506826Y-110358404D01*
X119543470Y-111395049D01*
X119571183Y-111428817D01*
X119604951Y-111456530D01*
X119604953Y-111456532D01*
X119624766Y-111472792D01*
X119705941Y-111539411D01*
X119859687Y-111621589D01*
X120026510Y-111672195D01*
X120156523Y-111685000D01*
X120156533Y-111685000D01*
X120199999Y-111689281D01*
X120243465Y-111685000D01*
X127461546Y-111685000D01*
X127509744Y-111717205D01*
X127698102Y-111795226D01*
X127898061Y-111835000D01*
X128101939Y-111835000D01*
X128301898Y-111795226D01*
X128490256Y-111717205D01*
X128538454Y-111685000D01*
X130756531Y-111685000D01*
X130800000Y-111689281D01*
X130843469Y-111685000D01*
X130843477Y-111685000D01*
X130973490Y-111672195D01*
X131140313Y-111621589D01*
X131294059Y-111539411D01*
X131428817Y-111428817D01*
X131456534Y-111395044D01*
X133265972Y-109585607D01*
X138737546Y-109586236D01*
G36*
X103373000Y-61365000D02*
G01*
X102049112Y-61365000D01*
X101937405Y-61358282D01*
X101618325Y-61402039D01*
X101313912Y-61507205D01*
X101139956Y-61600186D01*
X101044192Y-61864587D01*
X101365000Y-62185395D01*
X101365000Y-62544605D01*
X100864587Y-62044192D01*
X100600186Y-62139956D01*
X100459296Y-62429571D01*
X100377616Y-62741108D01*
X100358282Y-63062595D01*
X100402039Y-63381675D01*
X100507205Y-63686088D01*
X100600186Y-63860044D01*
X100864587Y-63955808D01*
X101365000Y-63455395D01*
X101365000Y-63814605D01*
X101044192Y-64135413D01*
X101139956Y-64399814D01*
X101429571Y-64540704D01*
X101741108Y-64622384D01*
X102062595Y-64641718D01*
X102111583Y-64635000D01*
X103373000Y-64635000D01*
X103373000Y-68373000D01*
X60660000Y-68373000D01*
X60660000Y-65889419D01*
X66065000Y-65889419D01*
X66065000Y-66270581D01*
X66139361Y-66644419D01*
X66285225Y-66996566D01*
X66496987Y-67313491D01*
X66766509Y-67583013D01*
X67083434Y-67794775D01*
X67435581Y-67940639D01*
X67809419Y-68015000D01*
X68190581Y-68015000D01*
X68564419Y-67940639D01*
X68916566Y-67794775D01*
X69233491Y-67583013D01*
X69503013Y-67313491D01*
X69714775Y-66996566D01*
X69860639Y-66644419D01*
X69935000Y-66270581D01*
X69935000Y-65889419D01*
X69860639Y-65515581D01*
X69714775Y-65163434D01*
X69503013Y-64846509D01*
X69233491Y-64576987D01*
X68916566Y-64365225D01*
X68564419Y-64219361D01*
X68190581Y-64145000D01*
X67809419Y-64145000D01*
X67435581Y-64219361D01*
X67083434Y-64365225D01*
X66766509Y-64576987D01*
X66496987Y-64846509D01*
X66285225Y-65163434D01*
X66139361Y-65515581D01*
X66065000Y-65889419D01*
X60660000Y-65889419D01*
X60660000Y-62300000D01*
X66061928Y-62300000D01*
X66074188Y-62424482D01*
X66110498Y-62544180D01*
X66169463Y-62654494D01*
X66248815Y-62751185D01*
X66345506Y-62830537D01*
X66455820Y-62889502D01*
X66575518Y-62925812D01*
X66700000Y-62938072D01*
X67714250Y-62935000D01*
X67873000Y-62776250D01*
X67873000Y-61127000D01*
X68127000Y-61127000D01*
X68127000Y-62776250D01*
X68285750Y-62935000D01*
X69300000Y-62938072D01*
X69424482Y-62925812D01*
X69544180Y-62889502D01*
X69654494Y-62830537D01*
X69751185Y-62751185D01*
X69830537Y-62654494D01*
X69889502Y-62544180D01*
X69925812Y-62424482D01*
X69938072Y-62300000D01*
X69935000Y-61285750D01*
X69776250Y-61127000D01*
X68127000Y-61127000D01*
X67873000Y-61127000D01*
X66223750Y-61127000D01*
X66065000Y-61285750D01*
X66061928Y-62300000D01*
X60660000Y-62300000D01*
X60660000Y-59700000D01*
X66061928Y-59700000D01*
X66065000Y-60714250D01*
X66223750Y-60873000D01*
X67873000Y-60873000D01*
X67873000Y-59223750D01*
X68127000Y-59223750D01*
X68127000Y-60873000D01*
X69776250Y-60873000D01*
X69935000Y-60714250D01*
X69938072Y-59700000D01*
X69925812Y-59575518D01*
X69889502Y-59455820D01*
X69830537Y-59345506D01*
X69751185Y-59248815D01*
X69654494Y-59169463D01*
X69544180Y-59110498D01*
X69424482Y-59074188D01*
X69300000Y-59061928D01*
X68285750Y-59065000D01*
X68127000Y-59223750D01*
X67873000Y-59223750D01*
X67714250Y-59065000D01*
X66700000Y-59061928D01*
X66575518Y-59074188D01*
X66455820Y-59110498D01*
X66345506Y-59169463D01*
X66248815Y-59248815D01*
X66169463Y-59345506D01*
X66110498Y-59455820D01*
X66074188Y-59575518D01*
X66061928Y-59700000D01*
X60660000Y-59700000D01*
X60660000Y-58522595D01*
X96108282Y-58522595D01*
X96152039Y-58841675D01*
X96257205Y-59146088D01*
X96350186Y-59320044D01*
X96614585Y-59415807D01*
X96612148Y-59418244D01*
X96505820Y-59450498D01*
X96395506Y-59509463D01*
X96298815Y-59588815D01*
X96219463Y-59685506D01*
X96160498Y-59795820D01*
X96124188Y-59915518D01*
X96111928Y-60040000D01*
X96111928Y-62040000D01*
X96124188Y-62164482D01*
X96160498Y-62284180D01*
X96219463Y-62394494D01*
X96298815Y-62491185D01*
X96395506Y-62570537D01*
X96505820Y-62629502D01*
X96625518Y-62665812D01*
X96750000Y-62678072D01*
X98750000Y-62678072D01*
X98874482Y-62665812D01*
X98994180Y-62629502D01*
X99104494Y-62570537D01*
X99201185Y-62491185D01*
X99280537Y-62394494D01*
X99339502Y-62284180D01*
X99375812Y-62164482D01*
X99388072Y-62040000D01*
X99388072Y-60040000D01*
X99375812Y-59915518D01*
X99339502Y-59795820D01*
X99280537Y-59685506D01*
X99201185Y-59588815D01*
X99104494Y-59509463D01*
X98994180Y-59450498D01*
X98887852Y-59418244D01*
X98885415Y-59415807D01*
X99149814Y-59320044D01*
X99290704Y-59030429D01*
X99372384Y-58718892D01*
X99391718Y-58397405D01*
X99347961Y-58078325D01*
X99242795Y-57773912D01*
X99149814Y-57599956D01*
X98885413Y-57504192D01*
X97929605Y-58460000D01*
X97943748Y-58474143D01*
X97764143Y-58653748D01*
X97750000Y-58639605D01*
X97735858Y-58653748D01*
X97556253Y-58474143D01*
X97570395Y-58460000D01*
X96614587Y-57504192D01*
X96350186Y-57599956D01*
X96209296Y-57889571D01*
X96127616Y-58201108D01*
X96108282Y-58522595D01*
X60660000Y-58522595D01*
X60660000Y-54631834D01*
X62320222Y-54631834D01*
X62369823Y-55074039D01*
X62504371Y-55498188D01*
X62718741Y-55888125D01*
X63004768Y-56228998D01*
X63351556Y-56507823D01*
X63745897Y-56713979D01*
X64172771Y-56839615D01*
X64615917Y-56879944D01*
X65058458Y-56833432D01*
X65483536Y-56701848D01*
X65874960Y-56490206D01*
X66217821Y-56206566D01*
X66499060Y-55861733D01*
X66532433Y-55798967D01*
X96115000Y-55798967D01*
X96115000Y-56121033D01*
X96177832Y-56436912D01*
X96301082Y-56734463D01*
X96480013Y-57002252D01*
X96707748Y-57229987D01*
X96804935Y-57294925D01*
X96794192Y-57324587D01*
X97750000Y-58280395D01*
X98705808Y-57324587D01*
X98695065Y-57294925D01*
X98792252Y-57229987D01*
X99019987Y-57002252D01*
X99198918Y-56734463D01*
X99322168Y-56436912D01*
X99385000Y-56121033D01*
X99385000Y-55798967D01*
X99322168Y-55483088D01*
X99198918Y-55185537D01*
X99019987Y-54917748D01*
X98792252Y-54690013D01*
X98524463Y-54511082D01*
X98226912Y-54387832D01*
X97911033Y-54325000D01*
X97588967Y-54325000D01*
X97273088Y-54387832D01*
X96975537Y-54511082D01*
X96707748Y-54690013D01*
X96480013Y-54917748D01*
X96301082Y-55185537D01*
X96177832Y-55483088D01*
X96115000Y-55798967D01*
X66532433Y-55798967D01*
X66707965Y-55468840D01*
X66836578Y-55042854D01*
X66880000Y-54600000D01*
X66879111Y-54536339D01*
X66823341Y-54094869D01*
X66682884Y-53672640D01*
X66463090Y-53285734D01*
X66172333Y-52948888D01*
X65821685Y-52674932D01*
X65424504Y-52474302D01*
X64995918Y-52354638D01*
X64552251Y-52320500D01*
X64110403Y-52373187D01*
X63687204Y-52510693D01*
X63298773Y-52727780D01*
X62959905Y-53016179D01*
X62683508Y-53364905D01*
X62480110Y-53760676D01*
X62357457Y-54188416D01*
X62320222Y-54631834D01*
X60660000Y-54631834D01*
X60660000Y-50660000D01*
X103373000Y-50660000D01*
X103373000Y-61365000D01*
X103373000Y-61365000D01*
G37*
X103373000Y-61365000D02*
X102049112Y-61365000D01*
X101937405Y-61358282D01*
X101618325Y-61402039D01*
X101313912Y-61507205D01*
X101139956Y-61600186D01*
X101044192Y-61864587D01*
X101365000Y-62185395D01*
X101365000Y-62544605D01*
X100864587Y-62044192D01*
X100600186Y-62139956D01*
X100459296Y-62429571D01*
X100377616Y-62741108D01*
X100358282Y-63062595D01*
X100402039Y-63381675D01*
X100507205Y-63686088D01*
X100600186Y-63860044D01*
X100864587Y-63955808D01*
X101365000Y-63455395D01*
X101365000Y-63814605D01*
X101044192Y-64135413D01*
X101139956Y-64399814D01*
X101429571Y-64540704D01*
X101741108Y-64622384D01*
X102062595Y-64641718D01*
X102111583Y-64635000D01*
X103373000Y-64635000D01*
X103373000Y-68373000D01*
X60660000Y-68373000D01*
X60660000Y-65889419D01*
X66065000Y-65889419D01*
X66065000Y-66270581D01*
X66139361Y-66644419D01*
X66285225Y-66996566D01*
X66496987Y-67313491D01*
X66766509Y-67583013D01*
X67083434Y-67794775D01*
X67435581Y-67940639D01*
X67809419Y-68015000D01*
X68190581Y-68015000D01*
X68564419Y-67940639D01*
X68916566Y-67794775D01*
X69233491Y-67583013D01*
X69503013Y-67313491D01*
X69714775Y-66996566D01*
X69860639Y-66644419D01*
X69935000Y-66270581D01*
X69935000Y-65889419D01*
X69860639Y-65515581D01*
X69714775Y-65163434D01*
X69503013Y-64846509D01*
X69233491Y-64576987D01*
X68916566Y-64365225D01*
X68564419Y-64219361D01*
X68190581Y-64145000D01*
X67809419Y-64145000D01*
X67435581Y-64219361D01*
X67083434Y-64365225D01*
X66766509Y-64576987D01*
X66496987Y-64846509D01*
X66285225Y-65163434D01*
X66139361Y-65515581D01*
X66065000Y-65889419D01*
X60660000Y-65889419D01*
X60660000Y-62300000D01*
X66061928Y-62300000D01*
X66074188Y-62424482D01*
X66110498Y-62544180D01*
X66169463Y-62654494D01*
X66248815Y-62751185D01*
X66345506Y-62830537D01*
X66455820Y-62889502D01*
X66575518Y-62925812D01*
X66700000Y-62938072D01*
X67714250Y-62935000D01*
X67873000Y-62776250D01*
X67873000Y-61127000D01*
X68127000Y-61127000D01*
X68127000Y-62776250D01*
X68285750Y-62935000D01*
X69300000Y-62938072D01*
X69424482Y-62925812D01*
X69544180Y-62889502D01*
X69654494Y-62830537D01*
X69751185Y-62751185D01*
X69830537Y-62654494D01*
X69889502Y-62544180D01*
X69925812Y-62424482D01*
X69938072Y-62300000D01*
X69935000Y-61285750D01*
X69776250Y-61127000D01*
X68127000Y-61127000D01*
X67873000Y-61127000D01*
X66223750Y-61127000D01*
X66065000Y-61285750D01*
X66061928Y-62300000D01*
X60660000Y-62300000D01*
X60660000Y-59700000D01*
X66061928Y-59700000D01*
X66065000Y-60714250D01*
X66223750Y-60873000D01*
X67873000Y-60873000D01*
X67873000Y-59223750D01*
X68127000Y-59223750D01*
X68127000Y-60873000D01*
X69776250Y-60873000D01*
X69935000Y-60714250D01*
X69938072Y-59700000D01*
X69925812Y-59575518D01*
X69889502Y-59455820D01*
X69830537Y-59345506D01*
X69751185Y-59248815D01*
X69654494Y-59169463D01*
X69544180Y-59110498D01*
X69424482Y-59074188D01*
X69300000Y-59061928D01*
X68285750Y-59065000D01*
X68127000Y-59223750D01*
X67873000Y-59223750D01*
X67714250Y-59065000D01*
X66700000Y-59061928D01*
X66575518Y-59074188D01*
X66455820Y-59110498D01*
X66345506Y-59169463D01*
X66248815Y-59248815D01*
X66169463Y-59345506D01*
X66110498Y-59455820D01*
X66074188Y-59575518D01*
X66061928Y-59700000D01*
X60660000Y-59700000D01*
X60660000Y-58522595D01*
X96108282Y-58522595D01*
X96152039Y-58841675D01*
X96257205Y-59146088D01*
X96350186Y-59320044D01*
X96614585Y-59415807D01*
X96612148Y-59418244D01*
X96505820Y-59450498D01*
X96395506Y-59509463D01*
X96298815Y-59588815D01*
X96219463Y-59685506D01*
X96160498Y-59795820D01*
X96124188Y-59915518D01*
X96111928Y-60040000D01*
X96111928Y-62040000D01*
X96124188Y-62164482D01*
X96160498Y-62284180D01*
X96219463Y-62394494D01*
X96298815Y-62491185D01*
X96395506Y-62570537D01*
X96505820Y-62629502D01*
X96625518Y-62665812D01*
X96750000Y-62678072D01*
X98750000Y-62678072D01*
X98874482Y-62665812D01*
X98994180Y-62629502D01*
X99104494Y-62570537D01*
X99201185Y-62491185D01*
X99280537Y-62394494D01*
X99339502Y-62284180D01*
X99375812Y-62164482D01*
X99388072Y-62040000D01*
X99388072Y-60040000D01*
X99375812Y-59915518D01*
X99339502Y-59795820D01*
X99280537Y-59685506D01*
X99201185Y-59588815D01*
X99104494Y-59509463D01*
X98994180Y-59450498D01*
X98887852Y-59418244D01*
X98885415Y-59415807D01*
X99149814Y-59320044D01*
X99290704Y-59030429D01*
X99372384Y-58718892D01*
X99391718Y-58397405D01*
X99347961Y-58078325D01*
X99242795Y-57773912D01*
X99149814Y-57599956D01*
X98885413Y-57504192D01*
X97929605Y-58460000D01*
X97943748Y-58474143D01*
X97764143Y-58653748D01*
X97750000Y-58639605D01*
X97735858Y-58653748D01*
X97556253Y-58474143D01*
X97570395Y-58460000D01*
X96614587Y-57504192D01*
X96350186Y-57599956D01*
X96209296Y-57889571D01*
X96127616Y-58201108D01*
X96108282Y-58522595D01*
X60660000Y-58522595D01*
X60660000Y-54631834D01*
X62320222Y-54631834D01*
X62369823Y-55074039D01*
X62504371Y-55498188D01*
X62718741Y-55888125D01*
X63004768Y-56228998D01*
X63351556Y-56507823D01*
X63745897Y-56713979D01*
X64172771Y-56839615D01*
X64615917Y-56879944D01*
X65058458Y-56833432D01*
X65483536Y-56701848D01*
X65874960Y-56490206D01*
X66217821Y-56206566D01*
X66499060Y-55861733D01*
X66532433Y-55798967D01*
X96115000Y-55798967D01*
X96115000Y-56121033D01*
X96177832Y-56436912D01*
X96301082Y-56734463D01*
X96480013Y-57002252D01*
X96707748Y-57229987D01*
X96804935Y-57294925D01*
X96794192Y-57324587D01*
X97750000Y-58280395D01*
X98705808Y-57324587D01*
X98695065Y-57294925D01*
X98792252Y-57229987D01*
X99019987Y-57002252D01*
X99198918Y-56734463D01*
X99322168Y-56436912D01*
X99385000Y-56121033D01*
X99385000Y-55798967D01*
X99322168Y-55483088D01*
X99198918Y-55185537D01*
X99019987Y-54917748D01*
X98792252Y-54690013D01*
X98524463Y-54511082D01*
X98226912Y-54387832D01*
X97911033Y-54325000D01*
X97588967Y-54325000D01*
X97273088Y-54387832D01*
X96975537Y-54511082D01*
X96707748Y-54690013D01*
X96480013Y-54917748D01*
X96301082Y-55185537D01*
X96177832Y-55483088D01*
X96115000Y-55798967D01*
X66532433Y-55798967D01*
X66707965Y-55468840D01*
X66836578Y-55042854D01*
X66880000Y-54600000D01*
X66879111Y-54536339D01*
X66823341Y-54094869D01*
X66682884Y-53672640D01*
X66463090Y-53285734D01*
X66172333Y-52948888D01*
X65821685Y-52674932D01*
X65424504Y-52474302D01*
X64995918Y-52354638D01*
X64552251Y-52320500D01*
X64110403Y-52373187D01*
X63687204Y-52510693D01*
X63298773Y-52727780D01*
X62959905Y-53016179D01*
X62683508Y-53364905D01*
X62480110Y-53760676D01*
X62357457Y-54188416D01*
X62320222Y-54631834D01*
X60660000Y-54631834D01*
X60660000Y-50660000D01*
X103373000Y-50660000D01*
X103373000Y-61365000D01*
M02*
