G04 #@! TF.GenerationSoftware,KiCad,Pcbnew,(5.1.0-0)*
G04 #@! TF.CreationDate,2019-06-09T17:55:59+01:00*
G04 #@! TF.ProjectId,PowerSupply,506f7765-7253-4757-9070-6c792e6b6963,0.1*
G04 #@! TF.SameCoordinates,Original*
G04 #@! TF.FileFunction,Soldermask,Bot*
G04 #@! TF.FilePolarity,Negative*
%FSLAX46Y46*%
G04 Gerber Fmt 4.6, Leading zero omitted, Abs format (unit mm)*
G04 Created by KiCad (PCBNEW (5.1.0-0)) date 2019-06-09 17:55:59*
%MOMM*%
%LPD*%
G04 APERTURE LIST*
%ADD10C,0.150000*%
%ADD11C,1.842000*%
%ADD12O,1.842000X2.302000*%
%ADD13R,2.702000X2.702000*%
%ADD14C,2.702000*%
%ADD15O,2.302000X1.842000*%
%ADD16R,2.007000X2.102000*%
%ADD17O,2.007000X2.102000*%
%ADD18O,1.152000X1.602000*%
%ADD19R,1.152000X1.602000*%
%ADD20C,1.902000*%
%ADD21R,1.902000X1.902000*%
%ADD22O,1.902000X1.902000*%
%ADD23R,2.102000X2.102000*%
%ADD24C,2.102000*%
G04 APERTURE END LIST*
D10*
G36*
X147682287Y-54350274D02*
G01*
X147707977Y-54354085D01*
X147733171Y-54360396D01*
X147757625Y-54369146D01*
X147781103Y-54380250D01*
X147803380Y-54393602D01*
X147824241Y-54409074D01*
X147843485Y-54426515D01*
X147860926Y-54445759D01*
X147876398Y-54466620D01*
X147889750Y-54488897D01*
X147900854Y-54512375D01*
X147909604Y-54536829D01*
X147915915Y-54562023D01*
X147919726Y-54587713D01*
X147921000Y-54613654D01*
X147921000Y-56386346D01*
X147919726Y-56412287D01*
X147915915Y-56437977D01*
X147909604Y-56463171D01*
X147900854Y-56487625D01*
X147889750Y-56511103D01*
X147876398Y-56533380D01*
X147860926Y-56554241D01*
X147843485Y-56573485D01*
X147824241Y-56590926D01*
X147803380Y-56606398D01*
X147781103Y-56619750D01*
X147757625Y-56630854D01*
X147733171Y-56639604D01*
X147707977Y-56645915D01*
X147682287Y-56649726D01*
X147656346Y-56651000D01*
X146343654Y-56651000D01*
X146317713Y-56649726D01*
X146292023Y-56645915D01*
X146266829Y-56639604D01*
X146242375Y-56630854D01*
X146218897Y-56619750D01*
X146196620Y-56606398D01*
X146175759Y-56590926D01*
X146156515Y-56573485D01*
X146139074Y-56554241D01*
X146123602Y-56533380D01*
X146110250Y-56511103D01*
X146099146Y-56487625D01*
X146090396Y-56463171D01*
X146084085Y-56437977D01*
X146080274Y-56412287D01*
X146079000Y-56386346D01*
X146079000Y-54613654D01*
X146080274Y-54587713D01*
X146084085Y-54562023D01*
X146090396Y-54536829D01*
X146099146Y-54512375D01*
X146110250Y-54488897D01*
X146123602Y-54466620D01*
X146139074Y-54445759D01*
X146156515Y-54426515D01*
X146175759Y-54409074D01*
X146196620Y-54393602D01*
X146218897Y-54380250D01*
X146242375Y-54369146D01*
X146266829Y-54360396D01*
X146292023Y-54354085D01*
X146317713Y-54350274D01*
X146343654Y-54349000D01*
X147656346Y-54349000D01*
X147682287Y-54350274D01*
X147682287Y-54350274D01*
G37*
D11*
X147000000Y-55500000D03*
D12*
X144460000Y-55500000D03*
D13*
X68000000Y-61000000D03*
D14*
X68000000Y-66080000D03*
D15*
X154750000Y-86300000D03*
X154750000Y-88840000D03*
X154750000Y-91380000D03*
X154750000Y-93920000D03*
X154750000Y-96460000D03*
D10*
G36*
X155662287Y-98080274D02*
G01*
X155687977Y-98084085D01*
X155713171Y-98090396D01*
X155737625Y-98099146D01*
X155761103Y-98110250D01*
X155783380Y-98123602D01*
X155804241Y-98139074D01*
X155823485Y-98156515D01*
X155840926Y-98175759D01*
X155856398Y-98196620D01*
X155869750Y-98218897D01*
X155880854Y-98242375D01*
X155889604Y-98266829D01*
X155895915Y-98292023D01*
X155899726Y-98317713D01*
X155901000Y-98343654D01*
X155901000Y-99656346D01*
X155899726Y-99682287D01*
X155895915Y-99707977D01*
X155889604Y-99733171D01*
X155880854Y-99757625D01*
X155869750Y-99781103D01*
X155856398Y-99803380D01*
X155840926Y-99824241D01*
X155823485Y-99843485D01*
X155804241Y-99860926D01*
X155783380Y-99876398D01*
X155761103Y-99889750D01*
X155737625Y-99900854D01*
X155713171Y-99909604D01*
X155687977Y-99915915D01*
X155662287Y-99919726D01*
X155636346Y-99921000D01*
X153863654Y-99921000D01*
X153837713Y-99919726D01*
X153812023Y-99915915D01*
X153786829Y-99909604D01*
X153762375Y-99900854D01*
X153738897Y-99889750D01*
X153716620Y-99876398D01*
X153695759Y-99860926D01*
X153676515Y-99843485D01*
X153659074Y-99824241D01*
X153643602Y-99803380D01*
X153630250Y-99781103D01*
X153619146Y-99757625D01*
X153610396Y-99733171D01*
X153604085Y-99707977D01*
X153600274Y-99682287D01*
X153599000Y-99656346D01*
X153599000Y-98343654D01*
X153600274Y-98317713D01*
X153604085Y-98292023D01*
X153610396Y-98266829D01*
X153619146Y-98242375D01*
X153630250Y-98218897D01*
X153643602Y-98196620D01*
X153659074Y-98175759D01*
X153676515Y-98156515D01*
X153695759Y-98139074D01*
X153716620Y-98123602D01*
X153738897Y-98110250D01*
X153762375Y-98099146D01*
X153786829Y-98090396D01*
X153812023Y-98084085D01*
X153837713Y-98080274D01*
X153863654Y-98079000D01*
X155636346Y-98079000D01*
X155662287Y-98080274D01*
X155662287Y-98080274D01*
G37*
D11*
X154750000Y-99000000D03*
D10*
G36*
X144932287Y-68850274D02*
G01*
X144957977Y-68854085D01*
X144983171Y-68860396D01*
X145007625Y-68869146D01*
X145031103Y-68880250D01*
X145053380Y-68893602D01*
X145074241Y-68909074D01*
X145093485Y-68926515D01*
X145110926Y-68945759D01*
X145126398Y-68966620D01*
X145139750Y-68988897D01*
X145150854Y-69012375D01*
X145159604Y-69036829D01*
X145165915Y-69062023D01*
X145169726Y-69087713D01*
X145171000Y-69113654D01*
X145171000Y-70886346D01*
X145169726Y-70912287D01*
X145165915Y-70937977D01*
X145159604Y-70963171D01*
X145150854Y-70987625D01*
X145139750Y-71011103D01*
X145126398Y-71033380D01*
X145110926Y-71054241D01*
X145093485Y-71073485D01*
X145074241Y-71090926D01*
X145053380Y-71106398D01*
X145031103Y-71119750D01*
X145007625Y-71130854D01*
X144983171Y-71139604D01*
X144957977Y-71145915D01*
X144932287Y-71149726D01*
X144906346Y-71151000D01*
X143593654Y-71151000D01*
X143567713Y-71149726D01*
X143542023Y-71145915D01*
X143516829Y-71139604D01*
X143492375Y-71130854D01*
X143468897Y-71119750D01*
X143446620Y-71106398D01*
X143425759Y-71090926D01*
X143406515Y-71073485D01*
X143389074Y-71054241D01*
X143373602Y-71033380D01*
X143360250Y-71011103D01*
X143349146Y-70987625D01*
X143340396Y-70963171D01*
X143334085Y-70937977D01*
X143330274Y-70912287D01*
X143329000Y-70886346D01*
X143329000Y-69113654D01*
X143330274Y-69087713D01*
X143334085Y-69062023D01*
X143340396Y-69036829D01*
X143349146Y-69012375D01*
X143360250Y-68988897D01*
X143373602Y-68966620D01*
X143389074Y-68945759D01*
X143406515Y-68926515D01*
X143425759Y-68909074D01*
X143446620Y-68893602D01*
X143468897Y-68880250D01*
X143492375Y-68869146D01*
X143516829Y-68860396D01*
X143542023Y-68854085D01*
X143567713Y-68850274D01*
X143593654Y-68849000D01*
X144906346Y-68849000D01*
X144932287Y-68850274D01*
X144932287Y-68850274D01*
G37*
D11*
X144250000Y-70000000D03*
D12*
X141710000Y-70000000D03*
X139170000Y-70000000D03*
X136630000Y-70000000D03*
X134090000Y-70000000D03*
X131550000Y-70000000D03*
X129010000Y-70000000D03*
X126470000Y-70000000D03*
D14*
X153000000Y-74420000D03*
D13*
X153000000Y-79500000D03*
D10*
G36*
X139932287Y-54350274D02*
G01*
X139957977Y-54354085D01*
X139983171Y-54360396D01*
X140007625Y-54369146D01*
X140031103Y-54380250D01*
X140053380Y-54393602D01*
X140074241Y-54409074D01*
X140093485Y-54426515D01*
X140110926Y-54445759D01*
X140126398Y-54466620D01*
X140139750Y-54488897D01*
X140150854Y-54512375D01*
X140159604Y-54536829D01*
X140165915Y-54562023D01*
X140169726Y-54587713D01*
X140171000Y-54613654D01*
X140171000Y-56386346D01*
X140169726Y-56412287D01*
X140165915Y-56437977D01*
X140159604Y-56463171D01*
X140150854Y-56487625D01*
X140139750Y-56511103D01*
X140126398Y-56533380D01*
X140110926Y-56554241D01*
X140093485Y-56573485D01*
X140074241Y-56590926D01*
X140053380Y-56606398D01*
X140031103Y-56619750D01*
X140007625Y-56630854D01*
X139983171Y-56639604D01*
X139957977Y-56645915D01*
X139932287Y-56649726D01*
X139906346Y-56651000D01*
X138593654Y-56651000D01*
X138567713Y-56649726D01*
X138542023Y-56645915D01*
X138516829Y-56639604D01*
X138492375Y-56630854D01*
X138468897Y-56619750D01*
X138446620Y-56606398D01*
X138425759Y-56590926D01*
X138406515Y-56573485D01*
X138389074Y-56554241D01*
X138373602Y-56533380D01*
X138360250Y-56511103D01*
X138349146Y-56487625D01*
X138340396Y-56463171D01*
X138334085Y-56437977D01*
X138330274Y-56412287D01*
X138329000Y-56386346D01*
X138329000Y-54613654D01*
X138330274Y-54587713D01*
X138334085Y-54562023D01*
X138340396Y-54536829D01*
X138349146Y-54512375D01*
X138360250Y-54488897D01*
X138373602Y-54466620D01*
X138389074Y-54445759D01*
X138406515Y-54426515D01*
X138425759Y-54409074D01*
X138446620Y-54393602D01*
X138468897Y-54380250D01*
X138492375Y-54369146D01*
X138516829Y-54360396D01*
X138542023Y-54354085D01*
X138567713Y-54350274D01*
X138593654Y-54349000D01*
X139906346Y-54349000D01*
X139932287Y-54350274D01*
X139932287Y-54350274D01*
G37*
D11*
X139250000Y-55500000D03*
D12*
X136710000Y-55500000D03*
X134170000Y-55500000D03*
X131630000Y-55500000D03*
X129090000Y-55500000D03*
X126550000Y-55500000D03*
D16*
X88750000Y-77250000D03*
D17*
X86210000Y-77250000D03*
X83670000Y-77250000D03*
D18*
X120270000Y-63000000D03*
X121540000Y-63000000D03*
D19*
X119000000Y-63000000D03*
D20*
X72460000Y-95500000D03*
X69920000Y-95500000D03*
D21*
X75000000Y-95500000D03*
X146500000Y-106500000D03*
D22*
X145230000Y-110200000D03*
X143960000Y-106500000D03*
X142690000Y-110200000D03*
X141420000Y-106500000D03*
X140150000Y-110200000D03*
X138880000Y-106500000D03*
X110630000Y-106500000D03*
X111900000Y-110200000D03*
X113170000Y-106500000D03*
X114440000Y-110200000D03*
X115710000Y-106500000D03*
X116980000Y-110200000D03*
D21*
X118250000Y-106500000D03*
D23*
X97750000Y-61040000D03*
D24*
X97750000Y-58460000D03*
X97750000Y-55960000D03*
M02*
