G04 #@! TF.GenerationSoftware,KiCad,Pcbnew,(5.1.0-0)*
G04 #@! TF.CreationDate,2019-06-08T23:36:10+01:00*
G04 #@! TF.ProjectId,PowerStage,506f7765-7253-4746-9167-652e6b696361,1.0*
G04 #@! TF.SameCoordinates,Original*
G04 #@! TF.FileFunction,Legend,Top*
G04 #@! TF.FilePolarity,Positive*
%FSLAX46Y46*%
G04 Gerber Fmt 4.6, Leading zero omitted, Abs format (unit mm)*
G04 Created by KiCad (PCBNEW (5.1.0-0)) date 2019-06-08 23:36:10*
%MOMM*%
%LPD*%
G04 APERTURE LIST*
%ADD10C,0.160000*%
%ADD11C,0.120000*%
%ADD12C,0.150000*%
G04 APERTURE END LIST*
D10*
X178047619Y-77166666D02*
X178047619Y-77357142D01*
X178000000Y-77452380D01*
X177904761Y-77547619D01*
X177714285Y-77595238D01*
X177380952Y-77595238D01*
X177190476Y-77547619D01*
X177095238Y-77452380D01*
X177047619Y-77357142D01*
X177047619Y-77166666D01*
X177095238Y-77071428D01*
X177190476Y-76976190D01*
X177380952Y-76928571D01*
X177714285Y-76928571D01*
X177904761Y-76976190D01*
X178000000Y-77071428D01*
X178047619Y-77166666D01*
X177714285Y-78452380D02*
X177047619Y-78452380D01*
X177714285Y-78023809D02*
X177190476Y-78023809D01*
X177095238Y-78071428D01*
X177047619Y-78166666D01*
X177047619Y-78309523D01*
X177095238Y-78404761D01*
X177142857Y-78452380D01*
X177714285Y-78785714D02*
X177714285Y-79166666D01*
X178047619Y-78928571D02*
X177190476Y-78928571D01*
X177095238Y-78976190D01*
X177047619Y-79071428D01*
X177047619Y-79166666D01*
X177047619Y-37547619D02*
X178047619Y-37547619D01*
X177714285Y-38023809D02*
X177047619Y-38023809D01*
X177619047Y-38023809D02*
X177666666Y-38071428D01*
X177714285Y-38166666D01*
X177714285Y-38309523D01*
X177666666Y-38404761D01*
X177571428Y-38452380D01*
X177047619Y-38452380D01*
X181452380Y-68142857D02*
X181500000Y-68190476D01*
X181547619Y-68285714D01*
X181547619Y-68523809D01*
X181500000Y-68619047D01*
X181452380Y-68666666D01*
X181357142Y-68714285D01*
X181261904Y-68714285D01*
X181119047Y-68666666D01*
X180547619Y-68095238D01*
X180547619Y-68714285D01*
X181547619Y-69333333D02*
X181547619Y-69428571D01*
X181500000Y-69523809D01*
X181452380Y-69571428D01*
X181357142Y-69619047D01*
X181166666Y-69666666D01*
X180928571Y-69666666D01*
X180738095Y-69619047D01*
X180642857Y-69571428D01*
X180595238Y-69523809D01*
X180547619Y-69428571D01*
X180547619Y-69333333D01*
X180595238Y-69238095D01*
X180642857Y-69190476D01*
X180738095Y-69142857D01*
X180928571Y-69095238D01*
X181166666Y-69095238D01*
X181357142Y-69142857D01*
X181452380Y-69190476D01*
X181500000Y-69238095D01*
X181547619Y-69333333D01*
X180547619Y-70619047D02*
X180547619Y-70047619D01*
X180547619Y-70333333D02*
X181547619Y-70333333D01*
X181404761Y-70238095D01*
X181309523Y-70142857D01*
X181261904Y-70047619D01*
X180547619Y-71095238D02*
X180547619Y-71285714D01*
X180595238Y-71380952D01*
X180642857Y-71428571D01*
X180785714Y-71523809D01*
X180976190Y-71571428D01*
X181357142Y-71571428D01*
X181452380Y-71523809D01*
X181500000Y-71476190D01*
X181547619Y-71380952D01*
X181547619Y-71190476D01*
X181500000Y-71095238D01*
X181452380Y-71047619D01*
X181357142Y-71000000D01*
X181119047Y-71000000D01*
X181023809Y-71047619D01*
X180976190Y-71095238D01*
X180928571Y-71190476D01*
X180928571Y-71380952D01*
X180976190Y-71476190D01*
X181023809Y-71523809D01*
X181119047Y-71571428D01*
X180928571Y-72000000D02*
X180928571Y-72761904D01*
X181547619Y-73428571D02*
X181547619Y-73523809D01*
X181500000Y-73619047D01*
X181452380Y-73666666D01*
X181357142Y-73714285D01*
X181166666Y-73761904D01*
X180928571Y-73761904D01*
X180738095Y-73714285D01*
X180642857Y-73666666D01*
X180595238Y-73619047D01*
X180547619Y-73523809D01*
X180547619Y-73428571D01*
X180595238Y-73333333D01*
X180642857Y-73285714D01*
X180738095Y-73238095D01*
X180928571Y-73190476D01*
X181166666Y-73190476D01*
X181357142Y-73238095D01*
X181452380Y-73285714D01*
X181500000Y-73333333D01*
X181547619Y-73428571D01*
X181547619Y-74619047D02*
X181547619Y-74428571D01*
X181500000Y-74333333D01*
X181452380Y-74285714D01*
X181309523Y-74190476D01*
X181119047Y-74142857D01*
X180738095Y-74142857D01*
X180642857Y-74190476D01*
X180595238Y-74238095D01*
X180547619Y-74333333D01*
X180547619Y-74523809D01*
X180595238Y-74619047D01*
X180642857Y-74666666D01*
X180738095Y-74714285D01*
X180976190Y-74714285D01*
X181071428Y-74666666D01*
X181119047Y-74619047D01*
X181166666Y-74523809D01*
X181166666Y-74333333D01*
X181119047Y-74238095D01*
X181071428Y-74190476D01*
X180976190Y-74142857D01*
X180928571Y-75142857D02*
X180928571Y-75904761D01*
X181547619Y-76571428D02*
X181547619Y-76666666D01*
X181500000Y-76761904D01*
X181452380Y-76809523D01*
X181357142Y-76857142D01*
X181166666Y-76904761D01*
X180928571Y-76904761D01*
X180738095Y-76857142D01*
X180642857Y-76809523D01*
X180595238Y-76761904D01*
X180547619Y-76666666D01*
X180547619Y-76571428D01*
X180595238Y-76476190D01*
X180642857Y-76428571D01*
X180738095Y-76380952D01*
X180928571Y-76333333D01*
X181166666Y-76333333D01*
X181357142Y-76380952D01*
X181452380Y-76428571D01*
X181500000Y-76476190D01*
X181547619Y-76571428D01*
X181119047Y-77476190D02*
X181166666Y-77380952D01*
X181214285Y-77333333D01*
X181309523Y-77285714D01*
X181357142Y-77285714D01*
X181452380Y-77333333D01*
X181500000Y-77380952D01*
X181547619Y-77476190D01*
X181547619Y-77666666D01*
X181500000Y-77761904D01*
X181452380Y-77809523D01*
X181357142Y-77857142D01*
X181309523Y-77857142D01*
X181214285Y-77809523D01*
X181166666Y-77761904D01*
X181119047Y-77666666D01*
X181119047Y-77476190D01*
X181071428Y-77380952D01*
X181023809Y-77333333D01*
X180928571Y-77285714D01*
X180738095Y-77285714D01*
X180642857Y-77333333D01*
X180595238Y-77380952D01*
X180547619Y-77476190D01*
X180547619Y-77666666D01*
X180595238Y-77761904D01*
X180642857Y-77809523D01*
X180738095Y-77857142D01*
X180928571Y-77857142D01*
X181023809Y-77809523D01*
X181071428Y-77761904D01*
X181119047Y-77666666D01*
X181547619Y-51785714D02*
X180595238Y-51785714D01*
X182595238Y-51119047D02*
X181547619Y-51785714D01*
X182595238Y-52452380D01*
X181166666Y-53023809D02*
X181166666Y-53976190D01*
X180595238Y-52833333D02*
X182595238Y-53500000D01*
X180595238Y-54166666D01*
X180595238Y-54833333D02*
X182595238Y-54833333D01*
X182595238Y-55595238D01*
X182500000Y-55785714D01*
X182404761Y-55880952D01*
X182214285Y-55976190D01*
X181928571Y-55976190D01*
X181738095Y-55880952D01*
X181642857Y-55785714D01*
X181547619Y-55595238D01*
X181547619Y-54833333D01*
X180690476Y-56738095D02*
X180595238Y-57023809D01*
X180595238Y-57500000D01*
X180690476Y-57690476D01*
X180785714Y-57785714D01*
X180976190Y-57880952D01*
X181166666Y-57880952D01*
X181357142Y-57785714D01*
X181452380Y-57690476D01*
X181547619Y-57500000D01*
X181642857Y-57119047D01*
X181738095Y-56928571D01*
X181833333Y-56833333D01*
X182023809Y-56738095D01*
X182214285Y-56738095D01*
X182404761Y-56833333D01*
X182500000Y-56928571D01*
X182595238Y-57119047D01*
X182595238Y-57595238D01*
X182500000Y-57880952D01*
X181928571Y-60071428D02*
X180595238Y-60547619D01*
X181928571Y-61023809D01*
X180595238Y-62833333D02*
X180595238Y-61690476D01*
X180595238Y-62261904D02*
X182595238Y-62261904D01*
X182309523Y-62071428D01*
X182119047Y-61880952D01*
X182023809Y-61690476D01*
X180785714Y-63690476D02*
X180690476Y-63785714D01*
X180595238Y-63690476D01*
X180690476Y-63595238D01*
X180785714Y-63690476D01*
X180595238Y-63690476D01*
X180595238Y-65690476D02*
X180595238Y-64547619D01*
X180595238Y-65119047D02*
X182595238Y-65119047D01*
X182309523Y-64928571D01*
X182119047Y-64738095D01*
X182023809Y-64547619D01*
X131761904Y-42166666D02*
X132238095Y-42166666D01*
X131666666Y-42452380D02*
X132000000Y-41452380D01*
X132333333Y-42452380D01*
X133238095Y-42357142D02*
X133190476Y-42404761D01*
X133047619Y-42452380D01*
X132952380Y-42452380D01*
X132809523Y-42404761D01*
X132714285Y-42309523D01*
X132666666Y-42214285D01*
X132619047Y-42023809D01*
X132619047Y-41880952D01*
X132666666Y-41690476D01*
X132714285Y-41595238D01*
X132809523Y-41500000D01*
X132952380Y-41452380D01*
X133047619Y-41452380D01*
X133190476Y-41500000D01*
X133238095Y-41547619D01*
X126761904Y-42166666D02*
X127238095Y-42166666D01*
X126666666Y-42452380D02*
X127000000Y-41452380D01*
X127333333Y-42452380D01*
X128238095Y-42357142D02*
X128190476Y-42404761D01*
X128047619Y-42452380D01*
X127952380Y-42452380D01*
X127809523Y-42404761D01*
X127714285Y-42309523D01*
X127666666Y-42214285D01*
X127619047Y-42023809D01*
X127619047Y-41880952D01*
X127666666Y-41690476D01*
X127714285Y-41595238D01*
X127809523Y-41500000D01*
X127952380Y-41452380D01*
X128047619Y-41452380D01*
X128190476Y-41500000D01*
X128238095Y-41547619D01*
X121119047Y-42071428D02*
X121880952Y-42071428D01*
X136119047Y-42071428D02*
X136880952Y-42071428D01*
X136500000Y-42452380D02*
X136500000Y-41690476D01*
X174023809Y-70452380D02*
X174119047Y-70452380D01*
X174214285Y-70500000D01*
X174261904Y-70547619D01*
X174309523Y-70642857D01*
X174357142Y-70833333D01*
X174357142Y-71071428D01*
X174309523Y-71261904D01*
X174261904Y-71357142D01*
X174214285Y-71404761D01*
X174119047Y-71452380D01*
X174023809Y-71452380D01*
X173928571Y-71404761D01*
X173880952Y-71357142D01*
X173833333Y-71261904D01*
X173785714Y-71071428D01*
X173785714Y-70833333D01*
X173833333Y-70642857D01*
X173880952Y-70547619D01*
X173928571Y-70500000D01*
X174023809Y-70452380D01*
X174642857Y-70452380D02*
X174976190Y-71452380D01*
X175309523Y-70452380D01*
X166690476Y-71071428D02*
X167452380Y-71071428D01*
X167071428Y-71452380D02*
X167071428Y-70690476D01*
X167785714Y-70452380D02*
X168119047Y-71452380D01*
X168452380Y-70452380D01*
X172142857Y-45666666D02*
X172619047Y-45666666D01*
X172047619Y-45952380D02*
X172380952Y-44952380D01*
X172714285Y-45952380D01*
X173619047Y-45857142D02*
X173571428Y-45904761D01*
X173428571Y-45952380D01*
X173333333Y-45952380D01*
X173190476Y-45904761D01*
X173095238Y-45809523D01*
X173047619Y-45714285D01*
X173000000Y-45523809D01*
X173000000Y-45380952D01*
X173047619Y-45190476D01*
X173095238Y-45095238D01*
X173190476Y-45000000D01*
X173333333Y-44952380D01*
X173428571Y-44952380D01*
X173571428Y-45000000D01*
X173619047Y-45047619D01*
X174047619Y-45571428D02*
X174809523Y-45571428D01*
X167142857Y-45666666D02*
X167619047Y-45666666D01*
X167047619Y-45952380D02*
X167380952Y-44952380D01*
X167714285Y-45952380D01*
X168619047Y-45857142D02*
X168571428Y-45904761D01*
X168428571Y-45952380D01*
X168333333Y-45952380D01*
X168190476Y-45904761D01*
X168095238Y-45809523D01*
X168047619Y-45714285D01*
X168000000Y-45523809D01*
X168000000Y-45380952D01*
X168047619Y-45190476D01*
X168095238Y-45095238D01*
X168190476Y-45000000D01*
X168333333Y-44952380D01*
X168428571Y-44952380D01*
X168571428Y-45000000D01*
X168619047Y-45047619D01*
X169047619Y-45571428D02*
X169809523Y-45571428D01*
X169428571Y-45952380D02*
X169428571Y-45190476D01*
X126714285Y-35452380D02*
X126714285Y-34452380D01*
X126714285Y-34928571D02*
X127285714Y-34928571D01*
X127285714Y-35452380D02*
X127285714Y-34452380D01*
X127761904Y-34928571D02*
X128095238Y-34928571D01*
X128238095Y-35452380D02*
X127761904Y-35452380D01*
X127761904Y-34452380D01*
X128238095Y-34452380D01*
X128619047Y-35166666D02*
X129095238Y-35166666D01*
X128523809Y-35452380D02*
X128857142Y-34452380D01*
X129190476Y-35452380D01*
X129380952Y-34452380D02*
X129952380Y-34452380D01*
X129666666Y-35452380D02*
X129666666Y-34452380D01*
X130238095Y-35404761D02*
X130380952Y-35452380D01*
X130619047Y-35452380D01*
X130714285Y-35404761D01*
X130761904Y-35357142D01*
X130809523Y-35261904D01*
X130809523Y-35166666D01*
X130761904Y-35071428D01*
X130714285Y-35023809D01*
X130619047Y-34976190D01*
X130428571Y-34928571D01*
X130333333Y-34880952D01*
X130285714Y-34833333D01*
X130238095Y-34738095D01*
X130238095Y-34642857D01*
X130285714Y-34547619D01*
X130333333Y-34500000D01*
X130428571Y-34452380D01*
X130666666Y-34452380D01*
X130809523Y-34500000D01*
X131238095Y-35452380D02*
X131238095Y-34452380D01*
X131714285Y-35452380D02*
X131714285Y-34452380D01*
X132285714Y-35452380D01*
X132285714Y-34452380D01*
X132761904Y-35452380D02*
X132761904Y-34452380D01*
X133333333Y-35452380D02*
X132904761Y-34880952D01*
X133333333Y-34452380D02*
X132761904Y-35023809D01*
D11*
X99000000Y-49000000D02*
X99000000Y-33000000D01*
X113000000Y-49000000D02*
X99000000Y-49000000D01*
X113000000Y-37000000D02*
X113000000Y-49000000D01*
X145000000Y-37000000D02*
X113000000Y-37000000D01*
X145000000Y-49000000D02*
X145000000Y-37000000D01*
X159000000Y-49000000D02*
X145000000Y-49000000D01*
X159000000Y-33000000D02*
X159000000Y-49000000D01*
X99000000Y-33000000D02*
X159000000Y-33000000D01*
X141600000Y-38200000D02*
X140500000Y-37200000D01*
X118400000Y-40800000D02*
X118400000Y-37200000D01*
X118400000Y-37200000D02*
X140500000Y-37200000D01*
X141600000Y-38200000D02*
X141600000Y-40800000D01*
X141600000Y-40800000D02*
X118400000Y-40800000D01*
X165660000Y-82900000D02*
X166160000Y-82900000D01*
X165660000Y-82160000D02*
X165660000Y-82900000D01*
X172353000Y-79023000D02*
X172306000Y-79069000D01*
X174650000Y-76725000D02*
X174615000Y-76761000D01*
X172546000Y-79239000D02*
X172511000Y-79274000D01*
X174855000Y-76931000D02*
X174808000Y-76977000D01*
X176180000Y-72739000D02*
X176180000Y-82660000D01*
X165900000Y-72739000D02*
X165900000Y-82660000D01*
X165900000Y-82660000D02*
X176180000Y-82660000D01*
X165900000Y-72739000D02*
X176180000Y-72739000D01*
X165900000Y-75699000D02*
X176180000Y-75699000D01*
X165900000Y-80600000D02*
X176180000Y-80600000D01*
X165900000Y-82100000D02*
X176180000Y-82100000D01*
X175260000Y-78000000D02*
G75*
G03X175260000Y-78000000I-1680000J0D01*
G01*
X168528805Y-79680253D02*
G75*
G02X167816000Y-79535000I-28805J1680253D01*
G01*
X166964574Y-78683042D02*
G75*
G02X166965000Y-77316000I1535426J683042D01*
G01*
X167816958Y-76464574D02*
G75*
G02X169184000Y-76465000I683042J-1535426D01*
G01*
X170035426Y-77316958D02*
G75*
G02X170035000Y-78684000I-1535426J-683042D01*
G01*
X169183318Y-79534756D02*
G75*
G02X168500000Y-79680000I-683318J1534756D01*
G01*
X172816682Y-36465244D02*
G75*
G02X173500000Y-36320000I683318J-1534756D01*
G01*
X171964574Y-38683042D02*
G75*
G02X171965000Y-37316000I1535426J683042D01*
G01*
X174183042Y-39535426D02*
G75*
G02X172816000Y-39535000I-683042J1535426D01*
G01*
X175035426Y-37316958D02*
G75*
G02X175035000Y-38684000I-1535426J-683042D01*
G01*
X173471195Y-36319747D02*
G75*
G02X174184000Y-36465000I28805J-1680253D01*
G01*
X170100000Y-38000000D02*
G75*
G03X170100000Y-38000000I-1680000J0D01*
G01*
X176100000Y-33900000D02*
X165820000Y-33900000D01*
X176100000Y-35400000D02*
X165820000Y-35400000D01*
X176100000Y-40301000D02*
X165820000Y-40301000D01*
X176100000Y-43261000D02*
X165820000Y-43261000D01*
X176100000Y-33340000D02*
X165820000Y-33340000D01*
X176100000Y-43261000D02*
X176100000Y-33340000D01*
X165820000Y-43261000D02*
X165820000Y-33340000D01*
X167145000Y-39069000D02*
X167192000Y-39023000D01*
X169454000Y-36761000D02*
X169489000Y-36726000D01*
X167350000Y-39275000D02*
X167385000Y-39239000D01*
X169647000Y-36977000D02*
X169694000Y-36931000D01*
X176340000Y-33840000D02*
X176340000Y-33100000D01*
X176340000Y-33100000D02*
X175840000Y-33100000D01*
X173630000Y-60190000D02*
X176370000Y-60190000D01*
X176370000Y-60190000D02*
X176370000Y-53650000D01*
X176370000Y-53650000D02*
X173630000Y-53650000D01*
X173630000Y-53650000D02*
X173630000Y-60190000D01*
X175000000Y-60960000D02*
X175000000Y-60190000D01*
X175000000Y-52880000D02*
X175000000Y-53650000D01*
X127120000Y-68000000D02*
G75*
G03X127120000Y-68000000I-15120000J0D01*
G01*
X112000000Y-83081000D02*
X112000000Y-52919000D01*
X111960000Y-83080000D02*
X111960000Y-52920000D01*
X111920000Y-83080000D02*
X111920000Y-52920000D01*
X111880000Y-83080000D02*
X111880000Y-52920000D01*
X111840000Y-83080000D02*
X111840000Y-52920000D01*
X111800000Y-83079000D02*
X111800000Y-52921000D01*
X111760000Y-83079000D02*
X111760000Y-52921000D01*
X111720000Y-83078000D02*
X111720000Y-52922000D01*
X111680000Y-83077000D02*
X111680000Y-52923000D01*
X111640000Y-83076000D02*
X111640000Y-52924000D01*
X111600000Y-83075000D02*
X111600000Y-52925000D01*
X111560000Y-83074000D02*
X111560000Y-52926000D01*
X111520000Y-83073000D02*
X111520000Y-52927000D01*
X111480000Y-83072000D02*
X111480000Y-52928000D01*
X111440000Y-83070000D02*
X111440000Y-52930000D01*
X111400000Y-83069000D02*
X111400000Y-52931000D01*
X111360000Y-83067000D02*
X111360000Y-52933000D01*
X111320000Y-83065000D02*
X111320000Y-52935000D01*
X111279000Y-83063000D02*
X111279000Y-52937000D01*
X111239000Y-83061000D02*
X111239000Y-52939000D01*
X111199000Y-83059000D02*
X111199000Y-52941000D01*
X111159000Y-83057000D02*
X111159000Y-52943000D01*
X111119000Y-83055000D02*
X111119000Y-52945000D01*
X111079000Y-83052000D02*
X111079000Y-52948000D01*
X111039000Y-83050000D02*
X111039000Y-52950000D01*
X110999000Y-83047000D02*
X110999000Y-52953000D01*
X110959000Y-83045000D02*
X110959000Y-52955000D01*
X110919000Y-83042000D02*
X110919000Y-52958000D01*
X110879000Y-83039000D02*
X110879000Y-52961000D01*
X110839000Y-83036000D02*
X110839000Y-52964000D01*
X110799000Y-83033000D02*
X110799000Y-52967000D01*
X110759000Y-83030000D02*
X110759000Y-52970000D01*
X110719000Y-83026000D02*
X110719000Y-52974000D01*
X110679000Y-83023000D02*
X110679000Y-52977000D01*
X110639000Y-83019000D02*
X110639000Y-52981000D01*
X110599000Y-83016000D02*
X110599000Y-52984000D01*
X110559000Y-83012000D02*
X110559000Y-52988000D01*
X110519000Y-83008000D02*
X110519000Y-52992000D01*
X110479000Y-83004000D02*
X110479000Y-52996000D01*
X110439000Y-83000000D02*
X110439000Y-53000000D01*
X110399000Y-82996000D02*
X110399000Y-53004000D01*
X110359000Y-82991000D02*
X110359000Y-53009000D01*
X110319000Y-82987000D02*
X110319000Y-53013000D01*
X110279000Y-82982000D02*
X110279000Y-53018000D01*
X110239000Y-82978000D02*
X110239000Y-53022000D01*
X110199000Y-82973000D02*
X110199000Y-53027000D01*
X110159000Y-82968000D02*
X110159000Y-53032000D01*
X110119000Y-82963000D02*
X110119000Y-53037000D01*
X110079000Y-82958000D02*
X110079000Y-53042000D01*
X110039000Y-82953000D02*
X110039000Y-53047000D01*
X109999000Y-82948000D02*
X109999000Y-53052000D01*
X109959000Y-82942000D02*
X109959000Y-53058000D01*
X109919000Y-82937000D02*
X109919000Y-53063000D01*
X109879000Y-82931000D02*
X109879000Y-53069000D01*
X109839000Y-82925000D02*
X109839000Y-53075000D01*
X109799000Y-82920000D02*
X109799000Y-53080000D01*
X109759000Y-82914000D02*
X109759000Y-53086000D01*
X109719000Y-82908000D02*
X109719000Y-53092000D01*
X109679000Y-82901000D02*
X109679000Y-53099000D01*
X109639000Y-82895000D02*
X109639000Y-53105000D01*
X109599000Y-82889000D02*
X109599000Y-53111000D01*
X109559000Y-82882000D02*
X109559000Y-53118000D01*
X109519000Y-82876000D02*
X109519000Y-53124000D01*
X109479000Y-82869000D02*
X109479000Y-53131000D01*
X109439000Y-82862000D02*
X109439000Y-53138000D01*
X109399000Y-82855000D02*
X109399000Y-53145000D01*
X109359000Y-82848000D02*
X109359000Y-53152000D01*
X109319000Y-82841000D02*
X109319000Y-53159000D01*
X109279000Y-82834000D02*
X109279000Y-53166000D01*
X109239000Y-82826000D02*
X109239000Y-70240000D01*
X109239000Y-65760000D02*
X109239000Y-53174000D01*
X109199000Y-82819000D02*
X109199000Y-70240000D01*
X109199000Y-65760000D02*
X109199000Y-53181000D01*
X109159000Y-82811000D02*
X109159000Y-70240000D01*
X109159000Y-65760000D02*
X109159000Y-53189000D01*
X109119000Y-82804000D02*
X109119000Y-70240000D01*
X109119000Y-65760000D02*
X109119000Y-53196000D01*
X109079000Y-82796000D02*
X109079000Y-70240000D01*
X109079000Y-65760000D02*
X109079000Y-53204000D01*
X109039000Y-82788000D02*
X109039000Y-70240000D01*
X109039000Y-65760000D02*
X109039000Y-53212000D01*
X108999000Y-82780000D02*
X108999000Y-70240000D01*
X108999000Y-65760000D02*
X108999000Y-53220000D01*
X108959000Y-82772000D02*
X108959000Y-70240000D01*
X108959000Y-65760000D02*
X108959000Y-53228000D01*
X108919000Y-82763000D02*
X108919000Y-70240000D01*
X108919000Y-65760000D02*
X108919000Y-53237000D01*
X108879000Y-82755000D02*
X108879000Y-70240000D01*
X108879000Y-65760000D02*
X108879000Y-53245000D01*
X108839000Y-82747000D02*
X108839000Y-70240000D01*
X108839000Y-65760000D02*
X108839000Y-53253000D01*
X108799000Y-82738000D02*
X108799000Y-70240000D01*
X108799000Y-65760000D02*
X108799000Y-53262000D01*
X108759000Y-82729000D02*
X108759000Y-70240000D01*
X108759000Y-65760000D02*
X108759000Y-53271000D01*
X108719000Y-82720000D02*
X108719000Y-70240000D01*
X108719000Y-65760000D02*
X108719000Y-53280000D01*
X108679000Y-82711000D02*
X108679000Y-70240000D01*
X108679000Y-65760000D02*
X108679000Y-53289000D01*
X108639000Y-82702000D02*
X108639000Y-70240000D01*
X108639000Y-65760000D02*
X108639000Y-53298000D01*
X108599000Y-82693000D02*
X108599000Y-70240000D01*
X108599000Y-65760000D02*
X108599000Y-53307000D01*
X108559000Y-82684000D02*
X108559000Y-70240000D01*
X108559000Y-65760000D02*
X108559000Y-53316000D01*
X108519000Y-82675000D02*
X108519000Y-70240000D01*
X108519000Y-65760000D02*
X108519000Y-53325000D01*
X108479000Y-82665000D02*
X108479000Y-70240000D01*
X108479000Y-65760000D02*
X108479000Y-53335000D01*
X108439000Y-82655000D02*
X108439000Y-70240000D01*
X108439000Y-65760000D02*
X108439000Y-53345000D01*
X108399000Y-82646000D02*
X108399000Y-70240000D01*
X108399000Y-65760000D02*
X108399000Y-53354000D01*
X108359000Y-82636000D02*
X108359000Y-70240000D01*
X108359000Y-65760000D02*
X108359000Y-53364000D01*
X108319000Y-82626000D02*
X108319000Y-70240000D01*
X108319000Y-65760000D02*
X108319000Y-53374000D01*
X108279000Y-82616000D02*
X108279000Y-70240000D01*
X108279000Y-65760000D02*
X108279000Y-53384000D01*
X108239000Y-82606000D02*
X108239000Y-70240000D01*
X108239000Y-65760000D02*
X108239000Y-53394000D01*
X108199000Y-82595000D02*
X108199000Y-70240000D01*
X108199000Y-65760000D02*
X108199000Y-53405000D01*
X108159000Y-82585000D02*
X108159000Y-70240000D01*
X108159000Y-65760000D02*
X108159000Y-53415000D01*
X108119000Y-82574000D02*
X108119000Y-70240000D01*
X108119000Y-65760000D02*
X108119000Y-53426000D01*
X108079000Y-82564000D02*
X108079000Y-70240000D01*
X108079000Y-65760000D02*
X108079000Y-53436000D01*
X108039000Y-82553000D02*
X108039000Y-70240000D01*
X108039000Y-65760000D02*
X108039000Y-53447000D01*
X107999000Y-82542000D02*
X107999000Y-70240000D01*
X107999000Y-65760000D02*
X107999000Y-53458000D01*
X107959000Y-82531000D02*
X107959000Y-70240000D01*
X107959000Y-65760000D02*
X107959000Y-53469000D01*
X107919000Y-82520000D02*
X107919000Y-70240000D01*
X107919000Y-65760000D02*
X107919000Y-53480000D01*
X107879000Y-82508000D02*
X107879000Y-70240000D01*
X107879000Y-65760000D02*
X107879000Y-53492000D01*
X107839000Y-82497000D02*
X107839000Y-70240000D01*
X107839000Y-65760000D02*
X107839000Y-53503000D01*
X107799000Y-82485000D02*
X107799000Y-70240000D01*
X107799000Y-65760000D02*
X107799000Y-53515000D01*
X107759000Y-82474000D02*
X107759000Y-70240000D01*
X107759000Y-65760000D02*
X107759000Y-53526000D01*
X107719000Y-82462000D02*
X107719000Y-70240000D01*
X107719000Y-65760000D02*
X107719000Y-53538000D01*
X107679000Y-82450000D02*
X107679000Y-70240000D01*
X107679000Y-65760000D02*
X107679000Y-53550000D01*
X107639000Y-82438000D02*
X107639000Y-70240000D01*
X107639000Y-65760000D02*
X107639000Y-53562000D01*
X107599000Y-82426000D02*
X107599000Y-70240000D01*
X107599000Y-65760000D02*
X107599000Y-53574000D01*
X107559000Y-82414000D02*
X107559000Y-70240000D01*
X107559000Y-65760000D02*
X107559000Y-53586000D01*
X107519000Y-82402000D02*
X107519000Y-70240000D01*
X107519000Y-65760000D02*
X107519000Y-53598000D01*
X107479000Y-82389000D02*
X107479000Y-70240000D01*
X107479000Y-65760000D02*
X107479000Y-53611000D01*
X107439000Y-82376000D02*
X107439000Y-70240000D01*
X107439000Y-65760000D02*
X107439000Y-53624000D01*
X107399000Y-82364000D02*
X107399000Y-70240000D01*
X107399000Y-65760000D02*
X107399000Y-53636000D01*
X107359000Y-82351000D02*
X107359000Y-70240000D01*
X107359000Y-65760000D02*
X107359000Y-53649000D01*
X107319000Y-82338000D02*
X107319000Y-70240000D01*
X107319000Y-65760000D02*
X107319000Y-53662000D01*
X107279000Y-82325000D02*
X107279000Y-70240000D01*
X107279000Y-65760000D02*
X107279000Y-53675000D01*
X107239000Y-82312000D02*
X107239000Y-70240000D01*
X107239000Y-65760000D02*
X107239000Y-53688000D01*
X107199000Y-82298000D02*
X107199000Y-70240000D01*
X107199000Y-65760000D02*
X107199000Y-53702000D01*
X107159000Y-82285000D02*
X107159000Y-70240000D01*
X107159000Y-65760000D02*
X107159000Y-53715000D01*
X107119000Y-82271000D02*
X107119000Y-70240000D01*
X107119000Y-65760000D02*
X107119000Y-53729000D01*
X107079000Y-82258000D02*
X107079000Y-70240000D01*
X107079000Y-65760000D02*
X107079000Y-53742000D01*
X107039000Y-82244000D02*
X107039000Y-70240000D01*
X107039000Y-65760000D02*
X107039000Y-53756000D01*
X106999000Y-82230000D02*
X106999000Y-70240000D01*
X106999000Y-65760000D02*
X106999000Y-53770000D01*
X106959000Y-82216000D02*
X106959000Y-70240000D01*
X106959000Y-65760000D02*
X106959000Y-53784000D01*
X106919000Y-82202000D02*
X106919000Y-70240000D01*
X106919000Y-65760000D02*
X106919000Y-53798000D01*
X106879000Y-82187000D02*
X106879000Y-70240000D01*
X106879000Y-65760000D02*
X106879000Y-53813000D01*
X106839000Y-82173000D02*
X106839000Y-70240000D01*
X106839000Y-65760000D02*
X106839000Y-53827000D01*
X106799000Y-82158000D02*
X106799000Y-70240000D01*
X106799000Y-65760000D02*
X106799000Y-53842000D01*
X106759000Y-82143000D02*
X106759000Y-70240000D01*
X106759000Y-65760000D02*
X106759000Y-53857000D01*
X106719000Y-82129000D02*
X106719000Y-70240000D01*
X106719000Y-65760000D02*
X106719000Y-53871000D01*
X106679000Y-82114000D02*
X106679000Y-70240000D01*
X106679000Y-65760000D02*
X106679000Y-53886000D01*
X106639000Y-82099000D02*
X106639000Y-70240000D01*
X106639000Y-65760000D02*
X106639000Y-53901000D01*
X106599000Y-82083000D02*
X106599000Y-70240000D01*
X106599000Y-65760000D02*
X106599000Y-53917000D01*
X106559000Y-82068000D02*
X106559000Y-70240000D01*
X106559000Y-65760000D02*
X106559000Y-53932000D01*
X106519000Y-82052000D02*
X106519000Y-70240000D01*
X106519000Y-65760000D02*
X106519000Y-53948000D01*
X106479000Y-82037000D02*
X106479000Y-70240000D01*
X106479000Y-65760000D02*
X106479000Y-53963000D01*
X106439000Y-82021000D02*
X106439000Y-70240000D01*
X106439000Y-65760000D02*
X106439000Y-53979000D01*
X106399000Y-82005000D02*
X106399000Y-70240000D01*
X106399000Y-65760000D02*
X106399000Y-53995000D01*
X106359000Y-81989000D02*
X106359000Y-70240000D01*
X106359000Y-65760000D02*
X106359000Y-54011000D01*
X106319000Y-81973000D02*
X106319000Y-70240000D01*
X106319000Y-65760000D02*
X106319000Y-54027000D01*
X106279000Y-81957000D02*
X106279000Y-70240000D01*
X106279000Y-65760000D02*
X106279000Y-54043000D01*
X106239000Y-81940000D02*
X106239000Y-70240000D01*
X106239000Y-65760000D02*
X106239000Y-54060000D01*
X106199000Y-81924000D02*
X106199000Y-70240000D01*
X106199000Y-65760000D02*
X106199000Y-54076000D01*
X106159000Y-81907000D02*
X106159000Y-70240000D01*
X106159000Y-65760000D02*
X106159000Y-54093000D01*
X106119000Y-81890000D02*
X106119000Y-70240000D01*
X106119000Y-65760000D02*
X106119000Y-54110000D01*
X106079000Y-81873000D02*
X106079000Y-70240000D01*
X106079000Y-65760000D02*
X106079000Y-54127000D01*
X106039000Y-81856000D02*
X106039000Y-70240000D01*
X106039000Y-65760000D02*
X106039000Y-54144000D01*
X105999000Y-81839000D02*
X105999000Y-70240000D01*
X105999000Y-65760000D02*
X105999000Y-54161000D01*
X105959000Y-81822000D02*
X105959000Y-70240000D01*
X105959000Y-65760000D02*
X105959000Y-54178000D01*
X105919000Y-81804000D02*
X105919000Y-70240000D01*
X105919000Y-65760000D02*
X105919000Y-54196000D01*
X105879000Y-81787000D02*
X105879000Y-70240000D01*
X105879000Y-65760000D02*
X105879000Y-54213000D01*
X105839000Y-81769000D02*
X105839000Y-70240000D01*
X105839000Y-65760000D02*
X105839000Y-54231000D01*
X105799000Y-81751000D02*
X105799000Y-70240000D01*
X105799000Y-65760000D02*
X105799000Y-54249000D01*
X105759000Y-81733000D02*
X105759000Y-70240000D01*
X105759000Y-65760000D02*
X105759000Y-54267000D01*
X105719000Y-81715000D02*
X105719000Y-70240000D01*
X105719000Y-65760000D02*
X105719000Y-54285000D01*
X105679000Y-81696000D02*
X105679000Y-70240000D01*
X105679000Y-65760000D02*
X105679000Y-54304000D01*
X105639000Y-81678000D02*
X105639000Y-70240000D01*
X105639000Y-65760000D02*
X105639000Y-54322000D01*
X105599000Y-81659000D02*
X105599000Y-70240000D01*
X105599000Y-65760000D02*
X105599000Y-54341000D01*
X105559000Y-81640000D02*
X105559000Y-70240000D01*
X105559000Y-65760000D02*
X105559000Y-54360000D01*
X105519000Y-81622000D02*
X105519000Y-70240000D01*
X105519000Y-65760000D02*
X105519000Y-54378000D01*
X105479000Y-81602000D02*
X105479000Y-70240000D01*
X105479000Y-65760000D02*
X105479000Y-54398000D01*
X105439000Y-81583000D02*
X105439000Y-70240000D01*
X105439000Y-65760000D02*
X105439000Y-54417000D01*
X105399000Y-81564000D02*
X105399000Y-70240000D01*
X105399000Y-65760000D02*
X105399000Y-54436000D01*
X105359000Y-81544000D02*
X105359000Y-70240000D01*
X105359000Y-65760000D02*
X105359000Y-54456000D01*
X105319000Y-81525000D02*
X105319000Y-70240000D01*
X105319000Y-65760000D02*
X105319000Y-54475000D01*
X105279000Y-81505000D02*
X105279000Y-70240000D01*
X105279000Y-65760000D02*
X105279000Y-54495000D01*
X105239000Y-81485000D02*
X105239000Y-70240000D01*
X105239000Y-65760000D02*
X105239000Y-54515000D01*
X105199000Y-81465000D02*
X105199000Y-70240000D01*
X105199000Y-65760000D02*
X105199000Y-54535000D01*
X105159000Y-81445000D02*
X105159000Y-70240000D01*
X105159000Y-65760000D02*
X105159000Y-54555000D01*
X105119000Y-81425000D02*
X105119000Y-70240000D01*
X105119000Y-65760000D02*
X105119000Y-54575000D01*
X105079000Y-81404000D02*
X105079000Y-70240000D01*
X105079000Y-65760000D02*
X105079000Y-54596000D01*
X105039000Y-81383000D02*
X105039000Y-70240000D01*
X105039000Y-65760000D02*
X105039000Y-54617000D01*
X104999000Y-81363000D02*
X104999000Y-70240000D01*
X104999000Y-65760000D02*
X104999000Y-54637000D01*
X104959000Y-81342000D02*
X104959000Y-70240000D01*
X104959000Y-65760000D02*
X104959000Y-54658000D01*
X104919000Y-81320000D02*
X104919000Y-70240000D01*
X104919000Y-65760000D02*
X104919000Y-54680000D01*
X104879000Y-81299000D02*
X104879000Y-70240000D01*
X104879000Y-65760000D02*
X104879000Y-54701000D01*
X104839000Y-81278000D02*
X104839000Y-70240000D01*
X104839000Y-65760000D02*
X104839000Y-54722000D01*
X104799000Y-81256000D02*
X104799000Y-70240000D01*
X104799000Y-65760000D02*
X104799000Y-54744000D01*
X104759000Y-81234000D02*
X104759000Y-54766000D01*
X104719000Y-81213000D02*
X104719000Y-54787000D01*
X104679000Y-81190000D02*
X104679000Y-54810000D01*
X104639000Y-81168000D02*
X104639000Y-54832000D01*
X104599000Y-81146000D02*
X104599000Y-54854000D01*
X104559000Y-81123000D02*
X104559000Y-54877000D01*
X104519000Y-81101000D02*
X104519000Y-54899000D01*
X104479000Y-81078000D02*
X104479000Y-54922000D01*
X104439000Y-81055000D02*
X104439000Y-54945000D01*
X104399000Y-81032000D02*
X104399000Y-54968000D01*
X104359000Y-81008000D02*
X104359000Y-54992000D01*
X104319000Y-80985000D02*
X104319000Y-55015000D01*
X104279000Y-80961000D02*
X104279000Y-55039000D01*
X104239000Y-80937000D02*
X104239000Y-55063000D01*
X104199000Y-80913000D02*
X104199000Y-55087000D01*
X104159000Y-80889000D02*
X104159000Y-55111000D01*
X104119000Y-80865000D02*
X104119000Y-55135000D01*
X104079000Y-80840000D02*
X104079000Y-55160000D01*
X104039000Y-80816000D02*
X104039000Y-55184000D01*
X103999000Y-80791000D02*
X103999000Y-55209000D01*
X103959000Y-80766000D02*
X103959000Y-55234000D01*
X103919000Y-80740000D02*
X103919000Y-55260000D01*
X103879000Y-80715000D02*
X103879000Y-55285000D01*
X103839000Y-80690000D02*
X103839000Y-55310000D01*
X103800000Y-80664000D02*
X103800000Y-55336000D01*
X103760000Y-80638000D02*
X103760000Y-55362000D01*
X103720000Y-80612000D02*
X103720000Y-55388000D01*
X103680000Y-80586000D02*
X103680000Y-55414000D01*
X103640000Y-80559000D02*
X103640000Y-55441000D01*
X103600000Y-80532000D02*
X103600000Y-55468000D01*
X103560000Y-80506000D02*
X103560000Y-55494000D01*
X103520000Y-80479000D02*
X103520000Y-55521000D01*
X103480000Y-80451000D02*
X103480000Y-55549000D01*
X103440000Y-80424000D02*
X103440000Y-55576000D01*
X103400000Y-80397000D02*
X103400000Y-55603000D01*
X103360000Y-80369000D02*
X103360000Y-55631000D01*
X103320000Y-80341000D02*
X103320000Y-55659000D01*
X103280000Y-80313000D02*
X103280000Y-55687000D01*
X103240000Y-80284000D02*
X103240000Y-55716000D01*
X103200000Y-80256000D02*
X103200000Y-55744000D01*
X103160000Y-80227000D02*
X103160000Y-55773000D01*
X103120000Y-80198000D02*
X103120000Y-55802000D01*
X103080000Y-80169000D02*
X103080000Y-55831000D01*
X103040000Y-80140000D02*
X103040000Y-55860000D01*
X103000000Y-80110000D02*
X103000000Y-55890000D01*
X102960000Y-80080000D02*
X102960000Y-55920000D01*
X102920000Y-80050000D02*
X102920000Y-55950000D01*
X102880000Y-80020000D02*
X102880000Y-55980000D01*
X102840000Y-79990000D02*
X102840000Y-56010000D01*
X102800000Y-79959000D02*
X102800000Y-56041000D01*
X102760000Y-79929000D02*
X102760000Y-56071000D01*
X102720000Y-79898000D02*
X102720000Y-56102000D01*
X102680000Y-79866000D02*
X102680000Y-56134000D01*
X102640000Y-79835000D02*
X102640000Y-56165000D01*
X102600000Y-79803000D02*
X102600000Y-56197000D01*
X102560000Y-79772000D02*
X102560000Y-56228000D01*
X102520000Y-79739000D02*
X102520000Y-56261000D01*
X102480000Y-79707000D02*
X102480000Y-56293000D01*
X102440000Y-79675000D02*
X102440000Y-56325000D01*
X102400000Y-79642000D02*
X102400000Y-56358000D01*
X102360000Y-79609000D02*
X102360000Y-56391000D01*
X102320000Y-79576000D02*
X102320000Y-56424000D01*
X102280000Y-79542000D02*
X102280000Y-56458000D01*
X102240000Y-79509000D02*
X102240000Y-56491000D01*
X102200000Y-79475000D02*
X102200000Y-56525000D01*
X102160000Y-79440000D02*
X102160000Y-56560000D01*
X102120000Y-79406000D02*
X102120000Y-56594000D01*
X102080000Y-79371000D02*
X102080000Y-56629000D01*
X102040000Y-79336000D02*
X102040000Y-56664000D01*
X102000000Y-79301000D02*
X102000000Y-56699000D01*
X101960000Y-79266000D02*
X101960000Y-56734000D01*
X101920000Y-79230000D02*
X101920000Y-56770000D01*
X101880000Y-79194000D02*
X101880000Y-56806000D01*
X101840000Y-79158000D02*
X101840000Y-56842000D01*
X101800000Y-79122000D02*
X101800000Y-56878000D01*
X101760000Y-79085000D02*
X101760000Y-56915000D01*
X101720000Y-79048000D02*
X101720000Y-56952000D01*
X101680000Y-79011000D02*
X101680000Y-56989000D01*
X101640000Y-78973000D02*
X101640000Y-57027000D01*
X101600000Y-78936000D02*
X101600000Y-57064000D01*
X101560000Y-78898000D02*
X101560000Y-57102000D01*
X101520000Y-78859000D02*
X101520000Y-57141000D01*
X101480000Y-78821000D02*
X101480000Y-57179000D01*
X101440000Y-78782000D02*
X101440000Y-57218000D01*
X101400000Y-78743000D02*
X101400000Y-57257000D01*
X101360000Y-78703000D02*
X101360000Y-57297000D01*
X101320000Y-78663000D02*
X101320000Y-57337000D01*
X101280000Y-78623000D02*
X101280000Y-57377000D01*
X101240000Y-78583000D02*
X101240000Y-57417000D01*
X101200000Y-78542000D02*
X101200000Y-57458000D01*
X101160000Y-78501000D02*
X101160000Y-57499000D01*
X101120000Y-78460000D02*
X101120000Y-57540000D01*
X101080000Y-78418000D02*
X101080000Y-57582000D01*
X101040000Y-78376000D02*
X101040000Y-57624000D01*
X101000000Y-78334000D02*
X101000000Y-57666000D01*
X100960000Y-78292000D02*
X100960000Y-57708000D01*
X100920000Y-78249000D02*
X100920000Y-57751000D01*
X100880000Y-78205000D02*
X100880000Y-57795000D01*
X100840000Y-78162000D02*
X100840000Y-57838000D01*
X100800000Y-78118000D02*
X100800000Y-57882000D01*
X100760000Y-78074000D02*
X100760000Y-57926000D01*
X100720000Y-78029000D02*
X100720000Y-57971000D01*
X100680000Y-77984000D02*
X100680000Y-58016000D01*
X100640000Y-77939000D02*
X100640000Y-58061000D01*
X100600000Y-77893000D02*
X100600000Y-58107000D01*
X100560000Y-77847000D02*
X100560000Y-58153000D01*
X100520000Y-77800000D02*
X100520000Y-58200000D01*
X100480000Y-77754000D02*
X100480000Y-58246000D01*
X100440000Y-77706000D02*
X100440000Y-58294000D01*
X100400000Y-77659000D02*
X100400000Y-58341000D01*
X100360000Y-77611000D02*
X100360000Y-58389000D01*
X100320000Y-77562000D02*
X100320000Y-58438000D01*
X100280000Y-77513000D02*
X100280000Y-58487000D01*
X100240000Y-77464000D02*
X100240000Y-58536000D01*
X100200000Y-77414000D02*
X100200000Y-58586000D01*
X100160000Y-77364000D02*
X100160000Y-58636000D01*
X100120000Y-77314000D02*
X100120000Y-58686000D01*
X100080000Y-77263000D02*
X100080000Y-58737000D01*
X100040000Y-77211000D02*
X100040000Y-58789000D01*
X100000000Y-77159000D02*
X100000000Y-58841000D01*
X99960000Y-77107000D02*
X99960000Y-58893000D01*
X99920000Y-77054000D02*
X99920000Y-58946000D01*
X99880000Y-77000000D02*
X99880000Y-59000000D01*
X99840000Y-76947000D02*
X99840000Y-59053000D01*
X99800000Y-76892000D02*
X99800000Y-59108000D01*
X99760000Y-76837000D02*
X99760000Y-59163000D01*
X99720000Y-76782000D02*
X99720000Y-59218000D01*
X99680000Y-76726000D02*
X99680000Y-59274000D01*
X99640000Y-76669000D02*
X99640000Y-59331000D01*
X99600000Y-76612000D02*
X99600000Y-59388000D01*
X99560000Y-76555000D02*
X99560000Y-59445000D01*
X99520000Y-76497000D02*
X99520000Y-59503000D01*
X99480000Y-76438000D02*
X99480000Y-59562000D01*
X99440000Y-76378000D02*
X99440000Y-59622000D01*
X99400000Y-76318000D02*
X99400000Y-59682000D01*
X99360000Y-76258000D02*
X99360000Y-59742000D01*
X99320000Y-76197000D02*
X99320000Y-59803000D01*
X99280000Y-76135000D02*
X99280000Y-59865000D01*
X99240000Y-76072000D02*
X99240000Y-59928000D01*
X99200000Y-76009000D02*
X99200000Y-59991000D01*
X99160000Y-75945000D02*
X99160000Y-60055000D01*
X99120000Y-75880000D02*
X99120000Y-60120000D01*
X99080000Y-75815000D02*
X99080000Y-60185000D01*
X99040000Y-75748000D02*
X99040000Y-60252000D01*
X99000000Y-75682000D02*
X99000000Y-60318000D01*
X98960000Y-75614000D02*
X98960000Y-60386000D01*
X98920000Y-75545000D02*
X98920000Y-60455000D01*
X98880000Y-75476000D02*
X98880000Y-60524000D01*
X98840000Y-75406000D02*
X98840000Y-60594000D01*
X98800000Y-75334000D02*
X98800000Y-60666000D01*
X98760000Y-75262000D02*
X98760000Y-60738000D01*
X98720000Y-75189000D02*
X98720000Y-60811000D01*
X98680000Y-75115000D02*
X98680000Y-60885000D01*
X98640000Y-75040000D02*
X98640000Y-60960000D01*
X98600000Y-74964000D02*
X98600000Y-61036000D01*
X98560000Y-74887000D02*
X98560000Y-61113000D01*
X98520000Y-74809000D02*
X98520000Y-61191000D01*
X98480000Y-74730000D02*
X98480000Y-61270000D01*
X98440000Y-74649000D02*
X98440000Y-61351000D01*
X98400000Y-74568000D02*
X98400000Y-61432000D01*
X98360000Y-74485000D02*
X98360000Y-61515000D01*
X98320000Y-74400000D02*
X98320000Y-61600000D01*
X98280000Y-74315000D02*
X98280000Y-61685000D01*
X98240000Y-74228000D02*
X98240000Y-61772000D01*
X98200000Y-74139000D02*
X98200000Y-61861000D01*
X98160000Y-74049000D02*
X98160000Y-61951000D01*
X98120000Y-73957000D02*
X98120000Y-62043000D01*
X98080000Y-73864000D02*
X98080000Y-62136000D01*
X98040000Y-73768000D02*
X98040000Y-62232000D01*
X98000000Y-73671000D02*
X98000000Y-62329000D01*
X97960000Y-73572000D02*
X97960000Y-62428000D01*
X97920000Y-73471000D02*
X97920000Y-62529000D01*
X97880000Y-73368000D02*
X97880000Y-62632000D01*
X97840000Y-73262000D02*
X97840000Y-62738000D01*
X97800000Y-73154000D02*
X97800000Y-62846000D01*
X97760000Y-73043000D02*
X97760000Y-62957000D01*
X97720000Y-72930000D02*
X97720000Y-63070000D01*
X97680000Y-72814000D02*
X97680000Y-63186000D01*
X97640000Y-72694000D02*
X97640000Y-63306000D01*
X97600000Y-72571000D02*
X97600000Y-63429000D01*
X97560000Y-72444000D02*
X97560000Y-63556000D01*
X97520000Y-72313000D02*
X97520000Y-63687000D01*
X97480000Y-72178000D02*
X97480000Y-63822000D01*
X97440000Y-72037000D02*
X97440000Y-63963000D01*
X97400000Y-71892000D02*
X97400000Y-64108000D01*
X97360000Y-71740000D02*
X97360000Y-64260000D01*
X97320000Y-71582000D02*
X97320000Y-64418000D01*
X97280000Y-71415000D02*
X97280000Y-64585000D01*
X97240000Y-71240000D02*
X97240000Y-64760000D01*
X97200000Y-71055000D02*
X97200000Y-64945000D01*
X97160000Y-70857000D02*
X97160000Y-65143000D01*
X97120000Y-70644000D02*
X97120000Y-65356000D01*
X97080000Y-70412000D02*
X97080000Y-65588000D01*
X97040000Y-70154000D02*
X97040000Y-65846000D01*
X97000000Y-69862000D02*
X97000000Y-66138000D01*
X96960000Y-69514000D02*
X96960000Y-66486000D01*
X96920000Y-69060000D02*
X96920000Y-66940000D01*
X96880000Y-68040000D02*
X96880000Y-67960000D01*
X128179131Y-76475000D02*
X125179131Y-76475000D01*
X126679131Y-77975000D02*
X126679131Y-74975000D01*
X132320869Y-58025000D02*
X132320869Y-61025000D01*
X130820869Y-59525000D02*
X133820869Y-59525000D01*
X162120000Y-67960000D02*
X162120000Y-68040000D01*
X162080000Y-66940000D02*
X162080000Y-69060000D01*
X162040000Y-66486000D02*
X162040000Y-69514000D01*
X162000000Y-66138000D02*
X162000000Y-69862000D01*
X161960000Y-65846000D02*
X161960000Y-70154000D01*
X161920000Y-65588000D02*
X161920000Y-70412000D01*
X161880000Y-65356000D02*
X161880000Y-70644000D01*
X161840000Y-65143000D02*
X161840000Y-70857000D01*
X161800000Y-64945000D02*
X161800000Y-71055000D01*
X161760000Y-64760000D02*
X161760000Y-71240000D01*
X161720000Y-64585000D02*
X161720000Y-71415000D01*
X161680000Y-64418000D02*
X161680000Y-71582000D01*
X161640000Y-64260000D02*
X161640000Y-71740000D01*
X161600000Y-64108000D02*
X161600000Y-71892000D01*
X161560000Y-63963000D02*
X161560000Y-72037000D01*
X161520000Y-63822000D02*
X161520000Y-72178000D01*
X161480000Y-63687000D02*
X161480000Y-72313000D01*
X161440000Y-63556000D02*
X161440000Y-72444000D01*
X161400000Y-63429000D02*
X161400000Y-72571000D01*
X161360000Y-63306000D02*
X161360000Y-72694000D01*
X161320000Y-63186000D02*
X161320000Y-72814000D01*
X161280000Y-63070000D02*
X161280000Y-72930000D01*
X161240000Y-62957000D02*
X161240000Y-73043000D01*
X161200000Y-62846000D02*
X161200000Y-73154000D01*
X161160000Y-62738000D02*
X161160000Y-73262000D01*
X161120000Y-62632000D02*
X161120000Y-73368000D01*
X161080000Y-62529000D02*
X161080000Y-73471000D01*
X161040000Y-62428000D02*
X161040000Y-73572000D01*
X161000000Y-62329000D02*
X161000000Y-73671000D01*
X160960000Y-62232000D02*
X160960000Y-73768000D01*
X160920000Y-62136000D02*
X160920000Y-73864000D01*
X160880000Y-62043000D02*
X160880000Y-73957000D01*
X160840000Y-61951000D02*
X160840000Y-74049000D01*
X160800000Y-61861000D02*
X160800000Y-74139000D01*
X160760000Y-61772000D02*
X160760000Y-74228000D01*
X160720000Y-61685000D02*
X160720000Y-74315000D01*
X160680000Y-61600000D02*
X160680000Y-74400000D01*
X160640000Y-61515000D02*
X160640000Y-74485000D01*
X160600000Y-61432000D02*
X160600000Y-74568000D01*
X160560000Y-61351000D02*
X160560000Y-74649000D01*
X160520000Y-61270000D02*
X160520000Y-74730000D01*
X160480000Y-61191000D02*
X160480000Y-74809000D01*
X160440000Y-61113000D02*
X160440000Y-74887000D01*
X160400000Y-61036000D02*
X160400000Y-74964000D01*
X160360000Y-60960000D02*
X160360000Y-75040000D01*
X160320000Y-60885000D02*
X160320000Y-75115000D01*
X160280000Y-60811000D02*
X160280000Y-75189000D01*
X160240000Y-60738000D02*
X160240000Y-75262000D01*
X160200000Y-60666000D02*
X160200000Y-75334000D01*
X160160000Y-60594000D02*
X160160000Y-75406000D01*
X160120000Y-60524000D02*
X160120000Y-75476000D01*
X160080000Y-60455000D02*
X160080000Y-75545000D01*
X160040000Y-60386000D02*
X160040000Y-75614000D01*
X160000000Y-60318000D02*
X160000000Y-75682000D01*
X159960000Y-60252000D02*
X159960000Y-75748000D01*
X159920000Y-60185000D02*
X159920000Y-75815000D01*
X159880000Y-60120000D02*
X159880000Y-75880000D01*
X159840000Y-60055000D02*
X159840000Y-75945000D01*
X159800000Y-59991000D02*
X159800000Y-76009000D01*
X159760000Y-59928000D02*
X159760000Y-76072000D01*
X159720000Y-59865000D02*
X159720000Y-76135000D01*
X159680000Y-59803000D02*
X159680000Y-76197000D01*
X159640000Y-59742000D02*
X159640000Y-76258000D01*
X159600000Y-59682000D02*
X159600000Y-76318000D01*
X159560000Y-59622000D02*
X159560000Y-76378000D01*
X159520000Y-59562000D02*
X159520000Y-76438000D01*
X159480000Y-59503000D02*
X159480000Y-76497000D01*
X159440000Y-59445000D02*
X159440000Y-76555000D01*
X159400000Y-59388000D02*
X159400000Y-76612000D01*
X159360000Y-59331000D02*
X159360000Y-76669000D01*
X159320000Y-59274000D02*
X159320000Y-76726000D01*
X159280000Y-59218000D02*
X159280000Y-76782000D01*
X159240000Y-59163000D02*
X159240000Y-76837000D01*
X159200000Y-59108000D02*
X159200000Y-76892000D01*
X159160000Y-59053000D02*
X159160000Y-76947000D01*
X159120000Y-59000000D02*
X159120000Y-77000000D01*
X159080000Y-58946000D02*
X159080000Y-77054000D01*
X159040000Y-58893000D02*
X159040000Y-77107000D01*
X159000000Y-58841000D02*
X159000000Y-77159000D01*
X158960000Y-58789000D02*
X158960000Y-77211000D01*
X158920000Y-58737000D02*
X158920000Y-77263000D01*
X158880000Y-58686000D02*
X158880000Y-77314000D01*
X158840000Y-58636000D02*
X158840000Y-77364000D01*
X158800000Y-58586000D02*
X158800000Y-77414000D01*
X158760000Y-58536000D02*
X158760000Y-77464000D01*
X158720000Y-58487000D02*
X158720000Y-77513000D01*
X158680000Y-58438000D02*
X158680000Y-77562000D01*
X158640000Y-58389000D02*
X158640000Y-77611000D01*
X158600000Y-58341000D02*
X158600000Y-77659000D01*
X158560000Y-58294000D02*
X158560000Y-77706000D01*
X158520000Y-58246000D02*
X158520000Y-77754000D01*
X158480000Y-58200000D02*
X158480000Y-77800000D01*
X158440000Y-58153000D02*
X158440000Y-77847000D01*
X158400000Y-58107000D02*
X158400000Y-77893000D01*
X158360000Y-58061000D02*
X158360000Y-77939000D01*
X158320000Y-58016000D02*
X158320000Y-77984000D01*
X158280000Y-57971000D02*
X158280000Y-78029000D01*
X158240000Y-57926000D02*
X158240000Y-78074000D01*
X158200000Y-57882000D02*
X158200000Y-78118000D01*
X158160000Y-57838000D02*
X158160000Y-78162000D01*
X158120000Y-57795000D02*
X158120000Y-78205000D01*
X158080000Y-57751000D02*
X158080000Y-78249000D01*
X158040000Y-57708000D02*
X158040000Y-78292000D01*
X158000000Y-57666000D02*
X158000000Y-78334000D01*
X157960000Y-57624000D02*
X157960000Y-78376000D01*
X157920000Y-57582000D02*
X157920000Y-78418000D01*
X157880000Y-57540000D02*
X157880000Y-78460000D01*
X157840000Y-57499000D02*
X157840000Y-78501000D01*
X157800000Y-57458000D02*
X157800000Y-78542000D01*
X157760000Y-57417000D02*
X157760000Y-78583000D01*
X157720000Y-57377000D02*
X157720000Y-78623000D01*
X157680000Y-57337000D02*
X157680000Y-78663000D01*
X157640000Y-57297000D02*
X157640000Y-78703000D01*
X157600000Y-57257000D02*
X157600000Y-78743000D01*
X157560000Y-57218000D02*
X157560000Y-78782000D01*
X157520000Y-57179000D02*
X157520000Y-78821000D01*
X157480000Y-57141000D02*
X157480000Y-78859000D01*
X157440000Y-57102000D02*
X157440000Y-78898000D01*
X157400000Y-57064000D02*
X157400000Y-78936000D01*
X157360000Y-57027000D02*
X157360000Y-78973000D01*
X157320000Y-56989000D02*
X157320000Y-79011000D01*
X157280000Y-56952000D02*
X157280000Y-79048000D01*
X157240000Y-56915000D02*
X157240000Y-79085000D01*
X157200000Y-56878000D02*
X157200000Y-79122000D01*
X157160000Y-56842000D02*
X157160000Y-79158000D01*
X157120000Y-56806000D02*
X157120000Y-79194000D01*
X157080000Y-56770000D02*
X157080000Y-79230000D01*
X157040000Y-56734000D02*
X157040000Y-79266000D01*
X157000000Y-56699000D02*
X157000000Y-79301000D01*
X156960000Y-56664000D02*
X156960000Y-79336000D01*
X156920000Y-56629000D02*
X156920000Y-79371000D01*
X156880000Y-56594000D02*
X156880000Y-79406000D01*
X156840000Y-56560000D02*
X156840000Y-79440000D01*
X156800000Y-56525000D02*
X156800000Y-79475000D01*
X156760000Y-56491000D02*
X156760000Y-79509000D01*
X156720000Y-56458000D02*
X156720000Y-79542000D01*
X156680000Y-56424000D02*
X156680000Y-79576000D01*
X156640000Y-56391000D02*
X156640000Y-79609000D01*
X156600000Y-56358000D02*
X156600000Y-79642000D01*
X156560000Y-56325000D02*
X156560000Y-79675000D01*
X156520000Y-56293000D02*
X156520000Y-79707000D01*
X156480000Y-56261000D02*
X156480000Y-79739000D01*
X156440000Y-56228000D02*
X156440000Y-79772000D01*
X156400000Y-56197000D02*
X156400000Y-79803000D01*
X156360000Y-56165000D02*
X156360000Y-79835000D01*
X156320000Y-56134000D02*
X156320000Y-79866000D01*
X156280000Y-56102000D02*
X156280000Y-79898000D01*
X156240000Y-56071000D02*
X156240000Y-79929000D01*
X156200000Y-56041000D02*
X156200000Y-79959000D01*
X156160000Y-56010000D02*
X156160000Y-79990000D01*
X156120000Y-55980000D02*
X156120000Y-80020000D01*
X156080000Y-55950000D02*
X156080000Y-80050000D01*
X156040000Y-55920000D02*
X156040000Y-80080000D01*
X156000000Y-55890000D02*
X156000000Y-80110000D01*
X155960000Y-55860000D02*
X155960000Y-80140000D01*
X155920000Y-55831000D02*
X155920000Y-80169000D01*
X155880000Y-55802000D02*
X155880000Y-80198000D01*
X155840000Y-55773000D02*
X155840000Y-80227000D01*
X155800000Y-55744000D02*
X155800000Y-80256000D01*
X155760000Y-55716000D02*
X155760000Y-80284000D01*
X155720000Y-55687000D02*
X155720000Y-80313000D01*
X155680000Y-55659000D02*
X155680000Y-80341000D01*
X155640000Y-55631000D02*
X155640000Y-80369000D01*
X155600000Y-55603000D02*
X155600000Y-80397000D01*
X155560000Y-55576000D02*
X155560000Y-80424000D01*
X155520000Y-55549000D02*
X155520000Y-80451000D01*
X155480000Y-55521000D02*
X155480000Y-80479000D01*
X155440000Y-55494000D02*
X155440000Y-80506000D01*
X155400000Y-55468000D02*
X155400000Y-80532000D01*
X155360000Y-55441000D02*
X155360000Y-80559000D01*
X155320000Y-55414000D02*
X155320000Y-80586000D01*
X155280000Y-55388000D02*
X155280000Y-80612000D01*
X155240000Y-55362000D02*
X155240000Y-80638000D01*
X155200000Y-55336000D02*
X155200000Y-80664000D01*
X155161000Y-55310000D02*
X155161000Y-80690000D01*
X155121000Y-55285000D02*
X155121000Y-80715000D01*
X155081000Y-55260000D02*
X155081000Y-80740000D01*
X155041000Y-55234000D02*
X155041000Y-80766000D01*
X155001000Y-55209000D02*
X155001000Y-80791000D01*
X154961000Y-55184000D02*
X154961000Y-80816000D01*
X154921000Y-55160000D02*
X154921000Y-80840000D01*
X154881000Y-55135000D02*
X154881000Y-80865000D01*
X154841000Y-55111000D02*
X154841000Y-80889000D01*
X154801000Y-55087000D02*
X154801000Y-80913000D01*
X154761000Y-55063000D02*
X154761000Y-80937000D01*
X154721000Y-55039000D02*
X154721000Y-80961000D01*
X154681000Y-55015000D02*
X154681000Y-80985000D01*
X154641000Y-54992000D02*
X154641000Y-81008000D01*
X154601000Y-54968000D02*
X154601000Y-81032000D01*
X154561000Y-54945000D02*
X154561000Y-81055000D01*
X154521000Y-54922000D02*
X154521000Y-81078000D01*
X154481000Y-54899000D02*
X154481000Y-81101000D01*
X154441000Y-54877000D02*
X154441000Y-81123000D01*
X154401000Y-54854000D02*
X154401000Y-81146000D01*
X154361000Y-54832000D02*
X154361000Y-81168000D01*
X154321000Y-54810000D02*
X154321000Y-81190000D01*
X154281000Y-54787000D02*
X154281000Y-81213000D01*
X154241000Y-54766000D02*
X154241000Y-81234000D01*
X154201000Y-70240000D02*
X154201000Y-81256000D01*
X154201000Y-54744000D02*
X154201000Y-65760000D01*
X154161000Y-70240000D02*
X154161000Y-81278000D01*
X154161000Y-54722000D02*
X154161000Y-65760000D01*
X154121000Y-70240000D02*
X154121000Y-81299000D01*
X154121000Y-54701000D02*
X154121000Y-65760000D01*
X154081000Y-70240000D02*
X154081000Y-81320000D01*
X154081000Y-54680000D02*
X154081000Y-65760000D01*
X154041000Y-70240000D02*
X154041000Y-81342000D01*
X154041000Y-54658000D02*
X154041000Y-65760000D01*
X154001000Y-70240000D02*
X154001000Y-81363000D01*
X154001000Y-54637000D02*
X154001000Y-65760000D01*
X153961000Y-70240000D02*
X153961000Y-81383000D01*
X153961000Y-54617000D02*
X153961000Y-65760000D01*
X153921000Y-70240000D02*
X153921000Y-81404000D01*
X153921000Y-54596000D02*
X153921000Y-65760000D01*
X153881000Y-70240000D02*
X153881000Y-81425000D01*
X153881000Y-54575000D02*
X153881000Y-65760000D01*
X153841000Y-70240000D02*
X153841000Y-81445000D01*
X153841000Y-54555000D02*
X153841000Y-65760000D01*
X153801000Y-70240000D02*
X153801000Y-81465000D01*
X153801000Y-54535000D02*
X153801000Y-65760000D01*
X153761000Y-70240000D02*
X153761000Y-81485000D01*
X153761000Y-54515000D02*
X153761000Y-65760000D01*
X153721000Y-70240000D02*
X153721000Y-81505000D01*
X153721000Y-54495000D02*
X153721000Y-65760000D01*
X153681000Y-70240000D02*
X153681000Y-81525000D01*
X153681000Y-54475000D02*
X153681000Y-65760000D01*
X153641000Y-70240000D02*
X153641000Y-81544000D01*
X153641000Y-54456000D02*
X153641000Y-65760000D01*
X153601000Y-70240000D02*
X153601000Y-81564000D01*
X153601000Y-54436000D02*
X153601000Y-65760000D01*
X153561000Y-70240000D02*
X153561000Y-81583000D01*
X153561000Y-54417000D02*
X153561000Y-65760000D01*
X153521000Y-70240000D02*
X153521000Y-81602000D01*
X153521000Y-54398000D02*
X153521000Y-65760000D01*
X153481000Y-70240000D02*
X153481000Y-81622000D01*
X153481000Y-54378000D02*
X153481000Y-65760000D01*
X153441000Y-70240000D02*
X153441000Y-81640000D01*
X153441000Y-54360000D02*
X153441000Y-65760000D01*
X153401000Y-70240000D02*
X153401000Y-81659000D01*
X153401000Y-54341000D02*
X153401000Y-65760000D01*
X153361000Y-70240000D02*
X153361000Y-81678000D01*
X153361000Y-54322000D02*
X153361000Y-65760000D01*
X153321000Y-70240000D02*
X153321000Y-81696000D01*
X153321000Y-54304000D02*
X153321000Y-65760000D01*
X153281000Y-70240000D02*
X153281000Y-81715000D01*
X153281000Y-54285000D02*
X153281000Y-65760000D01*
X153241000Y-70240000D02*
X153241000Y-81733000D01*
X153241000Y-54267000D02*
X153241000Y-65760000D01*
X153201000Y-70240000D02*
X153201000Y-81751000D01*
X153201000Y-54249000D02*
X153201000Y-65760000D01*
X153161000Y-70240000D02*
X153161000Y-81769000D01*
X153161000Y-54231000D02*
X153161000Y-65760000D01*
X153121000Y-70240000D02*
X153121000Y-81787000D01*
X153121000Y-54213000D02*
X153121000Y-65760000D01*
X153081000Y-70240000D02*
X153081000Y-81804000D01*
X153081000Y-54196000D02*
X153081000Y-65760000D01*
X153041000Y-70240000D02*
X153041000Y-81822000D01*
X153041000Y-54178000D02*
X153041000Y-65760000D01*
X153001000Y-70240000D02*
X153001000Y-81839000D01*
X153001000Y-54161000D02*
X153001000Y-65760000D01*
X152961000Y-70240000D02*
X152961000Y-81856000D01*
X152961000Y-54144000D02*
X152961000Y-65760000D01*
X152921000Y-70240000D02*
X152921000Y-81873000D01*
X152921000Y-54127000D02*
X152921000Y-65760000D01*
X152881000Y-70240000D02*
X152881000Y-81890000D01*
X152881000Y-54110000D02*
X152881000Y-65760000D01*
X152841000Y-70240000D02*
X152841000Y-81907000D01*
X152841000Y-54093000D02*
X152841000Y-65760000D01*
X152801000Y-70240000D02*
X152801000Y-81924000D01*
X152801000Y-54076000D02*
X152801000Y-65760000D01*
X152761000Y-70240000D02*
X152761000Y-81940000D01*
X152761000Y-54060000D02*
X152761000Y-65760000D01*
X152721000Y-70240000D02*
X152721000Y-81957000D01*
X152721000Y-54043000D02*
X152721000Y-65760000D01*
X152681000Y-70240000D02*
X152681000Y-81973000D01*
X152681000Y-54027000D02*
X152681000Y-65760000D01*
X152641000Y-70240000D02*
X152641000Y-81989000D01*
X152641000Y-54011000D02*
X152641000Y-65760000D01*
X152601000Y-70240000D02*
X152601000Y-82005000D01*
X152601000Y-53995000D02*
X152601000Y-65760000D01*
X152561000Y-70240000D02*
X152561000Y-82021000D01*
X152561000Y-53979000D02*
X152561000Y-65760000D01*
X152521000Y-70240000D02*
X152521000Y-82037000D01*
X152521000Y-53963000D02*
X152521000Y-65760000D01*
X152481000Y-70240000D02*
X152481000Y-82052000D01*
X152481000Y-53948000D02*
X152481000Y-65760000D01*
X152441000Y-70240000D02*
X152441000Y-82068000D01*
X152441000Y-53932000D02*
X152441000Y-65760000D01*
X152401000Y-70240000D02*
X152401000Y-82083000D01*
X152401000Y-53917000D02*
X152401000Y-65760000D01*
X152361000Y-70240000D02*
X152361000Y-82099000D01*
X152361000Y-53901000D02*
X152361000Y-65760000D01*
X152321000Y-70240000D02*
X152321000Y-82114000D01*
X152321000Y-53886000D02*
X152321000Y-65760000D01*
X152281000Y-70240000D02*
X152281000Y-82129000D01*
X152281000Y-53871000D02*
X152281000Y-65760000D01*
X152241000Y-70240000D02*
X152241000Y-82143000D01*
X152241000Y-53857000D02*
X152241000Y-65760000D01*
X152201000Y-70240000D02*
X152201000Y-82158000D01*
X152201000Y-53842000D02*
X152201000Y-65760000D01*
X152161000Y-70240000D02*
X152161000Y-82173000D01*
X152161000Y-53827000D02*
X152161000Y-65760000D01*
X152121000Y-70240000D02*
X152121000Y-82187000D01*
X152121000Y-53813000D02*
X152121000Y-65760000D01*
X152081000Y-70240000D02*
X152081000Y-82202000D01*
X152081000Y-53798000D02*
X152081000Y-65760000D01*
X152041000Y-70240000D02*
X152041000Y-82216000D01*
X152041000Y-53784000D02*
X152041000Y-65760000D01*
X152001000Y-70240000D02*
X152001000Y-82230000D01*
X152001000Y-53770000D02*
X152001000Y-65760000D01*
X151961000Y-70240000D02*
X151961000Y-82244000D01*
X151961000Y-53756000D02*
X151961000Y-65760000D01*
X151921000Y-70240000D02*
X151921000Y-82258000D01*
X151921000Y-53742000D02*
X151921000Y-65760000D01*
X151881000Y-70240000D02*
X151881000Y-82271000D01*
X151881000Y-53729000D02*
X151881000Y-65760000D01*
X151841000Y-70240000D02*
X151841000Y-82285000D01*
X151841000Y-53715000D02*
X151841000Y-65760000D01*
X151801000Y-70240000D02*
X151801000Y-82298000D01*
X151801000Y-53702000D02*
X151801000Y-65760000D01*
X151761000Y-70240000D02*
X151761000Y-82312000D01*
X151761000Y-53688000D02*
X151761000Y-65760000D01*
X151721000Y-70240000D02*
X151721000Y-82325000D01*
X151721000Y-53675000D02*
X151721000Y-65760000D01*
X151681000Y-70240000D02*
X151681000Y-82338000D01*
X151681000Y-53662000D02*
X151681000Y-65760000D01*
X151641000Y-70240000D02*
X151641000Y-82351000D01*
X151641000Y-53649000D02*
X151641000Y-65760000D01*
X151601000Y-70240000D02*
X151601000Y-82364000D01*
X151601000Y-53636000D02*
X151601000Y-65760000D01*
X151561000Y-70240000D02*
X151561000Y-82376000D01*
X151561000Y-53624000D02*
X151561000Y-65760000D01*
X151521000Y-70240000D02*
X151521000Y-82389000D01*
X151521000Y-53611000D02*
X151521000Y-65760000D01*
X151481000Y-70240000D02*
X151481000Y-82402000D01*
X151481000Y-53598000D02*
X151481000Y-65760000D01*
X151441000Y-70240000D02*
X151441000Y-82414000D01*
X151441000Y-53586000D02*
X151441000Y-65760000D01*
X151401000Y-70240000D02*
X151401000Y-82426000D01*
X151401000Y-53574000D02*
X151401000Y-65760000D01*
X151361000Y-70240000D02*
X151361000Y-82438000D01*
X151361000Y-53562000D02*
X151361000Y-65760000D01*
X151321000Y-70240000D02*
X151321000Y-82450000D01*
X151321000Y-53550000D02*
X151321000Y-65760000D01*
X151281000Y-70240000D02*
X151281000Y-82462000D01*
X151281000Y-53538000D02*
X151281000Y-65760000D01*
X151241000Y-70240000D02*
X151241000Y-82474000D01*
X151241000Y-53526000D02*
X151241000Y-65760000D01*
X151201000Y-70240000D02*
X151201000Y-82485000D01*
X151201000Y-53515000D02*
X151201000Y-65760000D01*
X151161000Y-70240000D02*
X151161000Y-82497000D01*
X151161000Y-53503000D02*
X151161000Y-65760000D01*
X151121000Y-70240000D02*
X151121000Y-82508000D01*
X151121000Y-53492000D02*
X151121000Y-65760000D01*
X151081000Y-70240000D02*
X151081000Y-82520000D01*
X151081000Y-53480000D02*
X151081000Y-65760000D01*
X151041000Y-70240000D02*
X151041000Y-82531000D01*
X151041000Y-53469000D02*
X151041000Y-65760000D01*
X151001000Y-70240000D02*
X151001000Y-82542000D01*
X151001000Y-53458000D02*
X151001000Y-65760000D01*
X150961000Y-70240000D02*
X150961000Y-82553000D01*
X150961000Y-53447000D02*
X150961000Y-65760000D01*
X150921000Y-70240000D02*
X150921000Y-82564000D01*
X150921000Y-53436000D02*
X150921000Y-65760000D01*
X150881000Y-70240000D02*
X150881000Y-82574000D01*
X150881000Y-53426000D02*
X150881000Y-65760000D01*
X150841000Y-70240000D02*
X150841000Y-82585000D01*
X150841000Y-53415000D02*
X150841000Y-65760000D01*
X150801000Y-70240000D02*
X150801000Y-82595000D01*
X150801000Y-53405000D02*
X150801000Y-65760000D01*
X150761000Y-70240000D02*
X150761000Y-82606000D01*
X150761000Y-53394000D02*
X150761000Y-65760000D01*
X150721000Y-70240000D02*
X150721000Y-82616000D01*
X150721000Y-53384000D02*
X150721000Y-65760000D01*
X150681000Y-70240000D02*
X150681000Y-82626000D01*
X150681000Y-53374000D02*
X150681000Y-65760000D01*
X150641000Y-70240000D02*
X150641000Y-82636000D01*
X150641000Y-53364000D02*
X150641000Y-65760000D01*
X150601000Y-70240000D02*
X150601000Y-82646000D01*
X150601000Y-53354000D02*
X150601000Y-65760000D01*
X150561000Y-70240000D02*
X150561000Y-82655000D01*
X150561000Y-53345000D02*
X150561000Y-65760000D01*
X150521000Y-70240000D02*
X150521000Y-82665000D01*
X150521000Y-53335000D02*
X150521000Y-65760000D01*
X150481000Y-70240000D02*
X150481000Y-82675000D01*
X150481000Y-53325000D02*
X150481000Y-65760000D01*
X150441000Y-70240000D02*
X150441000Y-82684000D01*
X150441000Y-53316000D02*
X150441000Y-65760000D01*
X150401000Y-70240000D02*
X150401000Y-82693000D01*
X150401000Y-53307000D02*
X150401000Y-65760000D01*
X150361000Y-70240000D02*
X150361000Y-82702000D01*
X150361000Y-53298000D02*
X150361000Y-65760000D01*
X150321000Y-70240000D02*
X150321000Y-82711000D01*
X150321000Y-53289000D02*
X150321000Y-65760000D01*
X150281000Y-70240000D02*
X150281000Y-82720000D01*
X150281000Y-53280000D02*
X150281000Y-65760000D01*
X150241000Y-70240000D02*
X150241000Y-82729000D01*
X150241000Y-53271000D02*
X150241000Y-65760000D01*
X150201000Y-70240000D02*
X150201000Y-82738000D01*
X150201000Y-53262000D02*
X150201000Y-65760000D01*
X150161000Y-70240000D02*
X150161000Y-82747000D01*
X150161000Y-53253000D02*
X150161000Y-65760000D01*
X150121000Y-70240000D02*
X150121000Y-82755000D01*
X150121000Y-53245000D02*
X150121000Y-65760000D01*
X150081000Y-70240000D02*
X150081000Y-82763000D01*
X150081000Y-53237000D02*
X150081000Y-65760000D01*
X150041000Y-70240000D02*
X150041000Y-82772000D01*
X150041000Y-53228000D02*
X150041000Y-65760000D01*
X150001000Y-70240000D02*
X150001000Y-82780000D01*
X150001000Y-53220000D02*
X150001000Y-65760000D01*
X149961000Y-70240000D02*
X149961000Y-82788000D01*
X149961000Y-53212000D02*
X149961000Y-65760000D01*
X149921000Y-70240000D02*
X149921000Y-82796000D01*
X149921000Y-53204000D02*
X149921000Y-65760000D01*
X149881000Y-70240000D02*
X149881000Y-82804000D01*
X149881000Y-53196000D02*
X149881000Y-65760000D01*
X149841000Y-70240000D02*
X149841000Y-82811000D01*
X149841000Y-53189000D02*
X149841000Y-65760000D01*
X149801000Y-70240000D02*
X149801000Y-82819000D01*
X149801000Y-53181000D02*
X149801000Y-65760000D01*
X149761000Y-70240000D02*
X149761000Y-82826000D01*
X149761000Y-53174000D02*
X149761000Y-65760000D01*
X149721000Y-53166000D02*
X149721000Y-82834000D01*
X149681000Y-53159000D02*
X149681000Y-82841000D01*
X149641000Y-53152000D02*
X149641000Y-82848000D01*
X149601000Y-53145000D02*
X149601000Y-82855000D01*
X149561000Y-53138000D02*
X149561000Y-82862000D01*
X149521000Y-53131000D02*
X149521000Y-82869000D01*
X149481000Y-53124000D02*
X149481000Y-82876000D01*
X149441000Y-53118000D02*
X149441000Y-82882000D01*
X149401000Y-53111000D02*
X149401000Y-82889000D01*
X149361000Y-53105000D02*
X149361000Y-82895000D01*
X149321000Y-53099000D02*
X149321000Y-82901000D01*
X149281000Y-53092000D02*
X149281000Y-82908000D01*
X149241000Y-53086000D02*
X149241000Y-82914000D01*
X149201000Y-53080000D02*
X149201000Y-82920000D01*
X149161000Y-53075000D02*
X149161000Y-82925000D01*
X149121000Y-53069000D02*
X149121000Y-82931000D01*
X149081000Y-53063000D02*
X149081000Y-82937000D01*
X149041000Y-53058000D02*
X149041000Y-82942000D01*
X149001000Y-53052000D02*
X149001000Y-82948000D01*
X148961000Y-53047000D02*
X148961000Y-82953000D01*
X148921000Y-53042000D02*
X148921000Y-82958000D01*
X148881000Y-53037000D02*
X148881000Y-82963000D01*
X148841000Y-53032000D02*
X148841000Y-82968000D01*
X148801000Y-53027000D02*
X148801000Y-82973000D01*
X148761000Y-53022000D02*
X148761000Y-82978000D01*
X148721000Y-53018000D02*
X148721000Y-82982000D01*
X148681000Y-53013000D02*
X148681000Y-82987000D01*
X148641000Y-53009000D02*
X148641000Y-82991000D01*
X148601000Y-53004000D02*
X148601000Y-82996000D01*
X148561000Y-53000000D02*
X148561000Y-83000000D01*
X148521000Y-52996000D02*
X148521000Y-83004000D01*
X148481000Y-52992000D02*
X148481000Y-83008000D01*
X148441000Y-52988000D02*
X148441000Y-83012000D01*
X148401000Y-52984000D02*
X148401000Y-83016000D01*
X148361000Y-52981000D02*
X148361000Y-83019000D01*
X148321000Y-52977000D02*
X148321000Y-83023000D01*
X148281000Y-52974000D02*
X148281000Y-83026000D01*
X148241000Y-52970000D02*
X148241000Y-83030000D01*
X148201000Y-52967000D02*
X148201000Y-83033000D01*
X148161000Y-52964000D02*
X148161000Y-83036000D01*
X148121000Y-52961000D02*
X148121000Y-83039000D01*
X148081000Y-52958000D02*
X148081000Y-83042000D01*
X148041000Y-52955000D02*
X148041000Y-83045000D01*
X148001000Y-52953000D02*
X148001000Y-83047000D01*
X147961000Y-52950000D02*
X147961000Y-83050000D01*
X147921000Y-52948000D02*
X147921000Y-83052000D01*
X147881000Y-52945000D02*
X147881000Y-83055000D01*
X147841000Y-52943000D02*
X147841000Y-83057000D01*
X147801000Y-52941000D02*
X147801000Y-83059000D01*
X147761000Y-52939000D02*
X147761000Y-83061000D01*
X147721000Y-52937000D02*
X147721000Y-83063000D01*
X147680000Y-52935000D02*
X147680000Y-83065000D01*
X147640000Y-52933000D02*
X147640000Y-83067000D01*
X147600000Y-52931000D02*
X147600000Y-83069000D01*
X147560000Y-52930000D02*
X147560000Y-83070000D01*
X147520000Y-52928000D02*
X147520000Y-83072000D01*
X147480000Y-52927000D02*
X147480000Y-83073000D01*
X147440000Y-52926000D02*
X147440000Y-83074000D01*
X147400000Y-52925000D02*
X147400000Y-83075000D01*
X147360000Y-52924000D02*
X147360000Y-83076000D01*
X147320000Y-52923000D02*
X147320000Y-83077000D01*
X147280000Y-52922000D02*
X147280000Y-83078000D01*
X147240000Y-52921000D02*
X147240000Y-83079000D01*
X147200000Y-52921000D02*
X147200000Y-83079000D01*
X147160000Y-52920000D02*
X147160000Y-83080000D01*
X147120000Y-52920000D02*
X147120000Y-83080000D01*
X147080000Y-52920000D02*
X147080000Y-83080000D01*
X147040000Y-52920000D02*
X147040000Y-83080000D01*
X147000000Y-52919000D02*
X147000000Y-83081000D01*
X162120000Y-68000000D02*
G75*
G03X162120000Y-68000000I-15120000J0D01*
G01*
D12*
X129461904Y-36652380D02*
X129461904Y-35652380D01*
X129700000Y-35652380D01*
X129842857Y-35700000D01*
X129938095Y-35795238D01*
X129985714Y-35890476D01*
X130033333Y-36080952D01*
X130033333Y-36223809D01*
X129985714Y-36414285D01*
X129938095Y-36509523D01*
X129842857Y-36604761D01*
X129700000Y-36652380D01*
X129461904Y-36652380D01*
X130985714Y-36652380D02*
X130414285Y-36652380D01*
X130700000Y-36652380D02*
X130700000Y-35652380D01*
X130604761Y-35795238D01*
X130509523Y-35890476D01*
X130414285Y-35938095D01*
X170706666Y-71192380D02*
X170706666Y-71906666D01*
X170659047Y-72049523D01*
X170563809Y-72144761D01*
X170420952Y-72192380D01*
X170325714Y-72192380D01*
X171706666Y-72192380D02*
X171135238Y-72192380D01*
X171420952Y-72192380D02*
X171420952Y-71192380D01*
X171325714Y-71335238D01*
X171230476Y-71430476D01*
X171135238Y-71478095D01*
X170626666Y-43712380D02*
X170626666Y-44426666D01*
X170579047Y-44569523D01*
X170483809Y-44664761D01*
X170340952Y-44712380D01*
X170245714Y-44712380D01*
X171055238Y-43807619D02*
X171102857Y-43760000D01*
X171198095Y-43712380D01*
X171436190Y-43712380D01*
X171531428Y-43760000D01*
X171579047Y-43807619D01*
X171626666Y-43902857D01*
X171626666Y-43998095D01*
X171579047Y-44140952D01*
X171007619Y-44712380D01*
X171626666Y-44712380D01*
X173082380Y-57086666D02*
X172606190Y-57420000D01*
X173082380Y-57658095D02*
X172082380Y-57658095D01*
X172082380Y-57277142D01*
X172130000Y-57181904D01*
X172177619Y-57134285D01*
X172272857Y-57086666D01*
X172415714Y-57086666D01*
X172510952Y-57134285D01*
X172558571Y-57181904D01*
X172606190Y-57277142D01*
X172606190Y-57658095D01*
X173082380Y-56134285D02*
X173082380Y-56705714D01*
X173082380Y-56420000D02*
X172082380Y-56420000D01*
X172225238Y-56515238D01*
X172320476Y-56610476D01*
X172368095Y-56705714D01*
X111833333Y-51357142D02*
X111785714Y-51404761D01*
X111642857Y-51452380D01*
X111547619Y-51452380D01*
X111404761Y-51404761D01*
X111309523Y-51309523D01*
X111261904Y-51214285D01*
X111214285Y-51023809D01*
X111214285Y-50880952D01*
X111261904Y-50690476D01*
X111309523Y-50595238D01*
X111404761Y-50500000D01*
X111547619Y-50452380D01*
X111642857Y-50452380D01*
X111785714Y-50500000D01*
X111833333Y-50547619D01*
X112785714Y-51452380D02*
X112214285Y-51452380D01*
X112500000Y-51452380D02*
X112500000Y-50452380D01*
X112404761Y-50595238D01*
X112309523Y-50690476D01*
X112214285Y-50738095D01*
X146833333Y-51357142D02*
X146785714Y-51404761D01*
X146642857Y-51452380D01*
X146547619Y-51452380D01*
X146404761Y-51404761D01*
X146309523Y-51309523D01*
X146261904Y-51214285D01*
X146214285Y-51023809D01*
X146214285Y-50880952D01*
X146261904Y-50690476D01*
X146309523Y-50595238D01*
X146404761Y-50500000D01*
X146547619Y-50452380D01*
X146642857Y-50452380D01*
X146785714Y-50500000D01*
X146833333Y-50547619D01*
X147214285Y-50547619D02*
X147261904Y-50500000D01*
X147357142Y-50452380D01*
X147595238Y-50452380D01*
X147690476Y-50500000D01*
X147738095Y-50547619D01*
X147785714Y-50642857D01*
X147785714Y-50738095D01*
X147738095Y-50880952D01*
X147166666Y-51452380D01*
X147785714Y-51452380D01*
M02*
