G04 #@! TF.GenerationSoftware,KiCad,Pcbnew,(5.1.0-0)*
G04 #@! TF.CreationDate,2019-06-08T23:36:10+01:00*
G04 #@! TF.ProjectId,PowerStage,506f7765-7253-4746-9167-652e6b696361,1.0*
G04 #@! TF.SameCoordinates,Original*
G04 #@! TF.FileFunction,Copper,L1,Top*
G04 #@! TF.FilePolarity,Positive*
%FSLAX46Y46*%
G04 Gerber Fmt 4.6, Leading zero omitted, Abs format (unit mm)*
G04 Created by KiCad (PCBNEW (5.1.0-0)) date 2019-06-08 23:36:10*
%MOMM*%
%LPD*%
G04 APERTURE LIST*
%ADD10R,2.500000X2.500000*%
%ADD11C,2.500000*%
%ADD12C,2.600000*%
%ADD13R,2.600000X2.600000*%
%ADD14C,1.600000*%
%ADD15O,1.600000X1.600000*%
%ADD16R,4.000000X4.000000*%
%ADD17C,4.000000*%
%ADD18C,0.800000*%
%ADD19C,2.500000*%
%ADD20C,0.254000*%
G04 APERTURE END LIST*
D10*
X122500000Y-39000000D03*
D11*
X127500000Y-39000000D03*
X132500000Y-39000000D03*
X137500000Y-39000000D03*
D12*
X173580000Y-78000000D03*
D13*
X168500000Y-78000000D03*
X173500000Y-38000000D03*
D12*
X168420000Y-38000000D03*
D14*
X175000000Y-62000000D03*
D15*
X175000000Y-51840000D03*
D16*
X117000000Y-68000000D03*
D17*
X107000000Y-68000000D03*
X152000000Y-68000000D03*
D16*
X142000000Y-68000000D03*
D18*
X115500000Y-46500000D03*
X118500000Y-46500000D03*
X121500000Y-46500000D03*
X124500000Y-46500000D03*
X128000000Y-46500000D03*
X126500000Y-48500000D03*
X123000000Y-48500000D03*
X120000000Y-48500000D03*
X117000000Y-48500000D03*
X119500000Y-51000000D03*
X122500000Y-51000000D03*
X158000000Y-51500000D03*
X160500000Y-51500000D03*
X160000000Y-53500000D03*
X162500000Y-53500000D03*
X162000000Y-56000000D03*
X164500000Y-58500000D03*
X164500000Y-56000000D03*
X165000000Y-51500000D03*
X172000000Y-48500000D03*
X175500000Y-48500000D03*
X178500000Y-48500000D03*
X105000000Y-51000000D03*
X102500000Y-52500000D03*
X100000000Y-54000000D03*
X97500000Y-55500000D03*
X95000000Y-57500000D03*
X95000000Y-55000000D03*
X97500000Y-53000000D03*
X100000000Y-51500000D03*
X95000000Y-52500000D03*
X97500000Y-50500000D03*
X130000000Y-77500000D03*
X130000000Y-80000000D03*
X130000000Y-82500000D03*
X132500000Y-82500000D03*
X127000000Y-82500000D03*
X124000000Y-82500000D03*
X135500000Y-82500000D03*
X134000000Y-80000000D03*
X126000000Y-80000000D03*
X162500000Y-79000000D03*
X162500000Y-82000000D03*
X159500000Y-82000000D03*
X142500000Y-50250000D03*
X140250000Y-51500000D03*
X138250000Y-52750000D03*
X136250000Y-54000000D03*
X134500000Y-55250000D03*
X132500000Y-56750000D03*
X132500000Y-54500000D03*
X134000000Y-53250000D03*
X136000000Y-52000000D03*
X137750000Y-50500000D03*
X140000000Y-49250000D03*
X177000000Y-46750000D03*
X173750000Y-47000000D03*
X167750000Y-51500000D03*
X170250000Y-51500000D03*
X170250000Y-53500000D03*
X167750000Y-53500000D03*
X169250000Y-55500000D03*
X126500000Y-31500000D03*
X131500000Y-31500000D03*
X135500000Y-31500000D03*
X139500000Y-31500000D03*
X143500000Y-31500000D03*
X147500000Y-31500000D03*
X151500000Y-31500000D03*
X155500000Y-31500000D03*
X159500000Y-31500000D03*
X163500000Y-31500000D03*
X167500000Y-31500000D03*
X171500000Y-31500000D03*
X175500000Y-31500000D03*
X161500000Y-37500000D03*
X163500000Y-40000000D03*
X143000000Y-38500000D03*
X161000000Y-39500000D03*
D19*
X175000000Y-62000000D02*
X175000000Y-66000000D01*
X168500000Y-72500000D02*
X168500000Y-78000000D01*
X175000000Y-66000000D02*
X168500000Y-72500000D01*
X137000000Y-68000000D02*
X142000000Y-68000000D01*
X117000000Y-68000000D02*
X137000000Y-68000000D01*
X145000000Y-65000000D02*
X142000000Y-68000000D01*
X148500000Y-62000000D02*
X145000000Y-65000000D01*
X175000000Y-62000000D02*
X148500000Y-62000000D01*
X117000000Y-63500000D02*
X137500000Y-43000000D01*
X137500000Y-43000000D02*
X137500000Y-39000000D01*
X117000000Y-68000000D02*
X117000000Y-63500000D01*
X132000000Y-34500000D02*
X127500000Y-39000000D01*
X161420000Y-34500000D02*
X132000000Y-34500000D01*
X168420000Y-38000000D02*
X161420000Y-34500000D01*
D20*
G36*
X185340000Y-41873000D02*
G01*
X139385000Y-41873000D01*
X139385000Y-38814344D01*
X139366845Y-38723071D01*
X139357725Y-38630476D01*
X139330717Y-38541441D01*
X139312561Y-38450166D01*
X139276947Y-38364187D01*
X139249939Y-38275152D01*
X139206080Y-38193097D01*
X139170466Y-38107118D01*
X139118763Y-38029739D01*
X139074903Y-37947683D01*
X139015878Y-37875761D01*
X138964175Y-37798382D01*
X138898370Y-37732577D01*
X138839345Y-37660655D01*
X138767423Y-37601630D01*
X138701618Y-37535825D01*
X138624239Y-37484122D01*
X138552317Y-37425097D01*
X138470261Y-37381237D01*
X138392882Y-37329534D01*
X138306903Y-37293920D01*
X138224848Y-37250061D01*
X138135813Y-37223053D01*
X138049834Y-37187439D01*
X137958559Y-37169283D01*
X137869524Y-37142275D01*
X137776929Y-37133155D01*
X137685656Y-37115000D01*
X137592597Y-37115000D01*
X137500000Y-37105880D01*
X137407403Y-37115000D01*
X137314344Y-37115000D01*
X137223071Y-37133155D01*
X137130477Y-37142275D01*
X137041444Y-37169283D01*
X136950166Y-37187439D01*
X136864184Y-37223054D01*
X136775153Y-37250061D01*
X136693101Y-37293919D01*
X136607118Y-37329534D01*
X136529735Y-37381240D01*
X136447684Y-37425097D01*
X136375766Y-37484119D01*
X136298382Y-37535825D01*
X136232572Y-37601635D01*
X136160656Y-37660655D01*
X136101636Y-37732571D01*
X136035825Y-37798382D01*
X135984118Y-37875767D01*
X135925098Y-37947683D01*
X135881242Y-38029731D01*
X135829534Y-38107118D01*
X135793917Y-38193105D01*
X135750062Y-38275152D01*
X135723056Y-38364178D01*
X135687439Y-38450166D01*
X135669282Y-38541450D01*
X135642276Y-38630476D01*
X135633157Y-38723061D01*
X135615000Y-38814344D01*
X135615000Y-39185656D01*
X135615001Y-39185661D01*
X135615000Y-41873000D01*
X125377000Y-41873000D01*
X125377000Y-39000000D01*
X125605881Y-39000000D01*
X125615000Y-39092589D01*
X125615000Y-39185656D01*
X125633156Y-39276931D01*
X125642275Y-39369524D01*
X125669283Y-39458557D01*
X125687439Y-39549834D01*
X125723055Y-39635820D01*
X125750062Y-39724848D01*
X125793917Y-39806895D01*
X125829534Y-39892882D01*
X125881242Y-39970269D01*
X125925098Y-40052317D01*
X125984119Y-40124234D01*
X126035825Y-40201618D01*
X126101632Y-40267425D01*
X126160655Y-40339345D01*
X126232575Y-40398368D01*
X126298382Y-40464175D01*
X126375766Y-40515881D01*
X126447683Y-40574902D01*
X126529731Y-40618758D01*
X126607118Y-40670466D01*
X126693105Y-40706083D01*
X126775152Y-40749938D01*
X126864180Y-40776945D01*
X126950166Y-40812561D01*
X127041443Y-40830717D01*
X127130476Y-40857725D01*
X127223069Y-40866844D01*
X127314344Y-40885000D01*
X127407411Y-40885000D01*
X127500000Y-40894119D01*
X127592589Y-40885000D01*
X127685656Y-40885000D01*
X127776931Y-40866844D01*
X127869524Y-40857725D01*
X127958557Y-40830717D01*
X128049834Y-40812561D01*
X128135820Y-40776945D01*
X128224848Y-40749938D01*
X128306895Y-40706083D01*
X128392882Y-40670466D01*
X128470269Y-40618758D01*
X128552317Y-40574902D01*
X128624234Y-40515881D01*
X128701618Y-40464175D01*
X128852188Y-40313605D01*
X131366000Y-40313605D01*
X131491914Y-40603577D01*
X131824126Y-40769433D01*
X132182312Y-40867290D01*
X132552706Y-40893389D01*
X132921075Y-40846725D01*
X133273262Y-40729094D01*
X133508086Y-40603577D01*
X133634000Y-40313605D01*
X132500000Y-39179605D01*
X131366000Y-40313605D01*
X128852188Y-40313605D01*
X128964175Y-40201618D01*
X128964177Y-40201615D01*
X130688805Y-38476987D01*
X130632710Y-38682312D01*
X130606611Y-39052706D01*
X130653275Y-39421075D01*
X130770906Y-39773262D01*
X130896423Y-40008086D01*
X131186395Y-40134000D01*
X132320395Y-39000000D01*
X132679605Y-39000000D01*
X133813605Y-40134000D01*
X134103577Y-40008086D01*
X134269433Y-39675874D01*
X134367290Y-39317688D01*
X134393389Y-38947294D01*
X134346725Y-38578925D01*
X134229094Y-38226738D01*
X134103577Y-37991914D01*
X133813605Y-37866000D01*
X132679605Y-39000000D01*
X132320395Y-39000000D01*
X132306253Y-38985858D01*
X132485858Y-38806253D01*
X132500000Y-38820395D01*
X133634000Y-37686395D01*
X133508086Y-37396423D01*
X133175874Y-37230567D01*
X132817688Y-37132710D01*
X132447294Y-37106611D01*
X132078925Y-37153275D01*
X131979214Y-37186579D01*
X132780793Y-36385000D01*
X160975014Y-36385000D01*
X167161979Y-39478483D01*
X167186509Y-39503013D01*
X167503434Y-39714775D01*
X167855581Y-39860639D01*
X168229419Y-39935000D01*
X168610581Y-39935000D01*
X168984419Y-39860639D01*
X169336566Y-39714775D01*
X169653491Y-39503013D01*
X169856504Y-39300000D01*
X171561928Y-39300000D01*
X171574188Y-39424482D01*
X171610498Y-39544180D01*
X171669463Y-39654494D01*
X171748815Y-39751185D01*
X171845506Y-39830537D01*
X171955820Y-39889502D01*
X172075518Y-39925812D01*
X172200000Y-39938072D01*
X173214250Y-39935000D01*
X173373000Y-39776250D01*
X173373000Y-38127000D01*
X173627000Y-38127000D01*
X173627000Y-39776250D01*
X173785750Y-39935000D01*
X174800000Y-39938072D01*
X174924482Y-39925812D01*
X175044180Y-39889502D01*
X175154494Y-39830537D01*
X175251185Y-39751185D01*
X175330537Y-39654494D01*
X175389502Y-39544180D01*
X175425812Y-39424482D01*
X175438072Y-39300000D01*
X175435000Y-38285750D01*
X175276250Y-38127000D01*
X173627000Y-38127000D01*
X173373000Y-38127000D01*
X171723750Y-38127000D01*
X171565000Y-38285750D01*
X171561928Y-39300000D01*
X169856504Y-39300000D01*
X169923013Y-39233491D01*
X170134775Y-38916566D01*
X170280639Y-38564419D01*
X170355000Y-38190581D01*
X170355000Y-37809419D01*
X170280639Y-37435581D01*
X170134775Y-37083434D01*
X169923013Y-36766509D01*
X169856504Y-36700000D01*
X171561928Y-36700000D01*
X171565000Y-37714250D01*
X171723750Y-37873000D01*
X173373000Y-37873000D01*
X173373000Y-36223750D01*
X173627000Y-36223750D01*
X173627000Y-37873000D01*
X175276250Y-37873000D01*
X175435000Y-37714250D01*
X175438072Y-36700000D01*
X175425812Y-36575518D01*
X175389502Y-36455820D01*
X175330537Y-36345506D01*
X175251185Y-36248815D01*
X175154494Y-36169463D01*
X175044180Y-36110498D01*
X174924482Y-36074188D01*
X174800000Y-36061928D01*
X173785750Y-36065000D01*
X173627000Y-36223750D01*
X173373000Y-36223750D01*
X173214250Y-36065000D01*
X172200000Y-36061928D01*
X172075518Y-36074188D01*
X171955820Y-36110498D01*
X171845506Y-36169463D01*
X171748815Y-36248815D01*
X171669463Y-36345506D01*
X171610498Y-36455820D01*
X171574188Y-36575518D01*
X171561928Y-36700000D01*
X169856504Y-36700000D01*
X169653491Y-36496987D01*
X169336566Y-36285225D01*
X168984419Y-36139361D01*
X168866996Y-36116004D01*
X165698655Y-34531834D01*
X179220222Y-34531834D01*
X179269823Y-34974039D01*
X179404371Y-35398188D01*
X179618741Y-35788125D01*
X179904768Y-36128998D01*
X180251556Y-36407823D01*
X180645897Y-36613979D01*
X181072771Y-36739615D01*
X181515917Y-36779944D01*
X181958458Y-36733432D01*
X182383536Y-36601848D01*
X182774960Y-36390206D01*
X183117821Y-36106566D01*
X183399060Y-35761733D01*
X183607965Y-35368840D01*
X183736578Y-34942854D01*
X183780000Y-34500000D01*
X183779111Y-34436339D01*
X183723341Y-33994869D01*
X183582884Y-33572640D01*
X183363090Y-33185734D01*
X183072333Y-32848888D01*
X182721685Y-32574932D01*
X182324504Y-32374302D01*
X181895918Y-32254638D01*
X181452251Y-32220500D01*
X181010403Y-32273187D01*
X180587204Y-32410693D01*
X180198773Y-32627780D01*
X179859905Y-32916179D01*
X179583508Y-33264905D01*
X179380110Y-33660676D01*
X179257457Y-34088416D01*
X179220222Y-34531834D01*
X165698655Y-34531834D01*
X162285959Y-32825487D01*
X162144848Y-32750061D01*
X162031188Y-32715583D01*
X161920287Y-32673145D01*
X161853944Y-32661817D01*
X161789524Y-32642275D01*
X161671325Y-32630633D01*
X161554272Y-32610646D01*
X161394390Y-32615000D01*
X132092588Y-32615000D01*
X131999999Y-32605881D01*
X131907410Y-32615000D01*
X131907403Y-32615000D01*
X131665732Y-32638803D01*
X131630475Y-32642275D01*
X131528711Y-32673145D01*
X131275152Y-32750061D01*
X130947683Y-32925097D01*
X130947681Y-32925098D01*
X130947682Y-32925098D01*
X130732579Y-33101628D01*
X130732577Y-33101630D01*
X130660655Y-33160655D01*
X130601630Y-33232577D01*
X126298385Y-37535823D01*
X126298382Y-37535825D01*
X126035825Y-37798382D01*
X125984119Y-37875766D01*
X125925098Y-37947683D01*
X125881242Y-38029731D01*
X125829534Y-38107118D01*
X125793917Y-38193105D01*
X125750062Y-38275152D01*
X125723055Y-38364180D01*
X125687439Y-38450166D01*
X125669283Y-38541443D01*
X125642275Y-38630476D01*
X125633156Y-38723069D01*
X125615000Y-38814344D01*
X125615000Y-38907411D01*
X125605881Y-39000000D01*
X125377000Y-39000000D01*
X125377000Y-30660000D01*
X185340000Y-30660000D01*
X185340000Y-41873000D01*
X185340000Y-41873000D01*
G37*
X185340000Y-41873000D02*
X139385000Y-41873000D01*
X139385000Y-38814344D01*
X139366845Y-38723071D01*
X139357725Y-38630476D01*
X139330717Y-38541441D01*
X139312561Y-38450166D01*
X139276947Y-38364187D01*
X139249939Y-38275152D01*
X139206080Y-38193097D01*
X139170466Y-38107118D01*
X139118763Y-38029739D01*
X139074903Y-37947683D01*
X139015878Y-37875761D01*
X138964175Y-37798382D01*
X138898370Y-37732577D01*
X138839345Y-37660655D01*
X138767423Y-37601630D01*
X138701618Y-37535825D01*
X138624239Y-37484122D01*
X138552317Y-37425097D01*
X138470261Y-37381237D01*
X138392882Y-37329534D01*
X138306903Y-37293920D01*
X138224848Y-37250061D01*
X138135813Y-37223053D01*
X138049834Y-37187439D01*
X137958559Y-37169283D01*
X137869524Y-37142275D01*
X137776929Y-37133155D01*
X137685656Y-37115000D01*
X137592597Y-37115000D01*
X137500000Y-37105880D01*
X137407403Y-37115000D01*
X137314344Y-37115000D01*
X137223071Y-37133155D01*
X137130477Y-37142275D01*
X137041444Y-37169283D01*
X136950166Y-37187439D01*
X136864184Y-37223054D01*
X136775153Y-37250061D01*
X136693101Y-37293919D01*
X136607118Y-37329534D01*
X136529735Y-37381240D01*
X136447684Y-37425097D01*
X136375766Y-37484119D01*
X136298382Y-37535825D01*
X136232572Y-37601635D01*
X136160656Y-37660655D01*
X136101636Y-37732571D01*
X136035825Y-37798382D01*
X135984118Y-37875767D01*
X135925098Y-37947683D01*
X135881242Y-38029731D01*
X135829534Y-38107118D01*
X135793917Y-38193105D01*
X135750062Y-38275152D01*
X135723056Y-38364178D01*
X135687439Y-38450166D01*
X135669282Y-38541450D01*
X135642276Y-38630476D01*
X135633157Y-38723061D01*
X135615000Y-38814344D01*
X135615000Y-39185656D01*
X135615001Y-39185661D01*
X135615000Y-41873000D01*
X125377000Y-41873000D01*
X125377000Y-39000000D01*
X125605881Y-39000000D01*
X125615000Y-39092589D01*
X125615000Y-39185656D01*
X125633156Y-39276931D01*
X125642275Y-39369524D01*
X125669283Y-39458557D01*
X125687439Y-39549834D01*
X125723055Y-39635820D01*
X125750062Y-39724848D01*
X125793917Y-39806895D01*
X125829534Y-39892882D01*
X125881242Y-39970269D01*
X125925098Y-40052317D01*
X125984119Y-40124234D01*
X126035825Y-40201618D01*
X126101632Y-40267425D01*
X126160655Y-40339345D01*
X126232575Y-40398368D01*
X126298382Y-40464175D01*
X126375766Y-40515881D01*
X126447683Y-40574902D01*
X126529731Y-40618758D01*
X126607118Y-40670466D01*
X126693105Y-40706083D01*
X126775152Y-40749938D01*
X126864180Y-40776945D01*
X126950166Y-40812561D01*
X127041443Y-40830717D01*
X127130476Y-40857725D01*
X127223069Y-40866844D01*
X127314344Y-40885000D01*
X127407411Y-40885000D01*
X127500000Y-40894119D01*
X127592589Y-40885000D01*
X127685656Y-40885000D01*
X127776931Y-40866844D01*
X127869524Y-40857725D01*
X127958557Y-40830717D01*
X128049834Y-40812561D01*
X128135820Y-40776945D01*
X128224848Y-40749938D01*
X128306895Y-40706083D01*
X128392882Y-40670466D01*
X128470269Y-40618758D01*
X128552317Y-40574902D01*
X128624234Y-40515881D01*
X128701618Y-40464175D01*
X128852188Y-40313605D01*
X131366000Y-40313605D01*
X131491914Y-40603577D01*
X131824126Y-40769433D01*
X132182312Y-40867290D01*
X132552706Y-40893389D01*
X132921075Y-40846725D01*
X133273262Y-40729094D01*
X133508086Y-40603577D01*
X133634000Y-40313605D01*
X132500000Y-39179605D01*
X131366000Y-40313605D01*
X128852188Y-40313605D01*
X128964175Y-40201618D01*
X128964177Y-40201615D01*
X130688805Y-38476987D01*
X130632710Y-38682312D01*
X130606611Y-39052706D01*
X130653275Y-39421075D01*
X130770906Y-39773262D01*
X130896423Y-40008086D01*
X131186395Y-40134000D01*
X132320395Y-39000000D01*
X132679605Y-39000000D01*
X133813605Y-40134000D01*
X134103577Y-40008086D01*
X134269433Y-39675874D01*
X134367290Y-39317688D01*
X134393389Y-38947294D01*
X134346725Y-38578925D01*
X134229094Y-38226738D01*
X134103577Y-37991914D01*
X133813605Y-37866000D01*
X132679605Y-39000000D01*
X132320395Y-39000000D01*
X132306253Y-38985858D01*
X132485858Y-38806253D01*
X132500000Y-38820395D01*
X133634000Y-37686395D01*
X133508086Y-37396423D01*
X133175874Y-37230567D01*
X132817688Y-37132710D01*
X132447294Y-37106611D01*
X132078925Y-37153275D01*
X131979214Y-37186579D01*
X132780793Y-36385000D01*
X160975014Y-36385000D01*
X167161979Y-39478483D01*
X167186509Y-39503013D01*
X167503434Y-39714775D01*
X167855581Y-39860639D01*
X168229419Y-39935000D01*
X168610581Y-39935000D01*
X168984419Y-39860639D01*
X169336566Y-39714775D01*
X169653491Y-39503013D01*
X169856504Y-39300000D01*
X171561928Y-39300000D01*
X171574188Y-39424482D01*
X171610498Y-39544180D01*
X171669463Y-39654494D01*
X171748815Y-39751185D01*
X171845506Y-39830537D01*
X171955820Y-39889502D01*
X172075518Y-39925812D01*
X172200000Y-39938072D01*
X173214250Y-39935000D01*
X173373000Y-39776250D01*
X173373000Y-38127000D01*
X173627000Y-38127000D01*
X173627000Y-39776250D01*
X173785750Y-39935000D01*
X174800000Y-39938072D01*
X174924482Y-39925812D01*
X175044180Y-39889502D01*
X175154494Y-39830537D01*
X175251185Y-39751185D01*
X175330537Y-39654494D01*
X175389502Y-39544180D01*
X175425812Y-39424482D01*
X175438072Y-39300000D01*
X175435000Y-38285750D01*
X175276250Y-38127000D01*
X173627000Y-38127000D01*
X173373000Y-38127000D01*
X171723750Y-38127000D01*
X171565000Y-38285750D01*
X171561928Y-39300000D01*
X169856504Y-39300000D01*
X169923013Y-39233491D01*
X170134775Y-38916566D01*
X170280639Y-38564419D01*
X170355000Y-38190581D01*
X170355000Y-37809419D01*
X170280639Y-37435581D01*
X170134775Y-37083434D01*
X169923013Y-36766509D01*
X169856504Y-36700000D01*
X171561928Y-36700000D01*
X171565000Y-37714250D01*
X171723750Y-37873000D01*
X173373000Y-37873000D01*
X173373000Y-36223750D01*
X173627000Y-36223750D01*
X173627000Y-37873000D01*
X175276250Y-37873000D01*
X175435000Y-37714250D01*
X175438072Y-36700000D01*
X175425812Y-36575518D01*
X175389502Y-36455820D01*
X175330537Y-36345506D01*
X175251185Y-36248815D01*
X175154494Y-36169463D01*
X175044180Y-36110498D01*
X174924482Y-36074188D01*
X174800000Y-36061928D01*
X173785750Y-36065000D01*
X173627000Y-36223750D01*
X173373000Y-36223750D01*
X173214250Y-36065000D01*
X172200000Y-36061928D01*
X172075518Y-36074188D01*
X171955820Y-36110498D01*
X171845506Y-36169463D01*
X171748815Y-36248815D01*
X171669463Y-36345506D01*
X171610498Y-36455820D01*
X171574188Y-36575518D01*
X171561928Y-36700000D01*
X169856504Y-36700000D01*
X169653491Y-36496987D01*
X169336566Y-36285225D01*
X168984419Y-36139361D01*
X168866996Y-36116004D01*
X165698655Y-34531834D01*
X179220222Y-34531834D01*
X179269823Y-34974039D01*
X179404371Y-35398188D01*
X179618741Y-35788125D01*
X179904768Y-36128998D01*
X180251556Y-36407823D01*
X180645897Y-36613979D01*
X181072771Y-36739615D01*
X181515917Y-36779944D01*
X181958458Y-36733432D01*
X182383536Y-36601848D01*
X182774960Y-36390206D01*
X183117821Y-36106566D01*
X183399060Y-35761733D01*
X183607965Y-35368840D01*
X183736578Y-34942854D01*
X183780000Y-34500000D01*
X183779111Y-34436339D01*
X183723341Y-33994869D01*
X183582884Y-33572640D01*
X183363090Y-33185734D01*
X183072333Y-32848888D01*
X182721685Y-32574932D01*
X182324504Y-32374302D01*
X181895918Y-32254638D01*
X181452251Y-32220500D01*
X181010403Y-32273187D01*
X180587204Y-32410693D01*
X180198773Y-32627780D01*
X179859905Y-32916179D01*
X179583508Y-33264905D01*
X179380110Y-33660676D01*
X179257457Y-34088416D01*
X179220222Y-34531834D01*
X165698655Y-34531834D01*
X162285959Y-32825487D01*
X162144848Y-32750061D01*
X162031188Y-32715583D01*
X161920287Y-32673145D01*
X161853944Y-32661817D01*
X161789524Y-32642275D01*
X161671325Y-32630633D01*
X161554272Y-32610646D01*
X161394390Y-32615000D01*
X132092588Y-32615000D01*
X131999999Y-32605881D01*
X131907410Y-32615000D01*
X131907403Y-32615000D01*
X131665732Y-32638803D01*
X131630475Y-32642275D01*
X131528711Y-32673145D01*
X131275152Y-32750061D01*
X130947683Y-32925097D01*
X130947681Y-32925098D01*
X130947682Y-32925098D01*
X130732579Y-33101628D01*
X130732577Y-33101630D01*
X130660655Y-33160655D01*
X130601630Y-33232577D01*
X126298385Y-37535823D01*
X126298382Y-37535825D01*
X126035825Y-37798382D01*
X125984119Y-37875766D01*
X125925098Y-37947683D01*
X125881242Y-38029731D01*
X125829534Y-38107118D01*
X125793917Y-38193105D01*
X125750062Y-38275152D01*
X125723055Y-38364180D01*
X125687439Y-38450166D01*
X125669283Y-38541443D01*
X125642275Y-38630476D01*
X125633156Y-38723069D01*
X125615000Y-38814344D01*
X125615000Y-38907411D01*
X125605881Y-39000000D01*
X125377000Y-39000000D01*
X125377000Y-30660000D01*
X185340000Y-30660000D01*
X185340000Y-41873000D01*
G36*
X124373000Y-37616248D02*
G01*
X124339502Y-37505820D01*
X124280537Y-37395506D01*
X124201185Y-37298815D01*
X124104494Y-37219463D01*
X123994180Y-37160498D01*
X123874482Y-37124188D01*
X123750000Y-37111928D01*
X122785750Y-37115000D01*
X122627000Y-37273750D01*
X122627000Y-38873000D01*
X122647000Y-38873000D01*
X122647000Y-39127000D01*
X122627000Y-39127000D01*
X122627000Y-40726250D01*
X122785750Y-40885000D01*
X123750000Y-40888072D01*
X123874482Y-40875812D01*
X123994180Y-40839502D01*
X124104494Y-40780537D01*
X124201185Y-40701185D01*
X124280537Y-40604494D01*
X124339502Y-40494180D01*
X124373000Y-40383752D01*
X124373000Y-43000000D01*
X124375440Y-43024776D01*
X124382667Y-43048601D01*
X124394403Y-43070557D01*
X124410197Y-43089803D01*
X124429443Y-43105597D01*
X124451399Y-43117333D01*
X124475224Y-43124560D01*
X124500000Y-43127000D01*
X134707207Y-43127000D01*
X115732577Y-62101631D01*
X115660656Y-62160655D01*
X115601631Y-62232577D01*
X115601628Y-62232580D01*
X115425098Y-62447683D01*
X115250062Y-62775152D01*
X115142275Y-63130476D01*
X115105881Y-63500000D01*
X115115001Y-63592599D01*
X115115001Y-65361928D01*
X115000000Y-65361928D01*
X114875518Y-65374188D01*
X114755820Y-65410498D01*
X114645506Y-65469463D01*
X114548815Y-65548815D01*
X114469463Y-65645506D01*
X114410498Y-65755820D01*
X114374188Y-65875518D01*
X114361928Y-66000000D01*
X114361928Y-70000000D01*
X114374188Y-70124482D01*
X114410498Y-70244180D01*
X114469463Y-70354494D01*
X114548815Y-70451185D01*
X114645506Y-70530537D01*
X114755820Y-70589502D01*
X114875518Y-70625812D01*
X115000000Y-70638072D01*
X119000000Y-70638072D01*
X119124482Y-70625812D01*
X119244180Y-70589502D01*
X119354494Y-70530537D01*
X119451185Y-70451185D01*
X119530537Y-70354494D01*
X119589502Y-70244180D01*
X119625812Y-70124482D01*
X119638072Y-70000000D01*
X119638072Y-69885000D01*
X139361928Y-69885000D01*
X139361928Y-70000000D01*
X139374188Y-70124482D01*
X139410498Y-70244180D01*
X139469463Y-70354494D01*
X139548815Y-70451185D01*
X139645506Y-70530537D01*
X139755820Y-70589502D01*
X139875518Y-70625812D01*
X140000000Y-70638072D01*
X144000000Y-70638072D01*
X144124482Y-70625812D01*
X144244180Y-70589502D01*
X144354494Y-70530537D01*
X144451185Y-70451185D01*
X144530537Y-70354494D01*
X144589502Y-70244180D01*
X144625812Y-70124482D01*
X144638072Y-70000000D01*
X144638072Y-69847499D01*
X150332106Y-69847499D01*
X150548228Y-70214258D01*
X151008105Y-70454938D01*
X151506098Y-70601275D01*
X152023071Y-70647648D01*
X152539159Y-70592273D01*
X153034526Y-70437279D01*
X153451772Y-70214258D01*
X153667894Y-69847499D01*
X152000000Y-68179605D01*
X150332106Y-69847499D01*
X144638072Y-69847499D01*
X144638072Y-68027720D01*
X144642721Y-68023071D01*
X149352352Y-68023071D01*
X149407727Y-68539159D01*
X149562721Y-69034526D01*
X149785742Y-69451772D01*
X150152501Y-69667894D01*
X151820395Y-68000000D01*
X152179605Y-68000000D01*
X153847499Y-69667894D01*
X154214258Y-69451772D01*
X154454938Y-68991895D01*
X154601275Y-68493902D01*
X154647648Y-67976929D01*
X154592273Y-67460841D01*
X154437279Y-66965474D01*
X154214258Y-66548228D01*
X153847499Y-66332106D01*
X152179605Y-68000000D01*
X151820395Y-68000000D01*
X150152501Y-66332106D01*
X149785742Y-66548228D01*
X149545062Y-67008105D01*
X149398725Y-67506098D01*
X149352352Y-68023071D01*
X144642721Y-68023071D01*
X146281715Y-66384078D01*
X146551888Y-66152501D01*
X150332106Y-66152501D01*
X152000000Y-67820395D01*
X153667894Y-66152501D01*
X153451772Y-65785742D01*
X152991895Y-65545062D01*
X152493902Y-65398725D01*
X151976929Y-65352352D01*
X151460841Y-65407727D01*
X150965474Y-65562721D01*
X150548228Y-65785742D01*
X150332106Y-66152501D01*
X146551888Y-66152501D01*
X149197307Y-63885000D01*
X173115000Y-63885000D01*
X173115001Y-65219206D01*
X167232582Y-71101626D01*
X167160655Y-71160655D01*
X166925097Y-71447683D01*
X166750061Y-71775153D01*
X166642275Y-72130477D01*
X166615000Y-72407404D01*
X166615000Y-72407411D01*
X166605881Y-72500000D01*
X166615000Y-72592589D01*
X166615001Y-76447396D01*
X166610498Y-76455820D01*
X166574188Y-76575518D01*
X166561928Y-76700000D01*
X166561928Y-79300000D01*
X166574188Y-79424482D01*
X166610498Y-79544180D01*
X166669463Y-79654494D01*
X166748815Y-79751185D01*
X166845506Y-79830537D01*
X166955820Y-79889502D01*
X167075518Y-79925812D01*
X167200000Y-79938072D01*
X169800000Y-79938072D01*
X169924482Y-79925812D01*
X170044180Y-79889502D01*
X170154494Y-79830537D01*
X170251185Y-79751185D01*
X170330537Y-79654494D01*
X170389502Y-79544180D01*
X170425812Y-79424482D01*
X170433224Y-79349224D01*
X172410381Y-79349224D01*
X172542317Y-79644312D01*
X172883045Y-79815159D01*
X173250557Y-79916250D01*
X173630729Y-79943701D01*
X174008951Y-79896457D01*
X174370690Y-79776333D01*
X174617683Y-79644312D01*
X174749619Y-79349224D01*
X173580000Y-78179605D01*
X172410381Y-79349224D01*
X170433224Y-79349224D01*
X170438072Y-79300000D01*
X170438072Y-78050729D01*
X171636299Y-78050729D01*
X171683543Y-78428951D01*
X171803667Y-78790690D01*
X171935688Y-79037683D01*
X172230776Y-79169619D01*
X173400395Y-78000000D01*
X173759605Y-78000000D01*
X174929224Y-79169619D01*
X175224312Y-79037683D01*
X175395159Y-78696955D01*
X175496250Y-78329443D01*
X175523701Y-77949271D01*
X175476457Y-77571049D01*
X175356333Y-77209310D01*
X175224312Y-76962317D01*
X174929224Y-76830381D01*
X173759605Y-78000000D01*
X173400395Y-78000000D01*
X172230776Y-76830381D01*
X171935688Y-76962317D01*
X171764841Y-77303045D01*
X171663750Y-77670557D01*
X171636299Y-78050729D01*
X170438072Y-78050729D01*
X170438072Y-76700000D01*
X170433225Y-76650776D01*
X172410381Y-76650776D01*
X173580000Y-77820395D01*
X174749619Y-76650776D01*
X174617683Y-76355688D01*
X174276955Y-76184841D01*
X173909443Y-76083750D01*
X173529271Y-76056299D01*
X173151049Y-76103543D01*
X172789310Y-76223667D01*
X172542317Y-76355688D01*
X172410381Y-76650776D01*
X170433225Y-76650776D01*
X170425812Y-76575518D01*
X170389502Y-76455820D01*
X170385000Y-76447397D01*
X170385000Y-73280792D01*
X176267423Y-67398370D01*
X176339345Y-67339345D01*
X176574903Y-67052317D01*
X176749939Y-66724848D01*
X176857725Y-66369524D01*
X176885000Y-66092597D01*
X176885000Y-66092588D01*
X176894119Y-66000001D01*
X176885000Y-65907414D01*
X176885000Y-62092597D01*
X176894120Y-62000000D01*
X176857725Y-61630476D01*
X176749939Y-61275152D01*
X176574903Y-60947683D01*
X176339345Y-60660655D01*
X176052317Y-60425097D01*
X175724848Y-60250061D01*
X175369524Y-60142275D01*
X175092597Y-60115000D01*
X175000000Y-60105880D01*
X174907403Y-60115000D01*
X148665300Y-60115000D01*
X148645272Y-60111460D01*
X148479888Y-60115000D01*
X148407403Y-60115000D01*
X148387276Y-60116982D01*
X148274045Y-60119406D01*
X148202947Y-60135137D01*
X148130476Y-60142275D01*
X148022086Y-60175155D01*
X147911500Y-60199623D01*
X147844839Y-60228922D01*
X147775152Y-60250061D01*
X147675256Y-60303456D01*
X147571571Y-60349028D01*
X147511906Y-60390769D01*
X147447683Y-60425097D01*
X147360128Y-60496951D01*
X147343562Y-60508541D01*
X147288549Y-60555695D01*
X147160655Y-60660655D01*
X147147750Y-60676380D01*
X143788581Y-63555669D01*
X143732579Y-63601628D01*
X143718284Y-63615923D01*
X143702954Y-63629063D01*
X143652901Y-63681306D01*
X141972280Y-65361928D01*
X140000000Y-65361928D01*
X139875518Y-65374188D01*
X139755820Y-65410498D01*
X139645506Y-65469463D01*
X139548815Y-65548815D01*
X139469463Y-65645506D01*
X139410498Y-65755820D01*
X139374188Y-65875518D01*
X139361928Y-66000000D01*
X139361928Y-66115000D01*
X119638072Y-66115000D01*
X119638072Y-66000000D01*
X119625812Y-65875518D01*
X119589502Y-65755820D01*
X119530537Y-65645506D01*
X119451185Y-65548815D01*
X119354494Y-65469463D01*
X119244180Y-65410498D01*
X119124482Y-65374188D01*
X119000000Y-65361928D01*
X118885000Y-65361928D01*
X118885000Y-64280792D01*
X130976752Y-52189040D01*
X173608091Y-52189040D01*
X173702930Y-52453881D01*
X173847615Y-52695131D01*
X174036586Y-52903519D01*
X174262580Y-53071037D01*
X174516913Y-53191246D01*
X174650961Y-53231904D01*
X174873000Y-53109915D01*
X174873000Y-51967000D01*
X175127000Y-51967000D01*
X175127000Y-53109915D01*
X175349039Y-53231904D01*
X175483087Y-53191246D01*
X175737420Y-53071037D01*
X175963414Y-52903519D01*
X176152385Y-52695131D01*
X176297070Y-52453881D01*
X176391909Y-52189040D01*
X176270624Y-51967000D01*
X175127000Y-51967000D01*
X174873000Y-51967000D01*
X173729376Y-51967000D01*
X173608091Y-52189040D01*
X130976752Y-52189040D01*
X131674832Y-51490960D01*
X173608091Y-51490960D01*
X173729376Y-51713000D01*
X174873000Y-51713000D01*
X174873000Y-50570085D01*
X175127000Y-50570085D01*
X175127000Y-51713000D01*
X176270624Y-51713000D01*
X176391909Y-51490960D01*
X176297070Y-51226119D01*
X176152385Y-50984869D01*
X175963414Y-50776481D01*
X175737420Y-50608963D01*
X175483087Y-50488754D01*
X175349039Y-50448096D01*
X175127000Y-50570085D01*
X174873000Y-50570085D01*
X174650961Y-50448096D01*
X174516913Y-50488754D01*
X174262580Y-50608963D01*
X174036586Y-50776481D01*
X173847615Y-50984869D01*
X173702930Y-51226119D01*
X173608091Y-51490960D01*
X131674832Y-51490960D01*
X138767423Y-44398370D01*
X138839345Y-44339345D01*
X139074903Y-44052317D01*
X139249939Y-43724848D01*
X139357725Y-43369524D01*
X139381612Y-43127000D01*
X185340000Y-43127000D01*
X185340001Y-85340000D01*
X90660000Y-85340000D01*
X90660000Y-81531834D01*
X92320222Y-81531834D01*
X92369823Y-81974039D01*
X92504371Y-82398188D01*
X92718741Y-82788125D01*
X93004768Y-83128998D01*
X93351556Y-83407823D01*
X93745897Y-83613979D01*
X94172771Y-83739615D01*
X94615917Y-83779944D01*
X95058458Y-83733432D01*
X95483536Y-83601848D01*
X95874960Y-83390206D01*
X96217821Y-83106566D01*
X96499060Y-82761733D01*
X96707965Y-82368840D01*
X96836578Y-81942854D01*
X96876878Y-81531834D01*
X179220222Y-81531834D01*
X179269823Y-81974039D01*
X179404371Y-82398188D01*
X179618741Y-82788125D01*
X179904768Y-83128998D01*
X180251556Y-83407823D01*
X180645897Y-83613979D01*
X181072771Y-83739615D01*
X181515917Y-83779944D01*
X181958458Y-83733432D01*
X182383536Y-83601848D01*
X182774960Y-83390206D01*
X183117821Y-83106566D01*
X183399060Y-82761733D01*
X183607965Y-82368840D01*
X183736578Y-81942854D01*
X183780000Y-81500000D01*
X183779111Y-81436339D01*
X183723341Y-80994869D01*
X183582884Y-80572640D01*
X183363090Y-80185734D01*
X183072333Y-79848888D01*
X182721685Y-79574932D01*
X182324504Y-79374302D01*
X181895918Y-79254638D01*
X181452251Y-79220500D01*
X181010403Y-79273187D01*
X180587204Y-79410693D01*
X180198773Y-79627780D01*
X179859905Y-79916179D01*
X179583508Y-80264905D01*
X179380110Y-80660676D01*
X179257457Y-81088416D01*
X179220222Y-81531834D01*
X96876878Y-81531834D01*
X96880000Y-81500000D01*
X96879111Y-81436339D01*
X96823341Y-80994869D01*
X96682884Y-80572640D01*
X96463090Y-80185734D01*
X96172333Y-79848888D01*
X95821685Y-79574932D01*
X95424504Y-79374302D01*
X94995918Y-79254638D01*
X94552251Y-79220500D01*
X94110403Y-79273187D01*
X93687204Y-79410693D01*
X93298773Y-79627780D01*
X92959905Y-79916179D01*
X92683508Y-80264905D01*
X92480110Y-80660676D01*
X92357457Y-81088416D01*
X92320222Y-81531834D01*
X90660000Y-81531834D01*
X90660000Y-69847499D01*
X105332106Y-69847499D01*
X105548228Y-70214258D01*
X106008105Y-70454938D01*
X106506098Y-70601275D01*
X107023071Y-70647648D01*
X107539159Y-70592273D01*
X108034526Y-70437279D01*
X108451772Y-70214258D01*
X108667894Y-69847499D01*
X107000000Y-68179605D01*
X105332106Y-69847499D01*
X90660000Y-69847499D01*
X90660000Y-68023071D01*
X104352352Y-68023071D01*
X104407727Y-68539159D01*
X104562721Y-69034526D01*
X104785742Y-69451772D01*
X105152501Y-69667894D01*
X106820395Y-68000000D01*
X107179605Y-68000000D01*
X108847499Y-69667894D01*
X109214258Y-69451772D01*
X109454938Y-68991895D01*
X109601275Y-68493902D01*
X109647648Y-67976929D01*
X109592273Y-67460841D01*
X109437279Y-66965474D01*
X109214258Y-66548228D01*
X108847499Y-66332106D01*
X107179605Y-68000000D01*
X106820395Y-68000000D01*
X105152501Y-66332106D01*
X104785742Y-66548228D01*
X104545062Y-67008105D01*
X104398725Y-67506098D01*
X104352352Y-68023071D01*
X90660000Y-68023071D01*
X90660000Y-66152501D01*
X105332106Y-66152501D01*
X107000000Y-67820395D01*
X108667894Y-66152501D01*
X108451772Y-65785742D01*
X107991895Y-65545062D01*
X107493902Y-65398725D01*
X106976929Y-65352352D01*
X106460841Y-65407727D01*
X105965474Y-65562721D01*
X105548228Y-65785742D01*
X105332106Y-66152501D01*
X90660000Y-66152501D01*
X90660000Y-40250000D01*
X120611928Y-40250000D01*
X120624188Y-40374482D01*
X120660498Y-40494180D01*
X120719463Y-40604494D01*
X120798815Y-40701185D01*
X120895506Y-40780537D01*
X121005820Y-40839502D01*
X121125518Y-40875812D01*
X121250000Y-40888072D01*
X122214250Y-40885000D01*
X122373000Y-40726250D01*
X122373000Y-39127000D01*
X120773750Y-39127000D01*
X120615000Y-39285750D01*
X120611928Y-40250000D01*
X90660000Y-40250000D01*
X90660000Y-37750000D01*
X120611928Y-37750000D01*
X120615000Y-38714250D01*
X120773750Y-38873000D01*
X122373000Y-38873000D01*
X122373000Y-37273750D01*
X122214250Y-37115000D01*
X121250000Y-37111928D01*
X121125518Y-37124188D01*
X121005820Y-37160498D01*
X120895506Y-37219463D01*
X120798815Y-37298815D01*
X120719463Y-37395506D01*
X120660498Y-37505820D01*
X120624188Y-37625518D01*
X120611928Y-37750000D01*
X90660000Y-37750000D01*
X90660000Y-34531834D01*
X92220222Y-34531834D01*
X92269823Y-34974039D01*
X92404371Y-35398188D01*
X92618741Y-35788125D01*
X92904768Y-36128998D01*
X93251556Y-36407823D01*
X93645897Y-36613979D01*
X94072771Y-36739615D01*
X94515917Y-36779944D01*
X94958458Y-36733432D01*
X95383536Y-36601848D01*
X95774960Y-36390206D01*
X96117821Y-36106566D01*
X96399060Y-35761733D01*
X96607965Y-35368840D01*
X96736578Y-34942854D01*
X96780000Y-34500000D01*
X96779111Y-34436339D01*
X96723341Y-33994869D01*
X96582884Y-33572640D01*
X96363090Y-33185734D01*
X96072333Y-32848888D01*
X95721685Y-32574932D01*
X95324504Y-32374302D01*
X94895918Y-32254638D01*
X94452251Y-32220500D01*
X94010403Y-32273187D01*
X93587204Y-32410693D01*
X93198773Y-32627780D01*
X92859905Y-32916179D01*
X92583508Y-33264905D01*
X92380110Y-33660676D01*
X92257457Y-34088416D01*
X92220222Y-34531834D01*
X90660000Y-34531834D01*
X90660000Y-30660000D01*
X124373000Y-30660000D01*
X124373000Y-37616248D01*
X124373000Y-37616248D01*
G37*
X124373000Y-37616248D02*
X124339502Y-37505820D01*
X124280537Y-37395506D01*
X124201185Y-37298815D01*
X124104494Y-37219463D01*
X123994180Y-37160498D01*
X123874482Y-37124188D01*
X123750000Y-37111928D01*
X122785750Y-37115000D01*
X122627000Y-37273750D01*
X122627000Y-38873000D01*
X122647000Y-38873000D01*
X122647000Y-39127000D01*
X122627000Y-39127000D01*
X122627000Y-40726250D01*
X122785750Y-40885000D01*
X123750000Y-40888072D01*
X123874482Y-40875812D01*
X123994180Y-40839502D01*
X124104494Y-40780537D01*
X124201185Y-40701185D01*
X124280537Y-40604494D01*
X124339502Y-40494180D01*
X124373000Y-40383752D01*
X124373000Y-43000000D01*
X124375440Y-43024776D01*
X124382667Y-43048601D01*
X124394403Y-43070557D01*
X124410197Y-43089803D01*
X124429443Y-43105597D01*
X124451399Y-43117333D01*
X124475224Y-43124560D01*
X124500000Y-43127000D01*
X134707207Y-43127000D01*
X115732577Y-62101631D01*
X115660656Y-62160655D01*
X115601631Y-62232577D01*
X115601628Y-62232580D01*
X115425098Y-62447683D01*
X115250062Y-62775152D01*
X115142275Y-63130476D01*
X115105881Y-63500000D01*
X115115001Y-63592599D01*
X115115001Y-65361928D01*
X115000000Y-65361928D01*
X114875518Y-65374188D01*
X114755820Y-65410498D01*
X114645506Y-65469463D01*
X114548815Y-65548815D01*
X114469463Y-65645506D01*
X114410498Y-65755820D01*
X114374188Y-65875518D01*
X114361928Y-66000000D01*
X114361928Y-70000000D01*
X114374188Y-70124482D01*
X114410498Y-70244180D01*
X114469463Y-70354494D01*
X114548815Y-70451185D01*
X114645506Y-70530537D01*
X114755820Y-70589502D01*
X114875518Y-70625812D01*
X115000000Y-70638072D01*
X119000000Y-70638072D01*
X119124482Y-70625812D01*
X119244180Y-70589502D01*
X119354494Y-70530537D01*
X119451185Y-70451185D01*
X119530537Y-70354494D01*
X119589502Y-70244180D01*
X119625812Y-70124482D01*
X119638072Y-70000000D01*
X119638072Y-69885000D01*
X139361928Y-69885000D01*
X139361928Y-70000000D01*
X139374188Y-70124482D01*
X139410498Y-70244180D01*
X139469463Y-70354494D01*
X139548815Y-70451185D01*
X139645506Y-70530537D01*
X139755820Y-70589502D01*
X139875518Y-70625812D01*
X140000000Y-70638072D01*
X144000000Y-70638072D01*
X144124482Y-70625812D01*
X144244180Y-70589502D01*
X144354494Y-70530537D01*
X144451185Y-70451185D01*
X144530537Y-70354494D01*
X144589502Y-70244180D01*
X144625812Y-70124482D01*
X144638072Y-70000000D01*
X144638072Y-69847499D01*
X150332106Y-69847499D01*
X150548228Y-70214258D01*
X151008105Y-70454938D01*
X151506098Y-70601275D01*
X152023071Y-70647648D01*
X152539159Y-70592273D01*
X153034526Y-70437279D01*
X153451772Y-70214258D01*
X153667894Y-69847499D01*
X152000000Y-68179605D01*
X150332106Y-69847499D01*
X144638072Y-69847499D01*
X144638072Y-68027720D01*
X144642721Y-68023071D01*
X149352352Y-68023071D01*
X149407727Y-68539159D01*
X149562721Y-69034526D01*
X149785742Y-69451772D01*
X150152501Y-69667894D01*
X151820395Y-68000000D01*
X152179605Y-68000000D01*
X153847499Y-69667894D01*
X154214258Y-69451772D01*
X154454938Y-68991895D01*
X154601275Y-68493902D01*
X154647648Y-67976929D01*
X154592273Y-67460841D01*
X154437279Y-66965474D01*
X154214258Y-66548228D01*
X153847499Y-66332106D01*
X152179605Y-68000000D01*
X151820395Y-68000000D01*
X150152501Y-66332106D01*
X149785742Y-66548228D01*
X149545062Y-67008105D01*
X149398725Y-67506098D01*
X149352352Y-68023071D01*
X144642721Y-68023071D01*
X146281715Y-66384078D01*
X146551888Y-66152501D01*
X150332106Y-66152501D01*
X152000000Y-67820395D01*
X153667894Y-66152501D01*
X153451772Y-65785742D01*
X152991895Y-65545062D01*
X152493902Y-65398725D01*
X151976929Y-65352352D01*
X151460841Y-65407727D01*
X150965474Y-65562721D01*
X150548228Y-65785742D01*
X150332106Y-66152501D01*
X146551888Y-66152501D01*
X149197307Y-63885000D01*
X173115000Y-63885000D01*
X173115001Y-65219206D01*
X167232582Y-71101626D01*
X167160655Y-71160655D01*
X166925097Y-71447683D01*
X166750061Y-71775153D01*
X166642275Y-72130477D01*
X166615000Y-72407404D01*
X166615000Y-72407411D01*
X166605881Y-72500000D01*
X166615000Y-72592589D01*
X166615001Y-76447396D01*
X166610498Y-76455820D01*
X166574188Y-76575518D01*
X166561928Y-76700000D01*
X166561928Y-79300000D01*
X166574188Y-79424482D01*
X166610498Y-79544180D01*
X166669463Y-79654494D01*
X166748815Y-79751185D01*
X166845506Y-79830537D01*
X166955820Y-79889502D01*
X167075518Y-79925812D01*
X167200000Y-79938072D01*
X169800000Y-79938072D01*
X169924482Y-79925812D01*
X170044180Y-79889502D01*
X170154494Y-79830537D01*
X170251185Y-79751185D01*
X170330537Y-79654494D01*
X170389502Y-79544180D01*
X170425812Y-79424482D01*
X170433224Y-79349224D01*
X172410381Y-79349224D01*
X172542317Y-79644312D01*
X172883045Y-79815159D01*
X173250557Y-79916250D01*
X173630729Y-79943701D01*
X174008951Y-79896457D01*
X174370690Y-79776333D01*
X174617683Y-79644312D01*
X174749619Y-79349224D01*
X173580000Y-78179605D01*
X172410381Y-79349224D01*
X170433224Y-79349224D01*
X170438072Y-79300000D01*
X170438072Y-78050729D01*
X171636299Y-78050729D01*
X171683543Y-78428951D01*
X171803667Y-78790690D01*
X171935688Y-79037683D01*
X172230776Y-79169619D01*
X173400395Y-78000000D01*
X173759605Y-78000000D01*
X174929224Y-79169619D01*
X175224312Y-79037683D01*
X175395159Y-78696955D01*
X175496250Y-78329443D01*
X175523701Y-77949271D01*
X175476457Y-77571049D01*
X175356333Y-77209310D01*
X175224312Y-76962317D01*
X174929224Y-76830381D01*
X173759605Y-78000000D01*
X173400395Y-78000000D01*
X172230776Y-76830381D01*
X171935688Y-76962317D01*
X171764841Y-77303045D01*
X171663750Y-77670557D01*
X171636299Y-78050729D01*
X170438072Y-78050729D01*
X170438072Y-76700000D01*
X170433225Y-76650776D01*
X172410381Y-76650776D01*
X173580000Y-77820395D01*
X174749619Y-76650776D01*
X174617683Y-76355688D01*
X174276955Y-76184841D01*
X173909443Y-76083750D01*
X173529271Y-76056299D01*
X173151049Y-76103543D01*
X172789310Y-76223667D01*
X172542317Y-76355688D01*
X172410381Y-76650776D01*
X170433225Y-76650776D01*
X170425812Y-76575518D01*
X170389502Y-76455820D01*
X170385000Y-76447397D01*
X170385000Y-73280792D01*
X176267423Y-67398370D01*
X176339345Y-67339345D01*
X176574903Y-67052317D01*
X176749939Y-66724848D01*
X176857725Y-66369524D01*
X176885000Y-66092597D01*
X176885000Y-66092588D01*
X176894119Y-66000001D01*
X176885000Y-65907414D01*
X176885000Y-62092597D01*
X176894120Y-62000000D01*
X176857725Y-61630476D01*
X176749939Y-61275152D01*
X176574903Y-60947683D01*
X176339345Y-60660655D01*
X176052317Y-60425097D01*
X175724848Y-60250061D01*
X175369524Y-60142275D01*
X175092597Y-60115000D01*
X175000000Y-60105880D01*
X174907403Y-60115000D01*
X148665300Y-60115000D01*
X148645272Y-60111460D01*
X148479888Y-60115000D01*
X148407403Y-60115000D01*
X148387276Y-60116982D01*
X148274045Y-60119406D01*
X148202947Y-60135137D01*
X148130476Y-60142275D01*
X148022086Y-60175155D01*
X147911500Y-60199623D01*
X147844839Y-60228922D01*
X147775152Y-60250061D01*
X147675256Y-60303456D01*
X147571571Y-60349028D01*
X147511906Y-60390769D01*
X147447683Y-60425097D01*
X147360128Y-60496951D01*
X147343562Y-60508541D01*
X147288549Y-60555695D01*
X147160655Y-60660655D01*
X147147750Y-60676380D01*
X143788581Y-63555669D01*
X143732579Y-63601628D01*
X143718284Y-63615923D01*
X143702954Y-63629063D01*
X143652901Y-63681306D01*
X141972280Y-65361928D01*
X140000000Y-65361928D01*
X139875518Y-65374188D01*
X139755820Y-65410498D01*
X139645506Y-65469463D01*
X139548815Y-65548815D01*
X139469463Y-65645506D01*
X139410498Y-65755820D01*
X139374188Y-65875518D01*
X139361928Y-66000000D01*
X139361928Y-66115000D01*
X119638072Y-66115000D01*
X119638072Y-66000000D01*
X119625812Y-65875518D01*
X119589502Y-65755820D01*
X119530537Y-65645506D01*
X119451185Y-65548815D01*
X119354494Y-65469463D01*
X119244180Y-65410498D01*
X119124482Y-65374188D01*
X119000000Y-65361928D01*
X118885000Y-65361928D01*
X118885000Y-64280792D01*
X130976752Y-52189040D01*
X173608091Y-52189040D01*
X173702930Y-52453881D01*
X173847615Y-52695131D01*
X174036586Y-52903519D01*
X174262580Y-53071037D01*
X174516913Y-53191246D01*
X174650961Y-53231904D01*
X174873000Y-53109915D01*
X174873000Y-51967000D01*
X175127000Y-51967000D01*
X175127000Y-53109915D01*
X175349039Y-53231904D01*
X175483087Y-53191246D01*
X175737420Y-53071037D01*
X175963414Y-52903519D01*
X176152385Y-52695131D01*
X176297070Y-52453881D01*
X176391909Y-52189040D01*
X176270624Y-51967000D01*
X175127000Y-51967000D01*
X174873000Y-51967000D01*
X173729376Y-51967000D01*
X173608091Y-52189040D01*
X130976752Y-52189040D01*
X131674832Y-51490960D01*
X173608091Y-51490960D01*
X173729376Y-51713000D01*
X174873000Y-51713000D01*
X174873000Y-50570085D01*
X175127000Y-50570085D01*
X175127000Y-51713000D01*
X176270624Y-51713000D01*
X176391909Y-51490960D01*
X176297070Y-51226119D01*
X176152385Y-50984869D01*
X175963414Y-50776481D01*
X175737420Y-50608963D01*
X175483087Y-50488754D01*
X175349039Y-50448096D01*
X175127000Y-50570085D01*
X174873000Y-50570085D01*
X174650961Y-50448096D01*
X174516913Y-50488754D01*
X174262580Y-50608963D01*
X174036586Y-50776481D01*
X173847615Y-50984869D01*
X173702930Y-51226119D01*
X173608091Y-51490960D01*
X131674832Y-51490960D01*
X138767423Y-44398370D01*
X138839345Y-44339345D01*
X139074903Y-44052317D01*
X139249939Y-43724848D01*
X139357725Y-43369524D01*
X139381612Y-43127000D01*
X185340000Y-43127000D01*
X185340001Y-85340000D01*
X90660000Y-85340000D01*
X90660000Y-81531834D01*
X92320222Y-81531834D01*
X92369823Y-81974039D01*
X92504371Y-82398188D01*
X92718741Y-82788125D01*
X93004768Y-83128998D01*
X93351556Y-83407823D01*
X93745897Y-83613979D01*
X94172771Y-83739615D01*
X94615917Y-83779944D01*
X95058458Y-83733432D01*
X95483536Y-83601848D01*
X95874960Y-83390206D01*
X96217821Y-83106566D01*
X96499060Y-82761733D01*
X96707965Y-82368840D01*
X96836578Y-81942854D01*
X96876878Y-81531834D01*
X179220222Y-81531834D01*
X179269823Y-81974039D01*
X179404371Y-82398188D01*
X179618741Y-82788125D01*
X179904768Y-83128998D01*
X180251556Y-83407823D01*
X180645897Y-83613979D01*
X181072771Y-83739615D01*
X181515917Y-83779944D01*
X181958458Y-83733432D01*
X182383536Y-83601848D01*
X182774960Y-83390206D01*
X183117821Y-83106566D01*
X183399060Y-82761733D01*
X183607965Y-82368840D01*
X183736578Y-81942854D01*
X183780000Y-81500000D01*
X183779111Y-81436339D01*
X183723341Y-80994869D01*
X183582884Y-80572640D01*
X183363090Y-80185734D01*
X183072333Y-79848888D01*
X182721685Y-79574932D01*
X182324504Y-79374302D01*
X181895918Y-79254638D01*
X181452251Y-79220500D01*
X181010403Y-79273187D01*
X180587204Y-79410693D01*
X180198773Y-79627780D01*
X179859905Y-79916179D01*
X179583508Y-80264905D01*
X179380110Y-80660676D01*
X179257457Y-81088416D01*
X179220222Y-81531834D01*
X96876878Y-81531834D01*
X96880000Y-81500000D01*
X96879111Y-81436339D01*
X96823341Y-80994869D01*
X96682884Y-80572640D01*
X96463090Y-80185734D01*
X96172333Y-79848888D01*
X95821685Y-79574932D01*
X95424504Y-79374302D01*
X94995918Y-79254638D01*
X94552251Y-79220500D01*
X94110403Y-79273187D01*
X93687204Y-79410693D01*
X93298773Y-79627780D01*
X92959905Y-79916179D01*
X92683508Y-80264905D01*
X92480110Y-80660676D01*
X92357457Y-81088416D01*
X92320222Y-81531834D01*
X90660000Y-81531834D01*
X90660000Y-69847499D01*
X105332106Y-69847499D01*
X105548228Y-70214258D01*
X106008105Y-70454938D01*
X106506098Y-70601275D01*
X107023071Y-70647648D01*
X107539159Y-70592273D01*
X108034526Y-70437279D01*
X108451772Y-70214258D01*
X108667894Y-69847499D01*
X107000000Y-68179605D01*
X105332106Y-69847499D01*
X90660000Y-69847499D01*
X90660000Y-68023071D01*
X104352352Y-68023071D01*
X104407727Y-68539159D01*
X104562721Y-69034526D01*
X104785742Y-69451772D01*
X105152501Y-69667894D01*
X106820395Y-68000000D01*
X107179605Y-68000000D01*
X108847499Y-69667894D01*
X109214258Y-69451772D01*
X109454938Y-68991895D01*
X109601275Y-68493902D01*
X109647648Y-67976929D01*
X109592273Y-67460841D01*
X109437279Y-66965474D01*
X109214258Y-66548228D01*
X108847499Y-66332106D01*
X107179605Y-68000000D01*
X106820395Y-68000000D01*
X105152501Y-66332106D01*
X104785742Y-66548228D01*
X104545062Y-67008105D01*
X104398725Y-67506098D01*
X104352352Y-68023071D01*
X90660000Y-68023071D01*
X90660000Y-66152501D01*
X105332106Y-66152501D01*
X107000000Y-67820395D01*
X108667894Y-66152501D01*
X108451772Y-65785742D01*
X107991895Y-65545062D01*
X107493902Y-65398725D01*
X106976929Y-65352352D01*
X106460841Y-65407727D01*
X105965474Y-65562721D01*
X105548228Y-65785742D01*
X105332106Y-66152501D01*
X90660000Y-66152501D01*
X90660000Y-40250000D01*
X120611928Y-40250000D01*
X120624188Y-40374482D01*
X120660498Y-40494180D01*
X120719463Y-40604494D01*
X120798815Y-40701185D01*
X120895506Y-40780537D01*
X121005820Y-40839502D01*
X121125518Y-40875812D01*
X121250000Y-40888072D01*
X122214250Y-40885000D01*
X122373000Y-40726250D01*
X122373000Y-39127000D01*
X120773750Y-39127000D01*
X120615000Y-39285750D01*
X120611928Y-40250000D01*
X90660000Y-40250000D01*
X90660000Y-37750000D01*
X120611928Y-37750000D01*
X120615000Y-38714250D01*
X120773750Y-38873000D01*
X122373000Y-38873000D01*
X122373000Y-37273750D01*
X122214250Y-37115000D01*
X121250000Y-37111928D01*
X121125518Y-37124188D01*
X121005820Y-37160498D01*
X120895506Y-37219463D01*
X120798815Y-37298815D01*
X120719463Y-37395506D01*
X120660498Y-37505820D01*
X120624188Y-37625518D01*
X120611928Y-37750000D01*
X90660000Y-37750000D01*
X90660000Y-34531834D01*
X92220222Y-34531834D01*
X92269823Y-34974039D01*
X92404371Y-35398188D01*
X92618741Y-35788125D01*
X92904768Y-36128998D01*
X93251556Y-36407823D01*
X93645897Y-36613979D01*
X94072771Y-36739615D01*
X94515917Y-36779944D01*
X94958458Y-36733432D01*
X95383536Y-36601848D01*
X95774960Y-36390206D01*
X96117821Y-36106566D01*
X96399060Y-35761733D01*
X96607965Y-35368840D01*
X96736578Y-34942854D01*
X96780000Y-34500000D01*
X96779111Y-34436339D01*
X96723341Y-33994869D01*
X96582884Y-33572640D01*
X96363090Y-33185734D01*
X96072333Y-32848888D01*
X95721685Y-32574932D01*
X95324504Y-32374302D01*
X94895918Y-32254638D01*
X94452251Y-32220500D01*
X94010403Y-32273187D01*
X93587204Y-32410693D01*
X93198773Y-32627780D01*
X92859905Y-32916179D01*
X92583508Y-33264905D01*
X92380110Y-33660676D01*
X92257457Y-34088416D01*
X92220222Y-34531834D01*
X90660000Y-34531834D01*
X90660000Y-30660000D01*
X124373000Y-30660000D01*
X124373000Y-37616248D01*
M02*
