M48
; DRILL file {KiCad (5.1.0-0)} date Saturday, 08 June 2019 at 23:36:07
; FORMAT={-:-/ absolute / inch / decimal}
; #@! TF.CreationDate,2019-06-08T23:36:07+01:00
; #@! TF.GenerationSoftware,Kicad,Pcbnew,(5.1.0-0)
; #@! TF.FileFunction,Plated,1,2,PTH
FMAT,2
INCH
T1C0.0157
T2C0.0315
T3C0.0512
T4C0.0591
T5C0.0787
%
G90
G05
T1
X3.7402Y-2.0669
X3.7402Y-2.1654
X3.7402Y-2.2638
X3.8386Y-1.9882
X3.8386Y-2.0866
X3.8386Y-2.185
X3.937Y-2.0276
X3.937Y-2.126
X4.0354Y-2.0669
X4.1339Y-2.0079
X4.5472Y-1.8307
X4.6063Y-1.9094
X4.6654Y-1.8307
X4.7047Y-2.0079
X4.7244Y-1.9094
X4.7835Y-1.8307
X4.8228Y-2.0079
X4.8425Y-1.9094
X4.8819Y-3.248
X4.9016Y-1.8307
X4.9606Y-3.1496
X4.9803Y-1.2402
X4.9803Y-1.9094
X5.0Y-3.248
X5.0394Y-1.8307
X5.1181Y-3.0512
X5.1181Y-3.1496
X5.1181Y-3.248
X5.1772Y-1.2402
X5.2165Y-2.1457
X5.2165Y-2.2343
X5.2165Y-3.248
X5.2756Y-2.0965
X5.2756Y-3.1496
X5.2953Y-2.1752
X5.3346Y-1.2402
X5.3346Y-3.248
X5.3543Y-2.0472
X5.3642Y-2.126
X5.4232Y-1.9882
X5.4429Y-2.0768
X5.4921Y-1.2402
X5.5118Y-1.939
X5.5217Y-2.0276
X5.6102Y-1.9783
X5.6299Y-1.5157
X5.6496Y-1.2402
X5.8071Y-1.2402
X5.9646Y-1.2402
X6.122Y-1.2402
X6.2205Y-2.0276
X6.2795Y-1.2402
X6.2795Y-3.2283
X6.2992Y-2.1063
X6.3189Y-2.0276
X6.3386Y-1.5551
X6.3583Y-1.4764
X6.378Y-2.2047
X6.3976Y-2.1063
X6.3976Y-3.1102
X6.3976Y-3.2283
X6.437Y-1.2402
X6.437Y-1.5748
X6.4764Y-2.2047
X6.4764Y-2.3031
X6.4961Y-2.0276
X6.5945Y-1.2402
X6.6043Y-2.0276
X6.6043Y-2.1063
X6.6634Y-2.185
X6.7028Y-2.0276
X6.7028Y-2.1063
X6.752Y-1.2402
X6.7717Y-1.9094
X6.8406Y-1.8504
X6.9094Y-1.2402
X6.9094Y-1.9094
X6.9685Y-1.8406
X7.0276Y-1.9094
T2
X6.8898Y-2.0409
X6.8898Y-2.4409
T3
X6.6307Y-1.4961
X6.8307Y-1.4961
X6.6339Y-3.0709
X6.8339Y-3.0709
T4
X4.8228Y-1.5354
X5.0197Y-1.5354
X5.2165Y-1.5354
X5.4134Y-1.5354
T5
X4.2126Y-2.6772
X4.6063Y-2.6772
X5.5906Y-2.6772
X5.9843Y-2.6772
T0
M30
